<svg xmlns:inkscape="http://www.inkscape.org/namespaces/inkscape" xmlns:sodipodi="http://sodipodi.sourceforge.net/DTD/sodipodi-0.dtd" xmlns="http://www.w3.org/2000/svg" xmlns:svg="http://www.w3.org/2000/svg" xmlns:rdf="http://www.w3.org/1999/02/22-rdf-syntax-ns#" xmlns:cc="http://creativecommons.org/ns#" xmlns:dc="http://purl.org/dc/elements/1.1/" width="49mm" height="35mm" viewBox="0 0 49 35" version="1.1" id="svg5" inkscape:version="1.1 (c68e22c387, 2021-05-23)" sodipodi:docname="input.svg">
  <metadata id="metadata149">
    <rdf:RDF>
      <cc:Work rdf:about="">
        <dc:format>image/svg+xml</dc:format>
        <dc:type rdf:resource="http://purl.org/dc/dcmitype/StillImage"/>
      </cc:Work>
    </rdf:RDF>
  </metadata>
  <sodipodi:namedview id="namedview7" pagecolor="#333333" bordercolor="#eeeeee" borderopacity="0" inkscape:pageshadow="0" inkscape:pageopacity="0" inkscape:pagecheckerboard="true" inkscape:document-units="mm" showgrid="true" fit-margin-top="0" fit-margin-left="0" fit-margin-right="0" fit-margin-bottom="0" inkscape:zoom="4" inkscape:cx="107.875" inkscape:cy="101.25" inkscape:window-width="1902" inkscape:window-height="991" inkscape:window-x="0" inkscape:window-y="0" inkscape:window-maximized="0" inkscape:current-layer="layer_ss_bot" inkscape:document-rotation="0" inkscape:snap-object-midpoints="true" inkscape:object-nodes="true" inkscape:snap-bbox="true" inkscape:bbox-nodes="true" inkscape:bbox-paths="false" inkscape:object-paths="false" inkscape:showpageshadow="false" showborder="false">
    <inkscape:grid type="xygrid" id="grid1147" units="mm" spacingx="1" spacingy="1" empspacing="5" originy="0" originx="0"/>
  </sodipodi:namedview>
  <defs id="defs2"/>
  <g inkscape:label="Dimension" inkscape:groupmode="layer" id="layer1" style="display:inline">
    <path id="path1480" style="fill:none;stroke-width:0.02;stroke-linecap:round;stroke:#ffff00;stroke-miterlimit:4;stroke-dasharray:none" d="M 15.117188,0 A 15.11811,15.11811 0 0 0 0,15.117188 V 81.638672 H 7.5585938 V 122.45703 H 0 v 3.7793 h 7.5585938 v 6.04687 H 177.63867 v -6.04687 h 7.5586 v -3.7793 h -7.5586 V 81.638672 h 7.5586 V 15.117188 A 15.11811,15.11811 0 0 0 170.07812,0 Z" flap="True" transform="scale(0.264583, 0.264583)"/>
  </g>
  <g id="layer_ss_bot" inkscape:groupmode="layer" inkscape:label="bPlace">
    <path id="path832" style="font-size:80px;font-family:'Red Hat Mono';stroke-width:0;fill:#5f5fd3" d="M 92.597656 21.240234 C 86.953562 21.240234 82.21664 23.156407 78.386719 26.986328 C 74.758372 30.816249 72.945312 35.452012 72.945312 40.894531 C 72.945312 46.337051 74.758372 50.972813 78.386719 54.802734 C 82.21664 58.632656 86.953562 60.548828 92.597656 60.548828 C 98.241751 60.548828 102.87947 58.632656 106.50781 54.802734 C 110.33773 50.972813 112.25195 46.337051 112.25195 40.894531 C 112.25195 35.452012 110.33773 30.816249 106.50781 26.986328 C 102.87947 23.156407 98.241751 21.240234 92.597656 21.240234 z M 83.830078 88.970703 L 83.068359 132.2832 L 101.82617 132.2832 L 101.06445 88.970703 L 83.830078 88.970703 z " transform="scale(0.26458333)"/>
  </g>
  <g id="layer_ss_top" inkscape:groupmode="layer" inkscape:label="tPlace">
    <path id="path835" style="font-size:80px;font-family:'Red Hat Mono';stroke-width:0;fill:#ff5599" d="M 85.341797 22.677734 L 85.341797 49.587891 C 73.247309 50.192615 62.664616 52.812998 53.59375 57.449219 C 44.724459 61.883864 37.769839 67.830795 32.730469 75.289062 C 27.892673 82.74733 25.474609 91.41385 25.474609 101.29102 C 25.474609 109.15243 27.18651 116.40858 30.613281 123.06055 C 32.269767 126.27608 34.544639 129.35029 37.425781 132.2832 L 77.287109 132.2832 C 65.984206 128.37034 58.184075 124.18883 53.896484 119.73633 C 48.655539 114.09223 46.035156 107.43914 46.035156 99.779297 C 46.035156 90.910006 49.562069 83.552701 56.617188 77.707031 C 63.672306 71.861362 73.247309 68.635974 85.341797 68.03125 L 85.341797 132.2832 L 101.66992 132.2832 L 101.66992 69.240234 C 109.32976 70.449683 116.78823 72.768541 124.04492 76.195312 C 131.50319 79.622084 138.65818 84.156687 145.51172 89.800781 L 156.69922 74.078125 C 148.63623 67.627731 139.86855 62.386965 130.39453 58.355469 C 121.12209 54.122398 111.54709 51.400855 101.66992 50.191406 L 101.66992 22.677734 L 85.341797 22.677734 z " transform="scale(0.26458333)"/>
  </g>
</svg>