<svg xmlns:inkscape="http://www.inkscape.org/namespaces/inkscape" xmlns:sodipodi="http://sodipodi.sourceforge.net/DTD/sodipodi-0.dtd" xmlns="http://www.w3.org/2000/svg" xmlns:svg="http://www.w3.org/2000/svg" xmlns:rdf="http://www.w3.org/1999/02/22-rdf-syntax-ns#" xmlns:cc="http://creativecommons.org/ns#" xmlns:dc="http://purl.org/dc/elements/1.1/" width="49mm" height="35mm" viewBox="0 0 49 35" version="1.1" id="svg5" inkscape:version="1.1 (c68e22c387, 2021-05-23)" sodipodi:docname="input.svg">
  <metadata id="metadata149">
    <rdf:RDF>
      <cc:Work rdf:about="">
        <dc:format>image/svg+xml</dc:format>
        <dc:type rdf:resource="http://purl.org/dc/dcmitype/StillImage"/>
      </cc:Work>
    </rdf:RDF>
  </metadata>
  <sodipodi:namedview id="namedview7" pagecolor="#333333" bordercolor="#eeeeee" borderopacity="0" inkscape:pageshadow="0" inkscape:pageopacity="0" inkscape:pagecheckerboard="true" inkscape:document-units="mm" showgrid="true" fit-margin-top="0" fit-margin-left="0" fit-margin-right="0" fit-margin-bottom="0" inkscape:zoom="4" inkscape:cx="107.875" inkscape:cy="101.25" inkscape:window-width="1902" inkscape:window-height="991" inkscape:window-x="0" inkscape:window-y="0" inkscape:window-maximized="0" inkscape:current-layer="layer_ss_bot" inkscape:document-rotation="0" inkscape:snap-object-midpoints="true" inkscape:object-nodes="true" inkscape:snap-bbox="true" inkscape:bbox-nodes="true" inkscape:bbox-paths="false" inkscape:object-paths="false" inkscape:showpageshadow="false" showborder="false">
    <inkscape:grid type="xygrid" id="grid1147" units="mm" spacingx="1" spacingy="1" empspacing="5" originy="0" originx="0"/>
  </sodipodi:namedview>
  <defs id="defs2"/>
  <g inkscape:label="Dimension" inkscape:groupmode="layer" id="layer1" style="display:inline">
    <path id="path1480" style="fill:none;stroke-width:0.02;stroke-linecap:round;stroke:#ffff00;stroke-miterlimit:4;stroke-dasharray:none" d="M 15.117188,0 A 15.11811,15.11811 0 0 0 0,15.117188 V 81.638672 H 7.5585938 V 122.45703 H 0 v 3.7793 h 7.5585938 v 6.04687 H 177.63867 v -6.04687 h 7.5586 v -3.7793 h -7.5586 V 81.638672 h 7.5586 V 15.117188 A 15.11811,15.11811 0 0 0 170.07812,0 Z" flap="True" transform="scale(0.264583, 0.264583)"/>
  </g>
  <g id="layer_ss_bot" inkscape:groupmode="layer" inkscape:label="bPlace">
    <path id="path832" style="font-size:80px;font-family:'Red Hat Mono';stroke-width:0;fill:#5f5fd3" d="M 9.1464844 32.126953 L 73.613281 132.2832 L 111.56641 132.2832 L 176.05078 32.126953 L 149.14062 32.126953 L 92.296875 122.83398 L 35.150391 32.126953 L 9.1464844 32.126953 z " transform="scale(0.26458333)"/>
  </g>
  <g id="layer_ss_top" inkscape:groupmode="layer" inkscape:label="tPlace">
    <path id="path835" style="font-size:80px;font-family:'Red Hat Mono';stroke-width:0;fill:#ff5599" d="M 9.4492188 22.677734 L 22.757812 132.2832 L 43.171875 132.2832 L 31.21875 22.677734 L 9.4492188 22.677734 z M 82.621094 22.677734 L 60.132812 132.2832 L 78.126953 132.2832 L 92.900391 60.169922 L 107.54883 132.2832 L 126.05469 132.2832 L 103.48438 22.677734 L 82.621094 22.677734 z M 154.88477 22.677734 L 142.88672 132.2832 L 162.5957 132.2832 L 175.74805 22.677734 L 154.88477 22.677734 z " transform="scale(0.26458333)"/>
  </g>
</svg>