<svg xmlns:inkscape="http://www.inkscape.org/namespaces/inkscape" xmlns:sodipodi="http://sodipodi.sourceforge.net/DTD/sodipodi-0.dtd" xmlns="http://www.w3.org/2000/svg" xmlns:svg="http://www.w3.org/2000/svg" xmlns:rdf="http://www.w3.org/1999/02/22-rdf-syntax-ns#" xmlns:cc="http://creativecommons.org/ns#" xmlns:dc="http://purl.org/dc/elements/1.1/" width="49mm" height="35mm" viewBox="0 0 49 35" version="1.1" id="svg5" inkscape:version="1.1 (c68e22c387, 2021-05-23)" sodipodi:docname="input.svg">
  <metadata id="metadata149">
    <rdf:RDF>
      <cc:Work rdf:about="">
        <dc:format>image/svg+xml</dc:format>
        <dc:type rdf:resource="http://purl.org/dc/dcmitype/StillImage"/>
      </cc:Work>
    </rdf:RDF>
  </metadata>
  <sodipodi:namedview id="namedview7" pagecolor="#333333" bordercolor="#eeeeee" borderopacity="0" inkscape:pageshadow="0" inkscape:pageopacity="0" inkscape:pagecheckerboard="true" inkscape:document-units="mm" showgrid="true" fit-margin-top="0" fit-margin-left="0" fit-margin-right="0" fit-margin-bottom="0" inkscape:zoom="4" inkscape:cx="107.875" inkscape:cy="101.25" inkscape:window-width="1902" inkscape:window-height="991" inkscape:window-x="0" inkscape:window-y="0" inkscape:window-maximized="0" inkscape:current-layer="layer_ss_top" inkscape:document-rotation="0" inkscape:snap-object-midpoints="true" inkscape:object-nodes="true" inkscape:snap-bbox="true" inkscape:bbox-nodes="true" inkscape:bbox-paths="false" inkscape:object-paths="false" inkscape:showpageshadow="false" showborder="false">
    <inkscape:grid type="xygrid" id="grid1147" units="mm" spacingx="1" spacingy="1" empspacing="5" originy="0" originx="0"/>
  </sodipodi:namedview>
  <defs id="defs2"/>
  <g inkscape:label="Dimension" inkscape:groupmode="layer" id="layer1" style="display:inline">
    <path id="path1480" style="fill:none;stroke-width:0.02;stroke-linecap:round;stroke:#ffff00;stroke-miterlimit:4;stroke-dasharray:none" d="M 15.117188,0 A 15.11811,15.11811 0 0 0 0,15.117188 V 81.638672 H 7.5585938 V 122.45703 H 0 v 3.7793 h 7.5585938 v 6.04687 H 177.63867 v -6.04687 h 7.5586 v -3.7793 h -7.5586 V 81.638672 h 7.5586 V 15.117188 A 15.11811,15.11811 0 0 0 170.07812,0 Z" flap="True" transform="scale(0.264583, 0.264583)"/>
  </g>
  <g id="layer_ss_bot" inkscape:groupmode="layer" inkscape:label="bPlace"/>
  <g id="layer_ss_top" inkscape:groupmode="layer" inkscape:label="tPlace">
    <path id="path833" style="font-size:80px;font-family:'Red Hat Mono';stroke-width:0;fill:#ff5599" d="M 75.816406 22.677734 C 66.342391 22.677734 57.876236 24.895432 50.417969 29.330078 C 42.959701 33.764724 37.115883 39.810861 32.882812 47.470703 C 28.649742 54.928971 26.533203 63.597444 26.533203 73.474609 C 26.533203 81.134452 28.143944 89.195968 31.369141 97.662109 C 34.594337 106.12825 39.232053 114.79672 45.279297 123.66602 C 41.185013 126.5056 37.454581 129.37872 34.074219 132.2832 L 78.884766 132.2832 C 77.239542 130.41159 75.60509 128.54346 74.003906 126.68945 C 86.098394 118.62646 95.673398 111.37032 102.72852 104.91992 C 109.78363 98.469528 114.72092 92.221072 117.54297 86.173828 C 120.56659 80.126584 122.07812 73.574649 122.07812 66.519531 C 122.07813 57.851815 120.06275 50.292191 116.03125 43.841797 C 112.20133 37.189828 106.75824 32.050221 99.703125 28.421875 C 92.849582 24.591954 84.887272 22.677734 75.816406 22.677734 z M 75.212891 40.818359 C 82.469584 40.818359 88.51572 43.339536 93.353516 48.378906 C 98.392886 53.418276 100.91406 59.666732 100.91406 67.125 C 100.91406 72.56752 99.704054 77.605967 97.285156 82.242188 C 95.067833 86.878408 91.136282 91.61533 85.492188 96.453125 C 80.049668 101.08935 72.591203 106.43127 63.117188 112.47852 C 57.876243 104.81867 53.946644 97.864053 51.326172 91.615234 C 48.907274 85.164841 47.697266 78.916385 47.697266 72.869141 C 47.697266 63.395125 50.216489 55.736294 55.255859 49.890625 C 60.496804 43.843381 67.149898 40.818359 75.212891 40.818359 z " transform="scale(0.26458333)"/>
  </g>
</svg>