<svg xmlns:inkscape="http://www.inkscape.org/namespaces/inkscape" xmlns:sodipodi="http://sodipodi.sourceforge.net/DTD/sodipodi-0.dtd" xmlns="http://www.w3.org/2000/svg" xmlns:svg="http://www.w3.org/2000/svg" xmlns:rdf="http://www.w3.org/1999/02/22-rdf-syntax-ns#" xmlns:cc="http://creativecommons.org/ns#" xmlns:dc="http://purl.org/dc/elements/1.1/" width="49mm" height="35mm" viewBox="0 0 49 35" version="1.1" id="svg5" inkscape:version="1.1 (c68e22c387, 2021-05-23)" sodipodi:docname="input.svg">
  <metadata id="metadata149">
    <rdf:RDF>
      <cc:Work rdf:about="">
        <dc:format>image/svg+xml</dc:format>
        <dc:type rdf:resource="http://purl.org/dc/dcmitype/StillImage"/>
      </cc:Work>
    </rdf:RDF>
  </metadata>
  <sodipodi:namedview id="namedview7" pagecolor="#333333" bordercolor="#eeeeee" borderopacity="0" inkscape:pageshadow="0" inkscape:pageopacity="0" inkscape:pagecheckerboard="true" inkscape:document-units="mm" showgrid="true" fit-margin-top="0" fit-margin-left="0" fit-margin-right="0" fit-margin-bottom="0" inkscape:zoom="4" inkscape:cx="107.875" inkscape:cy="101.25" inkscape:window-width="1902" inkscape:window-height="991" inkscape:window-x="0" inkscape:window-y="0" inkscape:window-maximized="0" inkscape:current-layer="layer_ss_bot" inkscape:document-rotation="0" inkscape:snap-object-midpoints="true" inkscape:object-nodes="true" inkscape:snap-bbox="true" inkscape:bbox-nodes="true" inkscape:bbox-paths="false" inkscape:object-paths="false" inkscape:showpageshadow="false" showborder="false">
    <inkscape:grid type="xygrid" id="grid1147" units="mm" spacingx="1" spacingy="1" empspacing="5" originy="0" originx="0"/>
  </sodipodi:namedview>
  <defs id="defs2"/>
  <g inkscape:label="Dimension" inkscape:groupmode="layer" id="layer1" style="display:inline">
    <path id="path1480" style="fill:none;stroke-width:0.02;stroke-linecap:round;stroke:#ffff00;stroke-miterlimit:4;stroke-dasharray:none" d="M 15.117188,0 A 15.11811,15.11811 0 0 0 0,15.117188 V 81.638672 H 7.5585938 V 122.45703 H 0 v 3.7793 h 7.5585938 v 6.04687 H 177.63867 v -6.04687 h 7.5586 v -3.7793 h -7.5586 V 81.638672 h 7.5586 V 15.117188 A 15.11811,15.11811 0 0 0 170.07812,0 Z" flap="True" transform="scale(0.264583, 0.264583)"/>
  </g>
  <g id="layer_ss_bot" inkscape:groupmode="layer" inkscape:label="bPlace">
    <path id="path832" style="font-size:80px;font-family:'Red Hat Mono';stroke-width:0;fill:#5f5fd3" d="M 98.191406 25.777344 C 81.863847 25.777344 67.452716 30.109627 54.955078 38.777344 C 42.659015 47.44506 32.982852 59.338921 25.927734 74.457031 C 18.872616 89.776716 15.345703 107.41324 15.345703 127.36914 C 15.345703 129.0234 15.368855 130.65921 15.408203 132.2832 L 37.195312 132.2832 C 37.164242 131.35556 37.134427 130.42676 37.115234 129.48633 C 37.859708 130.44078 38.622942 131.36852 39.394531 132.2832 L 59.025391 132.2832 C 51.020026 127.16644 43.915275 120.59342 37.71875 112.55469 C 39.331348 99.049176 42.759055 87.155315 48 76.875 C 53.44252 66.79626 60.39714 58.93511 68.863281 53.291016 C 77.530998 47.646921 87.20716 44.826172 97.890625 44.826172 C 107.56622 44.826172 116.13158 46.940757 123.58984 51.173828 C 131.24969 55.608474 137.19662 61.656564 141.42969 69.316406 C 145.86433 76.976249 148.08203 85.543562 148.08203 95.017578 C 148.08203 104.49159 145.86433 112.85659 141.42969 120.11328 C 138.60319 124.86694 135.07796 128.92163 130.85938 132.2832 L 158.99414 132.2832 C 159.60826 131.36869 160.20869 130.44059 160.78125 129.48633 C 166.82849 119.60916 169.85156 108.32031 169.85156 95.621094 C 169.85156 82.317157 166.72733 70.32409 160.47852 59.640625 C 154.2297 49.158735 145.66238 40.8949 134.77734 34.847656 C 124.09388 28.800412 111.89849 25.777344 98.191406 25.777344 z " transform="scale(0.26458333)"/>
  </g>
  <g id="layer_ss_top" inkscape:groupmode="layer" inkscape:label="tPlace">
    <path id="path835" style="font-size:80px;font-family:'Red Hat Mono';stroke-width:0;fill:#ff5599" d="M 34.091797 22.677734 L 29.253906 128.50391 L 41.0625 132.2832 L 46.503906 132.2832 C 54.006707 128.60679 61.259758 125.92892 68.257812 124.27148 C 75.917655 122.25574 83.778805 121.24805 91.841797 121.24805 C 106.13548 121.24805 117.85827 124.93233 127.02344 132.2832 L 155.64648 132.2832 C 150.08091 123.55878 142.42178 116.75288 132.66211 111.87305 C 122.38179 106.43053 110.28757 103.71094 96.378906 103.71094 C 88.114339 103.71094 80.251236 104.61747 72.792969 106.43164 C 65.334701 108.04424 57.574711 110.86694 49.511719 114.89844 L 52.837891 41.726562 L 154.43164 41.726562 L 154.43164 22.677734 L 34.091797 22.677734 z " transform="scale(0.26458333)"/>
  </g>
</svg>