<svg xmlns:inkscape="http://www.inkscape.org/namespaces/inkscape" xmlns:sodipodi="http://sodipodi.sourceforge.net/DTD/sodipodi-0.dtd" xmlns="http://www.w3.org/2000/svg" xmlns:svg="http://www.w3.org/2000/svg" xmlns:rdf="http://www.w3.org/1999/02/22-rdf-syntax-ns#" xmlns:cc="http://creativecommons.org/ns#" xmlns:dc="http://purl.org/dc/elements/1.1/" width="49mm" height="35mm" viewBox="0 0 49 35" version="1.1" id="svg5" inkscape:version="1.1 (c68e22c387, 2021-05-23)" sodipodi:docname="input.svg">
  <metadata id="metadata149">
    <rdf:RDF>
      <cc:Work rdf:about="">
        <dc:format>image/svg+xml</dc:format>
        <dc:type rdf:resource="http://purl.org/dc/dcmitype/StillImage"/>
      </cc:Work>
    </rdf:RDF>
  </metadata>
  <sodipodi:namedview id="namedview7" pagecolor="#333333" bordercolor="#eeeeee" borderopacity="0" inkscape:pageshadow="0" inkscape:pageopacity="0" inkscape:pagecheckerboard="true" inkscape:document-units="mm" showgrid="true" fit-margin-top="0" fit-margin-left="0" fit-margin-right="0" fit-margin-bottom="0" inkscape:zoom="4" inkscape:cx="107.875" inkscape:cy="101.25" inkscape:window-width="1902" inkscape:window-height="991" inkscape:window-x="0" inkscape:window-y="0" inkscape:window-maximized="0" inkscape:current-layer="layer_ss_bot" inkscape:document-rotation="0" inkscape:snap-object-midpoints="true" inkscape:object-nodes="true" inkscape:snap-bbox="true" inkscape:bbox-nodes="true" inkscape:bbox-paths="false" inkscape:object-paths="false" inkscape:showpageshadow="false" showborder="false">
    <inkscape:grid type="xygrid" id="grid1147" units="mm" spacingx="1" spacingy="1" empspacing="5" originy="0" originx="0"/>
  </sodipodi:namedview>
  <defs id="defs2"/>
  <g inkscape:label="Dimension" inkscape:groupmode="layer" id="layer1" style="display:inline">
    <path id="path1480" style="fill:none;stroke-width:0.02;stroke-linecap:round;stroke:#ffff00;stroke-miterlimit:4;stroke-dasharray:none" d="M 15.117188,0 A 15.11811,15.11811 0 0 0 0,15.117188 V 81.638672 H 7.5585938 V 122.45703 H 0 v 3.7793 h 7.5585938 v 6.04687 H 177.63867 v -6.04687 h 7.5586 v -3.7793 h -7.5586 V 81.638672 h 7.5586 V 15.117188 A 15.11811,15.11811 0 0 0 170.07812,0 Z" flap="True" transform="scale(0.264583, 0.264583)"/>
  </g>
  <g id="layer_ss_bot" inkscape:groupmode="layer" inkscape:label="bPlace">
    <path id="path832" style="font-size:80px;font-family:'Red Hat Mono';stroke-width:0;fill:#5f5fd3" d="M 24.416016 32.126953 L 24.416016 51.173828 L 77.933594 51.173828 L 77.933594 132.2832 L 99.703125 132.2832 L 99.703125 51.173828 L 160.78125 51.173828 L 160.78125 32.126953 L 24.416016 32.126953 z " transform="scale(0.26458333)"/>
  </g>
  <g id="layer_ss_top" inkscape:groupmode="layer" inkscape:label="tPlace">
    <path id="path835" style="font-size:80px;font-family:'Red Hat Mono';stroke-width:0;fill:#ff5599" d="M 92.597656 22.677734 C 77.479546 22.677734 63.974945 27.111177 52.082031 35.980469 C 40.390693 44.84976 31.218375 57.449785 24.566406 73.777344 C 17.914438 89.903328 14.589844 109.2537 14.589844 131.83008 C 14.589844 131.98239 14.593442 132.13117 14.59375 132.2832 L 36.667969 132.2832 C 36.667638 132.1309 36.662109 131.98268 36.662109 131.83008 C 36.662109 113.68835 38.979014 97.966046 43.615234 84.662109 C 48.251455 71.156598 54.70223 60.774271 62.966797 53.517578 C 71.432939 46.05931 81.309467 42.330078 92.597656 42.330078 C 103.68427 42.330078 113.36043 45.858944 121.625 52.914062 L 80.914062 132.2832 L 103.81836 132.2832 L 135.5332 70.451172 C 139.5647 78.111014 142.68893 87.18022 144.90625 97.662109 C 147.32515 107.94242 148.53516 119.33244 148.53516 131.83008 C 148.53516 131.98231 148.53158 132.1313 148.53125 132.2832 L 170.60352 132.2832 C 170.60382 132.13117 170.60742 131.98239 170.60742 131.83008 C 170.60742 109.2537 167.28283 89.903328 160.63086 73.777344 C 153.97889 57.449785 144.80657 44.84976 133.11523 35.980469 C 121.4239 27.111177 107.91734 22.677734 92.597656 22.677734 z " transform="scale(0.26458333)"/>
  </g>
</svg>