<svg xmlns:inkscape="http://www.inkscape.org/namespaces/inkscape" xmlns:sodipodi="http://sodipodi.sourceforge.net/DTD/sodipodi-0.dtd" xmlns="http://www.w3.org/2000/svg" xmlns:svg="http://www.w3.org/2000/svg" xmlns:rdf="http://www.w3.org/1999/02/22-rdf-syntax-ns#" xmlns:cc="http://creativecommons.org/ns#" xmlns:dc="http://purl.org/dc/elements/1.1/" width="49mm" height="35mm" viewBox="0 0 49 35" version="1.1" id="svg5" inkscape:version="1.1 (c68e22c387, 2021-05-23)" sodipodi:docname="input.svg">
  <metadata id="metadata149">
    <rdf:RDF>
      <cc:Work rdf:about="">
        <dc:format>image/svg+xml</dc:format>
        <dc:type rdf:resource="http://purl.org/dc/dcmitype/StillImage"/>
      </cc:Work>
    </rdf:RDF>
  </metadata>
  <sodipodi:namedview id="namedview7" pagecolor="#333333" bordercolor="#eeeeee" borderopacity="0" inkscape:pageshadow="0" inkscape:pageopacity="0" inkscape:pagecheckerboard="true" inkscape:document-units="mm" showgrid="true" fit-margin-top="0" fit-margin-left="0" fit-margin-right="0" fit-margin-bottom="0" inkscape:zoom="4" inkscape:cx="107.875" inkscape:cy="101.25" inkscape:window-width="1902" inkscape:window-height="991" inkscape:window-x="0" inkscape:window-y="0" inkscape:window-maximized="0" inkscape:current-layer="layer_ss_bot" inkscape:document-rotation="0" inkscape:snap-object-midpoints="true" inkscape:object-nodes="true" inkscape:snap-bbox="true" inkscape:bbox-nodes="true" inkscape:bbox-paths="false" inkscape:object-paths="false" inkscape:showpageshadow="false" showborder="false">
    <inkscape:grid type="xygrid" id="grid1147" units="mm" spacingx="1" spacingy="1" empspacing="5" originy="0" originx="0"/>
  </sodipodi:namedview>
  <defs id="defs2"/>
  <g inkscape:label="Dimension" inkscape:groupmode="layer" id="layer1" style="display:inline">
    <path id="path1480" style="fill:none;stroke-width:0.02;stroke-linecap:round;stroke:#ffff00;stroke-miterlimit:4;stroke-dasharray:none" d="M 15.117188,0 A 15.11811,15.11811 0 0 0 0,15.117188 V 81.638672 H 7.5585938 V 122.45703 H 0 v 3.7793 h 7.5585938 v 6.04687 H 177.63867 v -6.04687 h 7.5586 v -3.7793 h -7.5586 V 81.638672 h 7.5586 V 15.117188 A 15.11811,15.11811 0 0 0 170.07812,0 Z" flap="True" transform="scale(0.264583, 0.264583)"/>
  </g>
  <g id="layer_ss_bot" inkscape:groupmode="layer" inkscape:label="bPlace">
    <path id="path832" style="font-size:80px;font-family:'Red Hat Mono';stroke-width:0;fill:#5f5fd3" d="M 39.080078 32.126953 L 93.796875 132.2832 L 117.37305 132.2832 L 63.873047 32.126953 L 39.080078 32.126953 z " transform="scale(0.26458333)"/>
  </g>
  <g id="layer_ss_top" inkscape:groupmode="layer" inkscape:label="tPlace">
    <path id="path835" style="font-size:80px;font-family:'Red Hat Mono';stroke-width:0;fill:#ff5599" d="M 110.28711 22.677734 C 91.339078 22.677734 74.708295 27.515816 60.396484 37.191406 C 46.084673 46.866997 34.998136 60.472758 27.136719 78.009766 C 20.048528 93.640135 16.167877 111.73667 15.470703 132.2832 L 37.267578 132.2832 C 38.024668 114.52744 40.993628 99.153626 46.185547 86.173828 C 52.031216 72.063592 60.195845 61.27858 70.677734 53.820312 C 81.361199 46.16047 93.95927 42.330078 108.47266 42.330078 C 115.52777 42.330078 122.48239 43.337768 129.33594 45.353516 C 136.18948 47.369264 142.73946 50.191966 148.98828 53.820312 L 159.87305 36.888672 C 153.0195 32.252451 145.25951 28.723585 136.5918 26.304688 C 127.92408 23.88579 119.1564 22.677734 110.28711 22.677734 z M 99.099609 104.91992 C 87.408271 104.91992 76.119414 107.74262 65.234375 113.38672 C 56.101115 118.12248 48.03774 124.42531 41.033203 132.2832 L 62.126953 132.2832 C 62.754347 131.92179 63.3875 131.56907 64.025391 131.22461 C 74.305706 125.58051 84.989558 122.75977 96.076172 122.75977 C 106.35649 122.75977 115.32649 124.8763 122.98633 129.10938 C 124.85878 130.06961 126.63055 131.12857 128.30859 132.2832 L 157.67383 132.2832 C 151.97377 124.42541 144.64959 118.12244 135.68555 113.38672 C 125.00208 107.74262 112.8067 104.91992 99.099609 104.91992 z " transform="scale(0.26458333)"/>
  </g>
</svg>