<svg xmlns:inkscape="http://www.inkscape.org/namespaces/inkscape" xmlns:sodipodi="http://sodipodi.sourceforge.net/DTD/sodipodi-0.dtd" xmlns="http://www.w3.org/2000/svg" xmlns:svg="http://www.w3.org/2000/svg" xmlns:rdf="http://www.w3.org/1999/02/22-rdf-syntax-ns#" xmlns:cc="http://creativecommons.org/ns#" xmlns:dc="http://purl.org/dc/elements/1.1/" width="49mm" height="35mm" viewBox="0 0 49 35" version="1.1" id="svg5" inkscape:version="1.1 (c68e22c387, 2021-05-23)" sodipodi:docname="input.svg">
  <metadata id="metadata149">
    <rdf:RDF>
      <cc:Work rdf:about="">
        <dc:format>image/svg+xml</dc:format>
        <dc:type rdf:resource="http://purl.org/dc/dcmitype/StillImage"/>
      </cc:Work>
    </rdf:RDF>
  </metadata>
  <sodipodi:namedview id="namedview7" pagecolor="#333333" bordercolor="#eeeeee" borderopacity="0" inkscape:pageshadow="0" inkscape:pageopacity="0" inkscape:pagecheckerboard="true" inkscape:document-units="mm" showgrid="true" fit-margin-top="0" fit-margin-left="0" fit-margin-right="0" fit-margin-bottom="0" inkscape:zoom="4" inkscape:cx="107.875" inkscape:cy="101.25" inkscape:window-width="1902" inkscape:window-height="991" inkscape:window-x="0" inkscape:window-y="0" inkscape:window-maximized="0" inkscape:current-layer="layer_ss_bot" inkscape:document-rotation="0" inkscape:snap-object-midpoints="true" inkscape:object-nodes="true" inkscape:snap-bbox="true" inkscape:bbox-nodes="true" inkscape:bbox-paths="false" inkscape:object-paths="false" inkscape:showpageshadow="false" showborder="false">
    <inkscape:grid type="xygrid" id="grid1147" units="mm" spacingx="1" spacingy="1" empspacing="5" originy="0" originx="0"/>
  </sodipodi:namedview>
  <defs id="defs2"/>
  <g inkscape:label="Dimension" inkscape:groupmode="layer" id="layer1" style="display:inline">
    <path id="path1480" style="fill:none;stroke-width:0.02;stroke-linecap:round;stroke:#ffff00;stroke-miterlimit:4;stroke-dasharray:none" d="M 15.117188,0 A 15.11811,15.11811 0 0 0 0,15.117188 V 81.638672 H 7.5585938 V 122.45703 H 0 v 3.7793 h 7.5585938 v 6.04687 H 177.63867 v -6.04687 h 7.5586 v -3.7793 h -7.5586 V 81.638672 h 7.5586 V 15.117188 A 15.11811,15.11811 0 0 0 170.07812,0 Z" flap="True" transform="scale(0.264583, 0.264583)"/>
  </g>
  <g id="layer_ss_bot" inkscape:groupmode="layer" inkscape:label="bPlace">
    <path id="path832" style="font-size:80px;font-family:'Red Hat Mono';stroke-width:0;fill:#5f5fd3" d="M 97.134766 26.078125 C 84.032403 26.078125 71.837017 28.698508 60.548828 33.939453 C 49.462214 39.180398 39.786051 46.638863 31.521484 56.314453 C 23.256917 65.788469 16.806142 77.077325 12.169922 90.179688 C 10.189216 96.031774 8.6546302 102.1263 7.5585938 108.46094 L 7.5585938 122.45703 L 5.8847656 122.45703 C 5.7982637 123.70817 5.727348 124.96827 5.671875 126.23633 L 7.5585938 126.23633 L 7.5585938 132.2832 L 19.4375 132.2832 C 19.5383 114.48177 22.854704 98.629404 29.404297 84.736328 C 36.056265 70.626092 45.228583 59.539555 56.919922 51.476562 C 68.61126 43.41357 82.016655 39.382812 97.134766 39.382812 C 105.80248 39.382812 114.06632 40.592821 121.92773 43.011719 C 129.99073 45.430616 137.24687 49.058689 143.69727 53.896484 L 150.95508 41.800781 C 142.89209 36.358262 134.42593 32.428663 125.55664 30.009766 C 116.68735 27.389293 107.21351 26.078125 97.134766 26.078125 z M 85.644531 85.039062 C 78.186264 85.039062 71.433963 86.955235 65.386719 90.785156 C 59.541049 94.615078 54.903334 99.95505 51.476562 106.80859 C 48.049791 113.66214 46.337891 121.62445 46.337891 130.69531 C 46.337891 131.22857 46.347378 131.75698 46.357422 132.2832 L 62.669922 132.2832 C 62.669125 132.15662 62.664062 132.03335 62.664062 131.90625 C 62.664062 122.23066 65.08408 114.36756 69.921875 108.32031 C 74.961245 102.27307 81.410067 99.25 89.271484 99.25 C 93.30298 99.25 97.234532 100.05732 101.06445 101.66992 C 104.89437 103.4841 108.32208 106.00332 111.3457 109.22852 C 111.14413 110.84111 111.04297 112.55497 111.04297 114.36914 L 111.64648 120.41602 L 113.31445 132.2832 L 129.64844 132.2832 L 127.67188 118.9043 C 125.8577 106.00351 129.89041 99.552734 139.76758 99.552734 C 147.629 99.552734 153.87745 104.08734 158.51367 113.1582 C 161.34237 118.46201 163.33698 124.84304 164.51172 132.2832 L 177.63867 132.2832 L 177.63867 127.77539 C 176.90369 124.05304 175.97479 120.48881 174.8418 117.08984 C 171.6166 107.41425 166.87968 99.854629 160.63086 94.412109 C 154.58362 88.96959 147.12515 86.248047 138.25586 86.248047 C 127.57239 86.248047 119.91161 89.977279 115.27539 97.435547 C 105.80137 89.17098 95.924846 85.039063 85.644531 85.039062 z " transform="scale(0.26458333)"/>
  </g>
  <g id="layer_ss_top" inkscape:groupmode="layer" inkscape:label="tPlace">
    <path id="path835" style="font-size:80px;font-family:'Red Hat Mono';stroke-width:0;fill:#ff5599" d="M 142.18555 22.677734 L 93.953125 132.2832 L 115.72461 132.2832 L 163.95508 22.677734 L 142.18555 22.677734 z " transform="scale(0.26458333)"/>
  </g>
</svg>