<svg xmlns:inkscape="http://www.inkscape.org/namespaces/inkscape" xmlns:sodipodi="http://sodipodi.sourceforge.net/DTD/sodipodi-0.dtd" xmlns="http://www.w3.org/2000/svg" xmlns:svg="http://www.w3.org/2000/svg" xmlns:rdf="http://www.w3.org/1999/02/22-rdf-syntax-ns#" xmlns:cc="http://creativecommons.org/ns#" xmlns:dc="http://purl.org/dc/elements/1.1/" width="49mm" height="35mm" viewBox="0 0 49 35" version="1.1" id="svg5" inkscape:version="1.1 (c68e22c387, 2021-05-23)" sodipodi:docname="input.svg">
  <metadata id="metadata149">
    <rdf:RDF>
      <cc:Work rdf:about="">
        <dc:format>image/svg+xml</dc:format>
        <dc:type rdf:resource="http://purl.org/dc/dcmitype/StillImage"/>
      </cc:Work>
    </rdf:RDF>
  </metadata>
  <sodipodi:namedview id="namedview7" pagecolor="#333333" bordercolor="#eeeeee" borderopacity="0" inkscape:pageshadow="0" inkscape:pageopacity="0" inkscape:pagecheckerboard="true" inkscape:document-units="mm" showgrid="true" fit-margin-top="0" fit-margin-left="0" fit-margin-right="0" fit-margin-bottom="0" inkscape:zoom="4" inkscape:cx="107.875" inkscape:cy="101.25" inkscape:window-width="1902" inkscape:window-height="991" inkscape:window-x="0" inkscape:window-y="0" inkscape:window-maximized="0" inkscape:current-layer="layer_ss_bot" inkscape:document-rotation="0" inkscape:snap-object-midpoints="true" inkscape:object-nodes="true" inkscape:snap-bbox="true" inkscape:bbox-nodes="true" inkscape:bbox-paths="false" inkscape:object-paths="false" inkscape:showpageshadow="false" showborder="false">
    <inkscape:grid type="xygrid" id="grid1147" units="mm" spacingx="1" spacingy="1" empspacing="5" originy="0" originx="0"/>
  </sodipodi:namedview>
  <defs id="defs2"/>
  <g inkscape:label="Dimension" inkscape:groupmode="layer" id="layer1" style="display:inline">
    <path id="path1480" style="fill:none;stroke-width:0.02;stroke-linecap:round;stroke:#ffff00;stroke-miterlimit:4;stroke-dasharray:none" d="M 15.117188,0 A 15.11811,15.11811 0 0 0 0,15.117188 V 81.638672 H 7.5585938 V 122.45703 H 0 v 3.7793 h 7.5585938 v 6.04687 H 177.63867 v -6.04687 h 7.5586 v -3.7793 h -7.5586 V 81.638672 h 7.5586 V 15.117188 A 15.11811,15.11811 0 0 0 170.07812,0 Z" flap="True" transform="scale(0.264583, 0.264583)"/>
  </g>
  <g id="layer_ss_bot" inkscape:groupmode="layer" inkscape:label="bPlace">
    <path id="path832" style="font-size:80px;font-family:'Red Hat Mono';stroke-width:0;fill:#5f5fd3" d="M 14.287109 32.126953 L 36.962891 98.34375 L 7.6347656 98.34375 L 7.6347656 115.88086 L 43.011719 115.88086 L 48.628906 132.2832 L 68.583984 132.2832 L 62.966797 115.88086 L 107.41406 115.88086 L 113.03125 132.2832 L 132.98633 132.2832 L 127.36914 115.88086 L 163.04883 115.88086 L 163.04883 98.34375 L 121.32227 98.34375 L 98.646484 32.126953 L 78.689453 32.126953 L 101.36719 98.34375 L 56.919922 98.34375 L 34.242188 32.126953 L 14.287109 32.126953 z " transform="scale(0.26458333)"/>
  </g>
  <g id="layer_ss_top" inkscape:groupmode="layer" inkscape:label="tPlace">
    <path id="path835" style="font-size:80px;font-family:'Red Hat Mono';stroke-width:0;fill:#ff5599" d="M 95.621094 22.677734 C 82.720306 22.677734 70.828399 25.399277 59.943359 30.841797 C 49.05832 36.284317 39.483317 43.943147 31.21875 53.820312 C 23.155758 63.697478 16.806142 75.389019 12.169922 88.894531 C 10.189383 94.926172 8.6546123 101.22108 7.5585938 107.77539 L 7.5585938 122.45703 L 5.8730469 122.45703 C 5.7910931 123.70816 5.7230754 124.96818 5.6699219 126.23633 L 7.5585938 126.23633 L 7.5585938 132.2832 L 19.439453 132.2832 C 19.558174 113.7722 22.772159 97.391548 29.101562 83.150391 C 35.753531 68.43543 44.72353 56.944254 56.011719 48.679688 C 67.501483 40.213546 80.504192 35.980469 95.017578 35.980469 C 108.72466 35.980469 120.92005 39.408175 131.60352 46.261719 C 142.28698 53.115262 150.65197 62.589106 156.69922 74.683594 C 162.74646 86.778082 165.76953 100.78653 165.76953 116.71094 C 165.76953 122.32187 165.44193 127.51051 164.79297 132.2832 L 177.63867 132.2832 L 177.63867 126.23633 L 179.31055 126.23633 C 179.40572 124.99182 179.48116 123.73182 179.53906 122.45703 L 177.63867 122.45703 L 177.63867 93.232422 C 175.85742 83.719195 172.91007 75.016111 168.79297 67.125 C 161.53628 53.014764 151.55859 42.128593 138.85938 34.46875 C 126.16016 26.607333 111.74708 22.677734 95.621094 22.677734 z M 92.900391 82.242188 C 84.232674 82.242187 76.371524 84.561045 69.316406 89.197266 C 62.261288 93.631911 56.617836 99.880367 52.384766 107.94336 C 48.797486 114.93856 46.809332 123.0536 46.414062 132.2832 L 62.712891 132.2832 C 63.095525 122.41532 65.999543 114.19896 71.433594 107.64062 C 77.480838 100.38393 84.838143 96.755859 93.505859 96.755859 C 98.343655 96.755859 102.87826 97.864708 107.11133 100.08203 C 111.3444 102.29935 114.56979 105.42358 116.78711 109.45508 L 113.58008 132.2832 L 129.92969 132.2832 L 136.74414 86.173828 L 120.11328 86.173828 L 119.20703 93.126953 C 112.35349 85.87026 103.58386 82.242188 92.900391 82.242188 z " transform="scale(0.26458333)"/>
  </g>
</svg>