<svg xmlns:inkscape="http://www.inkscape.org/namespaces/inkscape" xmlns:sodipodi="http://sodipodi.sourceforge.net/DTD/sodipodi-0.dtd" xmlns="http://www.w3.org/2000/svg" xmlns:svg="http://www.w3.org/2000/svg" xmlns:rdf="http://www.w3.org/1999/02/22-rdf-syntax-ns#" xmlns:cc="http://creativecommons.org/ns#" xmlns:dc="http://purl.org/dc/elements/1.1/" sodipodi:docname="input.svg" inkscape:version="1.1.2 (b8e25be833, 2022-02-05)" id="svg5" version="1.1" viewBox="0 0 49 35" height="35mm" width="49mm">
  <metadata id="metadata149">
    <rdf:RDF>
      <cc:Work rdf:about="">
        <dc:format>image/svg+xml</dc:format>
        <dc:type rdf:resource="http://purl.org/dc/dcmitype/StillImage"/>
      </cc:Work>
    </rdf:RDF>
  </metadata>
  <sodipodi:namedview id="namedview7" pagecolor="#333333" bordercolor="#eeeeee" borderopacity="0" inkscape:pageshadow="0" inkscape:pageopacity="0" inkscape:pagecheckerboard="true" inkscape:document-units="mm" showgrid="true" fit-margin-top="0" fit-margin-left="0" fit-margin-right="0" fit-margin-bottom="0" inkscape:zoom="0.99999999" inkscape:cx="6225.5001" inkscape:cy="-0.50000001" inkscape:window-width="1920" inkscape:window-height="1080" inkscape:window-x="-1920" inkscape:window-y="0" inkscape:window-maximized="0" inkscape:current-layer="layer_gen_characterMap" inkscape:document-rotation="0" inkscape:snap-object-midpoints="true" inkscape:object-nodes="true" inkscape:snap-bbox="true" inkscape:bbox-nodes="true" inkscape:bbox-paths="false" inkscape:object-paths="false" inkscape:showpageshadow="false" showborder="false" inkscape:snap-global="false">
    <inkscape:grid type="xygrid" id="grid1147" units="mm" spacingx="1" spacingy="1" empspacing="5" originy="0" originx="0"/>
  </sodipodi:namedview>
  <defs id="defs2"/>
  <g inkscape:label="Dimension" inkscape:groupmode="layer" id="layer_dimension" style="display:inline">
    <path id="path1480-7" style="display:inline;fill:none;stroke:#ffff00;stroke-width:0.025;stroke-linecap:round;stroke-miterlimit:4;stroke-dasharray:none" d="M 3.9997515,5.0966779e-7 A 3.9999949,3.9999949 0 0 0 5e-7,3.9997515 V 21.600206 H 1.9998759 V 32.400049 H 5e-7 v 0.999939 h 1.9998754 v 1.599899 H 47.000173 V 33.399988 H 49.00005 V 32.400049 H 47.000173 V 21.600206 H 49.00005 V 3.9997515 A 3.9999949,3.9999949 0 0 0 44.99978,5.0966779e-7 Z" flap="True" mid_cutout="0.5"/>
  </g>
  <g id="layer_gen_characterMap" inkscape:groupmode="layer" inkscape:label="gen_flapset">
    <g id="flap_1" transform="translate(50, 0)"/>
    <g id="flap_2" transform="translate(100, 0)">
      </g>
    <g id="flap_3" transform="translate(150, 0)">
      </g>
    <g id="flap_4" transform="translate(200, 0)">
      </g>
    <g id="flap_5" transform="translate(250, 0)">
      </g>
    <g id="flap_6" transform="translate(300, 0)">
      </g>
    <g id="flap_7" transform="translate(350, 0)">
      </g>
    <g id="flap_8" transform="translate(400, 0)">
      </g>
    <g id="flap_9" transform="translate(450, 0)">
      </g>
    <g id="flap_10" transform="translate(500, 0)">
      </g>
    <g id="flap_11" transform="translate(550.001, 0)">
      </g>
    <g id="flap_12" transform="translate(600.001, 0)">
      </g>
    <g id="flap_13" transform="translate(650.001, 0)">
      </g>
    <g id="flap_14" transform="translate(700.001, 0)">
      </g>
    <g id="flap_15" transform="translate(750.001, 0)">
      </g>
    <g id="flap_16" transform="translate(800.001, 0)">
      </g>
    <g id="flap_17" transform="translate(850.001, 0)">
      </g>
    <g id="flap_18" transform="translate(900.001, 0)">
      </g>
    <g id="flap_19" transform="translate(950.001, 0)">
      </g>
    <g id="flap_20" transform="translate(1000, 0)">
      </g>
    <g id="flap_21" transform="translate(1050, 0)">
      </g>
    <g id="flap_22" transform="translate(1100, 0)">
      </g>
    <g id="flap_23" transform="translate(1150, 0)">
      </g>
    <g id="flap_24" transform="translate(1200, 0)">
      </g>
    <g id="flap_25" transform="translate(1250, 0)">
      </g>
    <g id="flap_26" transform="translate(1300, 0)">
      </g>
    <g id="flap_27" transform="translate(1350, 0)">
      </g>
    <g id="flap_28" transform="translate(1400, 0)">
      </g>
    <g id="flap_29" transform="translate(1450, 0)">
      </g>
    <g id="flap_30" transform="translate(1500, 0)">
      </g>
    <g id="flap_31" transform="translate(1550, 0)">
      </g>
    <g id="flap_32" transform="translate(1600, 0)">
      </g>
    <g id="flap_33" transform="translate(1650, 0)">
      </g>
    <g id="flap_34" transform="translate(1700, 0)">
      </g>
    <g id="flap_35" transform="translate(1750, 0)">
      </g>
    <g id="flap_36" transform="translate(1800, 0)">
      </g>
    <g id="flap_37" transform="translate(1850, 0)">
      </g>
    <g id="flap_38" transform="translate(1900, 0)">
      <path id="top_flap_38" style="display:inline;fill:#ff5599;stroke:#ffff00;stroke-width:0;stroke-linecap:round;stroke-miterlimit:4;stroke-dasharray:none" d="M 7289.125 29.302734 C 7277.4841 29.302734 7266.5231 32.212731 7256.2402 38.033203 C 7246.1514 43.853676 7237.5165 52.486665 7230.3379 63.933594 C 7223.1593 75.186507 7218.1153 89.059443 7215.2051 105.55078 L 7193.3789 105.55078 L 7193.3789 124.4668 L 7213.168 124.4668 C 7212.974 126.21294 7212.877 127.86194 7212.877 129.41406 L 7212.877 132.2832 L 7246.9258 132.2832 L 7246.9258 129.41406 C 7246.9258 127.86194 7247.0228 126.21294 7247.2168 124.4668 L 7305.7129 124.4668 L 7312.6973 105.55078 L 7249.2539 105.55078 C 7252.3582 90.223537 7257.5011 78.678599 7264.6797 70.917969 C 7271.8583 63.157339 7280.2003 59.277344 7289.707 59.277344 C 7297.2736 59.277344 7304.1606 61.799341 7310.3691 66.84375 C 7316.5776 71.694144 7321.7206 78.969134 7325.7949 88.669922 L 7355.7695 76.447266 C 7349.755 60.926006 7340.9281 49.189021 7329.2871 41.234375 C 7317.8402 33.27973 7304.4522 29.302734 7289.125 29.302734 z " transform="matrix(0.26458333,0,0,0.26458333,-1900,0)" layer="top"/>
      <path id="bot_flap_39" style="display:inline;fill:#5f5fd3;stroke:#ffff00;stroke-width:0;stroke-linecap:round;stroke-miterlimit:4;stroke-dasharray:none" d="M 7421.0742 134.17383 C 7429.6629 138.66884 7440.5192 142.51545 7453.6562 145.71094 L 7453.6562 203.04297 C 7446.4777 201.87887 7439.0067 199.64788 7431.2461 196.34961 C 7423.6795 193.05134 7415.7255 188.49235 7407.3828 182.67188 L 7391.377 206.82617 C 7400.8837 213.61672 7410.8747 219.04872 7421.3516 223.12305 C 7431.8284 227.00336 7442.5974 229.52536 7453.6562 230.68945 L 7453.6562 255.71875 L 7472.5723 255.71875 L 7472.5723 230.68945 C 7484.9893 229.71937 7495.7563 226.80938 7504.875 221.95898 C 7514.1878 216.91457 7521.3677 210.41558 7526.4121 202.46094 C 7531.4565 194.31228 7533.9785 185.09729 7533.9785 174.81445 C 7533.9785 160.45729 7529.1285 149.10635 7519.4277 140.76367 C 7516.8052 138.46227 7513.6992 136.26853 7510.1465 134.17383 L 7421.0742 134.17383 z M 7472.5723 149.49414 C 7483.4371 152.40438 7491.1001 156.09037 7495.5625 160.55273 C 7500.2189 165.0151 7502.5469 170.64304 7502.5469 177.43359 C 7502.5469 184.41816 7499.7339 190.23815 7494.1074 194.89453 C 7488.675 199.55091 7481.497 202.46091 7472.5723 203.625 L 7472.5723 149.49414 z " transform="matrix(0.264583 0 0 -0.264583 -1950 70.4998)" layer="bot"/>
    </g>
    <g id="flap_39" transform="translate(1950, 0)">
      <path id="top_flap_39" style="display:inline;fill:#ff5599;stroke:#ffff00;stroke-width:0;stroke-linecap:round;stroke-miterlimit:4;stroke-dasharray:none" d="M 7453.6562 13.003906 L 7453.6562 37.742188 C 7441.4333 38.51825 7430.7613 41.234247 7421.6426 45.890625 C 7412.7179 50.547003 7405.7339 56.851995 7400.6895 64.806641 C 7395.8391 72.567271 7393.4141 81.588259 7393.4141 91.871094 C 7393.4141 100.6018 7395.3541 108.36375 7399.2344 115.1543 C 7403.143 121.66861 7409.2897 127.37586 7417.6621 132.2832 L 7506.7695 132.2832 C 7497.8693 127.5701 7486.4784 123.41123 7472.5723 119.81055 L 7472.5723 65.970703 C 7479.3628 67.328813 7486.0558 69.559811 7492.6523 72.664062 C 7499.4429 75.574299 7505.9419 79.551294 7512.1504 84.595703 L 7528.7402 61.314453 C 7520.9796 55.105949 7512.2477 50.061956 7502.5469 46.181641 C 7493.0401 42.10731 7483.0491 39.488313 7472.5723 38.324219 L 7472.5723 13.003906 L 7453.6562 13.003906 z M 7453.6562 64.806641 L 7453.6562 116.02734 C 7442.2093 112.53506 7434.3504 108.75207 7430.082 104.67773 C 7425.8137 100.40939 7423.6797 95.363441 7423.6797 89.542969 C 7423.6797 82.752418 7426.3957 77.126425 7431.8281 72.664062 C 7437.2606 68.2017 7444.5375 65.582704 7453.6562 64.806641 z " transform="matrix(0.26458333,0,0,0.26458333,-1950,0)" layer="top"/>
      <path id="bot_flap_40" style="display:inline;fill:#5f5fd3;stroke:#ffff00;stroke-width:0;stroke-linecap:round;stroke-miterlimit:4;stroke-dasharray:none" d="M 7638.2031 134.17383 L 7639.1387 170.1582 L 7663.877 170.1582 L 7664.8848 134.17383 L 7638.2031 134.17383 z M 7651.6543 191.98438 C 7644.8637 191.98438 7639.2358 194.31237 7634.7734 198.96875 C 7630.3111 203.43111 7628.0801 208.96011 7628.0801 215.55664 C 7628.0801 221.95916 7630.3111 227.48815 7634.7734 232.14453 C 7639.2358 236.60689 7644.8637 238.83789 7651.6543 238.83789 C 7658.4448 238.83789 7664.0708 236.60689 7668.5332 232.14453 C 7672.9956 227.48815 7675.2266 221.95916 7675.2266 215.55664 C 7675.2266 208.96011 7672.9956 203.43111 7668.5332 198.96875 C 7664.0708 194.31237 7658.4448 191.98438 7651.6543 191.98438 z " transform="matrix(0.264583 0 0 -0.264583 -2000 70.4998)" layer="bot"/>
    </g>
    <g id="flap_40" transform="translate(2000, 0)">
      <path id="top_flap_40" style="display:inline;fill:#ff5599;stroke:#ffff00;stroke-width:0;stroke-linecap:round;stroke-miterlimit:4;stroke-dasharray:none" d="M 7635.3555 24.644531 L 7638.1543 132.2832 L 7664.9375 132.2832 L 7667.9512 24.644531 L 7635.3555 24.644531 z " transform="matrix(0.26458333,0,0,0.26458333,-2000,0)" layer="top"/>
      <path id="bot_flap_41" style="display:inline;fill:#5f5fd3;stroke:#ffff00;stroke-width:0;stroke-linecap:round;stroke-miterlimit:4;stroke-dasharray:none" d="M 7828.6602 134.17383 C 7826.0923 137.66786 7823.9646 141.70126 7822.2949 146.29297 C 7819.9667 152.50147 7819.1907 160.26342 7819.9668 169.57617 L 7847.0332 169.57617 C 7846.4512 163.36767 7847.3242 158.03072 7849.6523 153.56836 C 7852.1745 149.106 7855.6665 145.129 7860.1289 141.63672 C 7863.1969 139.10225 7866.4127 136.61659 7869.7559 134.17383 L 7828.6602 134.17383 z M 7833.9355 191.98438 C 7827.145 191.98437 7821.519 194.31237 7817.0566 198.96875 C 7812.5943 203.43111 7810.3633 208.96011 7810.3633 215.55664 C 7810.3633 221.95916 7812.5943 227.48815 7817.0566 232.14453 C 7821.519 236.60689 7827.145 238.83789 7833.9355 238.83789 C 7840.7261 238.83789 7846.354 236.60689 7850.8164 232.14453 C 7855.2788 227.48815 7857.5098 221.95916 7857.5098 215.55664 C 7857.5098 208.96011 7855.2788 203.43111 7850.8164 198.96875 C 7846.354 194.31237 7840.7261 191.98438 7833.9355 191.98438 z " transform="matrix(0.264583 0 0 -0.264583 -2050 70.4998)" layer="bot"/>
    </g>
    <g id="flap_41" transform="translate(2050, 0)">
      <path id="top_flap_41" style="display:inline;fill:#ff5599;stroke:#ffff00;stroke-width:0;stroke-linecap:round;stroke-miterlimit:4;stroke-dasharray:none" d="M 7841.5039 29.302734 C 7826.7587 29.302734 7813.2738 32.98873 7801.0508 40.361328 C 7788.8278 47.539911 7779.4188 57.627898 7772.8223 70.626953 L 7798.1406 83.140625 C 7802.797 74.991964 7808.714 68.686972 7815.8926 64.224609 C 7823.2652 59.568231 7831.4151 57.240234 7840.3398 57.240234 C 7846.7424 57.240234 7852.4654 58.404233 7857.5098 60.732422 C 7862.7482 62.866595 7866.8222 65.970591 7869.7324 70.044922 C 7872.6427 73.925237 7874.0977 78.387231 7874.0977 83.431641 C 7874.0977 89.252113 7872.6427 94.199107 7869.7324 98.273438 C 7867.0162 102.15375 7863.4272 105.7447 7858.9648 109.04297 C 7854.6965 112.14722 7850.1375 115.34822 7845.2871 118.64648 C 7840.4367 121.94475 7835.9728 125.82475 7831.8984 130.28711 C 7831.2885 130.92604 7830.7055 131.59645 7830.1348 132.2832 L 7872.3887 132.2832 C 7873.0546 131.81143 7873.7123 131.33743 7874.3887 130.86914 C 7879.6271 127.37686 7884.5741 123.49686 7889.2305 119.22852 C 7893.8868 114.96017 7897.6698 109.91618 7900.5801 104.0957 C 7903.6843 98.081215 7905.2363 90.901271 7905.2363 82.558594 C 7905.2363 72.275759 7902.5203 63.157771 7897.0879 55.203125 C 7891.6554 47.248479 7884.0895 40.943487 7874.3887 36.287109 C 7864.8819 31.630731 7853.9209 29.302734 7841.5039 29.302734 z " transform="matrix(0.26458333,0,0,0.26458333,-2050,0)" layer="top"/>
      <path id="bot_flap_42" style="display:inline;fill:#5f5fd3;stroke:#ffff00;stroke-width:0;stroke-linecap:round;stroke-miterlimit:4;stroke-dasharray:none" d="M 8029.6055 190.23828 C 8022.6209 190.23828 8016.8009 192.66328 8012.1445 197.51367 C 8007.4882 202.17005 8005.1602 207.89304 8005.1602 214.68359 C 8005.1602 221.28013 8007.4882 227.00312 8012.1445 231.85352 C 8016.8009 236.50989 8022.6209 238.83789 8029.6055 238.83789 C 8036.59 238.83789 8042.412 236.50989 8047.0684 231.85352 C 8051.7247 227.19714 8054.0527 221.47414 8054.0527 214.68359 C 8054.0527 207.89304 8051.7247 202.17005 8047.0684 197.51367 C 8042.412 192.66328 8036.59 190.23828 8029.6055 190.23828 z " transform="matrix(0.264583 0 0 -0.264583 -2100 70.4998)" layer="bot"/>
    </g>
    <g id="flap_42" transform="translate(2100, 0)">
      <path id="bot_flap_43" style="display:inline;fill:#5f5fd3;stroke:#ffff00;stroke-width:0;stroke-linecap:round;stroke-miterlimit:4;stroke-dasharray:none" d="M 8205.7773 167.69922 L 8188.3164 244.5293 L 8212.7617 244.5293 L 8244.1934 167.69922 L 8205.7773 167.69922 z " transform="matrix(0.264583 0 0 -0.264583 -2150 70.4998)" layer="bot"/>
    </g>
    <g id="flap_43" transform="translate(2150, 0)">
      <path id="bot_flap_44" style="display:inline;fill:#5f5fd3;stroke:#ffff00;stroke-width:0;stroke-linecap:round;stroke-miterlimit:4;stroke-dasharray:none" d="M 8407.5586 162.23828 C 8400.574 162.23828 8394.754 164.66328 8390.0977 169.51367 C 8385.4413 174.17005 8383.1133 179.89304 8383.1133 186.68359 C 8383.1133 193.28013 8385.4413 199.00312 8390.0977 203.85352 C 8394.754 208.50989 8400.574 210.83789 8407.5586 210.83789 C 8414.5432 210.83789 8420.3651 208.50989 8425.0215 203.85352 C 8429.6779 199.19714 8432.0059 193.47414 8432.0059 186.68359 C 8432.0059 179.89304 8429.6779 174.17005 8425.0215 169.51367 C 8420.3651 164.66328 8414.5432 162.23828 8407.5586 162.23828 z " transform="matrix(0.264583 0 0 -0.264583 -2200 70.4998)" layer="bot"/>
    </g>
    <g id="flap_44" transform="translate(2200, 0)">
      <path id="top_flap_44" style="display:inline;fill:#ff5599;stroke:#ffff00;stroke-width:0;stroke-linecap:round;stroke-miterlimit:4;stroke-dasharray:none" d="M 8407.5586 53.103516 C 8400.574 53.103516 8394.754 55.528513 8390.0977 60.378906 C 8385.4413 65.035284 8383.1133 70.76023 8383.1133 77.550781 C 8383.1133 84.147317 8385.4413 89.870309 8390.0977 94.720703 C 8394.754 99.377081 8400.574 101.70508 8407.5586 101.70508 C 8414.5432 101.70508 8420.3651 99.377081 8425.0215 94.720703 C 8429.6779 90.064325 8432.0059 84.341332 8432.0059 77.550781 C 8432.0059 70.76023 8429.6779 65.035284 8425.0215 60.378906 C 8420.3651 55.528513 8414.5432 53.103516 8407.5586 53.103516 z " transform="matrix(0.26458333,0,0,0.26458333,-2200,0)" layer="top"/>
      <path id="bot_flap_45" style="display:inline;fill:#5f5fd3;stroke:#ffff00;stroke-width:0;stroke-linecap:round;stroke-miterlimit:4;stroke-dasharray:none" d="M 8573.9121 134.17383 L 8526.7676 241.04297 L 8552.9727 241.04297 L 8600 134.17383 L 8573.9121 134.17383 z " transform="matrix(0.264583 0 0 -0.264583 -2250 70.4998)" layer="bot"/>
    </g>
    <g id="flap_45" transform="translate(2250, 0)">
      <path id="top_flap_45" style="display:inline;fill:#ff5599;stroke:#ffff00;stroke-width:0;stroke-linecap:round;stroke-miterlimit:4;stroke-dasharray:none" d="M 8622.293 24.503906 L 8574.7461 132.2832 L 8600.832 132.2832 L 8648.2598 24.503906 L 8622.293 24.503906 z " transform="matrix(0.26458333,0,0,0.26458333,-2250,0)" layer="top"/>
      <path id="bot_flap_46" style="display:inline;fill:#5f5fd3;stroke:#ffff00;stroke-width:0;stroke-linecap:round;stroke-miterlimit:4;stroke-dasharray:none" d="M 8707.9844 134.17383 C 8708.1551 147.13379 8710.0371 159.27824 8713.6406 170.60352 C 8717.6034 182.49188 8723.1875 192.93898 8730.3926 201.94531 C 8737.5976 210.95165 8746.0642 217.97598 8755.791 223.01953 C 8765.5179 228.06308 8776.2351 230.58594 8787.9434 230.58594 C 8796.7696 230.58594 8805.5063 229.41391 8814.1523 227.07227 C 8822.9786 224.91074 8831.0836 221.39858 8838.4688 216.53516 L 8831.1738 202.75586 C 8825.0495 206.71865 8818.0252 209.77988 8810.0996 211.94141 C 8802.174 214.10293 8794.7882 215.18359 8787.9434 215.18359 C 8774.9742 215.18359 8763.7166 211.40126 8754.1699 203.83594 C 8744.6232 196.45074 8737.1479 186.54398 8731.7441 174.11523 C 8726.742 162.04108 8724.1418 148.72558 8723.9297 134.17383 L 8707.9844 134.17383 z M 8740.4727 134.17383 C 8740.4184 135.31331 8740.3906 136.46857 8740.3906 137.64062 C 8740.3906 145.5662 8742.0116 152.7713 8745.2539 159.25586 C 8748.4962 165.5603 8752.9083 170.5127 8758.4922 174.11523 C 8764.0761 177.71777 8770.3813 179.51953 8777.4062 179.51953 C 8786.0523 179.51953 8794.0679 176.09677 8801.4531 169.25195 C 8805.9563 175.37626 8812.8912 178.43945 8822.2578 178.43945 C 8830.0033 178.43945 8836.9382 176.006 8843.0625 171.14258 C 8849.1868 166.27916 8854.0498 159.43558 8857.6523 150.60938 C 8859.6639 145.5806 8861.1116 140.10112 8862 134.17383 L 8846.1367 134.17383 C 8845.1105 141.03501 8843.278 146.78747 8840.6309 151.41992 C 8836.4879 158.80512 8831.7143 162.49805 8826.3105 162.49805 C 8821.9875 162.49805 8820.1857 160.06655 8820.9062 155.20312 L 8824.2031 134.17383 L 8799.9082 134.17383 L 8797.6699 148.7168 C 8797.4898 149.25718 8797.4004 149.79751 8797.4004 150.33789 L 8797.4004 151.68945 C 8795.0587 153.67085 8792.5359 155.20244 8789.834 156.2832 C 8787.3122 157.18384 8784.7019 157.63477 8782 157.63477 C 8776.5962 157.63477 8772.1822 155.65224 8768.7598 151.68945 C 8765.3374 147.54654 8763.627 142.0538 8763.627 135.20898 C 8763.627 134.86062 8763.6363 134.51643 8763.6465 134.17383 L 8740.4727 134.17383 z " transform="matrix(0.264583 0 0 -0.264583 -2300 70.4998)" layer="bot"/>
    </g>
    <g id="flap_46" transform="translate(2300, 0)">
      <path id="top_flap_46" style="display:inline;fill:#ff5599;stroke:#ffff00;stroke-width:0;stroke-linecap:round;stroke-miterlimit:4;stroke-dasharray:none" d="M 8787.9434 33.886719 C 8776.2351 33.886719 8765.5179 36.409576 8755.791 41.453125 C 8746.0642 46.496673 8737.5976 53.521007 8730.3926 62.527344 C 8723.1875 71.533681 8717.6034 81.980775 8713.6406 93.869141 C 8709.858 105.75751 8707.9668 118.5467 8707.9668 132.23633 C 8707.9668 132.25201 8707.9668 132.26752 8707.9668 132.2832 L 8723.9082 132.2832 C 8723.9082 132.2675 8723.9082 132.25203 8723.9082 132.23633 C 8723.9082 116.92556 8726.5205 103.0557 8731.7441 90.626953 C 8737.1479 78.018081 8744.6232 68.01996 8754.1699 60.634766 C 8763.7166 53.069442 8774.9742 49.287109 8787.9434 49.287109 C 8799.6516 49.287109 8809.9199 52.169537 8818.7461 57.933594 C 8827.7524 63.697648 8834.6874 71.894007 8839.5508 82.521484 C 8844.5943 92.968837 8847.1152 105.3965 8847.1152 119.80664 C 8847.1152 124.29597 8846.8719 128.45028 8846.3945 132.2832 L 8862.2617 132.2832 C 8862.7896 128.15487 8863.0566 123.81819 8863.0566 119.26758 C 8863.0566 102.51579 8859.7233 87.744077 8853.0586 74.955078 C 8846.574 62.166079 8837.6585 52.169913 8826.3105 44.964844 C 8815.1427 37.579648 8802.3535 33.886719 8787.9434 33.886719 z M 8782.8105 88.195312 C 8774.5247 88.195312 8767.1389 90.356646 8760.6543 94.679688 C 8754.3499 98.822604 8749.3955 104.67686 8745.793 112.24219 C 8742.8793 118.21511 8741.147 124.89641 8740.5898 132.2832 L 8763.7559 132.2832 C 8764.2615 126.54378 8766.2885 121.66331 8769.8418 117.64648 C 8773.9847 112.96319 8778.8477 110.62109 8784.4316 110.62109 C 8788.5746 110.62109 8792.0867 111.521 8794.9688 113.32227 C 8797.8508 115.12353 8800.1929 117.55503 8801.9941 120.61719 L 8800.1992 132.2832 L 8824.5 132.2832 L 8830.9043 91.4375 L 8806.3164 91.4375 L 8805.5059 96.841797 C 8799.3816 91.07774 8791.8169 88.195312 8782.8105 88.195312 z " transform="matrix(0.26458333,0,0,0.26458333,-2300,0)" layer="top"/>
      <path id="bot_flap_47" style="display:inline;fill:#5f5fd3;stroke:#ffff00;stroke-width:0;stroke-linecap:round;stroke-miterlimit:4;stroke-dasharray:none" d="M 8932.3203 134.17383 L 8926.1074 152.00195 L 8895.6367 152.00195 L 8895.6367 173.6543 L 8918.8906 173.6543 L 8900.1797 227.91406 L 8925.8398 227.91406 L 8944.5508 173.6543 L 8977.6953 173.6543 L 8958.9844 227.91406 L 8984.6445 227.91406 L 9003.3555 173.6543 L 9040.5098 173.6543 L 9040.5098 152.00195 L 9010.5723 152.00195 L 9016.7852 134.17383 L 8991.125 134.17383 L 8984.9121 152.00195 L 8952.0352 152.00195 L 8958.1133 134.17383 L 8932.3203 134.17383 z " transform="matrix(0.264583 0 0 -0.264583 -2350 70.4998)" layer="bot"/>
    </g>
    <g id="flap_47" transform="translate(2350, 0)">
      <path id="top_flap_47" style="display:inline;fill:#ff5599;stroke:#ffff00;stroke-width:0;stroke-linecap:round;stroke-miterlimit:4;stroke-dasharray:none" d="M 8964.3301 40.808594 L 8945.6211 95.068359 L 8908.4668 95.068359 L 8908.4668 116.7207 L 8938.4043 116.7207 L 8932.9805 132.2832 L 8958.7578 132.2832 L 8964.0645 116.7207 L 8997.209 116.7207 L 8991.7852 132.2832 L 9017.4453 132.2832 L 9022.8691 116.7207 L 9053.3398 116.7207 L 9053.3398 95.068359 L 9030.3535 95.068359 L 9048.7969 40.808594 L 9023.1367 40.808594 L 9004.6934 95.068359 L 8971.5488 95.068359 L 8989.9922 40.808594 L 8964.3301 40.808594 z " transform="matrix(0.26458333,0,0,0.26458333,-2350,0)" layer="top"/>
      <path id="bot_flap_48" style="display:inline;fill:#5f5fd3;stroke:#ffff00;stroke-width:0;stroke-linecap:round;stroke-miterlimit:4;stroke-dasharray:none" d="M 9108.4766 134.17383 C 9101.7759 139.91888 9096.5295 145.89771 9092.7461 152.11328 C 9087.3137 161.03801 9084.5977 171.03095 9084.5977 182.08984 C 9084.5977 193.53677 9087.2167 203.62476 9092.4551 212.35547 C 9097.6935 220.89216 9104.9685 227.58515 9114.2812 232.43555 C 9123.594 237.09192 9134.4599 239.41992 9146.877 239.41992 C 9157.3538 239.41992 9167.1508 237.47992 9176.2695 233.59961 C 9185.3883 229.71929 9193.6333 223.8993 9201.0059 216.13867 C 9206.2443 220.98907 9211.2902 225.35406 9216.1406 229.23438 C 9220.991 233.11469 9225.744 236.99664 9230.4004 240.87695 L 9249.8984 219.63086 C 9245.6301 216.13858 9240.9741 212.25858 9235.9297 207.99023 C 9230.8853 203.72189 9225.1623 198.77489 9218.7598 193.14844 C 9223.2221 185.38781 9227.1021 176.84987 9230.4004 167.53711 C 9233.8927 158.03034 9236.8027 147.74835 9239.1309 136.68945 L 9224.0371 134.17383 L 9210.8164 134.17383 C 9209.5001 141.50896 9207.7846 148.36481 9205.6621 154.73242 C 9203.5279 161.71699 9201.1029 168.12093 9198.3867 173.94141 C 9191.0141 166.76282 9183.8361 159.48588 9176.8516 152.11328 C 9170.9152 145.84711 9165.4255 139.87939 9160.3301 134.17383 L 9108.4766 134.17383 z M 9133.7793 146.875 C 9140.7639 155.41169 9148.3318 163.94964 9156.4805 172.48633 C 9164.6291 181.02302 9173.0681 189.55901 9181.7988 198.0957 C 9177.1425 203.33413 9172.0015 207.31112 9166.375 210.02734 C 9160.7485 212.74356 9154.8316 214.10156 9148.623 214.10156 C 9137.9522 214.10156 9129.4142 211.09457 9123.0117 205.08008 C 9116.8032 198.87157 9113.6992 190.62658 9113.6992 180.34375 C 9113.6992 174.32926 9115.3482 168.60432 9118.6465 163.17188 C 9121.9448 157.73943 9126.9887 152.30744 9133.7793 146.875 z " transform="matrix(0.264583 0 0 -0.264583 -2400 70.4998)" layer="bot"/>
    </g>
    <g id="flap_48" transform="translate(2400, 0)">
      <path id="top_flap_48" style="display:inline;fill:#ff5599;stroke:#ffff00;stroke-width:0;stroke-linecap:round;stroke-miterlimit:4;stroke-dasharray:none" d="M 9152.6973 29.302734 C 9142.8025 29.302734 9133.8765 31.533732 9125.9219 35.996094 C 9118.1612 40.26444 9112.0503 46.181433 9107.5879 53.748047 C 9103.1255 61.314661 9100.8945 69.94765 9100.8945 79.648438 C 9100.8945 87.215052 9102.2525 94.879995 9104.9688 102.64062 C 9107.879 110.20724 9112.244 118.25823 9118.0645 126.79492 C 9115.4682 128.5991 9113.0349 130.42913 9110.748 132.2832 L 9158.6465 132.2832 C 9158.3172 131.91167 9157.9702 131.52926 9157.6445 131.16016 C 9168.5094 124.17559 9177.1424 117.6766 9183.5449 111.66211 C 9190.1415 105.64762 9194.7975 99.631676 9197.5137 93.617188 C 9200.4239 87.602699 9201.8789 81.006708 9201.8789 73.828125 C 9201.8789 65.097416 9199.7449 57.434426 9195.4766 50.837891 C 9191.2082 44.241355 9185.3882 39.003362 9178.0156 35.123047 C 9170.643 31.242732 9162.204 29.302734 9152.6973 29.302734 z M 9151.8242 53.166016 C 9157.8387 53.166016 9162.8827 55.203013 9166.957 59.277344 C 9171.0314 63.351674 9173.0684 68.492668 9173.0684 74.701172 C 9173.0684 79.163534 9172.0984 83.334529 9170.1582 87.214844 C 9168.218 91.095159 9164.92 95.074107 9160.2637 99.148438 C 9155.8013 103.02875 9149.8843 107.29675 9142.5117 111.95312 C 9138.0494 105.55061 9134.7494 99.72866 9132.6152 94.490234 C 9130.4811 89.251809 9129.4141 84.110816 9129.4141 79.066406 C 9129.4141 71.305776 9131.4511 65.097784 9135.5254 60.441406 C 9139.7937 55.591013 9145.2277 53.166016 9151.8242 53.166016 z M 9211.1934 132.0332 C 9211.1793 132.11732 9211.1626 132.19921 9211.1484 132.2832 L 9212.6934 132.2832 L 9211.1934 132.0332 z " transform="matrix(0.26458333,0,0,0.26458333,-2400,0)" layer="top"/>
      </g>
  </g>
<g id="layer_bPlace" inkscape:groupmode="layer" inkscape:label="bPlace"><path id="bot_flap_38" style="display:inline;fill:#5f5fd3;stroke:#ffff00;stroke-width:0;stroke-linecap:round;stroke-miterlimit:4;stroke-dasharray:none" d="M 7212.877 134.17383 L 7212.877 134.36133 L 7212.877 139.30859 C 7212.877 140.86072 7212.974 142.50972 7213.168 144.25586 L 7193.3789 144.25586 L 7193.3789 163.17188 L 7215.2051 163.17188 C 7218.1153 179.66321 7223.1593 193.63315 7230.3379 205.08008 C 7237.5165 216.33299 7246.1514 224.86898 7256.2402 230.68945 C 7266.5231 236.50993 7277.4841 239.41992 7289.125 239.41992 C 7304.4522 239.41992 7317.8402 235.34593 7329.2871 227.19727 C 7340.734 219.0486 7349.658 207.21462 7356.0605 191.69336 L 7326.0859 179.4707 C 7322.0116 189.36551 7316.8687 196.8345 7310.6602 201.87891 C 7304.4517 206.92332 7297.4677 209.44531 7289.707 209.44531 C 7280.2003 209.44531 7271.8583 205.56532 7264.6797 197.80469 C 7257.5011 190.04406 7252.3582 178.49912 7249.2539 163.17188 L 7291.7441 163.17188 L 7298.7285 144.25586 L 7247.2168 144.25586 C 7247.0228 142.50972 7246.9258 140.86072 7246.9258 139.30859 L 7246.9258 134.36133 L 7246.9258 134.17383 L 7212.877 134.17383 z " transform="matrix(0.264583 0 0 -0.264583 -1900 70.4998)" layer="bot"/>
    </g><g id="layer_tPlace" inkscape:groupmode="layer" inkscape:label="tPlace"><path id="top_flap_37" style="display:inline;fill:#ff5599;stroke:#ffff00;stroke-width:0;stroke-linecap:round;stroke-miterlimit:4;stroke-dasharray:none" d="M 7078.0312 29.59375 C 7064.2561 29.59375 7051.9352 32.503747 7041.0703 38.324219 C 7030.2054 44.144691 7021.6694 52.195681 7015.4609 62.478516 C 7009.2524 72.567335 7006.1484 84.01332 7006.1484 96.818359 C 7006.1484 109.04135 7009.0584 119.90729 7014.8789 129.41406 C 7015.4912 130.39375 7016.1332 131.34646 7016.7949 132.2832 L 7064.625 132.2832 C 7062.1715 131.53042 7059.8485 130.57662 7057.6602 129.41406 C 7051.4517 126.11579 7046.5027 121.6538 7042.8164 116.02734 C 7039.3241 110.20687 7037.5781 103.60893 7037.5781 96.236328 C 7037.5781 88.669714 7039.4211 81.976722 7043.1074 76.15625 C 7046.7937 70.141762 7051.7427 65.485768 7057.9512 62.1875 C 7064.1597 58.695217 7071.2407 56.949219 7079.1953 56.949219 C 7087.732 56.949219 7095.492 59.180216 7102.4766 63.642578 C 7109.4611 67.910925 7115.1841 74.021917 7119.6465 81.976562 C 7124.3029 89.931208 7127.5058 99.245149 7129.252 109.91602 C 7122.8494 117.48263 7115.2815 123.49662 7106.5508 127.95898 C 7102.8751 129.79681 7099.1094 131.23669 7095.2539 132.2832 L 7128.4941 132.2832 C 7129.2458 131.34769 7129.9863 130.39502 7130.707 129.41406 C 7130.6962 130.37958 7130.6738 131.33346 7130.6484 132.2832 L 7162.3926 132.2832 C 7162.4109 131.23414 7162.4277 130.18509 7162.4277 129.12305 C 7162.4277 109.33344 7158.8387 91.968509 7151.6602 77.029297 C 7144.4816 62.090084 7134.5856 50.450099 7121.9746 42.107422 C 7109.3636 33.764745 7094.7166 29.59375 7078.0312 29.59375 z " transform="matrix(0.26458333,0,0,0.26458333,-1850,0)" layer="top"/>
      </g></svg>