<svg xmlns:inkscape="http://www.inkscape.org/namespaces/inkscape" xmlns:sodipodi="http://sodipodi.sourceforge.net/DTD/sodipodi-0.dtd" xmlns="http://www.w3.org/2000/svg" xmlns:svg="http://www.w3.org/2000/svg" xmlns:rdf="http://www.w3.org/1999/02/22-rdf-syntax-ns#" xmlns:cc="http://creativecommons.org/ns#" xmlns:dc="http://purl.org/dc/elements/1.1/" width="49mm" height="35mm" viewBox="0 0 49 35" version="1.1" id="svg5" inkscape:version="1.1 (c68e22c387, 2021-05-23)" sodipodi:docname="input.svg">
  <metadata id="metadata149">
    <rdf:RDF>
      <cc:Work rdf:about="">
        <dc:format>image/svg+xml</dc:format>
        <dc:type rdf:resource="http://purl.org/dc/dcmitype/StillImage"/>
      </cc:Work>
    </rdf:RDF>
  </metadata>
  <sodipodi:namedview id="namedview7" pagecolor="#333333" bordercolor="#eeeeee" borderopacity="0" inkscape:pageshadow="0" inkscape:pageopacity="0" inkscape:pagecheckerboard="true" inkscape:document-units="mm" showgrid="true" fit-margin-top="0" fit-margin-left="0" fit-margin-right="0" fit-margin-bottom="0" inkscape:zoom="4" inkscape:cx="107.875" inkscape:cy="101.25" inkscape:window-width="1902" inkscape:window-height="991" inkscape:window-x="0" inkscape:window-y="0" inkscape:window-maximized="0" inkscape:current-layer="layer_ss_bot" inkscape:document-rotation="0" inkscape:snap-object-midpoints="true" inkscape:object-nodes="true" inkscape:snap-bbox="true" inkscape:bbox-nodes="true" inkscape:bbox-paths="false" inkscape:object-paths="false" inkscape:showpageshadow="false" showborder="false">
    <inkscape:grid type="xygrid" id="grid1147" units="mm" spacingx="1" spacingy="1" empspacing="5" originy="0" originx="0"/>
  </sodipodi:namedview>
  <defs id="defs2"/>
  <g inkscape:label="Dimension" inkscape:groupmode="layer" id="layer1" style="display:inline">
    <path id="path1480" style="fill:none;stroke-width:0.02;stroke-linecap:round;stroke:#ffff00;stroke-miterlimit:4;stroke-dasharray:none" d="M 15.117188,0 A 15.11811,15.11811 0 0 0 0,15.117188 V 81.638672 H 7.5585938 V 122.45703 H 0 v 3.7793 h 7.5585938 v 6.04687 H 177.63867 v -6.04687 h 7.5586 v -3.7793 h -7.5586 V 81.638672 h 7.5586 V 15.117188 A 15.11811,15.11811 0 0 0 170.07812,0 Z" flap="True" transform="scale(0.264583, 0.264583)"/>
  </g>
  <g id="layer_ss_bot" inkscape:groupmode="layer" inkscape:label="bPlace">
    <path id="path832" style="font-size:80px;font-family:'Red Hat Mono';stroke-width:0;fill:#5f5fd3" d="M 74.910156 25.777344 C 66.040865 25.777344 57.273185 26.985399 48.605469 29.404297 C 39.937752 31.823195 32.175809 35.352061 25.322266 39.988281 L 36.207031 56.919922 C 42.45585 53.291575 49.007785 50.468873 55.861328 48.453125 C 62.714871 46.437377 69.669491 45.429688 76.724609 45.429688 C 91.237995 45.429688 103.73491 49.15892 114.2168 56.617188 C 124.90026 64.27703 133.06489 75.161248 138.70898 89.271484 C 143.77129 101.49085 146.78881 115.83108 147.76953 132.2832 L 169.59766 132.2832 C 168.62939 112.98444 164.79099 95.820711 158.06055 80.806641 C 150.19913 63.471208 139.11259 49.964653 124.80078 40.289062 C 110.48897 30.613472 93.858188 25.777344 74.910156 25.777344 z M 86.097656 108.01953 C 72.39057 108.01953 60.195183 110.84028 49.511719 116.48438 C 41.693041 120.615 35.122617 125.88534 29.787109 132.2832 L 61.25 132.2832 C 61.469836 132.15766 61.685644 132.02924 61.908203 131.90625 C 69.76962 127.87475 78.840779 125.85742 89.121094 125.85742 C 98.952464 125.85742 108.38698 128.00334 117.42578 132.2832 L 141.26953 132.2832 C 134.9622 125.85104 127.86287 120.58066 119.96289 116.48438 C 109.07785 110.84028 97.788995 108.01953 86.097656 108.01953 z " transform="scale(0.26458333)"/>
  </g>
  <g id="layer_ss_top" inkscape:groupmode="layer" inkscape:label="tPlace">
    <path id="path835" style="font-size:80px;font-family:'Red Hat Mono';stroke-width:0;fill:#ff5599" d="M 92.597656 22.677734 C 79.898444 22.677734 68.409221 25.095798 58.128906 29.933594 C 48.050166 34.771389 40.087857 41.323324 34.242188 49.587891 C 28.396518 57.852458 25.474609 67.225141 25.474609 77.707031 C 25.474609 88.793645 29.303048 98.771334 36.962891 107.64062 C 44.824308 116.50992 54.903156 122.65917 67.199219 126.08594 C 61.040308 127.49735 55.293333 129.56499 49.951172 132.2832 L 135.32031 132.2832 C 130.03834 129.61525 124.26625 127.54611 117.99609 126.08594 C 130.49373 122.65917 140.57258 116.50992 148.23242 107.64062 C 155.89226 98.771334 159.72266 88.793645 159.72266 77.707031 C 159.72266 67.225141 156.80075 57.852458 150.95508 49.587891 C 145.10941 41.323324 137.1471 34.771389 127.06836 29.933594 C 116.98962 25.095798 105.49844 22.677734 92.597656 22.677734 z M 92.597656 40.214844 C 101.26537 40.214844 109.02732 41.926744 115.88086 45.353516 C 122.93598 48.578712 128.47827 53.115268 132.50977 58.960938 C 136.54126 64.806607 138.55664 71.356588 138.55664 78.613281 C 138.55664 85.869974 136.54126 92.421909 132.50977 98.267578 C 128.47827 103.91167 122.93598 108.44628 115.88086 111.87305 C 109.02732 115.29982 101.26537 117.01367 92.597656 117.01367 C 83.92994 117.01367 76.06879 115.29982 69.013672 111.87305 C 62.160129 108.44628 56.718996 103.91167 52.6875 98.267578 C 48.656004 92.421909 46.638672 85.869974 46.638672 78.613281 C 46.638672 71.356588 48.656004 64.806607 52.6875 58.960938 C 56.718996 53.115268 62.160129 48.578712 69.013672 45.353516 C 76.06879 41.926744 83.92994 40.214844 92.597656 40.214844 z " transform="scale(0.26458333)"/>
  </g>
</svg>