<svg xmlns:inkscape="http://www.inkscape.org/namespaces/inkscape" xmlns:sodipodi="http://sodipodi.sourceforge.net/DTD/sodipodi-0.dtd" xmlns="http://www.w3.org/2000/svg" xmlns:svg="http://www.w3.org/2000/svg" xmlns:rdf="http://www.w3.org/1999/02/22-rdf-syntax-ns#" xmlns:cc="http://creativecommons.org/ns#" xmlns:dc="http://purl.org/dc/elements/1.1/" width="49mm" height="35mm" viewBox="0 0 49 35" version="1.1" id="svg5" inkscape:version="1.1 (c68e22c387, 2021-05-23)" sodipodi:docname="input.svg">
  <metadata id="metadata149">
    <rdf:RDF>
      <cc:Work rdf:about="">
        <dc:format>image/svg+xml</dc:format>
        <dc:type rdf:resource="http://purl.org/dc/dcmitype/StillImage"/>
      </cc:Work>
    </rdf:RDF>
  </metadata>
  <sodipodi:namedview id="namedview7" pagecolor="#333333" bordercolor="#eeeeee" borderopacity="0" inkscape:pageshadow="0" inkscape:pageopacity="0" inkscape:pagecheckerboard="true" inkscape:document-units="mm" showgrid="true" fit-margin-top="0" fit-margin-left="0" fit-margin-right="0" fit-margin-bottom="0" inkscape:zoom="4" inkscape:cx="107.875" inkscape:cy="101.25" inkscape:window-width="1902" inkscape:window-height="991" inkscape:window-x="0" inkscape:window-y="0" inkscape:window-maximized="0" inkscape:current-layer="layer_ss_bot" inkscape:document-rotation="0" inkscape:snap-object-midpoints="true" inkscape:object-nodes="true" inkscape:snap-bbox="true" inkscape:bbox-nodes="true" inkscape:bbox-paths="false" inkscape:object-paths="false" inkscape:showpageshadow="false" showborder="false">
    <inkscape:grid type="xygrid" id="grid1147" units="mm" spacingx="1" spacingy="1" empspacing="5" originy="0" originx="0"/>
  </sodipodi:namedview>
  <defs id="defs2"/>
  <g inkscape:label="Dimension" inkscape:groupmode="layer" id="layer1" style="display:inline">
    <path id="path1480" style="fill:none;stroke-width:0.02;stroke-linecap:round;stroke:#ffff00;stroke-miterlimit:4;stroke-dasharray:none" d="M 15.117188,0 A 15.11811,15.11811 0 0 0 0,15.117188 V 81.638672 H 7.5585938 V 122.45703 H 0 v 3.7793 h 7.5585938 v 6.04687 H 177.63867 v -6.04687 h 7.5586 v -3.7793 h -7.5586 V 81.638672 h 7.5586 V 15.117188 A 15.11811,15.11811 0 0 0 170.07812,0 Z" flap="True" transform="scale(0.264583, 0.264583)"/>
  </g>
  <g id="layer_ss_bot" inkscape:groupmode="layer" inkscape:label="bPlace">
    <path id="path832" style="font-size:80px;font-family:'Red Hat Mono';stroke-width:0;fill:#5f5fd3" d="M 92.597656 25.474609 C 78.08427 25.474609 64.478509 27.993833 51.779297 33.033203 C 39.281659 38.072573 28.195122 45.531038 18.519531 55.408203 L 33.033203 69.619141 C 41.902494 60.749849 50.973653 54.299074 60.246094 50.267578 C 69.720109 46.437657 80.403962 44.523438 92.296875 44.523438 C 102.57719 44.523437 111.6464 46.336497 119.50781 49.964844 C 127.5708 53.59319 133.82121 58.633591 138.25586 65.083984 C 142.69051 71.534378 144.90625 78.891683 144.90625 87.15625 C 144.90625 95.017667 142.89087 101.97229 138.85938 108.01953 C 135.02945 114.26835 129.68753 119.10643 122.83398 122.5332 C 115.98044 125.95997 108.11929 127.67188 99.25 127.67188 L 74.154297 127.67188 L 74.154297 132.2832 L 135.0957 132.2832 C 142.29486 128.90113 148.49389 124.44772 153.67578 118.9043 C 162.3435 109.63186 166.67773 98.846844 166.67773 86.550781 C 166.67773 74.859443 163.45235 64.37791 157.00195 55.105469 C 150.75313 45.833028 141.9835 38.576882 130.69531 33.335938 C 119.6087 28.094993 106.90947 25.474609 92.597656 25.474609 z " transform="scale(0.26458333)"/>
  </g>
  <g id="layer_ss_top" inkscape:groupmode="layer" inkscape:label="tPlace">
    <path id="path835" style="font-size:80px;font-family:'Red Hat Mono';stroke-width:0;fill:#ff5599" d="M 91.994141 22.677734 C 79.698078 22.677734 67.905376 25.196958 56.617188 30.236328 C 45.328999 35.074123 34.141302 42.532588 23.054688 52.611328 L 35.753906 67.728516 C 46.235796 58.2545 55.70964 51.603359 64.175781 47.773438 C 72.641923 43.943516 81.814241 42.029297 91.691406 42.029297 C 104.59219 42.029297 115.17489 45.55621 123.43945 52.611328 C 131.90559 59.464871 136.13867 68.232551 136.13867 78.916016 C 136.13867 84.358535 135.33135 89.500095 133.71875 94.337891 C 132.30773 99.175686 129.68734 104.41645 125.85742 110.06055 C 122.22908 115.50307 117.08947 121.85268 110.4375 129.10938 L 107.5332 132.2832 L 132.64844 132.2832 C 137.79532 126.32031 141.99705 121.01858 145.20898 116.41016 C 149.8452 109.55661 153.07059 103.207 154.88477 97.361328 C 156.69894 91.314084 157.60547 84.762149 157.60547 77.707031 C 157.60547 67.023567 154.78472 57.549723 149.14062 49.285156 C 143.49653 41.020589 135.73459 34.569814 125.85742 29.933594 C 115.98026 25.095798 104.69335 22.677734 91.994141 22.677734 z " transform="scale(0.26458333)"/>
  </g>
</svg>