<svg xmlns:inkscape="http://www.inkscape.org/namespaces/inkscape" xmlns:sodipodi="http://sodipodi.sourceforge.net/DTD/sodipodi-0.dtd" xmlns="http://www.w3.org/2000/svg" xmlns:svg="http://www.w3.org/2000/svg" xmlns:rdf="http://www.w3.org/1999/02/22-rdf-syntax-ns#" xmlns:cc="http://creativecommons.org/ns#" xmlns:dc="http://purl.org/dc/elements/1.1/" width="49mm" height="35mm" viewBox="0 0 49 35" version="1.1" id="svg5" inkscape:version="1.1 (c68e22c387, 2021-05-23)" sodipodi:docname="input.svg">
  <metadata id="metadata149">
    <rdf:RDF>
      <cc:Work rdf:about="">
        <dc:format>image/svg+xml</dc:format>
        <dc:type rdf:resource="http://purl.org/dc/dcmitype/StillImage"/>
      </cc:Work>
    </rdf:RDF>
  </metadata>
  <sodipodi:namedview id="namedview7" pagecolor="#333333" bordercolor="#eeeeee" borderopacity="0" inkscape:pageshadow="0" inkscape:pageopacity="0" inkscape:pagecheckerboard="true" inkscape:document-units="mm" showgrid="true" fit-margin-top="0" fit-margin-left="0" fit-margin-right="0" fit-margin-bottom="0" inkscape:zoom="4" inkscape:cx="107.875" inkscape:cy="101.25" inkscape:window-width="1902" inkscape:window-height="991" inkscape:window-x="0" inkscape:window-y="0" inkscape:window-maximized="0" inkscape:current-layer="layer_ss_bot" inkscape:document-rotation="0" inkscape:snap-object-midpoints="true" inkscape:object-nodes="true" inkscape:snap-bbox="true" inkscape:bbox-nodes="true" inkscape:bbox-paths="false" inkscape:object-paths="false" inkscape:showpageshadow="false" showborder="false">
    <inkscape:grid type="xygrid" id="grid1147" units="mm" spacingx="1" spacingy="1" empspacing="5" originy="0" originx="0"/>
  </sodipodi:namedview>
  <defs id="defs2"/>
  <g inkscape:label="Dimension" inkscape:groupmode="layer" id="layer1" style="display:inline">
    <path id="path1480" style="fill:none;stroke-width:0.02;stroke-linecap:round;stroke:#ffff00;stroke-miterlimit:4;stroke-dasharray:none" d="M 15.117188,0 A 15.11811,15.11811 0 0 0 0,15.117188 V 81.638672 H 7.5585938 V 122.45703 H 0 v 3.7793 h 7.5585938 v 6.04687 H 177.63867 v -6.04687 h 7.5586 v -3.7793 h -7.5586 V 81.638672 h 7.5586 V 15.117188 A 15.11811,15.11811 0 0 0 170.07812,0 Z" flap="True" transform="scale(0.264583, 0.264583)"/>
  </g>
  <g id="layer_ss_bot" inkscape:groupmode="layer" inkscape:label="bPlace">
    <path id="path832" style="font-size:80px;font-family:'Red Hat Mono';stroke-width:0;fill:#5f5fd3" d="M 108.32031 25.474609 C 96.628974 25.474609 85.542437 28.497678 75.060547 34.544922 C 64.780232 40.793741 55.911393 49.966059 48.453125 62.060547 C 41.196432 74.155035 36.157985 88.869645 33.335938 106.20508 L 9.1464844 106.20508 L 9.1464844 122.5332 L 31.521484 122.5332 C 31.31991 124.54895 31.21875 126.56433 31.21875 128.58008 L 31.21875 132.2832 L 54.802734 132.2832 L 54.802734 128.58008 C 54.802734 126.56433 54.903894 124.54895 55.105469 122.5332 L 117.39258 122.5332 L 111.94922 106.20508 L 57.222656 106.20508 C 60.649428 87.257047 66.897884 72.542437 75.96875 62.060547 C 85.241191 51.780232 96.02425 46.638672 108.32031 46.638672 C 118.39905 46.638672 127.47021 49.864059 135.5332 56.314453 C 143.79777 62.764847 150.3497 72.038324 155.1875 84.132812 L 176.05078 74.759766 C 169.80196 59.238506 160.83196 47.144279 149.14062 38.476562 C 137.44929 29.808846 123.84157 25.474609 108.32031 25.474609 z " transform="scale(0.26458333)"/>
  </g>
  <g id="layer_ss_top" inkscape:groupmode="layer" inkscape:label="tPlace">
    <path id="path835" style="font-size:80px;font-family:'Red Hat Mono';stroke-width:0;fill:#ff5599" d="M 87.003906 22.677734 C 73.29682 22.677734 61.002227 25.700803 50.117188 31.748047 C 39.433723 37.795291 30.967569 46.160285 24.71875 56.84375 C 18.469931 67.32564 15.345703 79.2195 15.345703 92.523438 C 15.345703 105.22265 18.368772 116.61071 24.416016 126.68945 C 25.608841 128.63773 26.89632 130.49962 28.269531 132.2832 L 58.185547 132.2832 C 52.264619 128.33894 47.456635 123.35305 43.767578 117.31641 C 39.332932 109.85814 37.115234 101.39198 37.115234 91.917969 C 37.115234 82.443953 39.231773 73.876639 43.464844 66.216797 C 47.899489 58.556954 53.84642 52.611977 61.304688 48.378906 C 68.96453 43.944261 77.63105 41.726562 87.306641 41.726562 C 97.990105 41.726562 107.56511 44.547312 116.03125 50.191406 C 124.69897 55.835501 131.65359 63.79781 136.89453 74.078125 C 142.33705 84.156865 145.86396 95.949566 147.47656 109.45508 C 140.08398 119.04545 131.30381 126.65362 121.13867 132.2832 L 143.06836 132.2832 C 144.80129 130.40863 146.47539 128.44652 148.08203 126.38672 C 148.04128 128.38356 147.9655 130.34404 147.86914 132.2832 L 169.6875 132.2832 C 169.79321 129.65032 169.85156 126.98298 169.85156 124.27148 C 169.85156 104.31558 166.32465 86.778266 159.26953 71.660156 C 152.21441 56.340471 142.43709 44.347404 129.93945 35.679688 C 117.64339 27.011971 103.33147 22.677734 87.003906 22.677734 z " transform="scale(0.26458333)"/>
  </g>
</svg>