<svg xmlns:inkscape="http://www.inkscape.org/namespaces/inkscape" xmlns:sodipodi="http://sodipodi.sourceforge.net/DTD/sodipodi-0.dtd" xmlns="http://www.w3.org/2000/svg" xmlns:svg="http://www.w3.org/2000/svg" xmlns:rdf="http://www.w3.org/1999/02/22-rdf-syntax-ns#" xmlns:cc="http://creativecommons.org/ns#" xmlns:dc="http://purl.org/dc/elements/1.1/" width="49mm" height="35mm" viewBox="0 0 49 35" version="1.1" id="svg5" inkscape:version="1.1.2 (b8e25be833, 2022-02-05)" sodipodi:docname="input.svg">
  <metadata id="metadata149">
    <rdf:RDF>
      <cc:Work rdf:about="">
        <dc:format>image/svg+xml</dc:format>
        <dc:type rdf:resource="http://purl.org/dc/dcmitype/StillImage"/>
      </cc:Work>
    </rdf:RDF>
  </metadata>
  <sodipodi:namedview id="namedview7" pagecolor="#333333" bordercolor="#eeeeee" borderopacity="0" inkscape:pageshadow="0" inkscape:pageopacity="0" inkscape:pagecheckerboard="true" inkscape:document-units="mm" showgrid="true" fit-margin-top="0" fit-margin-left="0" fit-margin-right="0" fit-margin-bottom="0" inkscape:zoom="1.28" inkscape:cx="6690.625" inkscape:cy="-23.4375" inkscape:window-width="1920" inkscape:window-height="991" inkscape:window-x="0" inkscape:window-y="0" inkscape:window-maximized="0" inkscape:current-layer="layer_gen_characterMap" inkscape:document-rotation="0" inkscape:snap-object-midpoints="true" inkscape:object-nodes="true" inkscape:snap-bbox="true" inkscape:bbox-nodes="true" inkscape:bbox-paths="false" inkscape:object-paths="false" inkscape:showpageshadow="false" showborder="false" inkscape:snap-global="false">
    <inkscape:grid type="xygrid" id="grid1147" units="mm" spacingx="1" spacingy="1" empspacing="5" originy="0" originx="0"/>
  </sodipodi:namedview>
  <defs id="defs2"/>
  <g inkscape:label="Dimension" inkscape:groupmode="layer" id="layer_dimension" style="display:inline">
    <path id="path1480-7" style="display:inline;fill:none;stroke:#ffff00;stroke-width:0.025;stroke-linecap:round;stroke-miterlimit:4;stroke-dasharray:none" d="M 3.9997515,5.0966779e-7 A 3.9999949,3.9999949 0 0 0 5e-7,3.9997515 V 21.600206 H 1.9998759 V 32.400049 H 5e-7 v 0.999939 h 1.9998754 v 1.599899 H 47.000173 V 33.399988 H 49.00005 V 32.400049 H 47.000173 V 21.600206 H 49.00005 V 3.9997515 A 3.9999949,3.9999949 0 0 0 44.99978,5.0966779e-7 Z" flap="True" mid_cutout="0.5"/>
  </g>
  <g id="layer_gen_characterMap" inkscape:groupmode="layer" inkscape:label="gen_flapset">
    <g id="flap_1" transform="translate(50, 0)"/>
    <g id="flap_2" transform="translate(100, 0)">
      </g>
    <g id="flap_3" transform="translate(150, 0)">
      </g>
    <g id="flap_4" transform="translate(200, 0)">
      </g>
    <g id="flap_5" transform="translate(250, 0)">
      </g>
    <g id="flap_6" transform="translate(300, 0)">
      </g>
    <g id="flap_7" transform="translate(350, 0)">
      </g>
    <g id="flap_8" transform="translate(400, 0)">
      </g>
    <g id="flap_9" transform="translate(450, 0)">
      </g>
    <g id="flap_10" transform="translate(500, 0)">
      </g>
    <g id="flap_11" transform="translate(550.001, 0)">
      </g>
    <g id="flap_12" transform="translate(600.001, 0)">
      </g>
    <g id="flap_13" transform="translate(650.001, 0)">
      </g>
    <g id="flap_14" transform="translate(700.001, 0)">
      </g>
    <g id="flap_15" transform="translate(750.001, 0)">
      </g>
    <g id="flap_16" transform="translate(800.001, 0)">
      </g>
    <g id="flap_17" transform="translate(850.001, 0)">
      </g>
    <g id="flap_18" transform="translate(900.001, 0)">
      </g>
    <g id="flap_19" transform="translate(950.001, 0)">
      </g>
    <g id="flap_20" transform="translate(1000, 0)">
      </g>
    <g id="flap_21" transform="translate(1050, 0)">
      </g>
    <g id="flap_22" transform="translate(1100, 0)">
      </g>
    <g id="flap_23" transform="translate(1150, 0)">
      </g>
    <g id="flap_24" transform="translate(1200, 0)">
      </g>
    <g id="flap_25" transform="translate(1250, 0)">
      </g>
    <g id="flap_26" transform="translate(1300, 0)">
      </g>
    <g id="flap_27" transform="translate(1350, 0)">
      </g>
    <g id="flap_28" transform="translate(1400, 0)">
      </g>
    <g id="flap_29" transform="translate(1450, 0)">
      </g>
    <g id="flap_30" transform="translate(1500, 0)">
      </g>
    <g id="flap_31" transform="translate(1550, 0)">
      </g>
    <g id="flap_32" transform="translate(1600, 0)">
      </g>
    <g id="flap_33" transform="translate(1650, 0)">
      </g>
    <g id="flap_34" transform="translate(1700, 0)">
      </g>
    <g id="flap_35" transform="translate(1750, 0)">
      </g>
    <g id="flap_36" transform="translate(1800, 0)">
      </g>
    <g id="flap_37" transform="translate(1850, 0)">
      </g>
    <g id="flap_38" transform="translate(1900, 0)">
      </g>
    <g id="flap_39" transform="translate(1950, 0)">
      </g>
    <g id="flap_40" transform="translate(2000, 0)">
      </g>
    <g id="flap_41" transform="translate(2050, 0)">
      </g>
    <g id="flap_42" transform="translate(2100, 0)">
      <path id="bot_flap_42" style="display:inline;fill:#ffffff;stroke:#ffff00;stroke-width:0;stroke-linecap:round;stroke-miterlimit:4;stroke-dasharray:none" d="M 8029.6055 190.23828 C 8022.6209 190.23828 8016.8009 192.66328 8012.1445 197.51367 C 8007.4882 202.17005 8005.1602 207.89304 8005.1602 214.68359 C 8005.1602 221.28013 8007.4882 227.00312 8012.1445 231.85352 C 8016.8009 236.50989 8022.6209 238.83789 8029.6055 238.83789 C 8036.59 238.83789 8042.412 236.50989 8047.0684 231.85352 C 8051.7247 227.19714 8054.0527 221.47414 8054.0527 214.68359 C 8054.0527 207.89304 8051.7247 202.17005 8047.0684 197.51367 C 8042.412 192.66328 8036.59 190.23828 8029.6055 190.23828 z " transform="matrix(0.26458333,0,0,0.26458333,-2100,0)"/>
    </g>
    <g id="flap_43" transform="translate(2150, 0)">
      <path id="bot_flap_43" style="display:inline;fill:#ffffff;stroke:#ffff00;stroke-width:0;stroke-linecap:round;stroke-miterlimit:4;stroke-dasharray:none" d="M 8205.7773 165.69922 L 8188.3164 242.5293 L 8212.7617 242.5293 L 8244.1934 165.69922 L 8205.7773 165.69922 z " transform="matrix(0.26458333,0,0,0.26458333,-2150,0)"/>
    </g>
    <g id="flap_44" transform="translate(2200, 0)">
      </g>
    <g id="flap_45" transform="translate(2250, 0)">
      <path id="top_flap_45" style="display:inline;fill:#ff5599;stroke:#ffff00;stroke-width:0;stroke-linecap:round;stroke-miterlimit:4;stroke-dasharray:none" d="M 8621.0566 28.351562 L 8575.209 132.2832 L 8600.3652 132.2832 L 8646.0996 28.351562 L 8621.0566 28.351562 z " transform="matrix(0.26458333,0,0,0.26458333,-2250,0)" layer="top"/>
      <path id="bot_flap_46" style="display:inline;fill:#5f5fd3;stroke:#ffff00;stroke-width:0;stroke-linecap:round;stroke-miterlimit:4;stroke-dasharray:none" d="M 8705.1309 134.17383 C 8705.3053 147.62377 8707.2572 160.22615 8710.9961 171.97852 C 8715.1047 184.30603 8720.895 195.13948 8728.3652 204.47852 C 8735.8355 213.81755 8744.6124 221.10218 8754.6973 226.33203 C 8764.7821 231.56189 8775.894 234.17578 8788.0332 234.17578 C 8797.1843 234.17578 8806.2427 232.9633 8815.207 230.53516 C 8824.3581 228.29379 8832.7609 224.6505 8840.418 219.60742 L 8832.8555 205.31836 C 8826.5057 209.42753 8819.2212 212.60433 8811.0039 214.8457 C 8802.7866 217.08707 8795.13 218.20703 8788.0332 218.20703 C 8774.5867 218.20703 8762.9137 214.28424 8753.0156 206.43945 C 8743.1175 198.78145 8735.3683 188.50896 8729.7656 175.62109 C 8724.576 163.09285 8721.879 149.27451 8721.6621 134.17383 L 8705.1309 134.17383 z M 8738.8145 134.17383 C 8738.7572 135.36492 8738.7285 136.57144 8738.7285 137.79688 C 8738.7285 146.01522 8740.4099 153.48684 8743.7715 160.21094 C 8747.1331 166.74826 8751.7086 171.88548 8757.498 175.62109 C 8763.2875 179.35671 8769.8239 181.22461 8777.1074 181.22461 C 8786.0717 181.22461 8794.382 177.67579 8802.0391 170.57812 C 8806.708 176.92867 8813.898 180.10352 8823.6094 180.10352 C 8831.6399 180.10352 8838.83 177.58214 8845.1797 172.53906 C 8851.5294 167.49599 8856.5735 160.39834 8860.3086 151.24609 C 8862.3976 146.02297 8863.8997 140.33173 8864.8203 134.17383 L 8848.373 134.17383 C 8847.3099 141.3016 8845.4085 147.27568 8842.6602 152.08594 C 8838.3648 159.74394 8833.4152 163.57422 8827.8125 163.57422 C 8823.3303 163.57422 8821.462 161.05284 8822.209 156.00977 L 8825.6328 134.17383 L 8800.4414 134.17383 L 8798.1172 149.28516 C 8797.9305 149.8455 8797.8379 150.40646 8797.8379 150.9668 L 8797.8379 152.36719 C 8795.4101 154.42177 8792.7955 156.00822 8789.9941 157.12891 C 8787.3795 158.06281 8784.6705 158.53125 8781.8691 158.53125 C 8776.2664 158.53125 8771.691 156.47636 8768.1426 152.36719 C 8764.5942 148.07124 8762.8203 142.37306 8762.8203 135.27539 C 8762.8203 134.90432 8762.8307 134.5386 8762.8418 134.17383 L 8738.8145 134.17383 z " transform="matrix(0.264583 0 0 -0.264583 -2300 70.4998)" layer="bot"/>
    </g>
    <g id="flap_46" transform="translate(2300, 0)">
      <path id="top_flap_46" style="display:inline;fill:#ff5599;stroke:#ffff00;stroke-width:0;stroke-linecap:round;stroke-miterlimit:4;stroke-dasharray:none" d="M 8788.0332 30.212891 C 8775.894 30.212891 8764.7821 32.826784 8754.6973 38.056641 C 8744.6124 43.286496 8735.8355 50.571125 8728.3652 59.910156 C 8720.895 69.24919 8715.1047 80.082638 8710.9961 92.410156 C 8707.0742 104.73767 8705.1133 117.99999 8705.1133 132.19531 C 8705.1133 132.22473 8705.1133 132.25379 8705.1133 132.2832 L 8721.6406 132.2832 C 8721.6406 132.25374 8721.6406 132.22478 8721.6406 132.19531 C 8721.6406 116.31896 8724.3497 101.93669 8729.7656 89.048828 C 8735.3683 75.974187 8743.1175 65.607224 8753.0156 57.949219 C 8762.9137 50.104431 8774.5867 46.181641 8788.0332 46.181641 C 8800.1724 46.181641 8810.8177 49.169504 8819.9688 55.146484 C 8829.3066 61.123465 8836.4966 69.622521 8841.5391 80.642578 C 8846.7682 91.475851 8849.3828 104.36419 8849.3828 119.30664 C 8849.3828 123.97748 8849.1272 128.29762 8848.6289 132.2832 L 8865.082 132.2832 C 8865.6327 127.99048 8865.9102 123.4794 8865.9102 118.74609 C 8865.9102 101.3755 8862.4549 86.06025 8855.5449 72.798828 C 8848.8217 59.537403 8839.5782 49.170443 8827.8125 41.699219 C 8816.2336 34.041215 8802.9737 30.212891 8788.0332 30.212891 z M 8782.7109 86.527344 C 8774.1201 86.527344 8766.4635 88.767266 8759.7402 93.25 C 8753.2038 97.545955 8748.0672 103.61615 8744.332 111.46094 C 8741.3058 117.66557 8739.506 124.60723 8738.9316 132.2832 L 8762.9531 132.2832 C 8763.4714 126.31426 8765.5712 121.23908 8769.2637 117.06445 C 8773.5591 112.20816 8778.6012 109.78125 8784.3906 109.78125 C 8788.686 109.78125 8792.3283 110.71423 8795.3164 112.58203 C 8798.3045 114.44984 8800.732 116.97121 8802.5996 120.14648 L 8800.7324 132.2832 L 8825.9277 132.2832 L 8832.5742 89.888672 L 8807.082 89.888672 L 8806.2422 95.492188 C 8799.8925 89.51521 8792.0488 86.527344 8782.7109 86.527344 z " transform="matrix(0.26458333,0,0,0.26458333,-2300,0)" layer="top"/>
      <path id="bot_flap_47" style="display:inline;fill:#5f5fd3;stroke:#ffff00;stroke-width:0;stroke-linecap:round;stroke-miterlimit:4;stroke-dasharray:none" d="M 8928.5703 134.17383 L 8921.8125 153.56836 L 8889.4492 153.56836 L 8889.4492 177.14258 L 8913.9551 177.14258 L 8893.584 236.21875 L 8921.5215 236.21875 L 8941.8945 177.14258 L 8977.9805 177.14258 L 8957.6094 236.21875 L 8985.5469 236.21875 L 9005.918 177.14258 L 9046.3711 177.14258 L 9046.3711 153.56836 L 9013.7773 153.56836 L 9020.5352 134.17383 L 8992.5957 134.17383 L 8985.8379 153.56836 L 8950.043 153.56836 L 8956.6543 134.17383 L 8928.5703 134.17383 z " transform="matrix(0.264583 0 0 -0.264583 -2350 70.4998)" layer="bot"/>
    </g>
    <g id="flap_47" transform="translate(2350, 0)">
      <path id="top_flap_47" style="display:inline;fill:#ff5599;stroke:#ffff00;stroke-width:0;stroke-linecap:round;stroke-miterlimit:4;stroke-dasharray:none" d="M 8963.4297 32.503906 L 8943.0586 91.580078 L 8902.6055 91.580078 L 8902.6055 115.1543 L 8935.1992 115.1543 L 8929.2305 132.2832 L 8957.2988 132.2832 L 8963.1387 115.1543 L 8999.2246 115.1543 L 8993.2559 132.2832 L 9021.1953 132.2832 L 9027.1641 115.1543 L 9059.5273 115.1543 L 9059.5273 91.580078 L 9035.3125 91.580078 L 9055.3926 32.503906 L 9027.4551 32.503906 L 9007.373 91.580078 L 8971.2871 91.580078 L 8991.3672 32.503906 L 8963.4297 32.503906 z " transform="matrix(0.26458333,0,0,0.26458333,-2350,0)" layer="top"/>
      <path id="bot_flap_48" style="display:inline;fill:#5f5fd3;stroke:#ffff00;stroke-width:0;stroke-linecap:round;stroke-miterlimit:4;stroke-dasharray:none" d="M 9108.4766 134.17383 C 9101.7759 139.91888 9096.5295 145.89771 9092.7461 152.11328 C 9087.3137 161.03801 9084.5977 171.03095 9084.5977 182.08984 C 9084.5977 193.53677 9087.2167 203.62476 9092.4551 212.35547 C 9097.6935 220.89216 9104.9685 227.58515 9114.2812 232.43555 C 9123.594 237.09192 9134.4599 239.41992 9146.877 239.41992 C 9157.3538 239.41992 9167.1508 237.47992 9176.2695 233.59961 C 9185.3883 229.71929 9193.6333 223.8993 9201.0059 216.13867 C 9206.2443 220.98907 9211.2902 225.35406 9216.1406 229.23438 C 9220.991 233.11469 9225.744 236.99664 9230.4004 240.87695 L 9249.8984 219.63086 C 9245.6301 216.13858 9240.9741 212.25858 9235.9297 207.99023 C 9230.8853 203.72189 9225.1623 198.77489 9218.7598 193.14844 C 9223.2221 185.38781 9227.1021 176.84987 9230.4004 167.53711 C 9233.8927 158.03034 9236.8027 147.74835 9239.1309 136.68945 L 9224.0371 134.17383 L 9210.8164 134.17383 C 9209.5001 141.50896 9207.7846 148.36481 9205.6621 154.73242 C 9203.5279 161.71699 9201.1029 168.12093 9198.3867 173.94141 C 9191.0141 166.76282 9183.8361 159.48588 9176.8516 152.11328 C 9170.9152 145.84711 9165.4255 139.87939 9160.3301 134.17383 L 9108.4766 134.17383 z M 9133.7793 146.875 C 9140.7639 155.41169 9148.3318 163.94964 9156.4805 172.48633 C 9164.6291 181.02302 9173.0681 189.55901 9181.7988 198.0957 C 9177.1425 203.33413 9172.0015 207.31112 9166.375 210.02734 C 9160.7485 212.74356 9154.8316 214.10156 9148.623 214.10156 C 9137.9522 214.10156 9129.4142 211.09457 9123.0117 205.08008 C 9116.8032 198.87157 9113.6992 190.62658 9113.6992 180.34375 C 9113.6992 174.32926 9115.3482 168.60432 9118.6465 163.17188 C 9121.9448 157.73943 9126.9887 152.30744 9133.7793 146.875 z " transform="matrix(0.264583 0 0 -0.264583 -2400 70.4998)" layer="bot"/>
    </g>
    <g id="flap_48" transform="translate(2400, 0)">
      <path id="top_flap_48" style="display:inline;fill:#ff5599;stroke:#ffff00;stroke-width:0;stroke-linecap:round;stroke-miterlimit:4;stroke-dasharray:none" d="M 9152.6973 29.302734 C 9142.8025 29.302734 9133.8765 31.533732 9125.9219 35.996094 C 9118.1612 40.26444 9112.0503 46.181433 9107.5879 53.748047 C 9103.1255 61.314661 9100.8945 69.94765 9100.8945 79.648438 C 9100.8945 87.215052 9102.2525 94.879995 9104.9688 102.64062 C 9107.879 110.20724 9112.244 118.25823 9118.0645 126.79492 C 9115.4682 128.5991 9113.0349 130.42913 9110.748 132.2832 L 9158.6465 132.2832 C 9158.3172 131.91167 9157.9702 131.52926 9157.6445 131.16016 C 9168.5094 124.17559 9177.1424 117.6766 9183.5449 111.66211 C 9190.1415 105.64762 9194.7975 99.631676 9197.5137 93.617188 C 9200.4239 87.602699 9201.8789 81.006708 9201.8789 73.828125 C 9201.8789 65.097416 9199.7449 57.434426 9195.4766 50.837891 C 9191.2082 44.241355 9185.3882 39.003362 9178.0156 35.123047 C 9170.643 31.242732 9162.204 29.302734 9152.6973 29.302734 z M 9151.8242 53.166016 C 9157.8387 53.166016 9162.8827 55.203013 9166.957 59.277344 C 9171.0314 63.351674 9173.0684 68.492668 9173.0684 74.701172 C 9173.0684 79.163534 9172.0984 83.334529 9170.1582 87.214844 C 9168.218 91.095159 9164.92 95.074107 9160.2637 99.148438 C 9155.8013 103.02875 9149.8843 107.29675 9142.5117 111.95312 C 9138.0494 105.55061 9134.7494 99.72866 9132.6152 94.490234 C 9130.4811 89.251809 9129.4141 84.110816 9129.4141 79.066406 C 9129.4141 71.305776 9131.4511 65.097784 9135.5254 60.441406 C 9139.7937 55.591013 9145.2277 53.166016 9151.8242 53.166016 z M 9211.1934 132.0332 C 9211.1793 132.11732 9211.1626 132.19921 9211.1484 132.2832 L 9212.6934 132.2832 L 9211.1934 132.0332 z " transform="matrix(0.26458333,0,0,0.26458333,-2400,0)" layer="top"/>
      </g>
  </g>
<g id="layer_bPlace" inkscape:groupmode="layer" inkscape:label="bPlace"><path id="bot_flap_45" style="display:inline;fill:#5f5fd3;stroke:#ffff00;stroke-width:0;stroke-linecap:round;stroke-miterlimit:4;stroke-dasharray:none" d="M 8574.373 134.17383 L 8528.9277 237.19336 L 8554.1992 237.19336 L 8599.5332 134.17383 L 8574.373 134.17383 z " transform="matrix(0.264583 0 0 -0.264583 -2250 70.4998)" layer="bot"/>
    </g><g id="layer_tPlace" inkscape:groupmode="layer" inkscape:label="tPlace"><path id="top_flap_44" style="display:inline;fill:#ff5599;stroke:#ffff00;stroke-width:0;stroke-linecap:round;stroke-miterlimit:4;stroke-dasharray:none" d="M 8407.5586 73.103516 C 8400.574 73.103516 8394.754 75.528513 8390.0977 80.378906 C 8385.4413 85.035284 8383.1133 90.76023 8383.1133 97.550781 C 8383.1133 104.14732 8385.4413 109.87031 8390.0977 114.7207 C 8394.754 119.37708 8400.574 121.70508 8407.5586 121.70508 C 8414.5432 121.70508 8420.3651 119.37708 8425.0215 114.7207 C 8429.6779 110.06433 8432.0059 104.34133 8432.0059 97.550781 C 8432.0059 90.76023 8429.6779 85.035284 8425.0215 80.378906 C 8420.3651 75.528513 8414.5432 73.103516 8407.5586 73.103516 z " transform="matrix(0.26458333,0,0,0.26458333,-2200,0)" layer="top"/>
      </g></svg>