<svg xmlns:inkscape="http://www.inkscape.org/namespaces/inkscape" xmlns:sodipodi="http://sodipodi.sourceforge.net/DTD/sodipodi-0.dtd" xmlns="http://www.w3.org/2000/svg" xmlns:svg="http://www.w3.org/2000/svg" xmlns:rdf="http://www.w3.org/1999/02/22-rdf-syntax-ns#" xmlns:cc="http://creativecommons.org/ns#" xmlns:dc="http://purl.org/dc/elements/1.1/" width="49mm" height="35mm" viewBox="0 0 49 35" version="1.1" id="svg5" inkscape:version="1.1 (c68e22c387, 2021-05-23)" sodipodi:docname="input.svg">
  <metadata id="metadata149">
    <rdf:RDF>
      <cc:Work rdf:about="">
        <dc:format>image/svg+xml</dc:format>
        <dc:type rdf:resource="http://purl.org/dc/dcmitype/StillImage"/>
      </cc:Work>
    </rdf:RDF>
  </metadata>
  <sodipodi:namedview id="namedview7" pagecolor="#333333" bordercolor="#eeeeee" borderopacity="0" inkscape:pageshadow="0" inkscape:pageopacity="0" inkscape:pagecheckerboard="true" inkscape:document-units="mm" showgrid="true" fit-margin-top="0" fit-margin-left="0" fit-margin-right="0" fit-margin-bottom="0" inkscape:zoom="4" inkscape:cx="107.875" inkscape:cy="101.25" inkscape:window-width="1902" inkscape:window-height="991" inkscape:window-x="0" inkscape:window-y="0" inkscape:window-maximized="0" inkscape:current-layer="layer_ss_bot" inkscape:document-rotation="0" inkscape:snap-object-midpoints="true" inkscape:object-nodes="true" inkscape:snap-bbox="true" inkscape:bbox-nodes="true" inkscape:bbox-paths="false" inkscape:object-paths="false" inkscape:showpageshadow="false" showborder="false">
    <inkscape:grid type="xygrid" id="grid1147" units="mm" spacingx="1" spacingy="1" empspacing="5" originy="0" originx="0"/>
  </sodipodi:namedview>
  <defs id="defs2"/>
  <g inkscape:label="Dimension" inkscape:groupmode="layer" id="layer1" style="display:inline">
    <path id="path1480" style="fill:none;stroke-width:0.02;stroke-linecap:round;stroke:#ffff00;stroke-miterlimit:4;stroke-dasharray:none" d="M 15.117188,0 A 15.11811,15.11811 0 0 0 0,15.117188 V 81.638672 H 7.5585938 V 122.45703 H 0 v 3.7793 h 7.5585938 v 6.04687 H 177.63867 v -6.04687 h 7.5586 v -3.7793 h -7.5586 V 81.638672 h 7.5586 V 15.117188 A 15.11811,15.11811 0 0 0 170.07812,0 Z" flap="True" transform="scale(0.264583, 0.264583)"/>
  </g>
  <g id="layer_ss_bot" inkscape:groupmode="layer" inkscape:label="bPlace">
    <path id="path832" style="font-size:80px;font-family:'Red Hat Mono';stroke-width:0;fill:#5f5fd3" d="M 161.99023 24.869141 C 157.15244 28.699062 151.91167 32.932139 146.26758 37.568359 C 140.82506 42.20458 134.67776 47.647665 127.82422 53.896484 C 119.76123 44.624043 110.79123 37.568264 100.91406 32.730469 C 91.238472 27.892673 80.957305 25.474609 70.072266 25.474609 C 57.977777 25.474609 47.293925 27.892673 38.021484 32.730469 C 28.950618 37.568264 21.896792 44.421724 16.857422 53.291016 C 11.818052 62.160307 9.296875 72.441474 9.296875 84.132812 C 9.296875 96.025726 12.119577 106.60842 17.763672 115.88086 C 21.279695 121.458 26.007168 126.92484 31.929688 132.2832 L 80.550781 132.2832 C 86.273499 125.81069 92.248047 119.23656 98.494141 112.55469 C 107.36343 103.28225 116.23227 94.312248 125.10156 85.644531 C 128.52833 92.094925 131.55336 99.35107 134.17383 107.41406 C 136.68653 115.14547 138.73038 123.43978 140.31641 132.2832 L 147.53711 132.2832 L 161.08398 130.0918 C 158.86666 118.60203 155.9428 107.91818 152.31445 98.041016 C 148.88768 88.365425 144.85692 79.496586 140.2207 71.433594 C 146.46952 65.789499 152.51566 60.346414 158.36133 55.105469 C 164.40857 49.864524 170.25434 44.925283 175.89844 40.289062 L 161.99023 24.869141 z M 70.980469 44.523438 C 78.841886 44.523438 86.399557 46.437657 93.65625 50.267578 C 100.91294 54.299074 107.46488 60.043685 113.31055 67.501953 C 102.22393 78.185418 91.841606 88.567744 82.166016 98.646484 C 72.692 108.72522 64.126639 118.39943 56.466797 127.67188 C 47.597506 120.81833 41.045571 113.86371 36.8125 106.80859 C 32.579429 99.95505 30.462891 92.597745 30.462891 84.736328 C 30.462891 72.64184 34.090963 62.866471 41.347656 55.408203 C 48.805924 48.15151 58.684406 44.523437 70.980469 44.523438 z " transform="scale(0.26458333)"/>
  </g>
  <g id="layer_ss_top" inkscape:groupmode="layer" inkscape:label="tPlace">
    <path id="path835" style="font-size:80px;font-family:'Red Hat Mono';stroke-width:0;fill:#ff5599" d="M 86.853516 22.677734 L 64.175781 88.894531 L 22.148438 88.894531 L 22.148438 106.43164 L 58.128906 106.43164 L 49.275391 132.2832 L 69.232422 132.2832 L 78.085938 106.43164 L 122.5332 106.43164 L 113.67969 132.2832 L 133.63477 132.2832 L 142.48828 106.43164 L 177.5625 106.43164 L 177.5625 88.894531 L 148.53516 88.894531 L 171.21289 22.677734 L 151.25586 22.677734 L 128.58008 88.894531 L 84.132812 88.894531 L 106.80859 22.677734 L 86.853516 22.677734 z " transform="scale(0.26458333)"/>
  </g>
</svg>