<svg xmlns:inkscape="http://www.inkscape.org/namespaces/inkscape" xmlns:sodipodi="http://sodipodi.sourceforge.net/DTD/sodipodi-0.dtd" xmlns="http://www.w3.org/2000/svg" xmlns:svg="http://www.w3.org/2000/svg" xmlns:rdf="http://www.w3.org/1999/02/22-rdf-syntax-ns#" xmlns:cc="http://creativecommons.org/ns#" xmlns:dc="http://purl.org/dc/elements/1.1/" width="49mm" height="35mm" viewBox="0 0 49 35" version="1.1" id="svg5" inkscape:version="1.1.2 (b8e25be833, 2022-02-05)" sodipodi:docname="input.svg">
  <metadata id="metadata149">
    <rdf:RDF>
      <cc:Work rdf:about="">
        <dc:format>image/svg+xml</dc:format>
        <dc:type rdf:resource="http://purl.org/dc/dcmitype/StillImage"/>
      </cc:Work>
    </rdf:RDF>
  </metadata>
  <sodipodi:namedview id="namedview7" pagecolor="#333333" bordercolor="#eeeeee" borderopacity="0" inkscape:pageshadow="0" inkscape:pageopacity="0" inkscape:pagecheckerboard="true" inkscape:document-units="mm" showgrid="true" fit-margin-top="0" fit-margin-left="0" fit-margin-right="0" fit-margin-bottom="0" inkscape:zoom="1.28" inkscape:cx="6690.625" inkscape:cy="-23.4375" inkscape:window-width="1920" inkscape:window-height="991" inkscape:window-x="0" inkscape:window-y="0" inkscape:window-maximized="0" inkscape:current-layer="layer_gen_charset" inkscape:document-rotation="0" inkscape:snap-object-midpoints="true" inkscape:object-nodes="true" inkscape:snap-bbox="true" inkscape:bbox-nodes="true" inkscape:bbox-paths="false" inkscape:object-paths="false" inkscape:showpageshadow="false" showborder="false" inkscape:snap-global="false">
    <inkscape:grid type="xygrid" id="grid1147" units="mm" spacingx="1" spacingy="1" empspacing="5" originy="0" originx="0"/>
  </sodipodi:namedview>
  <defs id="defs2"/>
  <g inkscape:label="Dimension" inkscape:groupmode="layer" id="layer_dimension" style="display:inline">
    <path id="path1480-7" style="display:inline;fill:none;stroke:#ffff00;stroke-width:0.025;stroke-linecap:round;stroke-miterlimit:4;stroke-dasharray:none" d="M 3.9997515,5.0966779e-7 A 3.9999949,3.9999949 0 0 0 5e-7,3.9997515 V 21.600206 H 1.9998759 V 32.400049 H 5e-7 v 0.999939 h 1.9998754 v 1.599899 H 47.000173 V 33.399988 H 49.00005 V 32.400049 H 47.000173 V 21.600206 H 49.00005 V 3.9997515 A 3.9999949,3.9999949 0 0 0 44.99978,5.0966779e-7 Z" flap="True" mid_cutout="0.5"/>
  </g>
  <g id="layer_gen_charset" inkscape:groupmode="layer" inkscape:label="gen_flapset">
    <g id="flap_1" transform="translate(50, 0)"/>
    <g id="flap_2" transform="translate(100, 0)">
      </g>
    <g id="flap_3" transform="translate(150, 0)">
      </g>
    <g id="flap_4" transform="translate(200, 0)">
      </g>
    <g id="flap_5" transform="translate(250, 0)">
      </g>
    <g id="flap_6" transform="translate(300, 0)">
      </g>
    <g id="flap_7" transform="translate(350, 0)">
      </g>
    <g id="flap_8" transform="translate(400, 0)">
      </g>
    <g id="flap_9" transform="translate(450, 0)">
      </g>
    <g id="flap_10" transform="translate(500, 0)">
      </g>
    <g id="flap_11" transform="translate(550.001, 0)">
      </g>
    <g id="flap_12" transform="translate(600.001, 0)">
      </g>
    <g id="flap_13" transform="translate(650.001, 0)">
      </g>
    <g id="flap_14" transform="translate(700.001, 0)">
      </g>
    <g id="flap_15" transform="translate(750.001, 0)">
      </g>
    <g id="flap_16" transform="translate(800.001, 0)">
      </g>
    <g id="flap_17" transform="translate(850.001, 0)">
      </g>
    <g id="flap_18" transform="translate(900.001, 0)">
      </g>
    <g id="flap_19" transform="translate(950.001, 0)">
      </g>
    <g id="flap_20" transform="translate(1000, 0)">
      </g>
    <g id="flap_21" transform="translate(1050, 0)">
      </g>
    <g id="flap_22" transform="translate(1100, 0)">
      </g>
    <g id="flap_23" transform="translate(1150, 0)">
      </g>
    <g id="flap_24" transform="translate(1200, 0)">
      </g>
    <g id="flap_25" transform="translate(1250, 0)">
      </g>
    <g id="flap_26" transform="translate(1300, 0)">
      </g>
    <g id="flap_27" transform="translate(1350, 0)">
      </g>
    <g id="flap_28" transform="translate(1400, 0)">
      </g>
    <g id="flap_29" transform="translate(1450, 0)">
      </g>
    <g id="flap_30" transform="translate(1500, 0)">
      </g>
    <g id="flap_31" transform="translate(1550, 0)">
      </g>
    <g id="flap_32" transform="translate(1600, 0)">
      </g>
    <g id="flap_33" transform="translate(1650, 0)">
      </g>
    <g id="flap_34" transform="translate(1700, 0)">
      <path id="top_flap_34" style="display:inline;fill:#ff5599;stroke:#ffff00;stroke-width:0;stroke-linecap:round;stroke-miterlimit:4;stroke-dasharray:none" d="M 6534.9648 29.302734 C 6516.1453 29.302734 6499.5583 33.958729 6485.2012 43.271484 C 6471.038 52.390225 6459.9781 65.194208 6452.0234 81.685547 C 6444.9593 96.330758 6441.0408 113.20074 6440.25 132.2832 L 6472.0273 132.2832 C 6472.7274 118.03566 6475.0791 105.72436 6479.0898 95.363281 C 6483.9402 83.140289 6490.8272 73.828301 6499.752 67.425781 C 6508.8707 61.023262 6519.7347 57.822266 6532.3457 57.822266 C 6539.9123 57.822266 6546.8983 58.889264 6553.3008 61.023438 C 6559.7033 62.963595 6565.8143 66.067591 6571.6348 70.335938 L 6589.0957 46.763672 C 6582.3052 41.331231 6574.0602 37.063236 6564.3594 33.958984 C 6554.6586 30.854732 6544.8596 29.302734 6534.9648 29.302734 z M 6527.9805 109.33398 C 6517.3096 109.33398 6507.0276 111.95298 6497.1328 117.19141 C 6489.8289 121.05818 6483.3198 126.09073 6477.6016 132.2832 L 6582.3574 132.2832 C 6577.2423 126.22512 6570.9564 121.28792 6563.4863 117.48242 C 6553.2035 112.04998 6541.3676 109.33398 6527.9805 109.33398 z " transform="matrix(0.26458333,0,0,0.26458333,-1700,0)" layer="top"/>
      <path id="bot_flap_35" style="display:inline;fill:#5f5fd3;stroke:#ffff00;stroke-width:0;stroke-linecap:round;stroke-miterlimit:4;stroke-dasharray:none" d="M 6708.1797 134.17383 L 6652.9316 236.21875 L 6690.4746 236.21875 L 6742.7383 134.17383 L 6708.1797 134.17383 z " transform="matrix(0.264583 0 0 -0.264583 -1750 70.4998)" layer="bot"/>
    </g>
    <g id="flap_35" transform="translate(1750, 0)">
      <path id="top_flap_35" style="display:inline;fill:#ff5599;stroke:#ffff00;stroke-width:0;stroke-linecap:round;stroke-miterlimit:4;stroke-dasharray:none" d="M 6631.1055 32.503906 L 6631.1055 60.441406 L 6748.0977 60.441406 L 6709.2031 132.2832 L 6743.7051 132.2832 L 6782.4375 56.658203 L 6782.4375 32.503906 L 6631.1055 32.503906 z " transform="matrix(0.26458333,0,0,0.26458333,-1750,0)" layer="top"/>
      <path id="bot_flap_36" style="display:inline;fill:#5f5fd3;stroke:#ffff00;stroke-width:0;stroke-linecap:round;stroke-miterlimit:4;stroke-dasharray:none" d="M 6852.543 134.17383 C 6848.4266 136.04667 6844.5886 138.33736 6841.0352 141.05469 C 6834.4386 145.90508 6829.2976 151.72507 6825.6113 158.51562 C 6821.925 165.11216 6820.082 172.2921 6820.082 180.05273 C 6820.082 191.49966 6823.283 201.78165 6829.6855 210.90039 C 6836.2821 219.82512 6845.2061 226.80911 6856.459 231.85352 C 6867.9059 236.89793 6881.0029 239.41992 6895.748 239.41992 C 6910.4932 239.41992 6923.5902 236.89793 6935.0371 231.85352 C 6946.484 226.80911 6955.408 219.82512 6961.8105 210.90039 C 6968.2131 201.78165 6971.4141 191.49966 6971.4141 180.05273 C 6971.4141 168.41179 6967.3401 158.03085 6959.1914 148.91211 C 6953.5569 142.60685 6946.8081 137.69621 6938.9473 134.17383 L 6852.543 134.17383 z M 6895.748 143.0918 C 6904.2847 143.0918 6911.7537 144.64379 6918.1562 147.74805 C 6924.7528 150.65828 6929.8957 154.82928 6933.582 160.26172 C 6937.4623 165.50014 6939.4023 171.51609 6939.4023 178.30664 C 6939.4023 184.70916 6937.4623 190.62615 6933.582 196.05859 C 6929.8957 201.49103 6924.7528 205.75903 6918.1562 208.86328 C 6911.7537 211.77352 6904.2847 213.22852 6895.748 213.22852 C 6887.4054 213.22852 6879.9364 211.77352 6873.3398 208.86328 C 6866.7433 205.75903 6861.5034 201.58803 6857.623 196.34961 C 6853.9367 190.91717 6852.0938 184.80618 6852.0938 178.01562 C 6852.0937 171.22507 6853.9367 165.20913 6857.623 159.9707 C 6861.5034 154.73228 6866.7433 150.65828 6873.3398 147.74805 C 6879.9364 144.64379 6887.4054 143.0918 6895.748 143.0918 z " transform="matrix(0.264583 0 0 -0.264583 -1800 70.4998)" layer="bot"/>
    </g>
    <g id="flap_36" transform="translate(1800, 0)">
      <path id="top_flap_36" style="display:inline;fill:#ff5599;stroke:#ffff00;stroke-width:0;stroke-linecap:round;stroke-miterlimit:4;stroke-dasharray:none" d="M 6895.748 29.302734 C 6882.749 29.302734 6871.012 31.727731 6860.5352 36.578125 C 6850.2523 41.428518 6842.1024 48.12151 6836.0879 56.658203 C 6830.0734 65.00088 6827.0664 74.506868 6827.0664 85.177734 C 6827.0664 95.266553 6830.4614 104.38649 6837.252 112.53516 C 6844.0425 120.68382 6852.8714 126.60081 6863.7363 130.28711 C 6861.484 130.85019 6859.3008 131.51754 6857.1836 132.2832 L 6934.2422 132.2832 C 6932.1511 131.5312 6929.9924 130.86217 6927.7598 130.28711 C 6938.6246 126.60081 6947.4536 120.68382 6954.2441 112.53516 C 6961.0347 104.38649 6964.4297 95.266553 6964.4297 85.177734 C 6964.4297 74.506868 6961.4227 65.00088 6955.4082 56.658203 C 6949.5877 48.12151 6941.4397 41.428518 6930.9629 36.578125 C 6920.6801 31.727731 6908.9411 29.302734 6895.748 29.302734 z M 6895.748 55.494141 C 6902.9266 55.494141 6909.3286 56.852139 6914.9551 59.568359 C 6920.5815 62.28458 6925.0435 66.067575 6928.3418 70.917969 C 6931.6401 75.574347 6933.291 80.90934 6933.291 86.923828 C 6933.291 92.938316 6931.6401 98.372263 6928.3418 103.22266 C 6925.0435 107.87903 6920.5815 111.66203 6914.9551 114.57227 C 6909.3286 117.28849 6902.9266 118.64648 6895.748 118.64648 C 6888.5695 118.64648 6882.1675 117.28849 6876.541 114.57227 C 6870.9146 111.66203 6866.4526 107.87903 6863.1543 103.22266 C 6859.856 98.372263 6858.2051 92.938316 6858.2051 86.923828 C 6858.2051 80.90934 6859.856 75.574347 6863.1543 70.917969 C 6866.4526 66.067575 6870.9146 62.28458 6876.541 59.568359 C 6882.1675 56.852139 6888.5695 55.494141 6895.748 55.494141 z " transform="matrix(0.26458333,0,0,0.26458333,-1800,0)" layer="top"/>
      <path id="bot_flap_37" style="display:inline;fill:#5f5fd3;stroke:#ffff00;stroke-width:0;stroke-linecap:round;stroke-miterlimit:4;stroke-dasharray:none" d="M 7018.1836 134.17383 C 7023.6238 141.27265 7030.5707 147.0605 7039.0332 151.53125 C 7049.316 156.76968 7061.152 159.38867 7074.5391 159.38867 C 7085.2099 159.38867 7095.4919 156.76968 7105.3867 151.53125 C 7113.5619 147.20323 7120.7411 141.41548 7126.9297 134.17383 L 7084.2617 134.17383 C 7082.6835 134.29562 7081.0922 134.36133 7079.4863 134.36133 C 7077.869 134.36133 7076.293 134.29779 7074.7559 134.17383 L 7018.1836 134.17383 z M 7130.584 134.17383 C 7130.0141 149.40336 7127.5365 162.56786 7123.1387 173.65039 C 7118.4823 185.67937 7111.5953 194.89436 7102.4766 201.29688 C 7093.5518 207.69939 7082.7849 210.90039 7070.1738 210.90039 C 7062.6072 210.90039 7055.6213 209.93039 7049.2188 207.99023 C 7042.8162 205.85606 7036.7052 202.65507 7030.8848 198.38672 L 7013.4238 221.95898 C 7020.2144 227.39143 7028.4594 231.65942 7038.1602 234.76367 C 7047.8609 237.86792 7057.6599 239.41992 7067.5547 239.41992 C 7086.3742 239.41992 7102.8642 234.86093 7117.0273 225.74219 C 7131.3845 216.42943 7142.5414 203.52845 7150.4961 187.03711 C 7157.8385 171.81513 7161.7845 154.18945 7162.3496 134.17383 L 7130.584 134.17383 z " transform="matrix(0.264583 0 0 -0.264583 -1850 70.4998)" layer="bot"/>
    </g>
    <g id="flap_37" transform="translate(1850, 0)">
      <path id="top_flap_37" style="display:inline;fill:#ff5599;stroke:#ffff00;stroke-width:0;stroke-linecap:round;stroke-miterlimit:4;stroke-dasharray:none" d="M 7078.0312 29.59375 C 7064.2561 29.59375 7051.9352 32.503747 7041.0703 38.324219 C 7030.2054 44.144691 7021.6694 52.195681 7015.4609 62.478516 C 7009.2524 72.567335 7006.1484 84.01332 7006.1484 96.818359 C 7006.1484 109.04135 7009.0584 119.90729 7014.8789 129.41406 C 7015.4912 130.39375 7016.1332 131.34646 7016.7949 132.2832 L 7064.625 132.2832 C 7062.1715 131.53042 7059.8485 130.57662 7057.6602 129.41406 C 7051.4517 126.11579 7046.5027 121.6538 7042.8164 116.02734 C 7039.3241 110.20687 7037.5781 103.60893 7037.5781 96.236328 C 7037.5781 88.669714 7039.4211 81.976722 7043.1074 76.15625 C 7046.7937 70.141762 7051.7427 65.485768 7057.9512 62.1875 C 7064.1597 58.695217 7071.2407 56.949219 7079.1953 56.949219 C 7087.732 56.949219 7095.492 59.180216 7102.4766 63.642578 C 7109.4611 67.910925 7115.1841 74.021917 7119.6465 81.976562 C 7124.3029 89.931208 7127.5058 99.245149 7129.252 109.91602 C 7122.8494 117.48263 7115.2815 123.49662 7106.5508 127.95898 C 7102.8751 129.79681 7099.1094 131.23669 7095.2539 132.2832 L 7128.4941 132.2832 C 7129.2458 131.34769 7129.9863 130.39502 7130.707 129.41406 C 7130.6962 130.37958 7130.6738 131.33346 7130.6484 132.2832 L 7162.3926 132.2832 C 7162.4109 131.23414 7162.4277 130.18509 7162.4277 129.12305 C 7162.4277 109.33344 7158.8387 91.968509 7151.6602 77.029297 C 7144.4816 62.090084 7134.5856 50.450099 7121.9746 42.107422 C 7109.3636 33.764745 7094.7166 29.59375 7078.0312 29.59375 z " transform="matrix(0.26458333,0,0,0.26458333,-1850,0)" layer="top"/>
      <path id="bot_flap_38" style="display:inline;fill:#5f5fd3;stroke:#ffff00;stroke-width:0;stroke-linecap:round;stroke-miterlimit:4;stroke-dasharray:none" d="M 7212.877 134.17383 L 7212.877 134.36133 L 7212.877 139.30859 C 7212.877 140.86072 7212.974 142.50972 7213.168 144.25586 L 7193.3789 144.25586 L 7193.3789 163.17188 L 7215.2051 163.17188 C 7218.1153 179.66321 7223.1593 193.63315 7230.3379 205.08008 C 7237.5165 216.33299 7246.1514 224.86898 7256.2402 230.68945 C 7266.5231 236.50993 7277.4841 239.41992 7289.125 239.41992 C 7304.4522 239.41992 7317.8402 235.34593 7329.2871 227.19727 C 7340.734 219.0486 7349.658 207.21462 7356.0605 191.69336 L 7326.0859 179.4707 C 7322.0116 189.36551 7316.8687 196.8345 7310.6602 201.87891 C 7304.4517 206.92332 7297.4677 209.44531 7289.707 209.44531 C 7280.2003 209.44531 7271.8583 205.56532 7264.6797 197.80469 C 7257.5011 190.04406 7252.3582 178.49912 7249.2539 163.17188 L 7291.7441 163.17188 L 7298.7285 144.25586 L 7247.2168 144.25586 C 7247.0228 142.50972 7246.9258 140.86072 7246.9258 139.30859 L 7246.9258 134.36133 L 7246.9258 134.17383 L 7212.877 134.17383 z " transform="matrix(0.264583 0 0 -0.264583 -1900 70.4998)" layer="bot"/>
    </g>
    <g id="flap_38" transform="translate(1900, 0)">
      <path id="top_flap_38" style="display:inline;fill:#ff5599;stroke:#ffff00;stroke-width:0;stroke-linecap:round;stroke-miterlimit:4;stroke-dasharray:none" d="M 7289.125 29.302734 C 7277.4841 29.302734 7266.5231 32.212731 7256.2402 38.033203 C 7246.1514 43.853676 7237.5165 52.486665 7230.3379 63.933594 C 7223.1593 75.186507 7218.1153 89.059443 7215.2051 105.55078 L 7193.3789 105.55078 L 7193.3789 124.4668 L 7213.168 124.4668 C 7212.974 126.21294 7212.877 127.86194 7212.877 129.41406 L 7212.877 132.2832 L 7246.9258 132.2832 L 7246.9258 129.41406 C 7246.9258 127.86194 7247.0228 126.21294 7247.2168 124.4668 L 7305.7129 124.4668 L 7312.6973 105.55078 L 7249.2539 105.55078 C 7252.3582 90.223537 7257.5011 78.678599 7264.6797 70.917969 C 7271.8583 63.157339 7280.2003 59.277344 7289.707 59.277344 C 7297.2736 59.277344 7304.1606 61.799341 7310.3691 66.84375 C 7316.5776 71.694144 7321.7206 78.969134 7325.7949 88.669922 L 7355.7695 76.447266 C 7349.755 60.926006 7340.9281 49.189021 7329.2871 41.234375 C 7317.8402 33.27973 7304.4522 29.302734 7289.125 29.302734 z " transform="matrix(0.26458333,0,0,0.26458333,-1900,0)" layer="top"/>
      <path id="bot_flap_39" style="display:inline;fill:#5f5fd3;stroke:#ffff00;stroke-width:0;stroke-linecap:round;stroke-miterlimit:4;stroke-dasharray:none" d="M 7421.0742 134.17383 C 7429.6629 138.66884 7440.5192 142.51545 7453.6562 145.71094 L 7453.6562 203.04297 C 7446.4777 201.87887 7439.0067 199.64788 7431.2461 196.34961 C 7423.6795 193.05134 7415.7255 188.49235 7407.3828 182.67188 L 7391.377 206.82617 C 7400.8837 213.61672 7410.8747 219.04872 7421.3516 223.12305 C 7431.8284 227.00336 7442.5974 229.52536 7453.6562 230.68945 L 7453.6562 255.71875 L 7472.5723 255.71875 L 7472.5723 230.68945 C 7484.9893 229.71937 7495.7563 226.80938 7504.875 221.95898 C 7514.1878 216.91457 7521.3677 210.41558 7526.4121 202.46094 C 7531.4565 194.31228 7533.9785 185.09729 7533.9785 174.81445 C 7533.9785 160.45729 7529.1285 149.10635 7519.4277 140.76367 C 7516.8052 138.46227 7513.6992 136.26853 7510.1465 134.17383 L 7421.0742 134.17383 z M 7472.5723 149.49414 C 7483.4371 152.40438 7491.1001 156.09037 7495.5625 160.55273 C 7500.2189 165.0151 7502.5469 170.64304 7502.5469 177.43359 C 7502.5469 184.41816 7499.7339 190.23815 7494.1074 194.89453 C 7488.675 199.55091 7481.497 202.46091 7472.5723 203.625 L 7472.5723 149.49414 z " transform="matrix(0.264583 0 0 -0.264583 -1950 70.4998)" layer="bot"/>
    </g>
    <g id="flap_39" transform="translate(1950, 0)">
      <path id="top_flap_39" style="display:inline;fill:#ff5599;stroke:#ffff00;stroke-width:0;stroke-linecap:round;stroke-miterlimit:4;stroke-dasharray:none" d="M 7453.6562 13.003906 L 7453.6562 37.742188 C 7441.4333 38.51825 7430.7613 41.234247 7421.6426 45.890625 C 7412.7179 50.547003 7405.7339 56.851995 7400.6895 64.806641 C 7395.8391 72.567271 7393.4141 81.588259 7393.4141 91.871094 C 7393.4141 100.6018 7395.3541 108.36375 7399.2344 115.1543 C 7403.143 121.66861 7409.2897 127.37586 7417.6621 132.2832 L 7506.7695 132.2832 C 7497.8693 127.5701 7486.4784 123.41123 7472.5723 119.81055 L 7472.5723 65.970703 C 7479.3628 67.328813 7486.0558 69.559811 7492.6523 72.664062 C 7499.4429 75.574299 7505.9419 79.551294 7512.1504 84.595703 L 7528.7402 61.314453 C 7520.9796 55.105949 7512.2477 50.061956 7502.5469 46.181641 C 7493.0401 42.10731 7483.0491 39.488313 7472.5723 38.324219 L 7472.5723 13.003906 L 7453.6562 13.003906 z M 7453.6562 64.806641 L 7453.6562 116.02734 C 7442.2093 112.53506 7434.3504 108.75207 7430.082 104.67773 C 7425.8137 100.40939 7423.6797 95.363441 7423.6797 89.542969 C 7423.6797 82.752418 7426.3957 77.126425 7431.8281 72.664062 C 7437.2606 68.2017 7444.5375 65.582704 7453.6562 64.806641 z " transform="matrix(0.26458333,0,0,0.26458333,-1950,0)" layer="top"/>
      <path id="bot_flap_40" style="display:inline;fill:#5f5fd3;stroke:#ffff00;stroke-width:0;stroke-linecap:round;stroke-miterlimit:4;stroke-dasharray:none" d="M 7638.2031 134.17383 L 7639.1387 170.1582 L 7663.877 170.1582 L 7664.8848 134.17383 L 7638.2031 134.17383 z M 7651.6543 191.98438 C 7644.8637 191.98438 7639.2358 194.31237 7634.7734 198.96875 C 7630.3111 203.43111 7628.0801 208.96011 7628.0801 215.55664 C 7628.0801 221.95916 7630.3111 227.48815 7634.7734 232.14453 C 7639.2358 236.60689 7644.8637 238.83789 7651.6543 238.83789 C 7658.4448 238.83789 7664.0708 236.60689 7668.5332 232.14453 C 7672.9956 227.48815 7675.2266 221.95916 7675.2266 215.55664 C 7675.2266 208.96011 7672.9956 203.43111 7668.5332 198.96875 C 7664.0708 194.31237 7658.4448 191.98438 7651.6543 191.98438 z " transform="matrix(0.264583 0 0 -0.264583 -2000 70.4998)" layer="bot"/>
    </g>
    <g id="flap_40" transform="translate(2000, 0)">
      <path id="top_flap_40" style="display:inline;fill:#ff5599;stroke:#ffff00;stroke-width:0;stroke-linecap:round;stroke-miterlimit:4;stroke-dasharray:none" d="M 7635.3555 24.644531 L 7638.1543 132.2832 L 7664.9375 132.2832 L 7667.9512 24.644531 L 7635.3555 24.644531 z " transform="matrix(0.26458333,0,0,0.26458333,-2000,0)" layer="top"/>
      <path id="bot_flap_41" style="display:inline;fill:#5f5fd3;stroke:#ffff00;stroke-width:0;stroke-linecap:round;stroke-miterlimit:4;stroke-dasharray:none" d="M 7828.6602 134.17383 C 7826.0923 137.66786 7823.9646 141.70126 7822.2949 146.29297 C 7819.9667 152.50147 7819.1907 160.26342 7819.9668 169.57617 L 7847.0332 169.57617 C 7846.4512 163.36767 7847.3242 158.03072 7849.6523 153.56836 C 7852.1745 149.106 7855.6665 145.129 7860.1289 141.63672 C 7863.1969 139.10225 7866.4127 136.61659 7869.7559 134.17383 L 7828.6602 134.17383 z M 7833.9355 191.98438 C 7827.145 191.98437 7821.519 194.31237 7817.0566 198.96875 C 7812.5943 203.43111 7810.3633 208.96011 7810.3633 215.55664 C 7810.3633 221.95916 7812.5943 227.48815 7817.0566 232.14453 C 7821.519 236.60689 7827.145 238.83789 7833.9355 238.83789 C 7840.7261 238.83789 7846.354 236.60689 7850.8164 232.14453 C 7855.2788 227.48815 7857.5098 221.95916 7857.5098 215.55664 C 7857.5098 208.96011 7855.2788 203.43111 7850.8164 198.96875 C 7846.354 194.31237 7840.7261 191.98438 7833.9355 191.98438 z " transform="matrix(0.264583 0 0 -0.264583 -2050 70.4998)" layer="bot"/>
    </g>
    <g id="flap_41" transform="translate(2050, 0)">
      <path id="top_flap_41" style="display:inline;fill:#ff5599;stroke:#ffff00;stroke-width:0;stroke-linecap:round;stroke-miterlimit:4;stroke-dasharray:none" d="M 7841.5039 29.302734 C 7826.7587 29.302734 7813.2738 32.98873 7801.0508 40.361328 C 7788.8278 47.539911 7779.4188 57.627898 7772.8223 70.626953 L 7798.1406 83.140625 C 7802.797 74.991964 7808.714 68.686972 7815.8926 64.224609 C 7823.2652 59.568231 7831.4151 57.240234 7840.3398 57.240234 C 7846.7424 57.240234 7852.4654 58.404233 7857.5098 60.732422 C 7862.7482 62.866595 7866.8222 65.970591 7869.7324 70.044922 C 7872.6427 73.925237 7874.0977 78.387231 7874.0977 83.431641 C 7874.0977 89.252113 7872.6427 94.199107 7869.7324 98.273438 C 7867.0162 102.15375 7863.4272 105.7447 7858.9648 109.04297 C 7854.6965 112.14722 7850.1375 115.34822 7845.2871 118.64648 C 7840.4367 121.94475 7835.9728 125.82475 7831.8984 130.28711 C 7831.2885 130.92604 7830.7055 131.59645 7830.1348 132.2832 L 7872.3887 132.2832 C 7873.0546 131.81143 7873.7123 131.33743 7874.3887 130.86914 C 7879.6271 127.37686 7884.5741 123.49686 7889.2305 119.22852 C 7893.8868 114.96017 7897.6698 109.91618 7900.5801 104.0957 C 7903.6843 98.081215 7905.2363 90.901271 7905.2363 82.558594 C 7905.2363 72.275759 7902.5203 63.157771 7897.0879 55.203125 C 7891.6554 47.248479 7884.0895 40.943487 7874.3887 36.287109 C 7864.8819 31.630731 7853.9209 29.302734 7841.5039 29.302734 z " transform="matrix(0.26458333,0,0,0.26458333,-2050,0)" layer="top"/>
      </g>
    <g id="flap_42" transform="translate(2100, 0)">
      <path id="bot_flap_42" style="display:inline;fill:#ffffff;stroke:#ffff00;stroke-width:0;stroke-linecap:round;stroke-miterlimit:4;stroke-dasharray:none" d="M 8029.6055 190.23828 C 8022.6209 190.23828 8016.8009 192.66328 8012.1445 197.51367 C 8007.4882 202.17005 8005.1602 207.89304 8005.1602 214.68359 C 8005.1602 221.28013 8007.4882 227.00312 8012.1445 231.85352 C 8016.8009 236.50989 8022.6209 238.83789 8029.6055 238.83789 C 8036.59 238.83789 8042.412 236.50989 8047.0684 231.85352 C 8051.7247 227.19714 8054.0527 221.47414 8054.0527 214.68359 C 8054.0527 207.89304 8051.7247 202.17005 8047.0684 197.51367 C 8042.412 192.66328 8036.59 190.23828 8029.6055 190.23828 z " transform="matrix(0.26458333,0,0,0.26458333,-2100,0)"/>
    </g>
    <g id="flap_43" transform="translate(2150, 0)">
      <path id="bot_flap_43" style="display:inline;fill:#ffffff;stroke:#ffff00;stroke-width:0;stroke-linecap:round;stroke-miterlimit:4;stroke-dasharray:none" d="M 8205.7773 165.69922 L 8188.3164 242.5293 L 8212.7617 242.5293 L 8244.1934 165.69922 L 8205.7773 165.69922 z " transform="matrix(0.26458333,0,0,0.26458333,-2150,0)"/>
    <path id="bot_flap_44" style="display:inline;fill:#5f5fd3;stroke:#ffff00;stroke-width:0;stroke-linecap:round;stroke-miterlimit:4;stroke-dasharray:none" d="M 8407.5586 182.23828 C 8400.574 182.23828 8394.754 184.66328 8390.0977 189.51367 C 8385.4413 194.17005 8383.1133 199.89304 8383.1133 206.68359 C 8383.1133 213.28013 8385.4413 219.00312 8390.0977 223.85352 C 8394.754 228.50989 8400.574 230.83789 8407.5586 230.83789 C 8414.5432 230.83789 8420.3651 228.50989 8425.0215 223.85352 C 8429.6779 219.19714 8432.0059 213.47414 8432.0059 206.68359 C 8432.0059 199.89304 8429.6779 194.17005 8425.0215 189.51367 C 8420.3651 184.66328 8414.5432 182.23828 8407.5586 182.23828 z " transform="matrix(0.264583 0 0 -0.264583 -2200 70.4998)" layer="bot"/>
    </g>
    <g id="flap_44" transform="translate(2200, 0)">
      <path id="top_flap_44" style="display:inline;fill:#ff5599;stroke:#ffff00;stroke-width:0;stroke-linecap:round;stroke-miterlimit:4;stroke-dasharray:none" d="M 8407.5586 73.103516 C 8400.574 73.103516 8394.754 75.528513 8390.0977 80.378906 C 8385.4413 85.035284 8383.1133 90.76023 8383.1133 97.550781 C 8383.1133 104.14732 8385.4413 109.87031 8390.0977 114.7207 C 8394.754 119.37708 8400.574 121.70508 8407.5586 121.70508 C 8414.5432 121.70508 8420.3651 119.37708 8425.0215 114.7207 C 8429.6779 110.06433 8432.0059 104.34133 8432.0059 97.550781 C 8432.0059 90.76023 8429.6779 85.035284 8425.0215 80.378906 C 8420.3651 75.528513 8414.5432 73.103516 8407.5586 73.103516 z " transform="matrix(0.26458333,0,0,0.26458333,-2200,0)" layer="top"/>
      <path id="bot_flap_45" style="display:inline;fill:#5f5fd3;stroke:#ffff00;stroke-width:0;stroke-linecap:round;stroke-miterlimit:4;stroke-dasharray:none" d="M 8574.373 134.17383 L 8528.9277 237.19336 L 8554.1992 237.19336 L 8599.5332 134.17383 L 8574.373 134.17383 z " transform="matrix(0.264583 0 0 -0.264583 -2250 70.4998)" layer="bot"/>
    </g>
    <g id="flap_45" transform="translate(2250, 0)">
      <path id="top_flap_45" style="display:inline;fill:#ff5599;stroke:#ffff00;stroke-width:0;stroke-linecap:round;stroke-miterlimit:4;stroke-dasharray:none" d="M 8621.0566 28.351562 L 8575.209 132.2832 L 8600.3652 132.2832 L 8646.0996 28.351562 L 8621.0566 28.351562 z " transform="matrix(0.26458333,0,0,0.26458333,-2250,0)" layer="top"/>
      <path id="bot_flap_46" style="display:inline;fill:#5f5fd3;stroke:#ffff00;stroke-width:0;stroke-linecap:round;stroke-miterlimit:4;stroke-dasharray:none" d="M 8705.1309 134.17383 C 8705.3053 147.62377 8707.2572 160.22615 8710.9961 171.97852 C 8715.1047 184.30603 8720.895 195.13948 8728.3652 204.47852 C 8735.8355 213.81755 8744.6124 221.10218 8754.6973 226.33203 C 8764.7821 231.56189 8775.894 234.17578 8788.0332 234.17578 C 8797.1843 234.17578 8806.2427 232.9633 8815.207 230.53516 C 8824.3581 228.29379 8832.7609 224.6505 8840.418 219.60742 L 8832.8555 205.31836 C 8826.5057 209.42753 8819.2212 212.60433 8811.0039 214.8457 C 8802.7866 217.08707 8795.13 218.20703 8788.0332 218.20703 C 8774.5867 218.20703 8762.9137 214.28424 8753.0156 206.43945 C 8743.1175 198.78145 8735.3683 188.50896 8729.7656 175.62109 C 8724.576 163.09285 8721.879 149.27451 8721.6621 134.17383 L 8705.1309 134.17383 z M 8738.8145 134.17383 C 8738.7572 135.36492 8738.7285 136.57144 8738.7285 137.79688 C 8738.7285 146.01522 8740.4099 153.48684 8743.7715 160.21094 C 8747.1331 166.74826 8751.7086 171.88548 8757.498 175.62109 C 8763.2875 179.35671 8769.8239 181.22461 8777.1074 181.22461 C 8786.0717 181.22461 8794.382 177.67579 8802.0391 170.57812 C 8806.708 176.92867 8813.898 180.10352 8823.6094 180.10352 C 8831.6399 180.10352 8838.83 177.58214 8845.1797 172.53906 C 8851.5294 167.49599 8856.5735 160.39834 8860.3086 151.24609 C 8862.3976 146.02297 8863.8997 140.33173 8864.8203 134.17383 L 8848.373 134.17383 C 8847.3099 141.3016 8845.4085 147.27568 8842.6602 152.08594 C 8838.3648 159.74394 8833.4152 163.57422 8827.8125 163.57422 C 8823.3303 163.57422 8821.462 161.05284 8822.209 156.00977 L 8825.6328 134.17383 L 8800.4414 134.17383 L 8798.1172 149.28516 C 8797.9305 149.8455 8797.8379 150.40646 8797.8379 150.9668 L 8797.8379 152.36719 C 8795.4101 154.42177 8792.7955 156.00822 8789.9941 157.12891 C 8787.3795 158.06281 8784.6705 158.53125 8781.8691 158.53125 C 8776.2664 158.53125 8771.691 156.47636 8768.1426 152.36719 C 8764.5942 148.07124 8762.8203 142.37306 8762.8203 135.27539 C 8762.8203 134.90432 8762.8307 134.5386 8762.8418 134.17383 L 8738.8145 134.17383 z " transform="matrix(0.264583 0 0 -0.264583 -2300 70.4998)" layer="bot"/>
    </g>
    <g id="flap_46" transform="translate(2300, 0)">
      <path id="top_flap_46" style="display:inline;fill:#ff5599;stroke:#ffff00;stroke-width:0;stroke-linecap:round;stroke-miterlimit:4;stroke-dasharray:none" d="M 8788.0332 30.212891 C 8775.894 30.212891 8764.7821 32.826784 8754.6973 38.056641 C 8744.6124 43.286496 8735.8355 50.571125 8728.3652 59.910156 C 8720.895 69.24919 8715.1047 80.082638 8710.9961 92.410156 C 8707.0742 104.73767 8705.1133 117.99999 8705.1133 132.19531 C 8705.1133 132.22473 8705.1133 132.25379 8705.1133 132.2832 L 8721.6406 132.2832 C 8721.6406 132.25374 8721.6406 132.22478 8721.6406 132.19531 C 8721.6406 116.31896 8724.3497 101.93669 8729.7656 89.048828 C 8735.3683 75.974187 8743.1175 65.607224 8753.0156 57.949219 C 8762.9137 50.104431 8774.5867 46.181641 8788.0332 46.181641 C 8800.1724 46.181641 8810.8177 49.169504 8819.9688 55.146484 C 8829.3066 61.123465 8836.4966 69.622521 8841.5391 80.642578 C 8846.7682 91.475851 8849.3828 104.36419 8849.3828 119.30664 C 8849.3828 123.97748 8849.1272 128.29762 8848.6289 132.2832 L 8865.082 132.2832 C 8865.6327 127.99048 8865.9102 123.4794 8865.9102 118.74609 C 8865.9102 101.3755 8862.4549 86.06025 8855.5449 72.798828 C 8848.8217 59.537403 8839.5782 49.170443 8827.8125 41.699219 C 8816.2336 34.041215 8802.9737 30.212891 8788.0332 30.212891 z M 8782.7109 86.527344 C 8774.1201 86.527344 8766.4635 88.767266 8759.7402 93.25 C 8753.2038 97.545955 8748.0672 103.61615 8744.332 111.46094 C 8741.3058 117.66557 8739.506 124.60723 8738.9316 132.2832 L 8762.9531 132.2832 C 8763.4714 126.31426 8765.5712 121.23908 8769.2637 117.06445 C 8773.5591 112.20816 8778.6012 109.78125 8784.3906 109.78125 C 8788.686 109.78125 8792.3283 110.71423 8795.3164 112.58203 C 8798.3045 114.44984 8800.732 116.97121 8802.5996 120.14648 L 8800.7324 132.2832 L 8825.9277 132.2832 L 8832.5742 89.888672 L 8807.082 89.888672 L 8806.2422 95.492188 C 8799.8925 89.51521 8792.0488 86.527344 8782.7109 86.527344 z " transform="matrix(0.26458333,0,0,0.26458333,-2300,0)" layer="top"/>
      <path id="bot_flap_47" style="display:inline;fill:#5f5fd3;stroke:#ffff00;stroke-width:0;stroke-linecap:round;stroke-miterlimit:4;stroke-dasharray:none" d="M 8928.5703 134.17383 L 8921.8125 153.56836 L 8889.4492 153.56836 L 8889.4492 177.14258 L 8913.9551 177.14258 L 8893.584 236.21875 L 8921.5215 236.21875 L 8941.8945 177.14258 L 8977.9805 177.14258 L 8957.6094 236.21875 L 8985.5469 236.21875 L 9005.918 177.14258 L 9046.3711 177.14258 L 9046.3711 153.56836 L 9013.7773 153.56836 L 9020.5352 134.17383 L 8992.5957 134.17383 L 8985.8379 153.56836 L 8950.043 153.56836 L 8956.6543 134.17383 L 8928.5703 134.17383 z " transform="matrix(0.264583 0 0 -0.264583 -2350 70.4998)" layer="bot"/>
    </g>
    <g id="flap_47" transform="translate(2350, 0)">
      <path id="top_flap_47" style="display:inline;fill:#ff5599;stroke:#ffff00;stroke-width:0;stroke-linecap:round;stroke-miterlimit:4;stroke-dasharray:none" d="M 8963.4297 32.503906 L 8943.0586 91.580078 L 8902.6055 91.580078 L 8902.6055 115.1543 L 8935.1992 115.1543 L 8929.2305 132.2832 L 8957.2988 132.2832 L 8963.1387 115.1543 L 8999.2246 115.1543 L 8993.2559 132.2832 L 9021.1953 132.2832 L 9027.1641 115.1543 L 9059.5273 115.1543 L 9059.5273 91.580078 L 9035.3125 91.580078 L 9055.3926 32.503906 L 9027.4551 32.503906 L 9007.373 91.580078 L 8971.2871 91.580078 L 8991.3672 32.503906 L 8963.4297 32.503906 z " transform="matrix(0.26458333,0,0,0.26458333,-2350,0)" layer="top"/>
      <path id="bot_flap_48" style="display:inline;fill:#5f5fd3;stroke:#ffff00;stroke-width:0;stroke-linecap:round;stroke-miterlimit:4;stroke-dasharray:none" d="M 9108.4766 134.17383 C 9101.7759 139.91888 9096.5295 145.89771 9092.7461 152.11328 C 9087.3137 161.03801 9084.5977 171.03095 9084.5977 182.08984 C 9084.5977 193.53677 9087.2167 203.62476 9092.4551 212.35547 C 9097.6935 220.89216 9104.9685 227.58515 9114.2812 232.43555 C 9123.594 237.09192 9134.4599 239.41992 9146.877 239.41992 C 9157.3538 239.41992 9167.1508 237.47992 9176.2695 233.59961 C 9185.3883 229.71929 9193.6333 223.8993 9201.0059 216.13867 C 9206.2443 220.98907 9211.2902 225.35406 9216.1406 229.23438 C 9220.991 233.11469 9225.744 236.99664 9230.4004 240.87695 L 9249.8984 219.63086 C 9245.6301 216.13858 9240.9741 212.25858 9235.9297 207.99023 C 9230.8853 203.72189 9225.1623 198.77489 9218.7598 193.14844 C 9223.2221 185.38781 9227.1021 176.84987 9230.4004 167.53711 C 9233.8927 158.03034 9236.8027 147.74835 9239.1309 136.68945 L 9224.0371 134.17383 L 9210.8164 134.17383 C 9209.5001 141.50896 9207.7846 148.36481 9205.6621 154.73242 C 9203.5279 161.71699 9201.1029 168.12093 9198.3867 173.94141 C 9191.0141 166.76282 9183.8361 159.48588 9176.8516 152.11328 C 9170.9152 145.84711 9165.4255 139.87939 9160.3301 134.17383 L 9108.4766 134.17383 z M 9133.7793 146.875 C 9140.7639 155.41169 9148.3318 163.94964 9156.4805 172.48633 C 9164.6291 181.02302 9173.0681 189.55901 9181.7988 198.0957 C 9177.1425 203.33413 9172.0015 207.31112 9166.375 210.02734 C 9160.7485 212.74356 9154.8316 214.10156 9148.623 214.10156 C 9137.9522 214.10156 9129.4142 211.09457 9123.0117 205.08008 C 9116.8032 198.87157 9113.6992 190.62658 9113.6992 180.34375 C 9113.6992 174.32926 9115.3482 168.60432 9118.6465 163.17188 C 9121.9448 157.73943 9126.9887 152.30744 9133.7793 146.875 z " transform="matrix(0.264583 0 0 -0.264583 -2400 70.4998)" layer="bot"/>
    </g>
    <g id="flap_48" transform="translate(2400, 0)">
      <path id="top_flap_48" style="display:inline;fill:#ff5599;stroke:#ffff00;stroke-width:0;stroke-linecap:round;stroke-miterlimit:4;stroke-dasharray:none" d="M 9152.6973 29.302734 C 9142.8025 29.302734 9133.8765 31.533732 9125.9219 35.996094 C 9118.1612 40.26444 9112.0503 46.181433 9107.5879 53.748047 C 9103.1255 61.314661 9100.8945 69.94765 9100.8945 79.648438 C 9100.8945 87.215052 9102.2525 94.879995 9104.9688 102.64062 C 9107.879 110.20724 9112.244 118.25823 9118.0645 126.79492 C 9115.4682 128.5991 9113.0349 130.42913 9110.748 132.2832 L 9158.6465 132.2832 C 9158.3172 131.91167 9157.9702 131.52926 9157.6445 131.16016 C 9168.5094 124.17559 9177.1424 117.6766 9183.5449 111.66211 C 9190.1415 105.64762 9194.7975 99.631676 9197.5137 93.617188 C 9200.4239 87.602699 9201.8789 81.006708 9201.8789 73.828125 C 9201.8789 65.097416 9199.7449 57.434426 9195.4766 50.837891 C 9191.2082 44.241355 9185.3882 39.003362 9178.0156 35.123047 C 9170.643 31.242732 9162.204 29.302734 9152.6973 29.302734 z M 9151.8242 53.166016 C 9157.8387 53.166016 9162.8827 55.203013 9166.957 59.277344 C 9171.0314 63.351674 9173.0684 68.492668 9173.0684 74.701172 C 9173.0684 79.163534 9172.0984 83.334529 9170.1582 87.214844 C 9168.218 91.095159 9164.92 95.074107 9160.2637 99.148438 C 9155.8013 103.02875 9149.8843 107.29675 9142.5117 111.95312 C 9138.0494 105.55061 9134.7494 99.72866 9132.6152 94.490234 C 9130.4811 89.251809 9129.4141 84.110816 9129.4141 79.066406 C 9129.4141 71.305776 9131.4511 65.097784 9135.5254 60.441406 C 9139.7937 55.591013 9145.2277 53.166016 9151.8242 53.166016 z M 9211.1934 132.0332 C 9211.1793 132.11732 9211.1626 132.19921 9211.1484 132.2832 L 9212.6934 132.2832 L 9211.1934 132.0332 z " transform="matrix(0.26458333,0,0,0.26458333,-2400,0)" layer="top"/>
      </g>
  </g>
<g id="layer_bPlace" inkscape:groupmode="layer" inkscape:label="bPlace"><path id="bot_flap_34" style="display:inline;fill:#5f5fd3;stroke:#ffff00;stroke-width:0;stroke-linecap:round;stroke-miterlimit:4;stroke-dasharray:none" d="M 6440.1836 134.17383 C 6440.1291 135.96576 6440.0918 137.76914 6440.0918 139.59961 C 6440.0918 159.38922 6443.6808 176.75415 6450.8594 191.69336 C 6458.038 206.63257 6467.9339 218.27256 6480.5449 226.61523 C 6493.1559 234.95791 6507.8029 239.12891 6524.4883 239.12891 C 6538.2634 239.12891 6550.5843 236.21891 6561.4492 230.39844 C 6572.3141 224.57797 6580.8501 216.62398 6587.0586 206.53516 C 6593.2671 196.25232 6596.3711 184.70934 6596.3711 171.9043 C 6596.3711 159.6813 6593.4611 148.91237 6587.6406 139.59961 C 6586.4807 137.70511 6585.2277 135.89882 6583.8906 134.17383 L 6475.9062 134.17383 C 6474.4908 135.80979 6473.1272 137.52186 6471.8145 139.30859 C 6471.834 137.56777 6471.8824 135.86141 6471.9473 134.17383 L 6440.1836 134.17383 z M 6523.0332 134.36133 C 6531.3759 134.36133 6538.6528 136.01033 6544.8613 139.30859 C 6551.0698 142.60686 6555.9198 147.16586 6559.4121 152.98633 C 6563.0984 158.61278 6564.9414 165.11373 6564.9414 172.48633 C 6564.9414 180.05294 6563.0984 186.84293 6559.4121 192.85742 C 6555.7258 198.67789 6550.7788 203.33389 6544.5703 206.82617 C 6538.3618 210.12444 6531.2789 211.77344 6523.3242 211.77344 C 6514.7875 211.77344 6507.0275 209.63944 6500.043 205.37109 C 6493.0584 200.90873 6487.2384 194.70074 6482.582 186.74609 C 6478.1197 178.79145 6475.0157 169.47751 6473.2695 158.80664 C 6479.6721 151.24003 6487.141 145.32303 6495.6777 141.05469 C 6504.4084 136.59233 6513.5264 134.36133 6523.0332 134.36133 z " transform="matrix(0.264583 0 0 -0.264583 -1700 70.4998)" layer="bot"/>
    </g><g id="layer_tPlace" inkscape:groupmode="layer" inkscape:label="tPlace"><path id="top_flap_33" style="display:inline;fill:#ff5599;stroke:#ffff00;stroke-width:0;stroke-linecap:round;stroke-miterlimit:4;stroke-dasharray:none" d="M 6266.5391 32.503906 L 6262.1289 132.2832 L 6388.2539 132.2832 C 6383.1404 125.90116 6376.7203 120.77031 6368.9805 116.90039 C 6358.8916 111.66197 6347.0557 109.04297 6333.4746 109.04297 C 6325.908 109.04297 6318.633 109.81897 6311.6484 111.37109 C 6304.8579 112.92322 6297.8739 115.44522 6290.6953 118.9375 L 6293.6055 59.859375 L 6390.2246 59.859375 L 6390.2246 32.503906 L 6266.5391 32.503906 z " transform="matrix(0.26458333,0,0,0.26458333,-1650,0)" layer="top"/>
      </g></svg>