<svg xmlns:inkscape="http://www.inkscape.org/namespaces/inkscape" xmlns:sodipodi="http://sodipodi.sourceforge.net/DTD/sodipodi-0.dtd" xmlns="http://www.w3.org/2000/svg" xmlns:svg="http://www.w3.org/2000/svg" xmlns:rdf="http://www.w3.org/1999/02/22-rdf-syntax-ns#" xmlns:cc="http://creativecommons.org/ns#" xmlns:dc="http://purl.org/dc/elements/1.1/" width="49mm" height="35mm" viewBox="0 0 49 35" version="1.1" id="svg5" inkscape:version="1.1.2 (b8e25be833, 2022-02-05)" sodipodi:docname="input.svg">
  <metadata id="metadata149">
    <rdf:RDF>
      <cc:Work rdf:about="">
        <dc:format>image/svg+xml</dc:format>
        <dc:type rdf:resource="http://purl.org/dc/dcmitype/StillImage"/>
      </cc:Work>
    </rdf:RDF>
  </metadata>
  <sodipodi:namedview id="namedview7" pagecolor="#333333" bordercolor="#eeeeee" borderopacity="0" inkscape:pageshadow="0" inkscape:pageopacity="0" inkscape:pagecheckerboard="true" inkscape:document-units="mm" showgrid="true" fit-margin-top="0" fit-margin-left="0" fit-margin-right="0" fit-margin-bottom="0" inkscape:zoom="1.28" inkscape:cx="6690.625" inkscape:cy="-23.4375" inkscape:window-width="1920" inkscape:window-height="991" inkscape:window-x="0" inkscape:window-y="0" inkscape:window-maximized="0" inkscape:current-layer="layer_gen_characterMap" inkscape:document-rotation="0" inkscape:snap-object-midpoints="true" inkscape:object-nodes="true" inkscape:snap-bbox="true" inkscape:bbox-nodes="true" inkscape:bbox-paths="false" inkscape:object-paths="false" inkscape:showpageshadow="false" showborder="false" inkscape:snap-global="false">
    <inkscape:grid type="xygrid" id="grid1147" units="mm" spacingx="1" spacingy="1" empspacing="5" originy="0" originx="0"/>
  </sodipodi:namedview>
  <defs id="defs2"/>
  <g inkscape:label="Dimension" inkscape:groupmode="layer" id="layer_dimension" style="display:inline">
    <path id="path1480-7" style="display:inline;fill:none;stroke:#ffff00;stroke-width:0.025;stroke-linecap:round;stroke-miterlimit:4;stroke-dasharray:none" d="M 3.9997515,5.0966779e-7 A 3.9999949,3.9999949 0 0 0 5e-7,3.9997515 V 21.600206 H 1.9998759 V 32.400049 H 5e-7 v 0.999939 h 1.9998754 v 1.599899 H 47.000173 V 33.399988 H 49.00005 V 32.400049 H 47.000173 V 21.600206 H 49.00005 V 3.9997515 A 3.9999949,3.9999949 0 0 0 44.99978,5.0966779e-7 Z" flap="True" mid_cutout="0.5"/>
  </g>
  <g id="layer_gen_characterMap" inkscape:groupmode="layer" inkscape:label="gen_flapset">
    <g id="flap_1" transform="translate(50, 0)"/>
    <g id="flap_2" transform="translate(100, 0)">
      </g>
    <g id="flap_3" transform="translate(150, 0)">
      </g>
    <g id="flap_4" transform="translate(200, 0)">
      </g>
    <g id="flap_5" transform="translate(250, 0)">
      </g>
    <g id="flap_6" transform="translate(300, 0)">
      </g>
    <g id="flap_7" transform="translate(350, 0)">
      </g>
    <g id="flap_8" transform="translate(400, 0)">
      </g>
    <g id="flap_9" transform="translate(450, 0)">
      </g>
    <g id="flap_10" transform="translate(500, 0)">
      </g>
    <g id="flap_11" transform="translate(550.001, 0)">
      </g>
    <g id="flap_12" transform="translate(600.001, 0)">
      </g>
    <g id="flap_13" transform="translate(650.001, 0)">
      </g>
    <g id="flap_14" transform="translate(700.001, 0)">
      </g>
    <g id="flap_15" transform="translate(750.001, 0)">
      </g>
    <g id="flap_16" transform="translate(800.001, 0)">
      </g>
    <g id="flap_17" transform="translate(850.001, 0)">
      </g>
    <g id="flap_18" transform="translate(900.001, 0)">
      </g>
    <g id="flap_19" transform="translate(950.001, 0)">
      </g>
    <g id="flap_20" transform="translate(1000, 0)">
      </g>
    <g id="flap_21" transform="translate(1050, 0)">
      </g>
    <g id="flap_22" transform="translate(1100, 0)">
      </g>
    <g id="flap_23" transform="translate(1150, 0)">
      </g>
    <g id="flap_24" transform="translate(1200, 0)">
      </g>
    <g id="flap_25" transform="translate(1250, 0)">
      </g>
    <g id="flap_26" transform="translate(1300, 0)">
      </g>
    <g id="flap_27" transform="translate(1350, 0)">
      </g>
    <g id="flap_28" transform="translate(1400, 0)">
      </g>
    <g id="flap_29" transform="translate(1450, 0)">
      </g>
    <g id="flap_30" transform="translate(1500, 0)">
      </g>
    <g id="flap_31" transform="translate(1550, 0)">
      </g>
    <g id="flap_32" transform="translate(1600, 0)">
      </g>
    <g id="flap_33" transform="translate(1650, 0)">
      </g>
    <g id="flap_34" transform="translate(1700, 0)">
      </g>
    <g id="flap_35" transform="translate(1750, 0)">
      </g>
    <g id="flap_36" transform="translate(1800, 0)">
      </g>
    <g id="flap_37" transform="translate(1850, 0)">
      </g>
    <g id="flap_38" transform="translate(1900, 0)">
      </g>
    <g id="flap_39" transform="translate(1950, 0)">
      </g>
    <g id="flap_40" transform="translate(2000, 0)">
      </g>
    <g id="flap_41" transform="translate(2050, 0)">
      </g>
    <g id="flap_42" transform="translate(2100, 0)">
      <path id="bot_flap_42" style="display:inline;fill:#ffffff;stroke:#ffff00;stroke-width:0;stroke-linecap:round;stroke-miterlimit:4;stroke-dasharray:none" d="M 8029.6055 190.23828 C 8022.6209 190.23828 8016.8009 192.66328 8012.1445 197.51367 C 8007.4882 202.17005 8005.1602 207.89304 8005.1602 214.68359 C 8005.1602 221.28013 8007.4882 227.00312 8012.1445 231.85352 C 8016.8009 236.50989 8022.6209 238.83789 8029.6055 238.83789 C 8036.59 238.83789 8042.412 236.50989 8047.0684 231.85352 C 8051.7247 227.19714 8054.0527 221.47414 8054.0527 214.68359 C 8054.0527 207.89304 8051.7247 202.17005 8047.0684 197.51367 C 8042.412 192.66328 8036.59 190.23828 8029.6055 190.23828 z " transform="matrix(0.26458333,0,0,0.26458333,-2100,0)"/>
    </g>
    <g id="flap_43" transform="translate(2150, 0)">
      <path id="bot_flap_43" style="display:inline;fill:#ffffff;stroke:#ffff00;stroke-width:0;stroke-linecap:round;stroke-miterlimit:4;stroke-dasharray:none" d="M 8205.7773 165.69922 L 8188.3164 242.5293 L 8212.7617 242.5293 L 8244.1934 165.69922 L 8205.7773 165.69922 z " transform="matrix(0.26458333,0,0,0.26458333,-2150,0)"/>
    </g>
    <g id="flap_44" transform="translate(2200, 0)">
      </g>
    <g id="flap_45" transform="translate(2250, 0)">
      </g>
    <g id="flap_46" transform="translate(2300, 0)">
      </g>
    <g id="flap_47" transform="translate(2350, 0)">
      </g>
    <g id="flap_48" transform="translate(2400, 0)">
      </g>
  </g>
<g id="layer_bPlace" inkscape:groupmode="layer" inkscape:label="bPlace"/><g id="layer_tPlace" inkscape:groupmode="layer" inkscape:label="tPlace"><path id="top_flap_48" style="display:inline;fill:#ff5599;stroke:#ffff00;stroke-width:0;stroke-linecap:round;stroke-miterlimit:4;stroke-dasharray:none" d="M 9152.6973 29.302734 C 9142.8025 29.302734 9133.8765 31.533732 9125.9219 35.996094 C 9118.1612 40.26444 9112.0503 46.181433 9107.5879 53.748047 C 9103.1255 61.314661 9100.8945 69.94765 9100.8945 79.648438 C 9100.8945 87.215052 9102.2525 94.879995 9104.9688 102.64062 C 9107.879 110.20724 9112.244 118.25823 9118.0645 126.79492 C 9115.4682 128.5991 9113.0349 130.42913 9110.748 132.2832 L 9158.6465 132.2832 C 9158.3172 131.91167 9157.9702 131.52926 9157.6445 131.16016 C 9168.5094 124.17559 9177.1424 117.6766 9183.5449 111.66211 C 9190.1415 105.64762 9194.7975 99.631676 9197.5137 93.617188 C 9200.4239 87.602699 9201.8789 81.006708 9201.8789 73.828125 C 9201.8789 65.097416 9199.7449 57.434426 9195.4766 50.837891 C 9191.2082 44.241355 9185.3882 39.003362 9178.0156 35.123047 C 9170.643 31.242732 9162.204 29.302734 9152.6973 29.302734 z M 9151.8242 53.166016 C 9157.8387 53.166016 9162.8827 55.203013 9166.957 59.277344 C 9171.0314 63.351674 9173.0684 68.492668 9173.0684 74.701172 C 9173.0684 79.163534 9172.0984 83.334529 9170.1582 87.214844 C 9168.218 91.095159 9164.92 95.074107 9160.2637 99.148438 C 9155.8013 103.02875 9149.8843 107.29675 9142.5117 111.95312 C 9138.0494 105.55061 9134.7494 99.72866 9132.6152 94.490234 C 9130.4811 89.251809 9129.4141 84.110816 9129.4141 79.066406 C 9129.4141 71.305776 9131.4511 65.097784 9135.5254 60.441406 C 9139.7937 55.591013 9145.2277 53.166016 9151.8242 53.166016 z M 9211.1934 132.0332 C 9211.1793 132.11732 9211.1626 132.19921 9211.1484 132.2832 L 9212.6934 132.2832 L 9211.1934 132.0332 z " transform="matrix(0.26458333,0,0,0.26458333,-2400,0)" layer="top"/>
      </g></svg>