<svg xmlns:inkscape="http://www.inkscape.org/namespaces/inkscape" xmlns:sodipodi="http://sodipodi.sourceforge.net/DTD/sodipodi-0.dtd" xmlns="http://www.w3.org/2000/svg" xmlns:svg="http://www.w3.org/2000/svg" xmlns:rdf="http://www.w3.org/1999/02/22-rdf-syntax-ns#" xmlns:cc="http://creativecommons.org/ns#" xmlns:dc="http://purl.org/dc/elements/1.1/" width="49mm" height="35mm" viewBox="0 0 49 35" version="1.1" id="svg5" inkscape:version="1.1 (c68e22c387, 2021-05-23)" sodipodi:docname="input.svg">
  <metadata id="metadata149">
    <rdf:RDF>
      <cc:Work rdf:about="">
        <dc:format>image/svg+xml</dc:format>
        <dc:type rdf:resource="http://purl.org/dc/dcmitype/StillImage"/>
      </cc:Work>
    </rdf:RDF>
  </metadata>
  <sodipodi:namedview id="namedview7" pagecolor="#333333" bordercolor="#eeeeee" borderopacity="0" inkscape:pageshadow="0" inkscape:pageopacity="0" inkscape:pagecheckerboard="true" inkscape:document-units="mm" showgrid="true" fit-margin-top="0" fit-margin-left="0" fit-margin-right="0" fit-margin-bottom="0" inkscape:zoom="4" inkscape:cx="107.875" inkscape:cy="101.25" inkscape:window-width="1902" inkscape:window-height="991" inkscape:window-x="0" inkscape:window-y="0" inkscape:window-maximized="0" inkscape:current-layer="layer_ss_bot" inkscape:document-rotation="0" inkscape:snap-object-midpoints="true" inkscape:object-nodes="true" inkscape:snap-bbox="true" inkscape:bbox-nodes="true" inkscape:bbox-paths="false" inkscape:object-paths="false" inkscape:showpageshadow="false" showborder="false">
    <inkscape:grid type="xygrid" id="grid1147" units="mm" spacingx="1" spacingy="1" empspacing="5" originy="0" originx="0"/>
  </sodipodi:namedview>
  <defs id="defs2"/>
  <g inkscape:label="Dimension" inkscape:groupmode="layer" id="layer1" style="display:inline">
    <path id="path1480" style="fill:none;stroke-width:0.02;stroke-linecap:round;stroke:#ffff00;stroke-miterlimit:4;stroke-dasharray:none" d="M 15.117188,0 A 15.11811,15.11811 0 0 0 0,15.117188 V 81.638672 H 7.5585938 V 122.45703 H 0 v 3.7793 h 7.5585938 v 6.04687 H 177.63867 v -6.04687 h 7.5586 v -3.7793 h -7.5586 V 81.638672 h 7.5586 V 15.117188 A 15.11811,15.11811 0 0 0 170.07812,0 Z" flap="True" transform="scale(0.264583, 0.264583)"/>
  </g>
  <g id="layer_ss_bot" inkscape:groupmode="layer" inkscape:label="bPlace">
    <path id="path832" style="font-size:80px;font-family:'Red Hat Mono';stroke-width:0;fill:#5f5fd3" d="M 95.621094 25.474609 C 81.510858 25.474609 68.208575 28.094993 55.710938 33.335938 C 43.2133 38.778457 30.613275 47.244611 17.914062 58.734375 L 31.824219 76.271484 C 44.321857 64.983295 55.408394 57.020986 65.083984 52.384766 C 74.759575 47.748545 85.139948 45.429687 96.226562 45.429688 C 105.499 45.429688 113.66363 47.143541 120.71875 50.570312 C 127.97544 54.198659 133.61889 59.03674 137.65039 65.083984 C 141.88346 71.332803 144 78.287423 144 85.947266 C 144 94.614982 141.7823 101.46844 137.34766 106.50781 C 133.11459 111.74876 127.47113 115.77952 120.41602 118.60156 C 113.3609 121.62518 105.60091 124.14441 97.134766 126.16016 C 89.660046 128.11782 82.092786 130.16841 74.460938 132.2832 L 142.21484 132.2832 C 142.60747 132.05603 143.00678 131.83617 143.39453 131.60352 C 150.65122 127.57202 156.39779 122.02777 160.63086 114.97266 C 165.06551 107.91754 167.28125 98.646014 167.28125 87.15625 C 167.28125 75.464911 164.15702 64.882219 157.9082 55.408203 C 151.86096 46.135762 143.3948 38.778457 132.50977 33.335938 C 121.8263 28.094993 109.52976 25.474609 95.621094 25.474609 z " transform="scale(0.26458333)"/>
  </g>
  <g id="layer_ss_top" inkscape:groupmode="layer" inkscape:label="tPlace">
    <path id="path835" style="font-size:80px;font-family:'Red Hat Mono';stroke-width:0;fill:#ff5599" d="M 24.263672 22.677734 L 24.263672 132.2832 L 132.16016 132.2832 C 137.26498 128.87911 141.71994 124.80114 145.51172 120.03711 C 153.37314 109.95837 157.30469 97.864142 157.30469 83.753906 C 157.30469 71.457843 154.48199 60.773991 148.83789 51.703125 C 143.1938 42.632259 135.33265 35.578433 125.25391 30.539062 C 115.17517 25.298118 103.38246 22.677734 89.876953 22.677734 L 24.263672 22.677734 z M 47.546875 42.935547 L 88.0625 42.935547 C 101.97116 42.935547 113.0577 46.664779 121.32227 54.123047 C 129.78841 61.581315 134.02148 71.559003 134.02148 84.056641 C 134.02148 96.352704 129.78841 106.22923 121.32227 113.6875 C 113.0577 120.94419 101.97116 124.57227 88.0625 124.57227 L 47.546875 124.57227 L 47.546875 42.935547 z " transform="scale(0.26458333)"/>
  </g>
</svg>