<svg xmlns:inkscape="http://www.inkscape.org/namespaces/inkscape" xmlns:sodipodi="http://sodipodi.sourceforge.net/DTD/sodipodi-0.dtd" xmlns="http://www.w3.org/2000/svg" xmlns:svg="http://www.w3.org/2000/svg" xmlns:rdf="http://www.w3.org/1999/02/22-rdf-syntax-ns#" xmlns:cc="http://creativecommons.org/ns#" xmlns:dc="http://purl.org/dc/elements/1.1/" width="49mm" height="35mm" viewBox="0 0 49 35" version="1.1" id="svg5" inkscape:version="1.1 (c68e22c387, 2021-05-23)" sodipodi:docname="input.svg">
  <metadata id="metadata149">
    <rdf:RDF>
      <cc:Work rdf:about="">
        <dc:format>image/svg+xml</dc:format>
        <dc:type rdf:resource="http://purl.org/dc/dcmitype/StillImage"/>
      </cc:Work>
    </rdf:RDF>
  </metadata>
  <sodipodi:namedview id="namedview7" pagecolor="#333333" bordercolor="#eeeeee" borderopacity="0" inkscape:pageshadow="0" inkscape:pageopacity="0" inkscape:pagecheckerboard="true" inkscape:document-units="mm" showgrid="true" fit-margin-top="0" fit-margin-left="0" fit-margin-right="0" fit-margin-bottom="0" inkscape:zoom="4" inkscape:cx="107.875" inkscape:cy="101.25" inkscape:window-width="1902" inkscape:window-height="991" inkscape:window-x="0" inkscape:window-y="0" inkscape:window-maximized="0" inkscape:current-layer="layer_ss_bot" inkscape:document-rotation="0" inkscape:snap-object-midpoints="true" inkscape:object-nodes="true" inkscape:snap-bbox="true" inkscape:bbox-nodes="true" inkscape:bbox-paths="false" inkscape:object-paths="false" inkscape:showpageshadow="false" showborder="false">
    <inkscape:grid type="xygrid" id="grid1147" units="mm" spacingx="1" spacingy="1" empspacing="5" originy="0" originx="0"/>
  </sodipodi:namedview>
  <defs id="defs2"/>
  <g inkscape:label="Dimension" inkscape:groupmode="layer" id="layer1" style="display:inline">
    <path id="path1480" style="fill:none;stroke-width:0.02;stroke-linecap:round;stroke:#ffff00;stroke-miterlimit:4;stroke-dasharray:none" d="M 15.117188,0 A 15.11811,15.11811 0 0 0 0,15.117188 V 81.638672 H 7.5585938 V 122.45703 H 0 v 3.7793 h 7.5585938 v 6.04687 H 177.63867 v -6.04687 h 7.5586 v -3.7793 h -7.5586 V 81.638672 h 7.5586 V 15.117188 A 15.11811,15.11811 0 0 0 170.07812,0 Z" flap="True" transform="scale(0.264583, 0.264583)"/>
  </g>
  <g id="layer_ss_bot" inkscape:groupmode="layer" inkscape:label="bPlace">
    <path id="path832" style="font-size:80px;font-family:'Red Hat Mono';stroke-width:0;fill:#5f5fd3" d="M 21.392578 32.126953 L 21.392578 132.2832 L 44.673828 132.2832 L 44.673828 52.384766 L 76.724609 52.384766 C 89.423822 52.384766 100.51036 55.911679 109.98438 62.966797 C 119.65997 70.22349 127.11843 80.201178 132.35938 92.900391 C 137.01369 104.35717 139.59622 117.48795 140.11719 132.2832 L 163.70117 132.2832 C 163.0942 113.83848 159.50805 97.379156 152.91992 82.921875 C 145.8648 66.997466 135.98828 54.500554 123.28906 45.429688 C 110.79142 36.560396 96.277181 32.126953 79.748047 32.126953 L 21.392578 32.126953 z " transform="scale(0.26458333)"/>
  </g>
  <g id="layer_ss_top" inkscape:groupmode="layer" inkscape:label="tPlace">
    <path id="path835" style="font-size:80px;font-family:'Red Hat Mono';stroke-width:0;fill:#ff5599" d="M 94.564453 22.677734 C 80.454217 22.677734 67.251141 26.910811 54.955078 35.376953 C 42.86059 43.843095 33.083268 56.238847 25.625 72.566406 C 18.166732 88.692391 14.4375 108.4474 14.4375 131.83008 C 14.4375 131.98259 14.441089 132.13099 14.441406 132.2832 L 38.025391 132.2832 C 38.02505 132.13113 38.021484 131.98252 38.021484 131.83008 C 38.021484 113.2852 40.542661 97.461737 45.582031 84.359375 C 50.621401 71.257013 57.373702 61.279325 65.839844 54.425781 C 74.50756 47.370663 84.082563 43.841797 94.564453 43.841797 C 107.06209 43.841797 118.14863 48.277193 127.82422 57.146484 C 137.70138 65.814201 144.656 78.311113 148.6875 94.638672 L 170.75977 87.685547 C 166.92984 73.97846 161.3856 62.286919 154.12891 52.611328 C 146.87221 42.935738 138.20569 35.578433 128.12695 30.539062 C 118.04821 25.298118 106.86052 22.677734 94.564453 22.677734 z " transform="scale(0.26458333)"/>
  </g>
</svg>