<svg xmlns:inkscape="http://www.inkscape.org/namespaces/inkscape" xmlns:sodipodi="http://sodipodi.sourceforge.net/DTD/sodipodi-0.dtd" xmlns="http://www.w3.org/2000/svg" xmlns:svg="http://www.w3.org/2000/svg" xmlns:rdf="http://www.w3.org/1999/02/22-rdf-syntax-ns#" xmlns:cc="http://creativecommons.org/ns#" xmlns:dc="http://purl.org/dc/elements/1.1/" width="49mm" height="35mm" viewBox="0 0 49 35" version="1.1" id="svg5" inkscape:version="1.1 (c68e22c387, 2021-05-23)" sodipodi:docname="input.svg">
  <metadata id="metadata149">
    <rdf:RDF>
      <cc:Work rdf:about="">
        <dc:format>image/svg+xml</dc:format>
        <dc:type rdf:resource="http://purl.org/dc/dcmitype/StillImage"/>
      </cc:Work>
    </rdf:RDF>
  </metadata>
  <sodipodi:namedview id="namedview7" pagecolor="#333333" bordercolor="#eeeeee" borderopacity="0" inkscape:pageshadow="0" inkscape:pageopacity="0" inkscape:pagecheckerboard="true" inkscape:document-units="mm" showgrid="true" fit-margin-top="0" fit-margin-left="0" fit-margin-right="0" fit-margin-bottom="0" inkscape:zoom="4" inkscape:cx="107.875" inkscape:cy="101.25" inkscape:window-width="1902" inkscape:window-height="991" inkscape:window-x="0" inkscape:window-y="0" inkscape:window-maximized="0" inkscape:current-layer="layer_ss_bot" inkscape:document-rotation="0" inkscape:snap-object-midpoints="true" inkscape:object-nodes="true" inkscape:snap-bbox="true" inkscape:bbox-nodes="true" inkscape:bbox-paths="false" inkscape:object-paths="false" inkscape:showpageshadow="false" showborder="false">
    <inkscape:grid type="xygrid" id="grid1147" units="mm" spacingx="1" spacingy="1" empspacing="5" originy="0" originx="0"/>
  </sodipodi:namedview>
  <defs id="defs2"/>
  <g inkscape:label="Dimension" inkscape:groupmode="layer" id="layer1" style="display:inline">
    <path id="path1480" style="fill:none;stroke-width:0.02;stroke-linecap:round;stroke:#ffff00;stroke-miterlimit:4;stroke-dasharray:none" d="M 15.117188,0 A 15.11811,15.11811 0 0 0 0,15.117188 V 81.638672 H 7.5585938 V 122.45703 H 0 v 3.7793 h 7.5585938 v 6.04687 H 177.63867 v -6.04687 h 7.5586 v -3.7793 h -7.5586 V 81.638672 h 7.5586 V 15.117188 A 15.11811,15.11811 0 0 0 170.07812,0 Z" flap="True" transform="scale(0.264583, 0.264583)"/>
  </g>
  <g id="layer_ss_bot" inkscape:groupmode="layer" inkscape:label="bPlace">
    <path id="path832" style="font-size:80px;font-family:'Red Hat Mono';stroke-width:0;fill:#5f5fd3" d="M 85.341797 0 L 85.341797 18.519531 C 74.255183 19.527405 63.370965 22.046629 52.6875 26.078125 C 42.004035 30.109621 32.226713 35.552707 23.357422 42.40625 L 34.242188 58.734375 C 42.506754 52.485556 50.871749 47.546315 59.337891 43.917969 C 68.005607 40.491197 76.67408 38.273499 85.341797 37.265625 L 85.341797 110.74023 C 69.618962 114.97331 57.423576 119.81139 48.755859 125.25391 C 45.188219 127.49405 42.072322 129.83816 39.392578 132.2832 L 83.09375 132.2832 C 83.834166 132.05564 84.576551 131.82917 85.341797 131.60352 L 85.341797 132.2832 L 101.66992 132.2832 L 101.66992 127.97461 C 123.84315 121.92737 139.36313 114.67122 148.23242 106.20508 C 157.30329 97.940511 161.83984 86.752814 161.83984 72.642578 C 161.83984 62.765413 159.32062 53.896574 154.28125 46.035156 C 149.24188 38.375314 142.1861 32.126858 133.11523 27.289062 C 124.04437 22.451267 113.56284 19.527405 101.66992 18.519531 L 101.66992 0 L 85.341797 0 z M 101.66992 36.962891 C 113.36126 38.172339 122.8351 41.802365 130.0918 47.849609 C 137.34849 54.098428 140.97656 61.757259 140.97656 70.828125 C 140.97656 80.100566 137.95349 87.559031 131.90625 93.203125 C 126.06058 98.847219 115.98173 103.58414 101.66992 107.41406 L 101.66992 36.962891 z " transform="scale(0.26458333)"/>
  </g>
  <g id="layer_ss_top" inkscape:groupmode="layer" inkscape:label="tPlace">
    <path id="path835" style="font-size:80px;font-family:'Red Hat Mono';stroke-width:0;fill:#ff5599" d="M 108.32031 22.677734 C 96.628974 22.677734 85.542437 25.801962 75.060547 32.050781 C 64.780232 38.098025 55.911393 47.169184 48.453125 59.263672 C 41.196432 71.156585 36.157985 85.871195 33.335938 103.4082 L 9.1464844 103.4082 L 9.1464844 119.73633 L 31.521484 119.73633 C 31.31991 121.75208 31.21875 123.76746 31.21875 125.7832 L 31.21875 131.83008 L 31.21875 132.2832 L 54.802734 132.2832 L 54.802734 131.83008 L 54.802734 125.7832 C 54.802734 123.76746 54.903894 121.75208 55.105469 119.73633 L 126.46289 119.73633 L 132.20703 103.4082 L 57.222656 103.4082 C 60.649428 84.258597 66.897884 69.543987 75.96875 59.263672 C 85.241191 48.983357 96.02425 43.841797 108.32031 43.841797 C 118.39905 43.841797 127.47021 47.067184 135.5332 53.517578 C 143.79777 59.967972 150.3497 69.241449 155.1875 81.335938 L 176.05078 71.962891 C 169.80196 56.441631 160.83196 44.347404 149.14062 35.679688 C 137.44929 27.011971 123.84157 22.677734 108.32031 22.677734 z " transform="scale(0.26458333)"/>
  </g>
</svg>