<?xml version="1.0" encoding="UTF-8" standalone="no"?>
<svg
   sodipodi:docname="flap_default_set.svg"
   inkscape:version="1.1.2 (b8e25be833, 2022-02-05)"
   id="svg5"
   version="1.1"
   viewBox="0 0 49 35"
   height="35mm"
   width="49mm"
   xmlns:inkscape="http://www.inkscape.org/namespaces/inkscape"
   xmlns:sodipodi="http://sodipodi.sourceforge.net/DTD/sodipodi-0.dtd"
   xmlns="http://www.w3.org/2000/svg"
   xmlns:svg="http://www.w3.org/2000/svg"
   xmlns:rdf="http://www.w3.org/1999/02/22-rdf-syntax-ns#"
   xmlns:cc="http://creativecommons.org/ns#"
   xmlns:dc="http://purl.org/dc/elements/1.1/">
  <metadata
     id="metadata149">
    <rdf:RDF>
      <cc:Work
         rdf:about="">
        <dc:format>image/svg+xml</dc:format>
        <dc:type
           rdf:resource="http://purl.org/dc/dcmitype/StillImage" />
      </cc:Work>
    </rdf:RDF>
  </metadata>
  <sodipodi:namedview
     id="namedview7"
     pagecolor="#333333"
     bordercolor="#eeeeee"
     borderopacity="0"
     inkscape:pageshadow="0"
     inkscape:pageopacity="0"
     inkscape:pagecheckerboard="true"
     inkscape:document-units="mm"
     showgrid="true"
     fit-margin-top="0"
     fit-margin-left="0"
     fit-margin-right="0"
     fit-margin-bottom="0"
     inkscape:zoom="0.99999999"
     inkscape:cx="8865.5001"
     inkscape:cy="0"
     inkscape:window-width="3440"
     inkscape:window-height="1369"
     inkscape:window-x="-8"
     inkscape:window-y="-8"
     inkscape:window-maximized="1"
     inkscape:current-layer="layer_gen_characterMap"
     inkscape:document-rotation="0"
     inkscape:snap-object-midpoints="true"
     inkscape:object-nodes="true"
     inkscape:snap-bbox="true"
     inkscape:bbox-nodes="true"
     inkscape:bbox-paths="false"
     inkscape:object-paths="false"
     inkscape:showpageshadow="false"
     showborder="false"
     inkscape:snap-global="false">
    <inkscape:grid
       type="xygrid"
       id="grid1147"
       units="mm"
       spacingx="1"
       spacingy="1"
       empspacing="5"
       originy="0"
       originx="0" />
  </sodipodi:namedview>
  <defs
     id="defs2" />
  <g
     inkscape:label="Dimension"
     inkscape:groupmode="layer"
     id="layer_dimension"
     style="display:inline">
    <path
       id="path1480-7"
       style="display:inline;fill:#ffffff;stroke:#ffff00;stroke-width:0;stroke-linecap:round;stroke-miterlimit:4;stroke-dasharray:none"
       d="M 3.9997515,5.0966779e-7 A 3.9999949,3.9999949 0 0 0 5e-7,3.9997515 V 21.600206 H 1.9998759 V 32.400049 H 5e-7 v 0.999939 h 1.9998754 v 1.599899 H 47.000173 V 33.399988 H 49.00005 V 32.400049 H 47.000173 V 21.600206 H 49.00005 V 3.9997515 A 3.9999949,3.9999949 0 0 0 44.99978,5.0966779e-7 Z"
       flap="True"
       mid_cutout="0.5" />
  </g>
  <g
     id="layer_gen_characterMap"
     inkscape:groupmode="layer"
     inkscape:label="gen_flapset">
    <g
       id="flap_1"
       transform="translate(50, 0)">
      <path
         id="top_flap_1"
         style="display:inline;fill:#ffffff;stroke:#ffff00;stroke-width:0;stroke-linecap:round;stroke-miterlimit:4;stroke-dasharray:none"
         d="M 3.9997515,5.0966779e-7 A 3.9999949,3.9999949 0 0 0 5e-7,3.9997515 V 21.600206 H 1.9998759 V 32.400049 H 5e-7 v 0.999939 h 1.9998754 v 1.599899 H 47.000173 V 33.399988 H 49.00005 V 32.400049 H 47.000173 V 21.600206 H 49.00005 V 3.9997515 A 3.9999949,3.9999949 0 0 0 44.99978,5.0966779e-7 Z"
         flap="True"
         mid_cutout="0.5" />
      <path
         id="bot_flap_1"
         style="display:inline;fill:#ffffff;stroke:#ffff00;stroke-width:0;stroke-linecap:round;stroke-miterlimit:4;stroke-dasharray:none"
         d="M 3.9997515,5.0966779e-7 A 3.9999949,3.9999949 0 0 0 5e-7,3.9997515 V 21.600206 H 1.9998759 V 32.400049 H 5e-7 v 0.999939 h 1.9998754 v 1.599899 H 47.000173 V 33.399988 H 49.00005 V 32.400049 H 47.000173 V 21.600206 H 49.00005 V 3.9997515 A 3.9999949,3.9999949 0 0 0 44.99978,5.0966779e-7 Z"
         flap="True"
         mid_cutout="0.5"
         transform="matrix(1 0 0 -1 0 70.5)" />
      <text
         style="font-size:77px;font-family:'Red Hat Mono';font-weight:600;text-align:center;text-anchor:middle;fill:#000000;stroke-width:0"
         x="24.50002525"
         y="62.4997729996129"
         id="flap_char_1" />
    </g>
    <g
       id="flap_2"
       transform="translate(100, 0)">
      <path
         id="top_flap_2"
         style="display:inline;fill:#ffffff;stroke:#ffff00;stroke-width:0;stroke-linecap:round;stroke-miterlimit:4;stroke-dasharray:none"
         d="M 3.9997515,5.0966779e-7 A 3.9999949,3.9999949 0 0 0 5e-7,3.9997515 V 21.600206 H 1.9998759 V 32.400049 H 5e-7 v 0.999939 h 1.9998754 v 1.599899 H 47.000173 V 33.399988 H 49.00005 V 32.400049 H 47.000173 V 21.600206 H 49.00005 V 3.9997515 A 3.9999949,3.9999949 0 0 0 44.99978,5.0966779e-7 Z"
         flap="True"
         mid_cutout="0.5" />
      <path
         id="bot_flap_2"
         style="display:inline;fill:#ffffff;stroke:#ffff00;stroke-width:0;stroke-linecap:round;stroke-miterlimit:4;stroke-dasharray:none"
         d="M 3.9997515,5.0966779e-7 A 3.9999949,3.9999949 0 0 0 5e-7,3.9997515 V 21.600206 H 1.9998759 V 32.400049 H 5e-7 v 0.999939 h 1.9998754 v 1.599899 H 47.000173 V 33.399988 H 49.00005 V 32.400049 H 47.000173 V 21.600206 H 49.00005 V 3.9997515 A 3.9999949,3.9999949 0 0 0 44.99978,5.0966779e-7 Z"
         flap="True"
         mid_cutout="0.5"
         transform="matrix(1 0 0 -1 0 70.5)" />
      <text
         style="font-size:77px;font-family:'Red Hat Mono';font-weight:600;text-align:center;text-anchor:middle;fill:#000000;stroke-width:0"
         x="24.50002525"
         y="62.4997729996129"
         id="flap_char_2">A</text>
    </g>
    <g
       id="flap_3"
       transform="translate(150, 0)">
      <path
         id="top_flap_3"
         style="display:inline;fill:#ffffff;stroke:#ffff00;stroke-width:0;stroke-linecap:round;stroke-miterlimit:4;stroke-dasharray:none"
         d="M 3.9997515,5.0966779e-7 A 3.9999949,3.9999949 0 0 0 5e-7,3.9997515 V 21.600206 H 1.9998759 V 32.400049 H 5e-7 v 0.999939 h 1.9998754 v 1.599899 H 47.000173 V 33.399988 H 49.00005 V 32.400049 H 47.000173 V 21.600206 H 49.00005 V 3.9997515 A 3.9999949,3.9999949 0 0 0 44.99978,5.0966779e-7 Z"
         flap="True"
         mid_cutout="0.5" />
      <path
         id="bot_flap_3"
         style="display:inline;fill:#ffffff;stroke:#ffff00;stroke-width:0;stroke-linecap:round;stroke-miterlimit:4;stroke-dasharray:none"
         d="M 3.9997515,5.0966779e-7 A 3.9999949,3.9999949 0 0 0 5e-7,3.9997515 V 21.600206 H 1.9998759 V 32.400049 H 5e-7 v 0.999939 h 1.9998754 v 1.599899 H 47.000173 V 33.399988 H 49.00005 V 32.400049 H 47.000173 V 21.600206 H 49.00005 V 3.9997515 A 3.9999949,3.9999949 0 0 0 44.99978,5.0966779e-7 Z"
         flap="True"
         mid_cutout="0.5"
         transform="matrix(1 0 0 -1 0 70.5)" />
      <text
         style="font-size:77px;font-family:'Red Hat Mono';font-weight:600;text-align:center;text-anchor:middle;fill:#000000;stroke-width:0"
         x="24.50002525"
         y="62.4997729996129"
         id="flap_char_3">B</text>
    </g>
    <g
       id="flap_4"
       transform="translate(200, 0)">
      <path
         id="top_flap_4"
         style="display:inline;fill:#ffffff;stroke:#ffff00;stroke-width:0;stroke-linecap:round;stroke-miterlimit:4;stroke-dasharray:none"
         d="M 3.9997515,5.0966779e-7 A 3.9999949,3.9999949 0 0 0 5e-7,3.9997515 V 21.600206 H 1.9998759 V 32.400049 H 5e-7 v 0.999939 h 1.9998754 v 1.599899 H 47.000173 V 33.399988 H 49.00005 V 32.400049 H 47.000173 V 21.600206 H 49.00005 V 3.9997515 A 3.9999949,3.9999949 0 0 0 44.99978,5.0966779e-7 Z"
         flap="True"
         mid_cutout="0.5" />
      <path
         id="bot_flap_4"
         style="display:inline;fill:#ffffff;stroke:#ffff00;stroke-width:0;stroke-linecap:round;stroke-miterlimit:4;stroke-dasharray:none"
         d="M 3.9997515,5.0966779e-7 A 3.9999949,3.9999949 0 0 0 5e-7,3.9997515 V 21.600206 H 1.9998759 V 32.400049 H 5e-7 v 0.999939 h 1.9998754 v 1.599899 H 47.000173 V 33.399988 H 49.00005 V 32.400049 H 47.000173 V 21.600206 H 49.00005 V 3.9997515 A 3.9999949,3.9999949 0 0 0 44.99978,5.0966779e-7 Z"
         flap="True"
         mid_cutout="0.5"
         transform="matrix(1 0 0 -1 0 70.5)" />
      <text
         style="font-size:77px;font-family:'Red Hat Mono';font-weight:600;text-align:center;text-anchor:middle;fill:#000000;stroke-width:0"
         x="24.50002525"
         y="62.4997729996129"
         id="flap_char_4">C</text>
    </g>
    <g
       id="flap_5"
       transform="translate(250, 0)">
      <path
         id="top_flap_5"
         style="display:inline;fill:#ffffff;stroke:#ffff00;stroke-width:0;stroke-linecap:round;stroke-miterlimit:4;stroke-dasharray:none"
         d="M 3.9997515,5.0966779e-7 A 3.9999949,3.9999949 0 0 0 5e-7,3.9997515 V 21.600206 H 1.9998759 V 32.400049 H 5e-7 v 0.999939 h 1.9998754 v 1.599899 H 47.000173 V 33.399988 H 49.00005 V 32.400049 H 47.000173 V 21.600206 H 49.00005 V 3.9997515 A 3.9999949,3.9999949 0 0 0 44.99978,5.0966779e-7 Z"
         flap="True"
         mid_cutout="0.5" />
      <path
         id="bot_flap_5"
         style="display:inline;fill:#ffffff;stroke:#ffff00;stroke-width:0;stroke-linecap:round;stroke-miterlimit:4;stroke-dasharray:none"
         d="M 3.9997515,5.0966779e-7 A 3.9999949,3.9999949 0 0 0 5e-7,3.9997515 V 21.600206 H 1.9998759 V 32.400049 H 5e-7 v 0.999939 h 1.9998754 v 1.599899 H 47.000173 V 33.399988 H 49.00005 V 32.400049 H 47.000173 V 21.600206 H 49.00005 V 3.9997515 A 3.9999949,3.9999949 0 0 0 44.99978,5.0966779e-7 Z"
         flap="True"
         mid_cutout="0.5"
         transform="matrix(1 0 0 -1 0 70.5)" />
      <text
         style="font-size:77px;font-family:'Red Hat Mono';font-weight:600;text-align:center;text-anchor:middle;fill:#000000;stroke-width:0"
         x="24.50002525"
         y="62.4997729996129"
         id="flap_char_5">D</text>
    </g>
    <g
       id="flap_6"
       transform="translate(300, 0)">
      <path
         id="top_flap_6"
         style="display:inline;fill:#ffffff;stroke:#ffff00;stroke-width:0;stroke-linecap:round;stroke-miterlimit:4;stroke-dasharray:none"
         d="M 3.9997515,5.0966779e-7 A 3.9999949,3.9999949 0 0 0 5e-7,3.9997515 V 21.600206 H 1.9998759 V 32.400049 H 5e-7 v 0.999939 h 1.9998754 v 1.599899 H 47.000173 V 33.399988 H 49.00005 V 32.400049 H 47.000173 V 21.600206 H 49.00005 V 3.9997515 A 3.9999949,3.9999949 0 0 0 44.99978,5.0966779e-7 Z"
         flap="True"
         mid_cutout="0.5" />
      <path
         id="bot_flap_6"
         style="display:inline;fill:#ffffff;stroke:#ffff00;stroke-width:0;stroke-linecap:round;stroke-miterlimit:4;stroke-dasharray:none"
         d="M 3.9997515,5.0966779e-7 A 3.9999949,3.9999949 0 0 0 5e-7,3.9997515 V 21.600206 H 1.9998759 V 32.400049 H 5e-7 v 0.999939 h 1.9998754 v 1.599899 H 47.000173 V 33.399988 H 49.00005 V 32.400049 H 47.000173 V 21.600206 H 49.00005 V 3.9997515 A 3.9999949,3.9999949 0 0 0 44.99978,5.0966779e-7 Z"
         flap="True"
         mid_cutout="0.5"
         transform="matrix(1 0 0 -1 0 70.5)" />
      <text
         style="font-size:77px;font-family:'Red Hat Mono';font-weight:600;text-align:center;text-anchor:middle;fill:#000000;stroke-width:0"
         x="24.50002525"
         y="62.4997729996129"
         id="flap_char_6">E</text>
    </g>
    <g
       id="flap_7"
       transform="translate(350, 0)">
      <path
         id="top_flap_7"
         style="display:inline;fill:#ffffff;stroke:#ffff00;stroke-width:0;stroke-linecap:round;stroke-miterlimit:4;stroke-dasharray:none"
         d="M 3.9997515,5.0966779e-7 A 3.9999949,3.9999949 0 0 0 5e-7,3.9997515 V 21.600206 H 1.9998759 V 32.400049 H 5e-7 v 0.999939 h 1.9998754 v 1.599899 H 47.000173 V 33.399988 H 49.00005 V 32.400049 H 47.000173 V 21.600206 H 49.00005 V 3.9997515 A 3.9999949,3.9999949 0 0 0 44.99978,5.0966779e-7 Z"
         flap="True"
         mid_cutout="0.5" />
      <path
         id="bot_flap_7"
         style="display:inline;fill:#ffffff;stroke:#ffff00;stroke-width:0;stroke-linecap:round;stroke-miterlimit:4;stroke-dasharray:none"
         d="M 3.9997515,5.0966779e-7 A 3.9999949,3.9999949 0 0 0 5e-7,3.9997515 V 21.600206 H 1.9998759 V 32.400049 H 5e-7 v 0.999939 h 1.9998754 v 1.599899 H 47.000173 V 33.399988 H 49.00005 V 32.400049 H 47.000173 V 21.600206 H 49.00005 V 3.9997515 A 3.9999949,3.9999949 0 0 0 44.99978,5.0966779e-7 Z"
         flap="True"
         mid_cutout="0.5"
         transform="matrix(1 0 0 -1 0 70.5)" />
      <text
         style="font-size:77px;font-family:'Red Hat Mono';font-weight:600;text-align:center;text-anchor:middle;fill:#000000;stroke-width:0"
         x="24.50002525"
         y="62.4997729996129"
         id="flap_char_7">F</text>
    </g>
    <g
       id="flap_8"
       transform="translate(400, 0)">
      <path
         id="top_flap_8"
         style="display:inline;fill:#ffffff;stroke:#ffff00;stroke-width:0;stroke-linecap:round;stroke-miterlimit:4;stroke-dasharray:none"
         d="M 3.9997515,5.0966779e-7 A 3.9999949,3.9999949 0 0 0 5e-7,3.9997515 V 21.600206 H 1.9998759 V 32.400049 H 5e-7 v 0.999939 h 1.9998754 v 1.599899 H 47.000173 V 33.399988 H 49.00005 V 32.400049 H 47.000173 V 21.600206 H 49.00005 V 3.9997515 A 3.9999949,3.9999949 0 0 0 44.99978,5.0966779e-7 Z"
         flap="True"
         mid_cutout="0.5" />
      <path
         id="bot_flap_8"
         style="display:inline;fill:#ffffff;stroke:#ffff00;stroke-width:0;stroke-linecap:round;stroke-miterlimit:4;stroke-dasharray:none"
         d="M 3.9997515,5.0966779e-7 A 3.9999949,3.9999949 0 0 0 5e-7,3.9997515 V 21.600206 H 1.9998759 V 32.400049 H 5e-7 v 0.999939 h 1.9998754 v 1.599899 H 47.000173 V 33.399988 H 49.00005 V 32.400049 H 47.000173 V 21.600206 H 49.00005 V 3.9997515 A 3.9999949,3.9999949 0 0 0 44.99978,5.0966779e-7 Z"
         flap="True"
         mid_cutout="0.5"
         transform="matrix(1 0 0 -1 0 70.5)" />
      <text
         style="font-size:77px;font-family:'Red Hat Mono';font-weight:600;text-align:center;text-anchor:middle;fill:#000000;stroke-width:0"
         x="24.50002525"
         y="62.4997729996129"
         id="flap_char_8">G</text>
    </g>
    <g
       id="flap_9"
       transform="translate(450, 0)">
      <path
         id="top_flap_9"
         style="display:inline;fill:#ffffff;stroke:#ffff00;stroke-width:0;stroke-linecap:round;stroke-miterlimit:4;stroke-dasharray:none"
         d="M 3.9997515,5.0966779e-7 A 3.9999949,3.9999949 0 0 0 5e-7,3.9997515 V 21.600206 H 1.9998759 V 32.400049 H 5e-7 v 0.999939 h 1.9998754 v 1.599899 H 47.000173 V 33.399988 H 49.00005 V 32.400049 H 47.000173 V 21.600206 H 49.00005 V 3.9997515 A 3.9999949,3.9999949 0 0 0 44.99978,5.0966779e-7 Z"
         flap="True"
         mid_cutout="0.5" />
      <path
         id="bot_flap_9"
         style="display:inline;fill:#ffffff;stroke:#ffff00;stroke-width:0;stroke-linecap:round;stroke-miterlimit:4;stroke-dasharray:none"
         d="M 3.9997515,5.0966779e-7 A 3.9999949,3.9999949 0 0 0 5e-7,3.9997515 V 21.600206 H 1.9998759 V 32.400049 H 5e-7 v 0.999939 h 1.9998754 v 1.599899 H 47.000173 V 33.399988 H 49.00005 V 32.400049 H 47.000173 V 21.600206 H 49.00005 V 3.9997515 A 3.9999949,3.9999949 0 0 0 44.99978,5.0966779e-7 Z"
         flap="True"
         mid_cutout="0.5"
         transform="matrix(1 0 0 -1 0 70.5)" />
      <text
         style="font-size:77px;font-family:'Red Hat Mono';font-weight:600;text-align:center;text-anchor:middle;fill:#000000;stroke-width:0"
         x="24.50002525"
         y="62.4997729996129"
         id="flap_char_9">H</text>
    </g>
    <g
       id="flap_10"
       transform="translate(500, 0)">
      <path
         id="top_flap_10"
         style="display:inline;fill:#ffffff;stroke:#ffff00;stroke-width:0;stroke-linecap:round;stroke-miterlimit:4;stroke-dasharray:none"
         d="M 3.9997515,5.0966779e-7 A 3.9999949,3.9999949 0 0 0 5e-7,3.9997515 V 21.600206 H 1.9998759 V 32.400049 H 5e-7 v 0.999939 h 1.9998754 v 1.599899 H 47.000173 V 33.399988 H 49.00005 V 32.400049 H 47.000173 V 21.600206 H 49.00005 V 3.9997515 A 3.9999949,3.9999949 0 0 0 44.99978,5.0966779e-7 Z"
         flap="True"
         mid_cutout="0.5" />
      <path
         id="bot_flap_10"
         style="display:inline;fill:#ffffff;stroke:#ffff00;stroke-width:0;stroke-linecap:round;stroke-miterlimit:4;stroke-dasharray:none"
         d="M 3.9997515,5.0966779e-7 A 3.9999949,3.9999949 0 0 0 5e-7,3.9997515 V 21.600206 H 1.9998759 V 32.400049 H 5e-7 v 0.999939 h 1.9998754 v 1.599899 H 47.000173 V 33.399988 H 49.00005 V 32.400049 H 47.000173 V 21.600206 H 49.00005 V 3.9997515 A 3.9999949,3.9999949 0 0 0 44.99978,5.0966779e-7 Z"
         flap="True"
         mid_cutout="0.5"
         transform="matrix(1 0 0 -1 0 70.5)" />
      <text
         style="font-size:77px;font-family:'Red Hat Mono';font-weight:600;text-align:center;text-anchor:middle;fill:#000000;stroke-width:0"
         x="24.50002525"
         y="62.4997729996129"
         id="flap_char_10">I</text>
    </g>
    <g
       id="flap_11"
       transform="translate(550.001, 0)">
      <path
         id="top_flap_11"
         style="display:inline;fill:#ffffff;stroke:#ffff00;stroke-width:0;stroke-linecap:round;stroke-miterlimit:4;stroke-dasharray:none"
         d="M 3.9997515,5.0966779e-7 A 3.9999949,3.9999949 0 0 0 5e-7,3.9997515 V 21.600206 H 1.9998759 V 32.400049 H 5e-7 v 0.999939 h 1.9998754 v 1.599899 H 47.000173 V 33.399988 H 49.00005 V 32.400049 H 47.000173 V 21.600206 H 49.00005 V 3.9997515 A 3.9999949,3.9999949 0 0 0 44.99978,5.0966779e-7 Z"
         flap="True"
         mid_cutout="0.5" />
      <path
         id="bot_flap_11"
         style="display:inline;fill:#ffffff;stroke:#ffff00;stroke-width:0;stroke-linecap:round;stroke-miterlimit:4;stroke-dasharray:none"
         d="M 3.9997515,5.0966779e-7 A 3.9999949,3.9999949 0 0 0 5e-7,3.9997515 V 21.600206 H 1.9998759 V 32.400049 H 5e-7 v 0.999939 h 1.9998754 v 1.599899 H 47.000173 V 33.399988 H 49.00005 V 32.400049 H 47.000173 V 21.600206 H 49.00005 V 3.9997515 A 3.9999949,3.9999949 0 0 0 44.99978,5.0966779e-7 Z"
         flap="True"
         mid_cutout="0.5"
         transform="matrix(1 0 0 -1 0 70.5)" />
      <text
         style="font-size:77px;font-family:'Red Hat Mono';font-weight:600;text-align:center;text-anchor:middle;fill:#000000;stroke-width:0"
         x="24.50002525"
         y="62.4997729996129"
         id="flap_char_11">J</text>
    </g>
    <g
       id="flap_12"
       transform="translate(600.001, 0)">
      <path
         id="top_flap_12"
         style="display:inline;fill:#ffffff;stroke:#ffff00;stroke-width:0;stroke-linecap:round;stroke-miterlimit:4;stroke-dasharray:none"
         d="M 3.9997515,5.0966779e-7 A 3.9999949,3.9999949 0 0 0 5e-7,3.9997515 V 21.600206 H 1.9998759 V 32.400049 H 5e-7 v 0.999939 h 1.9998754 v 1.599899 H 47.000173 V 33.399988 H 49.00005 V 32.400049 H 47.000173 V 21.600206 H 49.00005 V 3.9997515 A 3.9999949,3.9999949 0 0 0 44.99978,5.0966779e-7 Z"
         flap="True"
         mid_cutout="0.5" />
      <path
         id="bot_flap_12"
         style="display:inline;fill:#ffffff;stroke:#ffff00;stroke-width:0;stroke-linecap:round;stroke-miterlimit:4;stroke-dasharray:none"
         d="M 3.9997515,5.0966779e-7 A 3.9999949,3.9999949 0 0 0 5e-7,3.9997515 V 21.600206 H 1.9998759 V 32.400049 H 5e-7 v 0.999939 h 1.9998754 v 1.599899 H 47.000173 V 33.399988 H 49.00005 V 32.400049 H 47.000173 V 21.600206 H 49.00005 V 3.9997515 A 3.9999949,3.9999949 0 0 0 44.99978,5.0966779e-7 Z"
         flap="True"
         mid_cutout="0.5"
         transform="matrix(1 0 0 -1 0 70.5)" />
      <text
         style="font-size:77px;font-family:'Red Hat Mono';font-weight:600;text-align:center;text-anchor:middle;fill:#000000;stroke-width:0"
         x="24.50002525"
         y="62.4997729996129"
         id="flap_char_12">K</text>
    </g>
    <g
       id="flap_13"
       transform="translate(650.001, 0)">
      <path
         id="top_flap_13"
         style="display:inline;fill:#ffffff;stroke:#ffff00;stroke-width:0;stroke-linecap:round;stroke-miterlimit:4;stroke-dasharray:none"
         d="M 3.9997515,5.0966779e-7 A 3.9999949,3.9999949 0 0 0 5e-7,3.9997515 V 21.600206 H 1.9998759 V 32.400049 H 5e-7 v 0.999939 h 1.9998754 v 1.599899 H 47.000173 V 33.399988 H 49.00005 V 32.400049 H 47.000173 V 21.600206 H 49.00005 V 3.9997515 A 3.9999949,3.9999949 0 0 0 44.99978,5.0966779e-7 Z"
         flap="True"
         mid_cutout="0.5" />
      <path
         id="bot_flap_13"
         style="display:inline;fill:#ffffff;stroke:#ffff00;stroke-width:0;stroke-linecap:round;stroke-miterlimit:4;stroke-dasharray:none"
         d="M 3.9997515,5.0966779e-7 A 3.9999949,3.9999949 0 0 0 5e-7,3.9997515 V 21.600206 H 1.9998759 V 32.400049 H 5e-7 v 0.999939 h 1.9998754 v 1.599899 H 47.000173 V 33.399988 H 49.00005 V 32.400049 H 47.000173 V 21.600206 H 49.00005 V 3.9997515 A 3.9999949,3.9999949 0 0 0 44.99978,5.0966779e-7 Z"
         flap="True"
         mid_cutout="0.5"
         transform="matrix(1 0 0 -1 0 70.5)" />
      <text
         style="font-size:77px;font-family:'Red Hat Mono';font-weight:600;text-align:center;text-anchor:middle;fill:#000000;stroke-width:0"
         x="24.50002525"
         y="62.4997729996129"
         id="flap_char_13">L</text>
    </g>
    <g
       id="flap_14"
       transform="translate(700.001, 0)">
      <path
         id="top_flap_14"
         style="display:inline;fill:#ffffff;stroke:#ffff00;stroke-width:0;stroke-linecap:round;stroke-miterlimit:4;stroke-dasharray:none"
         d="M 3.9997515,5.0966779e-7 A 3.9999949,3.9999949 0 0 0 5e-7,3.9997515 V 21.600206 H 1.9998759 V 32.400049 H 5e-7 v 0.999939 h 1.9998754 v 1.599899 H 47.000173 V 33.399988 H 49.00005 V 32.400049 H 47.000173 V 21.600206 H 49.00005 V 3.9997515 A 3.9999949,3.9999949 0 0 0 44.99978,5.0966779e-7 Z"
         flap="True"
         mid_cutout="0.5" />
      <path
         id="bot_flap_14"
         style="display:inline;fill:#ffffff;stroke:#ffff00;stroke-width:0;stroke-linecap:round;stroke-miterlimit:4;stroke-dasharray:none"
         d="M 3.9997515,5.0966779e-7 A 3.9999949,3.9999949 0 0 0 5e-7,3.9997515 V 21.600206 H 1.9998759 V 32.400049 H 5e-7 v 0.999939 h 1.9998754 v 1.599899 H 47.000173 V 33.399988 H 49.00005 V 32.400049 H 47.000173 V 21.600206 H 49.00005 V 3.9997515 A 3.9999949,3.9999949 0 0 0 44.99978,5.0966779e-7 Z"
         flap="True"
         mid_cutout="0.5"
         transform="matrix(1 0 0 -1 0 70.5)" />
      <text
         style="font-size:77px;font-family:'Red Hat Mono';font-weight:600;text-align:center;text-anchor:middle;fill:#000000;stroke-width:0"
         x="24.50002525"
         y="62.4997729996129"
         id="flap_char_14">M</text>
    </g>
    <g
       id="flap_15"
       transform="translate(750.001, 0)">
      <path
         id="top_flap_15"
         style="display:inline;fill:#ffffff;stroke:#ffff00;stroke-width:0;stroke-linecap:round;stroke-miterlimit:4;stroke-dasharray:none"
         d="M 3.9997515,5.0966779e-7 A 3.9999949,3.9999949 0 0 0 5e-7,3.9997515 V 21.600206 H 1.9998759 V 32.400049 H 5e-7 v 0.999939 h 1.9998754 v 1.599899 H 47.000173 V 33.399988 H 49.00005 V 32.400049 H 47.000173 V 21.600206 H 49.00005 V 3.9997515 A 3.9999949,3.9999949 0 0 0 44.99978,5.0966779e-7 Z"
         flap="True"
         mid_cutout="0.5" />
      <path
         id="bot_flap_15"
         style="display:inline;fill:#ffffff;stroke:#ffff00;stroke-width:0;stroke-linecap:round;stroke-miterlimit:4;stroke-dasharray:none"
         d="M 3.9997515,5.0966779e-7 A 3.9999949,3.9999949 0 0 0 5e-7,3.9997515 V 21.600206 H 1.9998759 V 32.400049 H 5e-7 v 0.999939 h 1.9998754 v 1.599899 H 47.000173 V 33.399988 H 49.00005 V 32.400049 H 47.000173 V 21.600206 H 49.00005 V 3.9997515 A 3.9999949,3.9999949 0 0 0 44.99978,5.0966779e-7 Z"
         flap="True"
         mid_cutout="0.5"
         transform="matrix(1 0 0 -1 0 70.5)" />
      <text
         style="font-size:77px;font-family:'Red Hat Mono';font-weight:600;text-align:center;text-anchor:middle;fill:#000000;stroke-width:0"
         x="24.50002525"
         y="62.4997729996129"
         id="flap_char_15">N</text>
    </g>
    <g
       id="flap_16"
       transform="translate(800.001, 0)">
      <path
         id="top_flap_16"
         style="display:inline;fill:#ffffff;stroke:#ffff00;stroke-width:0;stroke-linecap:round;stroke-miterlimit:4;stroke-dasharray:none"
         d="M 3.9997515,5.0966779e-7 A 3.9999949,3.9999949 0 0 0 5e-7,3.9997515 V 21.600206 H 1.9998759 V 32.400049 H 5e-7 v 0.999939 h 1.9998754 v 1.599899 H 47.000173 V 33.399988 H 49.00005 V 32.400049 H 47.000173 V 21.600206 H 49.00005 V 3.9997515 A 3.9999949,3.9999949 0 0 0 44.99978,5.0966779e-7 Z"
         flap="True"
         mid_cutout="0.5" />
      <path
         id="bot_flap_16"
         style="display:inline;fill:#ffffff;stroke:#ffff00;stroke-width:0;stroke-linecap:round;stroke-miterlimit:4;stroke-dasharray:none"
         d="M 3.9997515,5.0966779e-7 A 3.9999949,3.9999949 0 0 0 5e-7,3.9997515 V 21.600206 H 1.9998759 V 32.400049 H 5e-7 v 0.999939 h 1.9998754 v 1.599899 H 47.000173 V 33.399988 H 49.00005 V 32.400049 H 47.000173 V 21.600206 H 49.00005 V 3.9997515 A 3.9999949,3.9999949 0 0 0 44.99978,5.0966779e-7 Z"
         flap="True"
         mid_cutout="0.5"
         transform="matrix(1 0 0 -1 0 70.5)" />
      <text
         style="font-size:77px;font-family:'Red Hat Mono';font-weight:600;text-align:center;text-anchor:middle;fill:#000000;stroke-width:0"
         x="24.50002525"
         y="62.4997729996129"
         id="flap_char_16">O</text>
    </g>
    <g
       id="flap_17"
       transform="translate(850.001, 0)">
      <path
         id="top_flap_17"
         style="display:inline;fill:#ffffff;stroke:#ffff00;stroke-width:0;stroke-linecap:round;stroke-miterlimit:4;stroke-dasharray:none"
         d="M 3.9997515,5.0966779e-7 A 3.9999949,3.9999949 0 0 0 5e-7,3.9997515 V 21.600206 H 1.9998759 V 32.400049 H 5e-7 v 0.999939 h 1.9998754 v 1.599899 H 47.000173 V 33.399988 H 49.00005 V 32.400049 H 47.000173 V 21.600206 H 49.00005 V 3.9997515 A 3.9999949,3.9999949 0 0 0 44.99978,5.0966779e-7 Z"
         flap="True"
         mid_cutout="0.5" />
      <path
         id="bot_flap_17"
         style="display:inline;fill:#ffffff;stroke:#ffff00;stroke-width:0;stroke-linecap:round;stroke-miterlimit:4;stroke-dasharray:none"
         d="M 3.9997515,5.0966779e-7 A 3.9999949,3.9999949 0 0 0 5e-7,3.9997515 V 21.600206 H 1.9998759 V 32.400049 H 5e-7 v 0.999939 h 1.9998754 v 1.599899 H 47.000173 V 33.399988 H 49.00005 V 32.400049 H 47.000173 V 21.600206 H 49.00005 V 3.9997515 A 3.9999949,3.9999949 0 0 0 44.99978,5.0966779e-7 Z"
         flap="True"
         mid_cutout="0.5"
         transform="matrix(1 0 0 -1 0 70.5)" />
      <text
         style="font-size:77px;font-family:'Red Hat Mono';font-weight:600;text-align:center;text-anchor:middle;fill:#000000;stroke-width:0"
         x="24.50002525"
         y="62.4997729996129"
         id="flap_char_17">P</text>
    </g>
    <g
       id="flap_18"
       transform="translate(900.001, 0)">
      <path
         id="top_flap_18"
         style="display:inline;fill:#ffffff;stroke:#ffff00;stroke-width:0;stroke-linecap:round;stroke-miterlimit:4;stroke-dasharray:none"
         d="M 3.9997515,5.0966779e-7 A 3.9999949,3.9999949 0 0 0 5e-7,3.9997515 V 21.600206 H 1.9998759 V 32.400049 H 5e-7 v 0.999939 h 1.9998754 v 1.599899 H 47.000173 V 33.399988 H 49.00005 V 32.400049 H 47.000173 V 21.600206 H 49.00005 V 3.9997515 A 3.9999949,3.9999949 0 0 0 44.99978,5.0966779e-7 Z"
         flap="True"
         mid_cutout="0.5" />
      <path
         id="bot_flap_18"
         style="display:inline;fill:#ffffff;stroke:#ffff00;stroke-width:0;stroke-linecap:round;stroke-miterlimit:4;stroke-dasharray:none"
         d="M 3.9997515,5.0966779e-7 A 3.9999949,3.9999949 0 0 0 5e-7,3.9997515 V 21.600206 H 1.9998759 V 32.400049 H 5e-7 v 0.999939 h 1.9998754 v 1.599899 H 47.000173 V 33.399988 H 49.00005 V 32.400049 H 47.000173 V 21.600206 H 49.00005 V 3.9997515 A 3.9999949,3.9999949 0 0 0 44.99978,5.0966779e-7 Z"
         flap="True"
         mid_cutout="0.5"
         transform="matrix(1 0 0 -1 0 70.5)" />
      <text
         style="font-size:77px;font-family:'Red Hat Mono';font-weight:600;text-align:center;text-anchor:middle;fill:#000000;stroke-width:0"
         x="24.50002525"
         y="62.4997729996129"
         id="flap_char_18">Q</text>
    </g>
    <g
       id="flap_19"
       transform="translate(950.001, 0)">
      <path
         id="top_flap_19"
         style="display:inline;fill:#ffffff;stroke:#ffff00;stroke-width:0;stroke-linecap:round;stroke-miterlimit:4;stroke-dasharray:none"
         d="M 3.9997515,5.0966779e-7 A 3.9999949,3.9999949 0 0 0 5e-7,3.9997515 V 21.600206 H 1.9998759 V 32.400049 H 5e-7 v 0.999939 h 1.9998754 v 1.599899 H 47.000173 V 33.399988 H 49.00005 V 32.400049 H 47.000173 V 21.600206 H 49.00005 V 3.9997515 A 3.9999949,3.9999949 0 0 0 44.99978,5.0966779e-7 Z"
         flap="True"
         mid_cutout="0.5" />
      <path
         id="bot_flap_19"
         style="display:inline;fill:#ffffff;stroke:#ffff00;stroke-width:0;stroke-linecap:round;stroke-miterlimit:4;stroke-dasharray:none"
         d="M 3.9997515,5.0966779e-7 A 3.9999949,3.9999949 0 0 0 5e-7,3.9997515 V 21.600206 H 1.9998759 V 32.400049 H 5e-7 v 0.999939 h 1.9998754 v 1.599899 H 47.000173 V 33.399988 H 49.00005 V 32.400049 H 47.000173 V 21.600206 H 49.00005 V 3.9997515 A 3.9999949,3.9999949 0 0 0 44.99978,5.0966779e-7 Z"
         flap="True"
         mid_cutout="0.5"
         transform="matrix(1 0 0 -1 0 70.5)" />
      <text
         style="font-size:77px;font-family:'Red Hat Mono';font-weight:600;text-align:center;text-anchor:middle;fill:#000000;stroke-width:0"
         x="24.50002525"
         y="62.4997729996129"
         id="flap_char_19">R</text>
    </g>
    <g
       id="flap_20"
       transform="translate(1000, 0)">
      <path
         id="top_flap_20"
         style="display:inline;fill:#ffffff;stroke:#ffff00;stroke-width:0;stroke-linecap:round;stroke-miterlimit:4;stroke-dasharray:none"
         d="M 3.9997515,5.0966779e-7 A 3.9999949,3.9999949 0 0 0 5e-7,3.9997515 V 21.600206 H 1.9998759 V 32.400049 H 5e-7 v 0.999939 h 1.9998754 v 1.599899 H 47.000173 V 33.399988 H 49.00005 V 32.400049 H 47.000173 V 21.600206 H 49.00005 V 3.9997515 A 3.9999949,3.9999949 0 0 0 44.99978,5.0966779e-7 Z"
         flap="True"
         mid_cutout="0.5" />
      <path
         id="bot_flap_20"
         style="display:inline;fill:#ffffff;stroke:#ffff00;stroke-width:0;stroke-linecap:round;stroke-miterlimit:4;stroke-dasharray:none"
         d="M 3.9997515,5.0966779e-7 A 3.9999949,3.9999949 0 0 0 5e-7,3.9997515 V 21.600206 H 1.9998759 V 32.400049 H 5e-7 v 0.999939 h 1.9998754 v 1.599899 H 47.000173 V 33.399988 H 49.00005 V 32.400049 H 47.000173 V 21.600206 H 49.00005 V 3.9997515 A 3.9999949,3.9999949 0 0 0 44.99978,5.0966779e-7 Z"
         flap="True"
         mid_cutout="0.5"
         transform="matrix(1 0 0 -1 0 70.5)" />
      <text
         style="font-size:77px;font-family:'Red Hat Mono';font-weight:600;text-align:center;text-anchor:middle;fill:#000000;stroke-width:0"
         x="24.50002525"
         y="62.4997729996129"
         id="flap_char_20">S</text>
    </g>
    <g
       id="flap_21"
       transform="translate(1050, 0)">
      <path
         id="top_flap_21"
         style="display:inline;fill:#ffffff;stroke:#ffff00;stroke-width:0;stroke-linecap:round;stroke-miterlimit:4;stroke-dasharray:none"
         d="M 3.9997515,5.0966779e-7 A 3.9999949,3.9999949 0 0 0 5e-7,3.9997515 V 21.600206 H 1.9998759 V 32.400049 H 5e-7 v 0.999939 h 1.9998754 v 1.599899 H 47.000173 V 33.399988 H 49.00005 V 32.400049 H 47.000173 V 21.600206 H 49.00005 V 3.9997515 A 3.9999949,3.9999949 0 0 0 44.99978,5.0966779e-7 Z"
         flap="True"
         mid_cutout="0.5" />
      <path
         id="bot_flap_21"
         style="display:inline;fill:#ffffff;stroke:#ffff00;stroke-width:0;stroke-linecap:round;stroke-miterlimit:4;stroke-dasharray:none"
         d="M 3.9997515,5.0966779e-7 A 3.9999949,3.9999949 0 0 0 5e-7,3.9997515 V 21.600206 H 1.9998759 V 32.400049 H 5e-7 v 0.999939 h 1.9998754 v 1.599899 H 47.000173 V 33.399988 H 49.00005 V 32.400049 H 47.000173 V 21.600206 H 49.00005 V 3.9997515 A 3.9999949,3.9999949 0 0 0 44.99978,5.0966779e-7 Z"
         flap="True"
         mid_cutout="0.5"
         transform="matrix(1 0 0 -1 0 70.5)" />
      <text
         style="font-size:77px;font-family:'Red Hat Mono';font-weight:600;text-align:center;text-anchor:middle;fill:#000000;stroke-width:0"
         x="24.50002525"
         y="62.4997729996129"
         id="flap_char_21">T</text>
    </g>
    <g
       id="flap_22"
       transform="translate(1100, 0)">
      <path
         id="top_flap_22"
         style="display:inline;fill:#ffffff;stroke:#ffff00;stroke-width:0;stroke-linecap:round;stroke-miterlimit:4;stroke-dasharray:none"
         d="M 3.9997515,5.0966779e-7 A 3.9999949,3.9999949 0 0 0 5e-7,3.9997515 V 21.600206 H 1.9998759 V 32.400049 H 5e-7 v 0.999939 h 1.9998754 v 1.599899 H 47.000173 V 33.399988 H 49.00005 V 32.400049 H 47.000173 V 21.600206 H 49.00005 V 3.9997515 A 3.9999949,3.9999949 0 0 0 44.99978,5.0966779e-7 Z"
         flap="True"
         mid_cutout="0.5" />
      <path
         id="bot_flap_22"
         style="display:inline;fill:#ffffff;stroke:#ffff00;stroke-width:0;stroke-linecap:round;stroke-miterlimit:4;stroke-dasharray:none"
         d="M 3.9997515,5.0966779e-7 A 3.9999949,3.9999949 0 0 0 5e-7,3.9997515 V 21.600206 H 1.9998759 V 32.400049 H 5e-7 v 0.999939 h 1.9998754 v 1.599899 H 47.000173 V 33.399988 H 49.00005 V 32.400049 H 47.000173 V 21.600206 H 49.00005 V 3.9997515 A 3.9999949,3.9999949 0 0 0 44.99978,5.0966779e-7 Z"
         flap="True"
         mid_cutout="0.5"
         transform="matrix(1 0 0 -1 0 70.5)" />
      <text
         style="font-size:77px;font-family:'Red Hat Mono';font-weight:600;text-align:center;text-anchor:middle;fill:#000000;stroke-width:0"
         x="24.50002525"
         y="62.4997729996129"
         id="flap_char_22">U</text>
    </g>
    <g
       id="flap_23"
       transform="translate(1150, 0)">
      <path
         id="top_flap_23"
         style="display:inline;fill:#ffffff;stroke:#ffff00;stroke-width:0;stroke-linecap:round;stroke-miterlimit:4;stroke-dasharray:none"
         d="M 3.9997515,5.0966779e-7 A 3.9999949,3.9999949 0 0 0 5e-7,3.9997515 V 21.600206 H 1.9998759 V 32.400049 H 5e-7 v 0.999939 h 1.9998754 v 1.599899 H 47.000173 V 33.399988 H 49.00005 V 32.400049 H 47.000173 V 21.600206 H 49.00005 V 3.9997515 A 3.9999949,3.9999949 0 0 0 44.99978,5.0966779e-7 Z"
         flap="True"
         mid_cutout="0.5" />
      <path
         id="bot_flap_23"
         style="display:inline;fill:#ffffff;stroke:#ffff00;stroke-width:0;stroke-linecap:round;stroke-miterlimit:4;stroke-dasharray:none"
         d="M 3.9997515,5.0966779e-7 A 3.9999949,3.9999949 0 0 0 5e-7,3.9997515 V 21.600206 H 1.9998759 V 32.400049 H 5e-7 v 0.999939 h 1.9998754 v 1.599899 H 47.000173 V 33.399988 H 49.00005 V 32.400049 H 47.000173 V 21.600206 H 49.00005 V 3.9997515 A 3.9999949,3.9999949 0 0 0 44.99978,5.0966779e-7 Z"
         flap="True"
         mid_cutout="0.5"
         transform="matrix(1 0 0 -1 0 70.5)" />
      <text
         style="font-size:77px;font-family:'Red Hat Mono';font-weight:600;text-align:center;text-anchor:middle;fill:#000000;stroke-width:0"
         x="24.50002525"
         y="62.4997729996129"
         id="flap_char_23">V</text>
    </g>
    <g
       id="flap_24"
       transform="translate(1200, 0)">
      <path
         id="top_flap_24"
         style="display:inline;fill:#ffffff;stroke:#ffff00;stroke-width:0;stroke-linecap:round;stroke-miterlimit:4;stroke-dasharray:none"
         d="M 3.9997515,5.0966779e-7 A 3.9999949,3.9999949 0 0 0 5e-7,3.9997515 V 21.600206 H 1.9998759 V 32.400049 H 5e-7 v 0.999939 h 1.9998754 v 1.599899 H 47.000173 V 33.399988 H 49.00005 V 32.400049 H 47.000173 V 21.600206 H 49.00005 V 3.9997515 A 3.9999949,3.9999949 0 0 0 44.99978,5.0966779e-7 Z"
         flap="True"
         mid_cutout="0.5" />
      <path
         id="bot_flap_24"
         style="display:inline;fill:#ffffff;stroke:#ffff00;stroke-width:0;stroke-linecap:round;stroke-miterlimit:4;stroke-dasharray:none"
         d="M 3.9997515,5.0966779e-7 A 3.9999949,3.9999949 0 0 0 5e-7,3.9997515 V 21.600206 H 1.9998759 V 32.400049 H 5e-7 v 0.999939 h 1.9998754 v 1.599899 H 47.000173 V 33.399988 H 49.00005 V 32.400049 H 47.000173 V 21.600206 H 49.00005 V 3.9997515 A 3.9999949,3.9999949 0 0 0 44.99978,5.0966779e-7 Z"
         flap="True"
         mid_cutout="0.5"
         transform="matrix(1 0 0 -1 0 70.5)" />
      <text
         style="font-size:77px;font-family:'Red Hat Mono';font-weight:600;text-align:center;text-anchor:middle;fill:#000000;stroke-width:0"
         x="24.50002525"
         y="62.4997729996129"
         id="flap_char_24">W</text>
    </g>
    <g
       id="flap_25"
       transform="translate(1250, 0)">
      <path
         id="top_flap_25"
         style="display:inline;fill:#ffffff;stroke:#ffff00;stroke-width:0;stroke-linecap:round;stroke-miterlimit:4;stroke-dasharray:none"
         d="M 3.9997515,5.0966779e-7 A 3.9999949,3.9999949 0 0 0 5e-7,3.9997515 V 21.600206 H 1.9998759 V 32.400049 H 5e-7 v 0.999939 h 1.9998754 v 1.599899 H 47.000173 V 33.399988 H 49.00005 V 32.400049 H 47.000173 V 21.600206 H 49.00005 V 3.9997515 A 3.9999949,3.9999949 0 0 0 44.99978,5.0966779e-7 Z"
         flap="True"
         mid_cutout="0.5" />
      <path
         id="bot_flap_25"
         style="display:inline;fill:#ffffff;stroke:#ffff00;stroke-width:0;stroke-linecap:round;stroke-miterlimit:4;stroke-dasharray:none"
         d="M 3.9997515,5.0966779e-7 A 3.9999949,3.9999949 0 0 0 5e-7,3.9997515 V 21.600206 H 1.9998759 V 32.400049 H 5e-7 v 0.999939 h 1.9998754 v 1.599899 H 47.000173 V 33.399988 H 49.00005 V 32.400049 H 47.000173 V 21.600206 H 49.00005 V 3.9997515 A 3.9999949,3.9999949 0 0 0 44.99978,5.0966779e-7 Z"
         flap="True"
         mid_cutout="0.5"
         transform="matrix(1 0 0 -1 0 70.5)" />
      <text
         style="font-size:77px;font-family:'Red Hat Mono';font-weight:600;text-align:center;text-anchor:middle;fill:#000000;stroke-width:0"
         x="24.50002525"
         y="62.4997729996129"
         id="flap_char_25">X</text>
    </g>
    <g
       id="flap_26"
       transform="translate(1300, 0)">
      <path
         id="top_flap_26"
         style="display:inline;fill:#ffffff;stroke:#ffff00;stroke-width:0;stroke-linecap:round;stroke-miterlimit:4;stroke-dasharray:none"
         d="M 3.9997515,5.0966779e-7 A 3.9999949,3.9999949 0 0 0 5e-7,3.9997515 V 21.600206 H 1.9998759 V 32.400049 H 5e-7 v 0.999939 h 1.9998754 v 1.599899 H 47.000173 V 33.399988 H 49.00005 V 32.400049 H 47.000173 V 21.600206 H 49.00005 V 3.9997515 A 3.9999949,3.9999949 0 0 0 44.99978,5.0966779e-7 Z"
         flap="True"
         mid_cutout="0.5" />
      <path
         id="bot_flap_26"
         style="display:inline;fill:#ffffff;stroke:#ffff00;stroke-width:0;stroke-linecap:round;stroke-miterlimit:4;stroke-dasharray:none"
         d="M 3.9997515,5.0966779e-7 A 3.9999949,3.9999949 0 0 0 5e-7,3.9997515 V 21.600206 H 1.9998759 V 32.400049 H 5e-7 v 0.999939 h 1.9998754 v 1.599899 H 47.000173 V 33.399988 H 49.00005 V 32.400049 H 47.000173 V 21.600206 H 49.00005 V 3.9997515 A 3.9999949,3.9999949 0 0 0 44.99978,5.0966779e-7 Z"
         flap="True"
         mid_cutout="0.5"
         transform="matrix(1 0 0 -1 0 70.5)" />
      <text
         style="font-size:77px;font-family:'Red Hat Mono';font-weight:600;text-align:center;text-anchor:middle;fill:#000000;stroke-width:0"
         x="24.50002525"
         y="62.4997729996129"
         id="flap_char_26">Y</text>
    </g>
    <g
       id="flap_27"
       transform="translate(1350, 0)">
      <path
         id="top_flap_27"
         style="display:inline;fill:#ffffff;stroke:#ffff00;stroke-width:0;stroke-linecap:round;stroke-miterlimit:4;stroke-dasharray:none"
         d="M 3.9997515,5.0966779e-7 A 3.9999949,3.9999949 0 0 0 5e-7,3.9997515 V 21.600206 H 1.9998759 V 32.400049 H 5e-7 v 0.999939 h 1.9998754 v 1.599899 H 47.000173 V 33.399988 H 49.00005 V 32.400049 H 47.000173 V 21.600206 H 49.00005 V 3.9997515 A 3.9999949,3.9999949 0 0 0 44.99978,5.0966779e-7 Z"
         flap="True"
         mid_cutout="0.5" />
      <path
         id="bot_flap_27"
         style="display:inline;fill:#ffffff;stroke:#ffff00;stroke-width:0;stroke-linecap:round;stroke-miterlimit:4;stroke-dasharray:none"
         d="M 3.9997515,5.0966779e-7 A 3.9999949,3.9999949 0 0 0 5e-7,3.9997515 V 21.600206 H 1.9998759 V 32.400049 H 5e-7 v 0.999939 h 1.9998754 v 1.599899 H 47.000173 V 33.399988 H 49.00005 V 32.400049 H 47.000173 V 21.600206 H 49.00005 V 3.9997515 A 3.9999949,3.9999949 0 0 0 44.99978,5.0966779e-7 Z"
         flap="True"
         mid_cutout="0.5"
         transform="matrix(1 0 0 -1 0 70.5)" />
      <text
         style="font-size:77px;font-family:'Red Hat Mono';font-weight:600;text-align:center;text-anchor:middle;fill:#000000;stroke-width:0"
         x="24.50002525"
         y="62.4997729996129"
         id="flap_char_27">Z</text>
    </g>
    <g
       id="flap_28"
       transform="translate(1400, 0)">
      <path
         id="top_flap_28"
         style="display:inline;fill:#ffffff;stroke:#ffff00;stroke-width:0;stroke-linecap:round;stroke-miterlimit:4;stroke-dasharray:none"
         d="M 3.9997515,5.0966779e-7 A 3.9999949,3.9999949 0 0 0 5e-7,3.9997515 V 21.600206 H 1.9998759 V 32.400049 H 5e-7 v 0.999939 h 1.9998754 v 1.599899 H 47.000173 V 33.399988 H 49.00005 V 32.400049 H 47.000173 V 21.600206 H 49.00005 V 3.9997515 A 3.9999949,3.9999949 0 0 0 44.99978,5.0966779e-7 Z"
         flap="True"
         mid_cutout="0.5" />
      <path
         id="bot_flap_28"
         style="display:inline;fill:#ffffff;stroke:#ffff00;stroke-width:0;stroke-linecap:round;stroke-miterlimit:4;stroke-dasharray:none"
         d="M 3.9997515,5.0966779e-7 A 3.9999949,3.9999949 0 0 0 5e-7,3.9997515 V 21.600206 H 1.9998759 V 32.400049 H 5e-7 v 0.999939 h 1.9998754 v 1.599899 H 47.000173 V 33.399988 H 49.00005 V 32.400049 H 47.000173 V 21.600206 H 49.00005 V 3.9997515 A 3.9999949,3.9999949 0 0 0 44.99978,5.0966779e-7 Z"
         flap="True"
         mid_cutout="0.5"
         transform="matrix(1 0 0 -1 0 70.5)" />
      <text
         style="font-size:77px;font-family:'Red Hat Mono';font-weight:600;text-align:center;text-anchor:middle;fill:#000000;stroke-width:0"
         x="24.50002525"
         y="62.4997729996129"
         id="flap_char_28">0</text>
    </g>
    <g
       id="flap_29"
       transform="translate(1450, 0)">
      <path
         id="top_flap_29"
         style="display:inline;fill:#ffffff;stroke:#ffff00;stroke-width:0;stroke-linecap:round;stroke-miterlimit:4;stroke-dasharray:none"
         d="M 3.9997515,5.0966779e-7 A 3.9999949,3.9999949 0 0 0 5e-7,3.9997515 V 21.600206 H 1.9998759 V 32.400049 H 5e-7 v 0.999939 h 1.9998754 v 1.599899 H 47.000173 V 33.399988 H 49.00005 V 32.400049 H 47.000173 V 21.600206 H 49.00005 V 3.9997515 A 3.9999949,3.9999949 0 0 0 44.99978,5.0966779e-7 Z"
         flap="True"
         mid_cutout="0.5" />
      <path
         id="bot_flap_29"
         style="display:inline;fill:#ffffff;stroke:#ffff00;stroke-width:0;stroke-linecap:round;stroke-miterlimit:4;stroke-dasharray:none"
         d="M 3.9997515,5.0966779e-7 A 3.9999949,3.9999949 0 0 0 5e-7,3.9997515 V 21.600206 H 1.9998759 V 32.400049 H 5e-7 v 0.999939 h 1.9998754 v 1.599899 H 47.000173 V 33.399988 H 49.00005 V 32.400049 H 47.000173 V 21.600206 H 49.00005 V 3.9997515 A 3.9999949,3.9999949 0 0 0 44.99978,5.0966779e-7 Z"
         flap="True"
         mid_cutout="0.5"
         transform="matrix(1 0 0 -1 0 70.5)" />
      <text
         style="font-size:77px;font-family:'Red Hat Mono';font-weight:600;text-align:center;text-anchor:middle;fill:#000000;stroke-width:0"
         x="24.50002525"
         y="62.4997729996129"
         id="flap_char_29">1</text>
    </g>
    <g
       id="flap_30"
       transform="translate(1500, 0)">
      <path
         id="top_flap_30"
         style="display:inline;fill:#ffffff;stroke:#ffff00;stroke-width:0;stroke-linecap:round;stroke-miterlimit:4;stroke-dasharray:none"
         d="M 3.9997515,5.0966779e-7 A 3.9999949,3.9999949 0 0 0 5e-7,3.9997515 V 21.600206 H 1.9998759 V 32.400049 H 5e-7 v 0.999939 h 1.9998754 v 1.599899 H 47.000173 V 33.399988 H 49.00005 V 32.400049 H 47.000173 V 21.600206 H 49.00005 V 3.9997515 A 3.9999949,3.9999949 0 0 0 44.99978,5.0966779e-7 Z"
         flap="True"
         mid_cutout="0.5" />
      <path
         id="bot_flap_30"
         style="display:inline;fill:#ffffff;stroke:#ffff00;stroke-width:0;stroke-linecap:round;stroke-miterlimit:4;stroke-dasharray:none"
         d="M 3.9997515,5.0966779e-7 A 3.9999949,3.9999949 0 0 0 5e-7,3.9997515 V 21.600206 H 1.9998759 V 32.400049 H 5e-7 v 0.999939 h 1.9998754 v 1.599899 H 47.000173 V 33.399988 H 49.00005 V 32.400049 H 47.000173 V 21.600206 H 49.00005 V 3.9997515 A 3.9999949,3.9999949 0 0 0 44.99978,5.0966779e-7 Z"
         flap="True"
         mid_cutout="0.5"
         transform="matrix(1 0 0 -1 0 70.5)" />
      <text
         style="font-size:77px;font-family:'Red Hat Mono';font-weight:600;text-align:center;text-anchor:middle;fill:#000000;stroke-width:0"
         x="24.50002525"
         y="62.4997729996129"
         id="flap_char_30">2</text>
    </g>
    <g
       id="flap_31"
       transform="translate(1550, 0)">
      <path
         id="top_flap_31"
         style="display:inline;fill:#ffffff;stroke:#ffff00;stroke-width:0;stroke-linecap:round;stroke-miterlimit:4;stroke-dasharray:none"
         d="M 3.9997515,5.0966779e-7 A 3.9999949,3.9999949 0 0 0 5e-7,3.9997515 V 21.600206 H 1.9998759 V 32.400049 H 5e-7 v 0.999939 h 1.9998754 v 1.599899 H 47.000173 V 33.399988 H 49.00005 V 32.400049 H 47.000173 V 21.600206 H 49.00005 V 3.9997515 A 3.9999949,3.9999949 0 0 0 44.99978,5.0966779e-7 Z"
         flap="True"
         mid_cutout="0.5" />
      <path
         id="bot_flap_31"
         style="display:inline;fill:#ffffff;stroke:#ffff00;stroke-width:0;stroke-linecap:round;stroke-miterlimit:4;stroke-dasharray:none"
         d="M 3.9997515,5.0966779e-7 A 3.9999949,3.9999949 0 0 0 5e-7,3.9997515 V 21.600206 H 1.9998759 V 32.400049 H 5e-7 v 0.999939 h 1.9998754 v 1.599899 H 47.000173 V 33.399988 H 49.00005 V 32.400049 H 47.000173 V 21.600206 H 49.00005 V 3.9997515 A 3.9999949,3.9999949 0 0 0 44.99978,5.0966779e-7 Z"
         flap="True"
         mid_cutout="0.5"
         transform="matrix(1 0 0 -1 0 70.5)" />
      <text
         style="font-size:77px;font-family:'Red Hat Mono';font-weight:600;text-align:center;text-anchor:middle;fill:#000000;stroke-width:0"
         x="24.50002525"
         y="62.4997729996129"
         id="flap_char_31">3</text>
    </g>
    <g
       id="flap_32"
       transform="translate(1600, 0)">
      <path
         id="top_flap_32"
         style="display:inline;fill:#ffffff;stroke:#ffff00;stroke-width:0;stroke-linecap:round;stroke-miterlimit:4;stroke-dasharray:none"
         d="M 3.9997515,5.0966779e-7 A 3.9999949,3.9999949 0 0 0 5e-7,3.9997515 V 21.600206 H 1.9998759 V 32.400049 H 5e-7 v 0.999939 h 1.9998754 v 1.599899 H 47.000173 V 33.399988 H 49.00005 V 32.400049 H 47.000173 V 21.600206 H 49.00005 V 3.9997515 A 3.9999949,3.9999949 0 0 0 44.99978,5.0966779e-7 Z"
         flap="True"
         mid_cutout="0.5" />
      <path
         id="bot_flap_32"
         style="display:inline;fill:#ffffff;stroke:#ffff00;stroke-width:0;stroke-linecap:round;stroke-miterlimit:4;stroke-dasharray:none"
         d="M 3.9997515,5.0966779e-7 A 3.9999949,3.9999949 0 0 0 5e-7,3.9997515 V 21.600206 H 1.9998759 V 32.400049 H 5e-7 v 0.999939 h 1.9998754 v 1.599899 H 47.000173 V 33.399988 H 49.00005 V 32.400049 H 47.000173 V 21.600206 H 49.00005 V 3.9997515 A 3.9999949,3.9999949 0 0 0 44.99978,5.0966779e-7 Z"
         flap="True"
         mid_cutout="0.5"
         transform="matrix(1 0 0 -1 0 70.5)" />
      <text
         style="font-size:77px;font-family:'Red Hat Mono';font-weight:600;text-align:center;text-anchor:middle;fill:#000000;stroke-width:0"
         x="24.50002525"
         y="62.4997729996129"
         id="flap_char_32">4</text>
    </g>
    <g
       id="flap_33"
       transform="translate(1650, 0)">
      <path
         id="top_flap_33"
         style="display:inline;fill:#ffffff;stroke:#ffff00;stroke-width:0;stroke-linecap:round;stroke-miterlimit:4;stroke-dasharray:none"
         d="M 3.9997515,5.0966779e-7 A 3.9999949,3.9999949 0 0 0 5e-7,3.9997515 V 21.600206 H 1.9998759 V 32.400049 H 5e-7 v 0.999939 h 1.9998754 v 1.599899 H 47.000173 V 33.399988 H 49.00005 V 32.400049 H 47.000173 V 21.600206 H 49.00005 V 3.9997515 A 3.9999949,3.9999949 0 0 0 44.99978,5.0966779e-7 Z"
         flap="True"
         mid_cutout="0.5" />
      <path
         id="bot_flap_33"
         style="display:inline;fill:#ffffff;stroke:#ffff00;stroke-width:0;stroke-linecap:round;stroke-miterlimit:4;stroke-dasharray:none"
         d="M 3.9997515,5.0966779e-7 A 3.9999949,3.9999949 0 0 0 5e-7,3.9997515 V 21.600206 H 1.9998759 V 32.400049 H 5e-7 v 0.999939 h 1.9998754 v 1.599899 H 47.000173 V 33.399988 H 49.00005 V 32.400049 H 47.000173 V 21.600206 H 49.00005 V 3.9997515 A 3.9999949,3.9999949 0 0 0 44.99978,5.0966779e-7 Z"
         flap="True"
         mid_cutout="0.5"
         transform="matrix(1 0 0 -1 0 70.5)" />
      <text
         style="font-size:77px;font-family:'Red Hat Mono';font-weight:600;text-align:center;text-anchor:middle;fill:#000000;stroke-width:0"
         x="24.50002525"
         y="62.4997729996129"
         id="flap_char_33">5</text>
    </g>
    <g
       id="flap_34"
       transform="translate(1700, 0)">
      <path
         id="top_flap_34"
         style="display:inline;fill:#ffffff;stroke:#ffff00;stroke-width:0;stroke-linecap:round;stroke-miterlimit:4;stroke-dasharray:none"
         d="M 3.9997515,5.0966779e-7 A 3.9999949,3.9999949 0 0 0 5e-7,3.9997515 V 21.600206 H 1.9998759 V 32.400049 H 5e-7 v 0.999939 h 1.9998754 v 1.599899 H 47.000173 V 33.399988 H 49.00005 V 32.400049 H 47.000173 V 21.600206 H 49.00005 V 3.9997515 A 3.9999949,3.9999949 0 0 0 44.99978,5.0966779e-7 Z"
         flap="True"
         mid_cutout="0.5" />
      <path
         id="bot_flap_34"
         style="display:inline;fill:#ffffff;stroke:#ffff00;stroke-width:0;stroke-linecap:round;stroke-miterlimit:4;stroke-dasharray:none"
         d="M 3.9997515,5.0966779e-7 A 3.9999949,3.9999949 0 0 0 5e-7,3.9997515 V 21.600206 H 1.9998759 V 32.400049 H 5e-7 v 0.999939 h 1.9998754 v 1.599899 H 47.000173 V 33.399988 H 49.00005 V 32.400049 H 47.000173 V 21.600206 H 49.00005 V 3.9997515 A 3.9999949,3.9999949 0 0 0 44.99978,5.0966779e-7 Z"
         flap="True"
         mid_cutout="0.5"
         transform="matrix(1 0 0 -1 0 70.5)" />
      <text
         style="font-size:77px;font-family:'Red Hat Mono';font-weight:600;text-align:center;text-anchor:middle;fill:#000000;stroke-width:0"
         x="24.50002525"
         y="62.4997729996129"
         id="flap_char_34">6</text>
    </g>
    <g
       id="flap_35"
       transform="translate(1750, 0)">
      <path
         id="top_flap_35"
         style="display:inline;fill:#ffffff;stroke:#ffff00;stroke-width:0;stroke-linecap:round;stroke-miterlimit:4;stroke-dasharray:none"
         d="M 3.9997515,5.0966779e-7 A 3.9999949,3.9999949 0 0 0 5e-7,3.9997515 V 21.600206 H 1.9998759 V 32.400049 H 5e-7 v 0.999939 h 1.9998754 v 1.599899 H 47.000173 V 33.399988 H 49.00005 V 32.400049 H 47.000173 V 21.600206 H 49.00005 V 3.9997515 A 3.9999949,3.9999949 0 0 0 44.99978,5.0966779e-7 Z"
         flap="True"
         mid_cutout="0.5" />
      <path
         id="bot_flap_35"
         style="display:inline;fill:#ffffff;stroke:#ffff00;stroke-width:0;stroke-linecap:round;stroke-miterlimit:4;stroke-dasharray:none"
         d="M 3.9997515,5.0966779e-7 A 3.9999949,3.9999949 0 0 0 5e-7,3.9997515 V 21.600206 H 1.9998759 V 32.400049 H 5e-7 v 0.999939 h 1.9998754 v 1.599899 H 47.000173 V 33.399988 H 49.00005 V 32.400049 H 47.000173 V 21.600206 H 49.00005 V 3.9997515 A 3.9999949,3.9999949 0 0 0 44.99978,5.0966779e-7 Z"
         flap="True"
         mid_cutout="0.5"
         transform="matrix(1 0 0 -1 0 70.5)" />
      <text
         style="font-size:77px;font-family:'Red Hat Mono';font-weight:600;text-align:center;text-anchor:middle;fill:#000000;stroke-width:0"
         x="24.50002525"
         y="62.4997729996129"
         id="flap_char_35">7</text>
    </g>
    <g
       id="flap_36"
       transform="translate(1800, 0)">
      <path
         id="top_flap_36"
         style="display:inline;fill:#ffffff;stroke:#ffff00;stroke-width:0;stroke-linecap:round;stroke-miterlimit:4;stroke-dasharray:none"
         d="M 3.9997515,5.0966779e-7 A 3.9999949,3.9999949 0 0 0 5e-7,3.9997515 V 21.600206 H 1.9998759 V 32.400049 H 5e-7 v 0.999939 h 1.9998754 v 1.599899 H 47.000173 V 33.399988 H 49.00005 V 32.400049 H 47.000173 V 21.600206 H 49.00005 V 3.9997515 A 3.9999949,3.9999949 0 0 0 44.99978,5.0966779e-7 Z"
         flap="True"
         mid_cutout="0.5" />
      <path
         id="bot_flap_36"
         style="display:inline;fill:#ffffff;stroke:#ffff00;stroke-width:0;stroke-linecap:round;stroke-miterlimit:4;stroke-dasharray:none"
         d="M 3.9997515,5.0966779e-7 A 3.9999949,3.9999949 0 0 0 5e-7,3.9997515 V 21.600206 H 1.9998759 V 32.400049 H 5e-7 v 0.999939 h 1.9998754 v 1.599899 H 47.000173 V 33.399988 H 49.00005 V 32.400049 H 47.000173 V 21.600206 H 49.00005 V 3.9997515 A 3.9999949,3.9999949 0 0 0 44.99978,5.0966779e-7 Z"
         flap="True"
         mid_cutout="0.5"
         transform="matrix(1 0 0 -1 0 70.5)" />
      <text
         style="font-size:77px;font-family:'Red Hat Mono';font-weight:600;text-align:center;text-anchor:middle;fill:#000000;stroke-width:0"
         x="24.50002525"
         y="62.4997729996129"
         id="flap_char_36">8</text>
    </g>
    <g
       id="flap_37"
       transform="translate(1850, 0)">
      <path
         id="top_flap_37"
         style="display:inline;fill:#ffffff;stroke:#ffff00;stroke-width:0;stroke-linecap:round;stroke-miterlimit:4;stroke-dasharray:none"
         d="M 3.9997515,5.0966779e-7 A 3.9999949,3.9999949 0 0 0 5e-7,3.9997515 V 21.600206 H 1.9998759 V 32.400049 H 5e-7 v 0.999939 h 1.9998754 v 1.599899 H 47.000173 V 33.399988 H 49.00005 V 32.400049 H 47.000173 V 21.600206 H 49.00005 V 3.9997515 A 3.9999949,3.9999949 0 0 0 44.99978,5.0966779e-7 Z"
         flap="True"
         mid_cutout="0.5" />
      <path
         id="bot_flap_37"
         style="display:inline;fill:#ffffff;stroke:#ffff00;stroke-width:0;stroke-linecap:round;stroke-miterlimit:4;stroke-dasharray:none"
         d="M 3.9997515,5.0966779e-7 A 3.9999949,3.9999949 0 0 0 5e-7,3.9997515 V 21.600206 H 1.9998759 V 32.400049 H 5e-7 v 0.999939 h 1.9998754 v 1.599899 H 47.000173 V 33.399988 H 49.00005 V 32.400049 H 47.000173 V 21.600206 H 49.00005 V 3.9997515 A 3.9999949,3.9999949 0 0 0 44.99978,5.0966779e-7 Z"
         flap="True"
         mid_cutout="0.5"
         transform="matrix(1 0 0 -1 0 70.5)" />
      <text
         style="font-size:77px;font-family:'Red Hat Mono';font-weight:600;text-align:center;text-anchor:middle;fill:#000000;stroke-width:0"
         x="24.50002525"
         y="62.4997729996129"
         id="flap_char_37">9</text>
    </g>
    <g
       id="flap_38"
       transform="translate(1900, 0)">
      <path
         id="top_flap_38"
         style="display:inline;fill:#ffffff;stroke:#ffff00;stroke-width:0;stroke-linecap:round;stroke-miterlimit:4;stroke-dasharray:none"
         d="M 3.9997515,5.0966779e-7 A 3.9999949,3.9999949 0 0 0 5e-7,3.9997515 V 21.600206 H 1.9998759 V 32.400049 H 5e-7 v 0.999939 h 1.9998754 v 1.599899 H 47.000173 V 33.399988 H 49.00005 V 32.400049 H 47.000173 V 21.600206 H 49.00005 V 3.9997515 A 3.9999949,3.9999949 0 0 0 44.99978,5.0966779e-7 Z"
         flap="True"
         mid_cutout="0.5" />
      <path
         id="bot_flap_38"
         style="display:inline;fill:#ffffff;stroke:#ffff00;stroke-width:0;stroke-linecap:round;stroke-miterlimit:4;stroke-dasharray:none"
         d="M 3.9997515,5.0966779e-7 A 3.9999949,3.9999949 0 0 0 5e-7,3.9997515 V 21.600206 H 1.9998759 V 32.400049 H 5e-7 v 0.999939 h 1.9998754 v 1.599899 H 47.000173 V 33.399988 H 49.00005 V 32.400049 H 47.000173 V 21.600206 H 49.00005 V 3.9997515 A 3.9999949,3.9999949 0 0 0 44.99978,5.0966779e-7 Z"
         flap="True"
         mid_cutout="0.5"
         transform="matrix(1 0 0 -1 0 70.5)" />
      <text
         style="font-size:77px;font-family:'Red Hat Mono';font-weight:600;text-align:center;text-anchor:middle;fill:#000000;stroke-width:0"
         x="24.50002525"
         y="62.4997729996129"
         id="flap_char_38"></text>
    </g>
    <g
       id="flap_39"
       transform="translate(1950, 0)">
      <path
         id="top_flap_39"
         style="display:inline;fill:#ffffff;stroke:#ffff00;stroke-width:0;stroke-linecap:round;stroke-miterlimit:4;stroke-dasharray:none"
         d="M 3.9997515,5.0966779e-7 A 3.9999949,3.9999949 0 0 0 5e-7,3.9997515 V 21.600206 H 1.9998759 V 32.400049 H 5e-7 v 0.999939 h 1.9998754 v 1.599899 H 47.000173 V 33.399988 H 49.00005 V 32.400049 H 47.000173 V 21.600206 H 49.00005 V 3.9997515 A 3.9999949,3.9999949 0 0 0 44.99978,5.0966779e-7 Z"
         flap="True"
         mid_cutout="0.5" />
      <path
         id="bot_flap_39"
         style="display:inline;fill:#ffffff;stroke:#ffff00;stroke-width:0;stroke-linecap:round;stroke-miterlimit:4;stroke-dasharray:none"
         d="M 3.9997515,5.0966779e-7 A 3.9999949,3.9999949 0 0 0 5e-7,3.9997515 V 21.600206 H 1.9998759 V 32.400049 H 5e-7 v 0.999939 h 1.9998754 v 1.599899 H 47.000173 V 33.399988 H 49.00005 V 32.400049 H 47.000173 V 21.600206 H 49.00005 V 3.9997515 A 3.9999949,3.9999949 0 0 0 44.99978,5.0966779e-7 Z"
         flap="True"
         mid_cutout="0.5"
         transform="matrix(1 0 0 -1 0 70.5)" />
      <text
         style="font-size:77px;font-family:'Red Hat Mono';font-weight:600;text-align:center;text-anchor:middle;fill:#000000;stroke-width:0"
         x="24.50002525"
         y="62.4997729996129"
         id="flap_char_39">$</text>
    </g>
    <g
       id="flap_40"
       transform="translate(2000, 0)">
      <path
         id="top_flap_40"
         style="display:inline;fill:#ffffff;stroke:#ffff00;stroke-width:0;stroke-linecap:round;stroke-miterlimit:4;stroke-dasharray:none"
         d="M 3.9997515,5.0966779e-7 A 3.9999949,3.9999949 0 0 0 5e-7,3.9997515 V 21.600206 H 1.9998759 V 32.400049 H 5e-7 v 0.999939 h 1.9998754 v 1.599899 H 47.000173 V 33.399988 H 49.00005 V 32.400049 H 47.000173 V 21.600206 H 49.00005 V 3.9997515 A 3.9999949,3.9999949 0 0 0 44.99978,5.0966779e-7 Z"
         flap="True"
         mid_cutout="0.5" />
      <path
         id="bot_flap_40"
         style="display:inline;fill:#ffffff;stroke:#ffff00;stroke-width:0;stroke-linecap:round;stroke-miterlimit:4;stroke-dasharray:none"
         d="M 3.9997515,5.0966779e-7 A 3.9999949,3.9999949 0 0 0 5e-7,3.9997515 V 21.600206 H 1.9998759 V 32.400049 H 5e-7 v 0.999939 h 1.9998754 v 1.599899 H 47.000173 V 33.399988 H 49.00005 V 32.400049 H 47.000173 V 21.600206 H 49.00005 V 3.9997515 A 3.9999949,3.9999949 0 0 0 44.99978,5.0966779e-7 Z"
         flap="True"
         mid_cutout="0.5"
         transform="matrix(1 0 0 -1 0 70.5)" />
      <text
         style="font-size:77px;font-family:'Red Hat Mono';font-weight:600;text-align:center;text-anchor:middle;fill:#000000;stroke-width:0"
         x="24.50002525"
         y="62.4997729996129"
         id="flap_char_40">!</text>
    </g>
    <g
       id="flap_41"
       transform="translate(2050, 0)">
      <path
         id="top_flap_41"
         style="display:inline;fill:#ffffff;stroke:#ffff00;stroke-width:0;stroke-linecap:round;stroke-miterlimit:4;stroke-dasharray:none"
         d="M 3.9997515,5.0966779e-7 A 3.9999949,3.9999949 0 0 0 5e-7,3.9997515 V 21.600206 H 1.9998759 V 32.400049 H 5e-7 v 0.999939 h 1.9998754 v 1.599899 H 47.000173 V 33.399988 H 49.00005 V 32.400049 H 47.000173 V 21.600206 H 49.00005 V 3.9997515 A 3.9999949,3.9999949 0 0 0 44.99978,5.0966779e-7 Z"
         flap="True"
         mid_cutout="0.5" />
      <path
         id="bot_flap_41"
         style="display:inline;fill:#ffffff;stroke:#ffff00;stroke-width:0;stroke-linecap:round;stroke-miterlimit:4;stroke-dasharray:none"
         d="M 3.9997515,5.0966779e-7 A 3.9999949,3.9999949 0 0 0 5e-7,3.9997515 V 21.600206 H 1.9998759 V 32.400049 H 5e-7 v 0.999939 h 1.9998754 v 1.599899 H 47.000173 V 33.399988 H 49.00005 V 32.400049 H 47.000173 V 21.600206 H 49.00005 V 3.9997515 A 3.9999949,3.9999949 0 0 0 44.99978,5.0966779e-7 Z"
         flap="True"
         mid_cutout="0.5"
         transform="matrix(1 0 0 -1 0 70.5)" />
      <text
         style="font-size:77px;font-family:'Red Hat Mono';font-weight:600;text-align:center;text-anchor:middle;fill:#000000;stroke-width:0"
         x="24.50002525"
         y="62.4997729996129"
         id="flap_char_41">?</text>
    </g>
    <g
       id="flap_42"
       transform="translate(2100, 0)">
      <path
         id="top_flap_42"
         style="display:inline;fill:#ffffff;stroke:#ffff00;stroke-width:0;stroke-linecap:round;stroke-miterlimit:4;stroke-dasharray:none"
         d="M 3.9997515,5.0966779e-7 A 3.9999949,3.9999949 0 0 0 5e-7,3.9997515 V 21.600206 H 1.9998759 V 32.400049 H 5e-7 v 0.999939 h 1.9998754 v 1.599899 H 47.000173 V 33.399988 H 49.00005 V 32.400049 H 47.000173 V 21.600206 H 49.00005 V 3.9997515 A 3.9999949,3.9999949 0 0 0 44.99978,5.0966779e-7 Z"
         flap="True"
         mid_cutout="0.5" />
      <path
         id="bot_flap_42"
         style="display:inline;fill:#ffffff;stroke:#ffff00;stroke-width:0;stroke-linecap:round;stroke-miterlimit:4;stroke-dasharray:none"
         d="M 3.9997515,5.0966779e-7 A 3.9999949,3.9999949 0 0 0 5e-7,3.9997515 V 21.600206 H 1.9998759 V 32.400049 H 5e-7 v 0.999939 h 1.9998754 v 1.599899 H 47.000173 V 33.399988 H 49.00005 V 32.400049 H 47.000173 V 21.600206 H 49.00005 V 3.9997515 A 3.9999949,3.9999949 0 0 0 44.99978,5.0966779e-7 Z"
         flap="True"
         mid_cutout="0.5"
         transform="matrix(1 0 0 -1 0 70.5)" />
      <text
         style="font-size:77px;font-family:'Red Hat Mono';font-weight:600;text-align:center;text-anchor:middle;fill:#000000;stroke-width:0"
         x="24.50002525"
         y="62.4997729996129"
         id="flap_char_42">.</text>
    </g>
    <g
       id="flap_43"
       transform="translate(2150, 0)">
      <path
         id="top_flap_43"
         style="display:inline;fill:#ffffff;stroke:#ffff00;stroke-width:0;stroke-linecap:round;stroke-miterlimit:4;stroke-dasharray:none"
         d="M 3.9997515,5.0966779e-7 A 3.9999949,3.9999949 0 0 0 5e-7,3.9997515 V 21.600206 H 1.9998759 V 32.400049 H 5e-7 v 0.999939 h 1.9998754 v 1.599899 H 47.000173 V 33.399988 H 49.00005 V 32.400049 H 47.000173 V 21.600206 H 49.00005 V 3.9997515 A 3.9999949,3.9999949 0 0 0 44.99978,5.0966779e-7 Z"
         flap="True"
         mid_cutout="0.5" />
      <path
         id="bot_flap_43"
         style="display:inline;fill:#ffffff;stroke:#ffff00;stroke-width:0;stroke-linecap:round;stroke-miterlimit:4;stroke-dasharray:none"
         d="M 3.9997515,5.0966779e-7 A 3.9999949,3.9999949 0 0 0 5e-7,3.9997515 V 21.600206 H 1.9998759 V 32.400049 H 5e-7 v 0.999939 h 1.9998754 v 1.599899 H 47.000173 V 33.399988 H 49.00005 V 32.400049 H 47.000173 V 21.600206 H 49.00005 V 3.9997515 A 3.9999949,3.9999949 0 0 0 44.99978,5.0966779e-7 Z"
         flap="True"
         mid_cutout="0.5"
         transform="matrix(1 0 0 -1 0 70.5)" />
      <text
         style="font-weight:600;font-size:77px;font-family:'Red Hat Mono';text-align:center;text-anchor:middle;fill:#000000;stroke-width:0"
         x="24.500025"
         y="51.916428"
         id="flap_char_43">,</text>
    </g>
    <g
       id="flap_44"
       transform="translate(2200, 0)">
      <path
         id="top_flap_44"
         style="display:inline;fill:#ffffff;stroke:#ffff00;stroke-width:0;stroke-linecap:round;stroke-miterlimit:4;stroke-dasharray:none"
         d="M 3.9997515,5.0966779e-7 A 3.9999949,3.9999949 0 0 0 5e-7,3.9997515 V 21.600206 H 1.9998759 V 32.400049 H 5e-7 v 0.999939 h 1.9998754 v 1.599899 H 47.000173 V 33.399988 H 49.00005 V 32.400049 H 47.000173 V 21.600206 H 49.00005 V 3.9997515 A 3.9999949,3.9999949 0 0 0 44.99978,5.0966779e-7 Z"
         flap="True"
         mid_cutout="0.5" />
      <path
         id="bot_flap_44"
         style="display:inline;fill:#ffffff;stroke:#ffff00;stroke-width:0;stroke-linecap:round;stroke-miterlimit:4;stroke-dasharray:none"
         d="M 3.9997515,5.0966779e-7 A 3.9999949,3.9999949 0 0 0 5e-7,3.9997515 V 21.600206 H 1.9998759 V 32.400049 H 5e-7 v 0.999939 h 1.9998754 v 1.599899 H 47.000173 V 33.399988 H 49.00005 V 32.400049 H 47.000173 V 21.600206 H 49.00005 V 3.9997515 A 3.9999949,3.9999949 0 0 0 44.99978,5.0966779e-7 Z"
         flap="True"
         mid_cutout="0.5"
         transform="matrix(1 0 0 -1 0 70.5)" />
      <text
         style="font-weight:600;font-size:77px;font-family:'Red Hat Mono';text-align:center;text-anchor:middle;fill:#000000;stroke-width:0"
         x="24.500025"
         y="55.091431"
         id="flap_char_44">:</text>
    </g>
    <g
       id="flap_45"
       transform="translate(2250, 0)">
      <path
         id="top_flap_45"
         style="display:inline;fill:#ffffff;stroke:#ffff00;stroke-width:0;stroke-linecap:round;stroke-miterlimit:4;stroke-dasharray:none"
         d="M 3.9997515,5.0966779e-7 A 3.9999949,3.9999949 0 0 0 5e-7,3.9997515 V 21.600206 H 1.9998759 V 32.400049 H 5e-7 v 0.999939 h 1.9998754 v 1.599899 H 47.000173 V 33.399988 H 49.00005 V 32.400049 H 47.000173 V 21.600206 H 49.00005 V 3.9997515 A 3.9999949,3.9999949 0 0 0 44.99978,5.0966779e-7 Z"
         flap="True"
         mid_cutout="0.5" />
      <path
         id="bot_flap_45"
         style="display:inline;fill:#ffffff;stroke:#ffff00;stroke-width:0;stroke-linecap:round;stroke-miterlimit:4;stroke-dasharray:none"
         d="M 3.9997515,5.0966779e-7 A 3.9999949,3.9999949 0 0 0 5e-7,3.9997515 V 21.600206 H 1.9998759 V 32.400049 H 5e-7 v 0.999939 h 1.9998754 v 1.599899 H 47.000173 V 33.399988 H 49.00005 V 32.400049 H 47.000173 V 21.600206 H 49.00005 V 3.9997515 A 3.9999949,3.9999949 0 0 0 44.99978,5.0966779e-7 Z"
         flap="True"
         mid_cutout="0.5"
         transform="matrix(1 0 0 -1 0 70.5)" />
      <text
         style="font-weight:600;font-size:63.0286px;font-family:'Red Hat Mono';text-align:center;text-anchor:middle;fill:#000000;stroke-width:0"
         x="24.066908"
         y="50.603119"
         id="flap_char_45">/</text>
    </g>
    <g
       id="flap_46"
       transform="translate(2300, 0)">
      <path
         id="top_flap_46"
         style="display:inline;fill:#ffffff;stroke:#ffff00;stroke-width:0;stroke-linecap:round;stroke-miterlimit:4;stroke-dasharray:none"
         d="M 3.9997515,5.0966779e-7 A 3.9999949,3.9999949 0 0 0 5e-7,3.9997515 V 21.600206 H 1.9998759 V 32.400049 H 5e-7 v 0.999939 h 1.9998754 v 1.599899 H 47.000173 V 33.399988 H 49.00005 V 32.400049 H 47.000173 V 21.600206 H 49.00005 V 3.9997515 A 3.9999949,3.9999949 0 0 0 44.99978,5.0966779e-7 Z"
         flap="True"
         mid_cutout="0.5" />
      <path
         id="bot_flap_46"
         style="display:inline;fill:#ffffff;stroke:#ffff00;stroke-width:0;stroke-linecap:round;stroke-miterlimit:4;stroke-dasharray:none"
         d="M 3.9997515,5.0966779e-7 A 3.9999949,3.9999949 0 0 0 5e-7,3.9997515 V 21.600206 H 1.9998759 V 32.400049 H 5e-7 v 0.999939 h 1.9998754 v 1.599899 H 47.000173 V 33.399988 H 49.00005 V 32.400049 H 47.000173 V 21.600206 H 49.00005 V 3.9997515 A 3.9999949,3.9999949 0 0 0 44.99978,5.0966779e-7 Z"
         flap="True"
         mid_cutout="0.5"
         transform="matrix(1 0 0 -1 0 70.5)" />
      <text
         style="font-weight:700;font-size:71.4878px;font-family:'Red Hat Mono';text-align:center;text-anchor:middle;fill:#000000;stroke-width:0"
         x="24.500023"
         y="50.714779"
         id="flap_char_46">@</text>
    </g>
    <g
       id="flap_47"
       transform="translate(2350, 0)">
      <path
         id="top_flap_47"
         style="display:inline;fill:#ffffff;stroke:#ffff00;stroke-width:0;stroke-linecap:round;stroke-miterlimit:4;stroke-dasharray:none"
         d="M 3.9997515,5.0966779e-7 A 3.9999949,3.9999949 0 0 0 5e-7,3.9997515 V 21.600206 H 1.9998759 V 32.400049 H 5e-7 v 0.999939 h 1.9998754 v 1.599899 H 47.000173 V 33.399988 H 49.00005 V 32.400049 H 47.000173 V 21.600206 H 49.00005 V 3.9997515 A 3.9999949,3.9999949 0 0 0 44.99978,5.0966779e-7 Z"
         flap="True"
         mid_cutout="0.5" />
      <path
         id="bot_flap_47"
         style="display:inline;fill:#ffffff;stroke:#ffff00;stroke-width:0;stroke-linecap:round;stroke-miterlimit:4;stroke-dasharray:none"
         d="M 3.9997515,5.0966779e-7 A 3.9999949,3.9999949 0 0 0 5e-7,3.9997515 V 21.600206 H 1.9998759 V 32.400049 H 5e-7 v 0.999939 h 1.9998754 v 1.599899 H 47.000173 V 33.399988 H 49.00005 V 32.400049 H 47.000173 V 21.600206 H 49.00005 V 3.9997515 A 3.9999949,3.9999949 0 0 0 44.99978,5.0966779e-7 Z"
         flap="True"
         mid_cutout="0.5"
         transform="matrix(1 0 0 -1 0 70.5)" />
      <text
         style="font-weight:600;font-size:70.7217px;font-family:'Red Hat Mono';text-align:center;text-anchor:middle;fill:#000000;stroke-width:0"
         x="24.500023"
         y="60.302383"
         id="flap_char_47">#</text>
    </g>
    <g
       id="flap_48"
       transform="translate(2400, 0)">
      <path
         id="top_flap_48"
         style="display:inline;fill:#ffffff;stroke:#ffff00;stroke-width:0;stroke-linecap:round;stroke-miterlimit:4;stroke-dasharray:none"
         d="M 3.9997515,5.0966779e-7 A 3.9999949,3.9999949 0 0 0 5e-7,3.9997515 V 21.600206 H 1.9998759 V 32.400049 H 5e-7 v 0.999939 h 1.9998754 v 1.599899 H 47.000173 V 33.399988 H 49.00005 V 32.400049 H 47.000173 V 21.600206 H 49.00005 V 3.9997515 A 3.9999949,3.9999949 0 0 0 44.99978,5.0966779e-7 Z"
         flap="True"
         mid_cutout="0.5" />
      <path
         id="bot_flap_48"
         style="display:inline;fill:#ffffff;stroke:#ffff00;stroke-width:0;stroke-linecap:round;stroke-miterlimit:4;stroke-dasharray:none"
         d="M 3.9997515,5.0966779e-7 A 3.9999949,3.9999949 0 0 0 5e-7,3.9997515 V 21.600206 H 1.9998759 V 32.400049 H 5e-7 v 0.999939 h 1.9998754 v 1.599899 H 47.000173 V 33.399988 H 49.00005 V 32.400049 H 47.000173 V 21.600206 H 49.00005 V 3.9997515 A 3.9999949,3.9999949 0 0 0 44.99978,5.0966779e-7 Z"
         flap="True"
         mid_cutout="0.5"
         transform="matrix(1 0 0 -1 0 70.5)" />
      <text
         style="font-size:77px;font-family:'Red Hat Mono';font-weight:600;text-align:center;text-anchor:middle;fill:#000000;stroke-width:0"
         x="24.50002525"
         y="62.4997729996129"
         id="flap_char_48">&amp;</text>
    </g>
  </g>
</svg>
