<?xml version="1.0" encoding="UTF-8" standalone="no"?>
<svg
   sodipodi:docname="default_charset_master_TOP.svg"
   inkscape:version="1.1 (c68e22c387, 2021-05-23)"
   id="svg5"
   version="1.1"
   viewBox="0 0 500 328"
   height="328mm"
   width="500mm"
   xmlns:inkscape="http://www.inkscape.org/namespaces/inkscape"
   xmlns:sodipodi="http://sodipodi.sourceforge.net/DTD/sodipodi-0.dtd"
   xmlns="http://www.w3.org/2000/svg"
   xmlns:svg="http://www.w3.org/2000/svg"
   xmlns:rdf="http://www.w3.org/1999/02/22-rdf-syntax-ns#"
   xmlns:cc="http://creativecommons.org/ns#"
   xmlns:dc="http://purl.org/dc/elements/1.1/">
  <metadata
     id="metadata149">
    <rdf:RDF>
      <cc:Work
         rdf:about="">
        <dc:format>image/svg+xml</dc:format>
        <dc:type
           rdf:resource="http://purl.org/dc/dcmitype/StillImage" />
      </cc:Work>
    </rdf:RDF>
  </metadata>
  <sodipodi:namedview
     id="namedview7"
     pagecolor="#505050"
     bordercolor="#eeeeee"
     borderopacity="1"
     inkscape:pageshadow="0"
     inkscape:pageopacity="0"
     inkscape:pagecheckerboard="0"
     inkscape:document-units="mm"
     showgrid="false"
     fit-margin-top="0"
     fit-margin-left="0"
     fit-margin-right="0"
     fit-margin-bottom="0"
     inkscape:zoom="0.4718264"
     inkscape:cx="925.12839"
     inkscape:cy="825.51549"
     inkscape:window-width="1920"
     inkscape:window-height="1009"
     inkscape:window-x="1912"
     inkscape:window-y="-8"
     inkscape:window-maximized="1"
     inkscape:current-layer="svg5"
     inkscape:document-rotation="0"
     inkscape:snap-object-midpoints="true"
     inkscape:object-nodes="true"
     inkscape:snap-bbox="true"
     inkscape:bbox-nodes="true"
     inkscape:bbox-paths="false"
     inkscape:object-paths="false" />
  <defs
     id="defs2" />
  <g
     id="layer_ss_top"
     inkscape:groupmode="layer"
     inkscape:label="Top Silkscreen"
     style="display:inline">
    <path
       id="path915"
       style="font-weight:600;font-size:73px;font-family:'Red Hat Mono';fill:#000000;stroke-width:0"
       d="m 1671.8711,988.82617 c -9.3808,0 -17.8434,2.11515 -25.3848,6.34571 -7.3575,4.04661 -13.1503,9.65652 -17.3808,16.83012 -4.2306,7.1735 -6.3457,15.3597 -6.3457,24.5566 0,7.1735 1.2862,14.4394 3.8613,21.7969 2.759,7.1735 6.8979,14.8052 12.416,22.8984 -0.5288,0.3675 -1.0453,0.7378 -1.5605,1.1074 h 43.6875 c 8.1569,-5.4788 14.8207,-10.6318 19.9531,-15.4531 6.2538,-5.702 10.6671,-11.4054 13.2422,-17.1074 2.759,-5.7021 4.1386,-11.9561 4.1386,-18.7617 0,-8.2772 -2.0237,-15.5411 -6.0703,-21.795 -4.0466,-6.2538 -9.565,-11.22161 -16.5547,-14.90035 -6.9896,-3.67874 -14.989,-5.51758 -24.0019,-5.51758 z m -0.8281,22.62503 c 5.702,0 10.483,1.9303 14.3457,5.7929 3.8626,3.8627 5.7949,8.7371 5.7949,14.6231 0,4.2305 -0.9204,8.1865 -2.7598,11.8652 -1.8393,3.6788 -4.9663,7.4479 -9.3808,11.3106 -4.2306,3.6787 -9.8405,7.7261 -16.8301,12.1406 -4.2306,-6.0699 -7.3576,-11.5884 -9.3809,-16.5547 -2.0233,-4.9663 -3.0351,-9.8407 -3.0351,-14.623 0,-7.3575 1.9322,-13.2438 5.7949,-17.6582 4.0466,-4.5985 9.1973,-6.8965 15.4512,-6.8965 z"
       transform="scale(0.26458333)" />
    <path
       id="path919"
       style="font-weight:600;font-size:73px;font-family:'Red Hat Mono';fill:#000000;stroke-width:0"
       d="m 1463.5312,988.83789 -19.3124,56.00781 h -38.3516 v 22.3496 h 30.9004 l -5.2852,15.166 h 26.6035 l 5.17,-15.166 h 34.2109 l -5.2852,15.166 h 26.4883 l 5.2852,-15.166 h 31.4531 v -22.3496 h -23.7285 l 19.0371,-56.00781 h -26.4863 l -19.0371,56.00781 h -34.2129 l 19.0371,-56.00781 z"
       transform="scale(0.26458333)" />
    <path
       id="path925"
       style="font-weight:600;font-size:73px;font-family:'Red Hat Mono';fill:#000000;stroke-width:0"
       d="m 221.99988,267.4421 c -1.752,0 -3.21209,0.60803 -4.38009,1.8247 -1.168,1.16801 -1.75183,2.6039 -1.75183,4.30724 0,1.65465 0.58383,3.09004 1.75183,4.3067 1.168,1.168 2.62809,1.75236 4.38009,1.75236 1.752,0 3.2121,-0.58436 4.3801,-1.75236 1.168,-1.168 1.75183,-2.60337 1.75183,-4.3067 0,-1.70334 -0.58383,-3.13923 -1.75183,-4.30724 -1.168,-1.21667 -2.6281,-1.8247 -4.3801,-1.8247 z" />
    <path
       id="path931"
       style="font-weight:600;font-size:73px;font-family:'Red Hat Mono';fill:#000000;stroke-width:0"
       d="m 206.43359,988.82617 c -13.97921,0 -26.76157,3.49477 -38.34961,10.48438 -11.58803,6.80565 -20.50981,16.37155 -26.76367,28.69535 l 24.00391,11.8632 c 4.41449,-7.7253 10.02441,-13.703 16.83008,-17.9336 6.9896,-4.4144 14.71468,-6.623 23.17578,-6.623 6.06992,0 11.49693,1.1053 16.2793,3.3125 4.96629,2.0233 8.82883,4.9654 11.58789,8.8281 2.75905,3.6788 4.13867,7.9091 4.13867,12.6914 0,5.5181 -1.37962,10.2096 -4.13867,14.0723 -2.57512,3.6787 -5.97844,7.0801 -10.20899,10.207 -4.04661,2.943 -8.36837,5.9786 -12.9668,9.1055 -3.77818,2.5692 -7.30443,5.5178 -10.58593,8.832 h 42.125 c 3.52105,-2.5644 6.89478,-5.3218 10.12109,-8.2793 4.41449,-4.0466 8.00266,-8.8295 10.76172,-14.3476 2.94299,-5.7021 4.41406,-12.5087 4.41406,-20.418 0,-9.7487 -2.57437,-18.3922 -7.72461,-25.9336 -5.15023,-7.5414 -12.32463,-13.52105 -21.52148,-17.93553 -9.01292,-4.41449 -19.40577,-6.6211 -31.17774,-6.6211 z"
       transform="scale(0.26458333)" />
    <path
       id="path932"
       style="font-weight:600;font-size:73px;font-family:'Red Hat Mono';fill:#000000;stroke-width:0"
       d="m 1670.2188,830.09375 2.4316,93.52734 h 25.8516 l 2.6171,-93.52734 z"
       transform="scale(0.26458333)" />
    <path
       id="path937-4"
       style="font-weight:600;font-size:73px;font-family:'Red Hat Mono';fill:#000000;stroke-width:0"
       d="m 337.60886,219.75202 c -2.92003,0 -5.66928,0.73005 -8.2486,2.19005 -2.53069,1.46 -4.69662,3.62595 -6.4973,6.49728 -1.80064,2.82267 -3.06615,6.30197 -3.79613,10.43864 h -5.4746 v 4.74493 h 4.9635 c -0.0338,0.30445 -0.0548,0.59652 -0.0651,0.87746 h 8.54109 c 0.0103,-0.28094 0.0313,-0.57301 0.0651,-0.87746 h 14.67299 l 1.75237,-4.74493 h -15.91429 c 0.77867,-3.84467 2.06835,-6.74014 3.86902,-8.68681 1.80065,-1.94667 3.89351,-2.92023 6.27817,-2.92023 1.89799,0 3.6258,0.63274 5.18313,1.89807 1.55734,1.21667 2.84703,3.04178 3.86903,5.47512 l 7.51891,-3.06597 c -1.50866,-3.89333 -3.72301,-6.83772 -6.643,-8.83305 -2.87134,-1.99533 -6.22964,-2.9931 -10.0743,-2.9931 z" />
    <path
       id="path938"
       style="font-weight:600;font-size:73px;font-family:'Red Hat Mono';fill:#000000;stroke-width:0"
       d="m 1044.7793,830.09766 c -13.0595,0 -24.7405,2.75923 -35.041,8.27734 -10.30049,5.51811 -18.39333,13.15173 -24.27932,22.90039 -5.88598,9.56473 -8.82812,20.4168 -8.82812,32.55664 0,11.11673 2.54467,21.0442 7.62305,29.79102 h 39.25199 c -4.9758,-2.99382 -9.014,-6.8544 -12.1114,-11.58203 -3.3108,-5.51811 -4.9668,-11.77212 -4.9668,-18.76172 0,-7.17355 1.7474,-13.519 5.2422,-19.03711 3.4948,-5.70205 8.1844,-10.11526 14.0703,-13.24219 5.886,-3.31087 12.6012,-4.9668 20.1426,-4.9668 8.0932,0 15.4505,2.11516 22.0723,6.34571 6.6217,4.04661 12.0468,9.83944 16.2773,17.38086 4.4145,7.54141 7.4501,16.37174 9.1055,26.48828 -6.0699,7.17354 -13.2443,12.87491 -21.5215,17.10547 -0.1857,0.0928 -0.3724,0.17881 -0.5586,0.26953 h 53.5234 c -0.1001,-18.41374 -3.4951,-34.60111 -10.1992,-48.55274 -6.8056,-14.16315 -16.1866,-25.20008 -28.1425,-33.10937 -11.956,-7.90929 -25.8416,-11.86328 -41.6602,-11.86328 z"
       transform="scale(0.26458333)" />
    <path
       id="path939"
       style="font-weight:600;font-size:73px;font-family:'Red Hat Mono';fill:#000000;stroke-width:0"
       d="m 839.05469,830.08594 c -12.32378,0 -23.45217,2.30001 -33.38477,6.89844 -9.74866,4.59842 -17.47373,10.94388 -23.17578,19.0371 -5.70205,7.9093 -8.55273,16.92253 -8.55273,27.03907 0,9.56472 3.21845,18.21019 9.65625,25.93554 5.22406,6.26888 11.72072,11.14381 19.48828,14.62696 h 71.9375 c 7.76755,-3.48315 14.26422,-8.35808 19.48828,-14.62696 6.43779,-7.72535 9.65625,-16.37082 9.65625,-25.93554 0,-10.11654 -2.85069,-19.12977 -8.55274,-27.03907 -5.51811,-8.09322 -13.24318,-14.43868 -23.17578,-19.0371 -9.74866,-4.59843 -20.87705,-6.89844 -33.38476,-6.89844 z m 0,24.83203 c 6.80567,0 12.87676,1.28816 18.21093,3.86328 5.33418,2.57512 9.56448,6.16134 12.69141,10.75977 3.12693,4.41448 4.68945,9.47178 4.68945,15.17382 0,5.70205 -1.56252,10.85275 -4.68945,15.45118 -3.12693,4.41448 -7.35723,8.00071 -12.69141,10.75976 -5.33417,2.57512 -11.40526,3.86328 -18.21093,3.86328 -6.80567,0 -12.87481,-1.28816 -18.20899,-3.86328 -5.33417,-2.75905 -9.56447,-6.34528 -12.6914,-10.75976 -3.12693,-4.59843 -4.69141,-9.74913 -4.69141,-15.45118 0,-5.70204 1.56448,-10.75934 4.69141,-15.17382 3.12693,-4.59843 7.35723,-8.18465 12.6914,-10.75977 5.33418,-2.57512 11.40332,-3.86328 18.20899,-3.86328 z"
       transform="scale(0.26458333)" />
    <path
       id="path943"
       style="font-weight:600;font-size:73px;font-family:'Red Hat Mono';fill:#000000;stroke-width:0"
       d="m 555.66602,830.09766 v 26.48632 h 110.91406 l -36.29297,67.03907 h 32.67969 l 36.16992,-70.625 v -22.90039 z"
       transform="scale(0.26458333)" />
    <path
       id="path944"
       style="font-weight:600;font-size:73px;font-family:'Red Hat Mono';fill:#000000;stroke-width:0"
       d="m 431.61133,830.08594 c -17.84189,0 -33.56835,4.41516 -47.17969,13.24414 -13.4274,8.64504 -23.91171,20.78527 -31.45312,36.41992 -6.18763,12.828 -9.8326,27.4541 -10.94336,43.87305 h 30.16211 c 0.88441,-11.7838 3.02684,-22.09034 6.43945,-30.90625 4.59842,-11.58803 11.12874,-20.41641 19.58984,-26.48633 8.64504,-6.06992 18.94449,-9.10547 30.90039,-9.10547 7.17355,0 13.79532,1.01185 19.86524,3.03516 6.06992,1.83937 11.8647,4.78151 17.38281,8.82812 l 16.55469,-22.34766 c -6.4378,-5.15023 -14.25628,-9.19763 -23.45313,-12.14062 -9.19685,-2.94299 -18.48444,-4.41406 -27.86523,-4.41406 z m -6.62305,75.875 c -10.11653,0 -19.86531,2.48292 -29.24609,7.44922 -5.2381,2.77311 -10.04404,6.17807 -14.42188,10.21289 h 91.38867 c -4.05892,-3.91311 -8.74086,-7.22847 -14.05859,-9.9375 -9.74866,-5.15024 -20.97046,-7.72461 -33.66211,-7.72461 z"
       transform="scale(0.26458333)" />
    <path
       id="path945"
       style="font-weight:600;font-size:73px;font-family:'Red Hat Mono';fill:#000000;stroke-width:0"
       d="m 146.97852,830.09766 -4.13282,93.52539 h 118.64063 c -4.69796,-5.55477 -10.48972,-10.0642 -17.38867,-13.51367 -9.56473,-4.9663 -20.78457,-7.44922 -33.66016,-7.44922 -7.17354,0 -14.07163,0.73553 -20.69336,2.20703 -6.43779,1.47149 -13.05956,3.86296 -19.86523,7.17383 l 2.75781,-56.00782 h 91.60156 v -25.93554 z"
       transform="scale(0.26458333)" />
    <path
       id="path949"
       style="font-weight:600;font-size:73px;font-family:'Red Hat Mono';fill:#000000;stroke-width:0"
       d="m 1705.8223,671.35742 -75.5899,93.52539 h 30.9864 l 48.1894,-60.14062 v 60.14062 h 29.2461 v -93.52539 z"
       transform="scale(0.26458333)" />
    <path
       id="path950"
       style="font-weight:600;font-size:73px;font-family:'Red Hat Mono';fill:#000000;stroke-width:0"
       d="m 1473.4531,671.3457 c -13.2434,0 -25.9363,2.66778 -38.0761,8.00196 -11.956,5.15023 -22.3469,12.69044 -31.1758,22.62304 l 20.416,19.03907 c 7.7253,-8.46111 15.1741,-14.34734 22.3476,-17.65821 7.3575,-3.4948 15.9115,-5.24218 25.6602,-5.24218 6.9896,-10e-6 13.2436,1.37961 18.7617,4.13867 5.5181,2.57511 9.8399,6.25279 12.9668,11.03515 3.3109,4.59843 4.9668,9.74913 4.9668,15.45118 0,8.82897 -2.8507,15.81851 -8.5527,20.96874 -5.5181,5.15024 -12.9688,7.72461 -22.3496,7.72461 h -21.2442 v 7.45508 h 57.4024 c 5.6676,-3.05458 10.5397,-7.00815 14.6093,-11.86914 6.8057,-8.09323 10.209,-17.28937 10.209,-27.58984 0,-10.48441 -2.8507,-19.77396 -8.5527,-27.86719 -5.5181,-8.27716 -13.2451,-14.71407 -23.1777,-19.3125 -9.9326,-4.59842 -21.3354,-6.89844 -34.211,-6.89844 z"
       transform="scale(0.26458333)" />
    <path
       id="path951"
       style="font-weight:600;font-size:73px;font-family:'Red Hat Mono';fill:#000000;stroke-width:0"
       d="m 1262.623,671.3457 c -12.1398,0 -23.8208,2.48292 -35.041,7.44922 -11.2201,4.78236 -22.1637,12.04822 -32.832,21.79688 l 17.1055,20.69336 c 9.1968,-8.64504 17.6594,-14.71418 25.3847,-18.20899 7.7254,-3.4948 16.0011,-5.24219 24.8301,-5.24219 10.1165,0 18.4857,2.66583 25.1074,8 6.6218,5.33418 9.9336,12.0474 9.9336,20.14063 0,4.04661 -0.6441,8.00256 -1.9316,11.86523 -1.1036,3.67874 -3.0339,7.54128 -5.793,11.58789 -2.5751,4.04662 -6.2547,8.55324 -11.0371,13.51954 l -1.8516,1.93554 h 34.3555 c 1.663,-2.1166 3.1611,-4.14677 4.4668,-6.07422 4.0466,-5.70204 6.8973,-11.31196 8.5527,-16.83007 1.6555,-5.51811 2.4844,-11.40435 2.4844,-17.65821 0,-10.48441 -2.6678,-19.6825 -8.0019,-27.59179 -5.3342,-7.9093 -12.783,-14.06989 -22.3477,-18.48438 -9.5647,-4.59842 -20.6931,-6.89844 -33.3848,-6.89844 z"
       transform="scale(0.26458333)" />
    <path
       id="path955"
       style="font-weight:600;font-size:73px;font-family:'Red Hat Mono';fill:#000000;stroke-width:0"
       d="m 1045.1934,671.35742 -59.87113,25.66016 v 27.03711 l 48.83593,-20.96875 v 61.79687 h 30.0742 v -93.52539 z"
       transform="scale(0.26458333)" />
    <path
       id="path956"
       style="font-weight:600;font-size:73px;font-family:'Red Hat Mono';fill:#000000;stroke-width:0"
       d="m 839.05469,671.3457 c -14.34709,0 -27.038,4.0474 -38.07422,12.14063 -11.03622,7.90929 -19.68169,19.31399 -25.93555,34.21289 -5.46997,13.26053 -8.46716,28.99374 -9.00781,47.18359 h 30.08398 c 0.4209,-12.18894 2.12941,-22.95272 5.13477,-32.28515 3.67874,-11.03622 8.73799,-19.49879 15.17578,-25.38477 6.4378,-6.06992 13.97801,-9.10351 22.62305,-9.10351 8.4611,0 15.91181,2.85068 22.34961,8.55273 l -30.73633,58.2207 h 23.17969 l 20.24804,-38.35547 c 2.39118,5.70205 4.32148,12.32382 5.79297,19.86524 1.1285,5.78354 1.82094,11.94942 2.08399,18.49023 h 30.0957 c -0.55704,-18.18983 -3.64357,-33.92307 -9.2793,-47.18359 -6.06992,-14.8989 -14.62198,-26.3036 -25.6582,-34.21289 -10.85228,-8.09323 -23.54515,-12.14063 -38.07617,-12.14063 z"
       transform="scale(0.26458333)" />
    <path
       id="path957"
       style="font-weight:600;font-size:73px;font-family:'Red Hat Mono';fill:#000000;stroke-width:0"
       d="M 558.16016,671.35742 V 699.5 l 95.74023,-0.82812 -44.35351,66.21093 h 38.19726 l 47.81836,-71.45312 v -22.07227 z"
       transform="scale(0.26458333)" />
    <path
       id="path961"
       style="font-weight:600;font-size:73px;font-family:'Red Hat Mono';fill:#000000;stroke-width:0"
       d="m 335.73633,671.35742 52.08398,93.52539 h 55.98242 l 51.95704,-93.52539 h -33.66016 l -45.52344,83.59961 -45.24805,-83.59961 z"
       transform="scale(0.26458333)" />
    <path
       id="path962"
       style="font-weight:600;font-size:73px;font-family:'Red Hat Mono';fill:#000000;stroke-width:0"
       d="m 129.59961,671.35742 56.83789,92.98047 -0.33398,0.54492 h 36.04687 l -0.67383,-1.09765 57.11328,-92.42774 h -35.3164 l -38.90235,64.28516 -38.35156,-64.28516 z"
       transform="scale(0.26458333)" />
    <path
       id="path963"
       style="font-weight:600;font-size:73px;font-family:'Red Hat Mono';fill:#000000;stroke-width:0"
       d="m 1607.5879,512.58008 10.9609,93.5625 h 27.1973 l -8.9121,-93.5625 z m 66.2168,0 -18.2246,93.5625 h 23.3769 l 6.9883,-36.72656 6.9141,36.72656 h 24.164 l -18.3867,-93.5625 z m 61.8027,0 -8.9883,93.5625 h 26.3047 l 10.8262,-93.5625 z"
       transform="scale(0.26458333)" />
    <path
       id="path967"
       style="font-weight:600;font-size:73px;font-family:'Red Hat Mono';fill:#000000;stroke-width:0"
       d="m 1393.7266,512.58008 29.2714,93.5625 h 32.0997 l -27.709,-93.5625 z m 128.0214,0.27539 -28.0039,93.28711 h 31.1993 l 29.3613,-93.28711 z"
       transform="scale(0.26458333)" />
    <path
       id="path968"
       style="font-weight:600;font-size:73px;font-family:'Red Hat Mono';fill:#000000;stroke-width:0"
       d="m 1193.6621,512.61719 v 93.52539 h 33.1074 v -93.52539 z m 104.291,0 v 93.52539 h 33.1094 v -93.52539 z"
       transform="scale(0.26458333)" />
    <path
       id="path969"
       style="font-weight:600;font-size:73px;font-family:'Red Hat Mono';fill:#000000;stroke-width:0"
       d="m 974.2832,512.61719 v 28.14258 h 59.8711 v 65.38281 h 33.1094 v -65.38281 h 59.8711 v -28.14258 z"
       transform="scale(0.26458333)" />
    <path
       id="path973"
       style="font-weight:600;font-size:73px;font-family:'Red Hat Mono';fill:#000000;stroke-width:0"
       d="m 838.08008,512.60547 c -13.4274,0 -25.19987,2.39146 -35.31641,7.17383 -9.9326,4.59842 -17.65767,11.12874 -23.17578,19.58984 -5.33417,8.27717 -8.00195,18.02594 -8.00195,29.24609 0,10.30048 1.93224,18.76108 5.79492,25.38282 2.84976,4.74959 6.35263,8.79657 10.50391,12.14453 h 92.04296 c -3.49334,-1.48915 -7.14143,-2.77981 -10.94726,-3.86719 -7.72536,-2.39118 -15.45043,-4.41488 -23.17578,-6.07031 -7.72536,-1.65543 -14.8978,-3.58573 -21.51953,-5.79297 -6.4378,-2.20724 -11.5885,-5.24279 -15.45118,-9.10547 -3.86267,-3.86268 -5.79492,-9.10483 -5.79492,-15.72656 0,-7.35748 3.127,-13.42858 9.38086,-18.21094 6.25386,-4.9663 14.53156,-7.44922 24.83203,-7.44922 9.19685,0 18.30154,1.84079 27.31446,5.51953 9.19685,3.49481 18.4864,8.82841 27.86718,16.00196 l 16.83008,-24.55664 c -10.85228,-8.27717 -22.25698,-14.34631 -34.21289,-18.20899 -11.77197,-4.04661 -24.09511,-6.07031 -36.9707,-6.07031 z"
       transform="scale(0.26458333)" />
    <path
       id="path974"
       style="font-weight:600;font-size:73px;font-family:'Red Hat Mono';fill:#000000;stroke-width:0"
       d="m 559.6582,512.61719 v 93.52539 h 118.39063 c 0.65228,-0.80695 1.29085,-1.62727 1.90234,-2.47656 6.62173,-9.19685 9.9336,-20.14038 9.9336,-32.83204 0,-11.58803 -2.75924,-21.70457 -8.27735,-30.3496 -5.33417,-8.82898 -12.87634,-15.63561 -22.625,-20.41797 -9.56472,-4.9663 -20.78456,-7.44922 -33.66015,-7.44922 z m 33.10742,27.86719 h 29.79883 c 10.30048,0 18.48477,2.85068 24.55469,8.55273 6.25386,5.51811 9.38086,12.96687 9.38086,22.34766 0,9.19685 -3.127,16.64756 -9.38086,22.34961 -6.06992,5.51811 -14.25421,8.27539 -24.55469,8.27539 h -29.79883 z"
       transform="scale(0.26458333)" />
    <path
       id="path975"
       style="font-weight:600;font-size:73px;font-family:'Red Hat Mono';fill:#000000;stroke-width:0"
       d="m 415.74805,512.60547 c -13.61134,0 -26.11935,3.86254 -37.52344,11.58789 -11.4041,7.72535 -20.50878,19.0386 -27.31445,33.9375 -6.15,13.29729 -9.51101,29.30714 -10.10352,48.01172 h 33.38281 c 0.43097,-12.61612 2.23384,-23.38054 5.41407,-32.28516 3.67874,-10.30047 8.64653,-18.11895 14.90039,-23.45312 6.43779,-5.33418 13.51878,-8 21.24414,-8 7.72535,0 14.71489,2.66582 20.96875,8 6.43779,5.33417 11.49704,13.15265 15.17578,23.45312 3.18022,8.90462 4.9831,19.66904 5.41406,32.28516 h 33.38086 c -0.60852,-18.70458 -4.06074,-34.71443 -10.37695,-48.01172 -6.80567,-14.8989 -15.91036,-26.21215 -27.31446,-33.9375 -11.22015,-7.72535 -23.6367,-11.58789 -37.24804,-11.58789 z"
       transform="scale(0.26458333)" />
    <path
       id="path979"
       style="font-weight:600;font-size:73px;font-family:'Red Hat Mono';fill:#000000;stroke-width:0"
       d="m 137.89258,512.61719 v 93.52539 h 122.68554 c 0.60456,-0.89827 1.19154,-1.81165 1.74805,-2.75196 5.33418,-9.01291 8,-19.2209 8,-30.625 0,-11.9559 -2.66582,-22.44216 -8,-31.45507 -5.33417,-9.01292 -12.87634,-16.00245 -22.625,-20.96875 -9.56472,-5.15024 -20.87602,-7.72461 -33.93555,-7.72461 z M 171,540.48438 h 29.52344 c 11.77197,0 20.7852,2.94214 27.03906,8.82812 6.25386,5.88598 9.37891,13.61106 9.37891,23.17578 0,9.74866 -3.12505,17.56714 -9.37891,23.45313 -6.25386,5.88598 -15.26709,8.82812 -27.03906,8.82812 H 171 Z"
       transform="scale(0.26458333)" />
    <path
       id="path980"
       style="font-weight:600;font-size:73px;font-family:'Red Hat Mono';fill:#000000;stroke-width:0"
       d="m 1685.6699,353.86523 c -13.6113,0 -26.1193,3.86254 -37.5234,11.58789 -11.4041,7.72536 -20.5088,19.03861 -27.3145,33.9375 -6.15,13.29729 -9.511,29.30716 -10.1035,48.01172 h 33.3828 c 0.431,-12.61611 2.2339,-23.38053 5.4141,-32.28515 3.6787,-10.30047 8.6446,-18.11895 14.8984,-23.45313 6.4378,-5.33417 13.5208,-8 21.2461,-8 7.7254,0 14.7149,2.66583 20.9688,8 6.4378,5.33418 11.4951,13.15266 15.1738,23.45313 3.1802,8.90462 4.9831,19.66904 5.4141,32.28515 h 33.3808 c -0.6085,-18.70456 -4.0607,-34.71443 -10.3769,-48.01172 -6.8057,-14.89889 -15.9104,-26.21214 -27.3145,-33.9375 -11.2201,-7.72535 -23.6347,-11.58789 -37.2461,-11.58789 z"
       transform="scale(0.26458333)" />
    <path
       id="path981"
       style="font-weight:600;font-size:73px;font-family:'Red Hat Mono';fill:#000000;stroke-width:0"
       d="m 1408.627,353.87695 v 93.52539 h 27.748 l -0.1582,-40 20.791,40 h 33.293 l -48.291,-93.52539 z m 102.6367,0 0.3808,93.52539 h 27.7617 v -93.52539 z"
       transform="scale(0.26458333)" />
    <path
       id="path985"
       style="font-weight:600;font-size:73px;font-family:'Red Hat Mono';fill:#000000;stroke-width:0"
       d="m 1193.3867,353.87695 v 93.52539 h 28.418 v -48.82812 l 20.5449,48.82812 h 39.4746 l 20.5449,-48.82812 v 48.82812 h 28.9688 v -93.52539 h -36.9707 l -32.0059,77.5293 -32.0039,-77.5293 z"
       transform="scale(0.26458333)" />
    <path
       id="path986"
       style="font-weight:600;font-size:73px;font-family:'Red Hat Mono';fill:#000000;stroke-width:0"
       d="m 987.09961,353.87695 v 93.52539 h 33.10739 v -93.52539 z"
       transform="scale(0.26458333)" />
    <path
       id="path987"
       style="font-weight:600;font-size:73px;font-family:'Red Hat Mono';fill:#000000;stroke-width:0"
       d="m 767.17969,353.87695 v 93.52539 h 62.35937 l 77.80078,-93.52539 h -37.79882 l -69.25196,86.35938 v -86.35938 z"
       transform="scale(0.26458333)" />
    <path
       id="path991"
       style="font-weight:600;font-size:73px;font-family:'Red Hat Mono';fill:#000000;stroke-width:0"
       d="m 664.80078,353.87695 v 93.52539 h 33.10742 v -93.52539 z"
       transform="scale(0.26458333)" />
    <path
       id="path992"
       style="font-weight:600;font-size:73px;font-family:'Red Hat Mono';fill:#000000;stroke-width:0"
       d="m 350.63477,353.87695 v 28.14258 h 48.55859 v 65.38281 h 33.10937 v -65.38281 h 48.5586 v -28.14258 z"
       transform="scale(0.26458333)" />
    <path
       id="path993"
       style="font-weight:600;font-size:73px;font-family:'Red Hat Mono';fill:#000000;stroke-width:0"
       d="m 137.87695,353.87695 v 93.52539 H 270.3125 v -93.52539 h -33.10938 v 81.39258 h -66.21679 v -81.39258 z"
       transform="scale(0.26458333)" />
    <path
       id="path997"
       style="font-weight:600;font-size:73px;font-family:'Red Hat Mono';fill:#000000;stroke-width:0"
       d="m 1686.6445,195.125 c -13.6113,0 -26.1193,3.86254 -37.5234,11.58789 -11.2202,7.72535 -20.3249,19.0386 -27.3145,33.9375 -6.15,13.29729 -9.511,29.30715 -10.1035,48.01172 h 33.3809 c 0.4267,-12.78391 2.23,-23.63967 5.416,-32.56055 3.8627,-10.48441 9.0134,-18.30289 15.4512,-23.45312 6.4378,-5.15024 13.6122,-7.72461 21.5215,-7.72461 8.8289,0 16.7369,3.03555 23.7265,9.10547 7.1736,6.06992 12.3243,14.98975 15.4512,26.76172 l 29.5215,-9.65625 c -5.7021,-17.65796 -14.7134,-31.36072 -27.0371,-41.10938 -12.1399,-9.9326 -26.3038,-14.90039 -42.4903,-14.90039 z m 3.586,90.77344 v 2.76367 h 69.5293 v -2.76367 z"
       transform="scale(0.26458333)" />
    <path
       id="path998"
       style="font-weight:600;font-size:73px;font-family:'Red Hat Mono';fill:#000000;stroke-width:0"
       d="m 1410.4297,195.13672 v 93.52539 h 95.7383 v -10.20117 h -62.6309 V 223.2793 h 94.084 v -28.14258 z"
       transform="scale(0.26458333)" />
    <path
       id="path999"
       style="font-weight:600;font-size:73px;font-family:'Red Hat Mono';fill:#000000;stroke-width:0"
       d="m 1198.6426,195.13672 v 93.52539 h 93.5332 V 277.08008 H 1231.752 V 223.2793 h 93.2558 v -28.14258 z"
       transform="scale(0.26458333)" />
    <path
       id="path1003"
       style="font-weight:600;font-size:73px;font-family:'Red Hat Mono';fill:#000000;stroke-width:0"
       d="m 982.42383,195.13672 v 93.52539 h 33.10937 V 223.2793 h 20.6914 c 9.7487,0 18.3027,2.75923 25.6602,8.27734 7.3574,5.51811 13.1522,13.33464 17.3828,23.45117 3.928,9.39313 6.0296,20.61403 6.3105,33.6543 h 33.3867 c -0.3442,-18.39598 -3.8247,-34.39832 -10.4511,-48 -6.8057,-14.53102 -16.1867,-25.75282 -28.1426,-33.66211 -11.9559,-7.90929 -25.6606,-11.86328 -41.1113,-11.86328 z"
       transform="scale(0.26458333)" />
    <path
       id="path1004"
       style="font-weight:600;font-size:73px;font-family:'Red Hat Mono';fill:#000000;stroke-width:0"
       d="m 841.11133,195.125 c -13.61134,0 -26.11934,3.86254 -37.52344,11.58789 -11.40409,7.72535 -20.50878,19.0386 -27.31445,33.9375 -6.15,13.29729 -9.51101,29.30715 -10.10352,48.01172 h 33.38086 c 0.42672,-12.78391 2.22999,-23.63967 5.41602,-32.56055 3.86267,-10.48441 8.92192,-18.30289 15.17578,-23.45312 6.43779,-5.15024 13.61024,-7.72461 21.51953,-7.72461 9.38079,0 17.74994,3.49477 25.10742,10.48437 7.54142,6.98961 12.69212,17.1976 15.45117,30.625 l 29.79883,-8.55273 c -3.12693,-13.24347 -8.18617,-24.46331 -15.17578,-33.66016 -6.80567,-9.38078 -14.98996,-16.46373 -24.55469,-21.24609 -9.38078,-4.9663 -19.77364,-7.44922 -31.17773,-7.44922 z"
       transform="scale(0.26458333)" />
    <path
       id="path1005"
       style="font-weight:600;font-size:73px;font-family:'Red Hat Mono';fill:#000000;stroke-width:0"
       d="m 561.99609,195.13672 v 93.52539 h 92.44922 c 9.73931,-3.67874 17.45807,-9.19439 23.15625,-16.54688 5.70205,-7.54141 8.55274,-16.27833 8.55274,-26.21093 0,-10.11654 -2.57438,-18.94687 -7.72461,-26.48828 -5.15024,-7.72536 -12.32464,-13.70305 -21.52149,-17.9336 -9.01291,-4.23055 -19.58867,-6.3457 -31.72851,-6.3457 z m 32.55664,26.76367 h 27.31641 c 9.56473,0 17.19639,2.48292 22.89844,7.44922 5.70205,4.78236 8.55469,11.40413 8.55469,19.86523 0,8.27717 -2.85264,14.89894 -8.55469,19.86524 -5.70205,4.9663 -13.33371,7.44922 -22.89844,7.44922 h -27.31641 z"
       transform="scale(0.26458333)" />
    <path
       id="path1009"
       style="font-weight:600;font-size:73px;font-family:'Red Hat Mono';fill:#000000;stroke-width:0"
       d="m 396.1582,195.13672 -29.39453,93.52539 h 30.75586 l 17.67578,-58.48438 17.67774,58.48438 h 31.85937 l -29.39453,-93.52539 z"
       transform="scale(0.26458333)" />
    <path
       id="path67662"
       style="font-weight:bold;font-size:62.0568px;line-height:1.25;font-family:'Red Hat Mono';-inkscape-font-specification:'Red Hat Mono Bold';display:inline;fill:#000000;stroke-width:0.264583"
       d="m 286.6023,258.12 -12.53722,28.34915 h 9.58753 L 296.15883,258.12 Z" />
    <path
       id="path78573-8"
       style="font-weight:600;font-size:69.7403px;line-height:1.25;font-family:'Red Hat Mono';-inkscape-font-specification:'Red Hat Mono Semi-Bold';fill:#000000;stroke-width:0.264583"
       d="m 387.83813,214.23716 v 5.9278 c -2.9291,0.18597 -5.48616,0.83698 -7.67138,1.95284 -2.13868,1.11585 -3.81257,2.62681 -5.0214,4.53305 -1.16231,1.85976 -1.74355,4.02177 -1.74355,6.48592 0,2.09221 0.46487,3.95171 1.39475,5.57897 0.97637,1.6273 2.53386,3.04517 4.67257,4.25403 1.05651,0.59714 2.27264,1.14879 3.6468,1.65518 h 20.21065 c -2.29883,-1.89847 -5.94796,-3.49695 -10.95539,-4.79351 v -12.90153 c 1.62727,0.32546 3.23133,0.86016 4.81211,1.60403 1.62727,0.69742 3.18479,1.65042 4.67257,2.85927 l 3.97497,-5.5795 c -1.85976,-1.48781 -3.95195,-2.69629 -6.27663,-3.62614 -2.27817,-0.97637 -4.67236,-1.60415 -7.18302,-1.8831 v -6.06731 z m 0,12.41369 v 12.27421 c -2.74312,-0.83691 -4.62643,-1.7434 -5.64928,-2.71974 -1.02285,-1.02288 -1.53427,-2.23186 -1.53427,-3.62667 0,-1.62726 0.65104,-2.97534 1.95284,-4.04471 1.30183,-1.06934 3.04551,-1.69712 5.23071,-1.88309 z" />
    <path
       id="path57952"
       style="color:#000000;font-size:65.8474px;-inkscape-font-specification:'Red Hat Mono Bold';display:inline;fill:#000000;stroke:none;stroke-width:0;stroke-miterlimit:4;stroke-dasharray:none"
       d="m 334.59255,261.36763 -0.002,5e-4 v 5.3e-4 c -2.92518,0 -5.62134,0.63373 -8.06462,1.90066 -2.43369,1.26188 -4.5555,3.02231 -6.35155,5.26738 -1.79503,2.2438 -3.18311,4.84521 -4.16564,7.7928 v 0.002 l -0.002,0.004 c -0.93868,2.9501 -1.40611,6.11941 -1.40611,9.50174 0,0.17994 0.002,0.35923 0.005,0.53795 h 4.886 c -0.003,-0.17857 -0.006,-0.35721 -0.006,-0.53745 0,-3.67289 0.62559,-6.98267 1.86913,-9.94304 l 0.002,-0.002 c 2.5e-4,-5.3e-4 -2.3e-4,-10e-4 0,-0.002 1.28872,-3.00535 3.05806,-5.36488 5.31079,-7.10756 l 0.002,-0.002 0.002,-0.002 c 2.24023,-1.77528 4.85648,-2.65618 7.91994,-2.65618 2.77134,0 5.16843,0.67583 7.23469,2.0252 l 0.002,0.002 h 0.002 c 2.11183,1.35155 3.73408,3.26406 4.88497,5.77898 l 0.002,0.004 0.002,0.006 c 1.19002,2.46504 1.79472,5.4157 1.79472,8.86923 0,1.31363 -0.088,2.50094 -0.25683,3.56671 h 4.88032 c 0.17468,-1.1671 0.262,-2.39998 0.262,-3.69848 0,-4.14652 -0.8266,-7.83084 -2.49029,-11.02569 -1.61484,-3.18481 -3.85125,-5.6956 -6.68951,-7.4998 -5e-4,-3.4e-4 -10e-4,3.2e-4 -0.002,0 -2.80387,-1.85375 -6.02861,-2.78328 -9.62525,-2.78328 z m -1.24954,13.23742 c -2.10628,0 -4.01558,0.55589 -5.67769,1.66399 -1.61381,1.06146 -2.88245,2.56612 -3.79305,4.47673 -2.7e-4,5.5e-4 2.6e-4,6.3e-4 0,0.002 -4e-4,8.7e-4 -0.002,10e-4 -0.002,0.002 -0.81328,1.66873 -1.25913,3.54865 -1.34772,5.62499 h 5.30562 c -0.003,-0.10157 -0.005,-0.20394 -0.005,-0.30747 0,-1.81033 0.54835,-3.37682 1.64021,-4.61111 1.08353,-1.22483 2.42937,-1.881 3.93,-1.881 v 5e-4 h 5.1e-4 c 1.08212,0 2.04025,0.23829 2.83394,0.73433 0.77065,0.48167 1.40054,1.13787 1.87689,1.94768 l 0.0899,0.15401 -0.60874,3.96306 h 6.33966 l 1.72186,-10.98074 h -7.00629 l -0.15038,0.99582 c -1.46115,-1.11345 -3.15931,-1.78491 -5.14801,-1.78491 z" />
  </g>
</svg>
