<?xml version="1.0" encoding="UTF-8" standalone="no"?>
<svg
   xmlns:dc="http://purl.org/dc/elements/1.1/"
   xmlns:cc="http://creativecommons.org/ns#"
   xmlns:rdf="http://www.w3.org/1999/02/22-rdf-syntax-ns#"
   xmlns:svg="http://www.w3.org/2000/svg"
   xmlns="http://www.w3.org/2000/svg"
   xmlns:sodipodi="http://sodipodi.sourceforge.net/DTD/sodipodi-0.dtd"
   xmlns:inkscape="http://www.inkscape.org/namespaces/inkscape"
   width="100mm"
   height="100mm"
   viewBox="0 0 100 100"
   version="1.1"
   id="svg8"
   inkscape:version="1.0.1 (3bc2e813f5, 2020-09-07)"
   sodipodi:docname="openflap_logo.svg">
  <defs
     id="defs2" />
  <sodipodi:namedview
     id="base"
     pagecolor="#ffffff"
     bordercolor="#666666"
     borderopacity="1.0"
     inkscape:pageopacity="0.0"
     inkscape:pageshadow="2"
     inkscape:zoom="0.7"
     inkscape:cx="222.87156"
     inkscape:cy="295.54184"
     inkscape:document-units="mm"
     inkscape:current-layer="layer1"
     inkscape:document-rotation="0"
     showgrid="false"
     fit-margin-top="0"
     fit-margin-left="0"
     fit-margin-right="0"
     fit-margin-bottom="0"
     inkscape:window-width="1920"
     inkscape:window-height="1009"
     inkscape:window-x="1912"
     inkscape:window-y="-8"
     inkscape:window-maximized="1" />
  <metadata
     id="metadata5">
    <rdf:RDF>
      <cc:Work
         rdf:about="">
        <dc:format>image/svg+xml</dc:format>
        <dc:type
           rdf:resource="http://purl.org/dc/dcmitype/StillImage" />
        <dc:title />
      </cc:Work>
    </rdf:RDF>
  </metadata>
  <g
     inkscape:label="Layer 1"
     inkscape:groupmode="layer"
     id="layer1"
     transform="translate(27.970236,-40.82143)">
    <path
       id="rect833"
       style="fill:#000000;stroke-width:0.25;stroke-linecap:square"
       d="m -14.59837,40.82143 h 73.256268 c 7.408014,0 13.371866,5.963853 13.371866,13.371866 v 73.256264 c 0,7.40802 -5.963852,13.37187 -13.371866,13.37187 H -14.59837 c -7.408013,0 -13.371866,-5.96385 -13.371866,-13.37187 V 54.193296 c 0,-7.408013 5.963853,-13.371866 13.371866,-13.371866 z" />
    <g
       aria-label="Open
Flap"
       id="text837"
       style="font-size:36.6136px;line-height:1.25;font-family:'Red Hat Mono';-inkscape-font-specification:'Red Hat Mono';fill:#ffffff;stroke-width:0.264583">
      <path
         d="m -10.64779,77.530695 q -2.562952,0 -4.759768,-1.537772 -2.196816,-1.537771 -3.551519,-4.466859 -1.31809,-2.965702 -1.31809,-7.21288 0,-4.247177 1.31809,-7.176266 1.354703,-2.965701 3.551519,-4.503473 2.196816,-1.537771 4.759768,-1.537771 2.5629524,0 4.7597685,1.537771 2.1968161,1.537772 3.5149057,4.503473 1.3547033,2.929089 1.3547033,7.176266 0,4.247178 -1.3547033,7.21288 -1.3180896,2.929088 -3.5149057,4.466859 -2.1968161,1.537772 -4.7597685,1.537772 z m 0,-2.562953 q 1.9039075,0 3.4416788,-1.244862 1.5377713,-1.281476 2.4164977,-3.66136 0.91534,-2.379884 0.91534,-5.748336 0,-3.368451 -0.91534,-5.748335 -0.8787264,-2.379884 -2.4164977,-3.624747 -1.5377713,-1.281476 -3.4416788,-1.281476 -1.903907,0 -3.441678,1.281476 -1.537772,1.244863 -2.453112,3.624747 -0.878726,2.379884 -0.878726,5.748335 0,3.368452 0.878726,5.748336 0.91534,2.379884 2.453112,3.66136 1.537771,1.244862 3.441678,1.244862 z"
         style="font-style:normal;font-variant:normal;font-weight:normal;font-stretch:normal;font-family:'Red Hat Mono';-inkscape-font-specification:'Red Hat Mono';fill:#ffffff;stroke-width:0.264583"
         id="path852" />
      <path
         d="M 3.6314592,84.780188 V 59.260507 h 2.6361793 v 2.562952 q 1.0251809,-1.354703 2.4897249,-2.050361 1.5011576,-0.732272 3.2952246,-0.732272 2.34327,0 4.17395,1.244862 1.867294,1.208249 2.965702,3.295224 1.098408,2.050362 1.098408,4.613314 0,2.562952 -1.135022,4.649928 -1.098408,2.086975 -3.002315,3.331837 -1.867294,1.208249 -4.247178,1.208249 -1.684225,0 -3.112156,-0.622431 -1.4279304,-0.659045 -2.4897249,-1.867294 v 9.885673 z m 7.7620838,-9.702605 q 1.794066,0 3.185383,-0.878726 1.427931,-0.91534 2.23343,-2.453112 0.842113,-1.574384 0.842113,-3.514905 0,-1.977135 -0.842113,-3.514906 -0.805499,-1.537771 -2.23343,-2.416498 -1.391317,-0.91534 -3.185383,-0.91534 -1.5743851,0 -2.9290884,0.659045 -1.3180896,0.622431 -2.1602025,1.794067 v 8.75065 q 0.8787265,1.171636 2.1968161,1.83068 1.3547033,0.659045 2.8924748,0.659045 z"
         style="font-style:normal;font-variant:normal;font-weight:normal;font-stretch:normal;font-family:'Red Hat Mono';-inkscape-font-specification:'Red Hat Mono';fill:#ffffff;stroke-width:0.264583"
         id="path854" />
      <path
         d="m 33.727784,77.494081 q -2.562952,0 -4.613314,-1.208249 -2.050361,-1.244862 -3.25861,-3.331838 -1.171636,-2.123589 -1.171636,-4.759768 0,-2.636179 1.135022,-4.723154 1.135022,-2.086976 3.075543,-3.295225 1.977134,-1.208248 4.393632,-1.208248 2.526338,0 4.503473,1.208248 1.977134,1.171636 3.112156,3.221997 1.135022,2.013748 1.135022,4.576701 v 0.805499 H 27.28379 q 0.146455,1.83068 1.025181,3.295224 0.878726,1.42793 2.306657,2.270043 1.464544,0.805499 3.221997,0.805499 1.574385,0 2.929088,-0.585817 1.391317,-0.622431 2.306657,-1.684226 l 1.867294,1.647612 q -1.427931,1.464544 -3.258611,2.23343 -1.83068,0.732272 -3.954269,0.732272 z M 27.357017,66.802909 h 12.045875 q -0.219681,-1.610998 -1.098408,-2.855861 -0.842113,-1.244862 -2.160202,-1.940521 -1.281476,-0.732272 -2.892475,-0.732272 -1.501157,0 -2.74602,0.695659 -1.244862,0.695658 -2.086975,1.940521 -0.805499,1.244862 -1.061795,2.892474 z"
         style="font-style:normal;font-variant:normal;font-weight:normal;font-stretch:normal;font-family:'Red Hat Mono';-inkscape-font-specification:'Red Hat Mono';fill:#ffffff;stroke-width:0.264583"
         id="path856" />
      <path
         d="M 47.897188,77.127945 V 59.260507 h 2.672793 v 2.892475 q 2.050362,-3.185383 5.675109,-3.185383 1.940521,0 3.368451,0.842112 1.464544,0.8055 2.270043,2.306657 0.842113,1.464544 0.842113,3.441679 V 77.127945 H 60.052904 V 66.326932 q 0,-2.379884 -1.318089,-3.734587 -1.281477,-1.391317 -3.478293,-1.391317 -1.464544,0 -2.672793,0.695659 -1.208248,0.695658 -2.013748,2.050361 v 13.180897 z"
         style="font-style:normal;font-variant:normal;font-weight:normal;font-stretch:normal;font-family:'Red Hat Mono';-inkscape-font-specification:'Red Hat Mono';fill:#ffffff;stroke-width:0.264583"
         id="path858" />
      <path
         d="M -18.739396,122.89495 V 97.265426 h 17.7209835 v 5.272354 H -12.441856 v 5.05268 h 7.3959473 v 5.12591 h -7.3959473 v 10.17858 z"
         style="font-style:normal;font-variant:normal;font-weight:bold;font-stretch:normal;font-family:'Red Hat Mono';-inkscape-font-specification:'Red Hat Mono Bold';fill:#ffffff;stroke-width:0.264583"
         id="path860" />
      <path
         d="m 15.787175,123.26108 q -3.917655,0 -5.9314035,-1.86729 -2.0137481,-1.86729 -2.0137481,-5.52865 V 100.85356 H 1.3248023 V 96.276859 H 13.773427 V 115.2427 q 0,1.57439 0.768886,2.30666 0.768885,0.73227 2.453111,0.73227 0.805499,0 1.537771,-0.14645 0.768886,-0.14646 1.684226,-0.51259 v 4.79638 q -0.585818,0.29291 -1.903908,0.5492 -1.318089,0.29291 -2.526338,0.29291 z"
         style="font-style:normal;font-variant:normal;font-weight:bold;font-stretch:normal;font-family:'Red Hat Mono';-inkscape-font-specification:'Red Hat Mono Bold';fill:#ffffff;stroke-width:0.264583"
         id="path862" />
      <path
         d="m 30.542401,123.18786 q -1.903908,0 -3.405065,-0.73228 -1.464544,-0.73227 -2.306657,-2.01374 -0.805499,-1.28148 -0.805499,-2.96571 0,-1.75745 0.878726,-2.9657 0.878727,-1.24486 2.526339,-1.86729 1.647612,-0.65905 3.954269,-0.65905 1.02518,0 2.086975,0.21969 1.061794,0.21968 2.306657,0.73227 v -1.611 q 0,-1.39132 -0.91534,-2.05036 -0.91534,-0.69566 -2.819248,-0.69566 -1.061794,0 -2.379884,0.36613 -1.281476,0.32953 -2.929088,1.02519 l -2.123589,-4.21057 q 2.379884,-1.06179 4.503473,-1.53777 2.160203,-0.51259 4.247178,-0.51259 3.917655,0 6.077858,1.86729 2.196816,1.8673 2.196816,5.23575 v 12.08249 h -5.858176 v -1.79407 q -1.244863,1.09841 -2.489725,1.611 -1.244863,0.47598 -2.74602,0.47598 z m -1.061795,-5.82157 q 0,0.91534 0.768886,1.42793 0.768886,0.47598 2.123589,0.47598 0.951953,0 1.794066,-0.25629 0.878727,-0.29291 1.610999,-0.8055 v -2.23343 q -0.805499,-0.21969 -1.647612,-0.32953 -0.8055,-0.14645 -1.610999,-0.14645 -1.42793,0 -2.233429,0.47598 -0.8055,0.47597 -0.8055,1.39131 z"
         style="font-style:normal;font-variant:normal;font-weight:bold;font-stretch:normal;font-family:'Red Hat Mono';-inkscape-font-specification:'Red Hat Mono Bold';fill:#ffffff;stroke-width:0.264583"
         id="path864" />
      <path
         d="m 46.432644,130.54719 v -26.54486 h 5.711722 v 1.83068 q 0.91534,-1.02518 2.050362,-1.57439 1.171635,-0.5492 2.526338,-0.5492 2.306657,0 4.210565,1.28148 1.903907,1.28147 3.038929,3.47829 1.135021,2.19681 1.135021,4.97945 0,2.74602 -1.135021,4.97945 -1.135022,2.19681 -3.038929,3.47829 -1.903908,1.28148 -4.210565,1.28148 -1.244862,0 -2.379884,-0.47598 -1.098408,-0.51259 -1.977134,-1.39132 v 9.22663 z m 8.897106,-12.04588 q 1.244862,0 2.123588,-0.62243 0.878727,-0.62243 1.354704,-1.75745 0.475977,-1.17163 0.475977,-2.67279 0,-1.53777 -0.475977,-2.6728 -0.475977,-1.13502 -1.354704,-1.75745 -0.878726,-0.62243 -2.123588,-0.62243 -0.842113,0 -1.610999,0.32952 -0.732272,0.29291 -1.354703,0.84212 v 7.76208 q 0.622431,0.5492 1.354703,0.87873 0.768886,0.2929 1.610999,0.2929 z"
         style="font-style:normal;font-variant:normal;font-weight:bold;font-stretch:normal;font-family:'Red Hat Mono';-inkscape-font-specification:'Red Hat Mono Bold';fill:#ffffff;stroke-width:0.264583"
         id="path866" />
    </g>
  </g>
</svg>
