<?xml version="1.0"?>
<!DOCTYPE svg PUBLIC "-//W3C//DTD SVG 1.1//EN" "http://www.w3.org/Graphics/SVG/1.1/DTD/svg11.dtd">
<svg width="97.91999999999999mm" height="122.14362215348768mm" viewBox="0 0 97.91999999999999 122.14362215348768" xmlns="http://www.w3.org/2000/svg" version="1.1">
<g id="Sketch" transform="translate(37.960000,56.183622) scale(1,-1)">
<path id="Sketch_w0000"  d="M -26.560698446447468 -64.26829268292683 A 55.5 55.5 0 0 0 -1.01952e-14 -57.5L 10.21061524678412 -57.5 A 2.5 2.5 0 0 1 12.0926 -56.6457A 2.5 2.5 0 0 0 16.4741 -58.2413A 2.5 2.5 0 0 1 18.1557 -60.5537A 55.5 55.5 0 0 0 26.5607 -64.2683A 6 6 0 0 1 29.4321 -65L 59.0 -65.0 L 59.0 46.0 L 29.432125305522877 46.0 A 6 6 0 0 0 26.5607 46.7317A 55.5 55.5 0 0 1 18.1807 50.4377A 2.5 2.5 0 0 0 16.4998 52.7689A 2.5 2.5 0 0 1 12.1053 54.369A 2.5 2.5 0 0 0 10.2106 53.5L 3.398394867638608e-15 53.5 A 55.5 55.5 0 0 1 -26.5607 46.7317A 6 6 0 0 0 -29.4321 46L -36.99999999999999 46.0 L -36.99999999999999 -65.0 L -29.432125305522877 -65.0 A 6 6 0 0 1 -26.5607 -64.2683" stroke="#000000" stroke-width="0.7 px" style="stroke-width:0.7;stroke-miterlimit:4;stroke-dasharray:none;stroke-linecap:square;fill:none;fill-opacity:1;fill-rule: evenodd"/>
<title>b'Sketch'</title>
</g>
</svg>