<?xml version="1.0" encoding="UTF-8" standalone="no"?>
<svg
   sodipodi:docname="default_charset_master_BOT.svg"
   inkscape:version="1.1 (c68e22c387, 2021-05-23)"
   id="svg5"
   version="1.1"
   viewBox="0 0 500 328"
   height="328mm"
   width="500mm"
   xmlns:inkscape="http://www.inkscape.org/namespaces/inkscape"
   xmlns:sodipodi="http://sodipodi.sourceforge.net/DTD/sodipodi-0.dtd"
   xmlns="http://www.w3.org/2000/svg"
   xmlns:svg="http://www.w3.org/2000/svg"
   xmlns:rdf="http://www.w3.org/1999/02/22-rdf-syntax-ns#"
   xmlns:cc="http://creativecommons.org/ns#"
   xmlns:dc="http://purl.org/dc/elements/1.1/">
  <metadata
     id="metadata149">
    <rdf:RDF>
      <cc:Work
         rdf:about="">
        <dc:format>image/svg+xml</dc:format>
        <dc:type
           rdf:resource="http://purl.org/dc/dcmitype/StillImage" />
      </cc:Work>
    </rdf:RDF>
  </metadata>
  <sodipodi:namedview
     id="namedview7"
     pagecolor="#505050"
     bordercolor="#eeeeee"
     borderopacity="1"
     inkscape:pageshadow="0"
     inkscape:pageopacity="0"
     inkscape:pagecheckerboard="0"
     inkscape:document-units="mm"
     showgrid="false"
     fit-margin-top="0"
     fit-margin-left="0"
     fit-margin-right="0"
     fit-margin-bottom="0"
     inkscape:zoom="0.4718264"
     inkscape:cx="925.12839"
     inkscape:cy="825.51549"
     inkscape:window-width="1920"
     inkscape:window-height="1009"
     inkscape:window-x="1912"
     inkscape:window-y="-8"
     inkscape:window-maximized="1"
     inkscape:current-layer="svg5"
     inkscape:document-rotation="0"
     inkscape:snap-object-midpoints="true"
     inkscape:object-nodes="true"
     inkscape:snap-bbox="true"
     inkscape:bbox-nodes="true"
     inkscape:bbox-paths="false"
     inkscape:object-paths="false"
     inkscape:lockguides="true" />
  <defs
     id="defs2" />
  <g
     id="layer_ss_bot"
     inkscape:groupmode="layer"
     inkscape:label="Bot Silkscreen"
     style="display:inline">
    <path
       id="path916"
       style="font-weight:600;font-size:73px;font-family:'Red Hat Mono';fill:#000000;stroke-width:0"
       d="m 1424.2715,951.02344 c -9.2787,6.881 -16.2471,14.13505 -20.8906,21.76367 -5.1503,8.4611 -7.7266,17.93356 -7.7266,28.41799 0,10.8523 2.4829,20.4162 7.4492,28.6933 4.9663,8.0933 11.8644,14.4387 20.6934,19.0371 8.829,4.4145 19.1304,6.6231 30.9023,6.6231 9.9326,0 19.2202,-1.8408 27.8653,-5.5195 8.645,-3.6788 16.4635,-9.1953 23.4531,-16.5528 4.9663,4.5985 9.7473,8.7354 14.3457,12.4141 4.5984,3.6787 9.105,7.3584 13.5195,11.0371 l 18.4863,-20.1406 c -4.0466,-3.3109 -8.4617,-6.9905 -13.2441,-11.0371 -4.7824,-4.0466 -10.2074,-8.7362 -16.2773,-14.0703 4.2305,-7.3575 7.9082,-15.45232 11.0351,-24.2813 3.3109,-9.01291 6.0701,-18.75973 8.2774,-29.24414 l -26.4864,-4.41601 c -1.2875,7.72535 -3.0349,14.89975 -5.2422,21.52148 -2.0233,6.62173 -4.3233,12.69088 -6.8984,18.20899 -6.9896,-6.80567 -13.7943,-13.7018 -20.416,-20.69141 -6.6217,-6.98961 -12.6928,-13.61138 -18.211,-19.86523 0.9924,-0.63791 1.9474,-1.26907 2.9004,-1.89844 z m 18.0117,16.79687 c 6.6217,8.09323 13.7942,16.18607 21.5195,24.2793 7.7254,8.09319 15.7268,16.18609 24.0039,24.27929 -4.4144,4.9663 -9.2888,8.7374 -14.623,11.3125 -5.3342,2.5751 -10.9441,3.8633 -16.8301,3.8633 -10.1165,0 -18.2094,-2.8527 -24.2793,-8.5547 -5.886,-5.886 -8.8281,-13.7025 -8.8281,-23.45117 0,-5.70205 1.5625,-11.12711 4.6894,-16.27735 3.127,-5.15023 7.9099,-10.30093 14.3477,-15.45117 z"
       transform="scale(0.26458333)" />
    <path
       id="path917"
       style="font-weight:600;font-size:73px;font-family:'Red Hat Mono';fill:#000000;stroke-width:0"
       d="m 1219.4355,951.02344 -7.0117,20.11914 h -31.4531 v 22.34765 h 24.0039 L 1185.6602,1049.5 h 26.4863 l 19.3144,-56.00977 h 34.2129 L 1246.3594,1049.5 h 26.4863 l 19.3145,-56.00977 h 38.3515 v -22.34765 h -30.9023 l 7.0117,-20.11914 h -26.4863 l -7.0118,20.11914 h -33.9375 l 6.8594,-20.11914 z"
       transform="scale(0.26458333)" />
    <path
       id="path927"
       style="font-weight:600;font-size:73px;font-family:'Red Hat Mono';fill:#000000;stroke-width:0"
       d="m 1679.9082,792.2832 c -0.3364,0.35446 -0.6729,0.70775 -1.0039,1.07032 -3.8627,4.04661 -6.8982,9.1039 -9.1055,15.17382 -2.2072,5.88599 -2.9428,13.24329 -2.207,22.07227 h 25.6602 c -0.5519,-5.88598 0.2751,-10.94328 2.4824,-15.17383 2.3912,-4.23055 5.7011,-8.00163 9.9316,-11.3125 4.2306,-3.4948 8.7372,-6.89812 13.5195,-10.20898 0.7951,-0.53002 1.5805,-1.07223 2.3614,-1.6211 z m 0.9277,59.5625 c -6.4378,0 -11.7733,2.20661 -16.0039,6.6211 -4.2305,4.23055 -6.3457,9.4727 -6.3457,15.72656 0,6.06992 2.1152,11.31207 6.3457,15.72656 4.2306,4.23055 9.5661,6.3457 16.0039,6.3457 6.4378,10e-6 11.7714,-2.11515 16.002,-6.3457 4.2305,-4.41449 6.3457,-9.65664 6.3457,-15.72656 0,-6.25386 -2.1152,-11.49601 -6.3457,-15.72656 -4.2306,-4.41449 -9.5642,-6.6211 -16.002,-6.6211 z"
       transform="scale(0.26458333)" />
    <path
       id="path935"
       style="font-weight:600;font-size:73px;font-family:'Red Hat Mono';fill:#000000;stroke-width:0"
       d="m 992.06641,792.2832 c -5.4e-4,0.08 -0.004,0.16272 -0.004,0.24219 v 4.68945 4.69141 c 0,1.4715 0.0915,3.03402 0.27539,4.68945 h -18.76172 v 17.93555 h 20.69336 c 2.75906,15.63465 7.54006,28.87819 14.34566,39.73047 6.8057,10.66835 14.992,18.76119 24.5567,24.2793 9.7486,5.51811 20.1415,8.27734 31.1777,8.27734 14.531,0 27.2219,-3.86254 38.0742,-11.58789 10.8523,-7.72536 19.3129,-18.94715 25.3828,-33.66211 l -28.4179,-11.58789 c -3.8627,9.38079 -8.7371,16.46373 -14.6231,21.24609 -5.886,4.78236 -12.5077,7.17188 -19.8652,7.17188 -9.0129,0 -16.9209,-3.67768 -23.7266,-11.03516 -6.8056,-7.35748 -11.68,-18.30101 -14.623,-32.83203 h 40.2812 l 6.6211,-17.93555 h -48.834 c -0.1839,-1.65543 -0.2773,-3.21795 -0.2773,-4.68945 v -4.69141 -4.68945 c 0,-0.0795 0,-0.16218 0,-0.24219 z"
       transform="scale(0.26458333)" />
    <path
       id="path936"
       style="font-weight:600;font-size:73px;font-family:'Red Hat Mono';fill:#000000;stroke-width:0"
       d="m 773.26758,792.2832 c 5.51705,8.81875 13.14603,15.80124 22.88672,20.94727 9.74866,4.9663 20.9685,7.44922 33.66015,7.44922 10.11654,0 19.86531,-2.48292 29.2461,-7.44922 9.37332,-4.96235 17.36962,-11.94474 23.98828,-20.94727 h -25.89258 c -7.19685,3.11226 -14.74816,4.66797 -22.65234,4.66797 -7.89031,0 -14.77174,-1.55603 -20.64844,-4.66797 z m 109.79687,0 c -0.1858,16.36106 -2.57743,30.3331 -7.17383,41.91602 -4.41448,11.40409 -10.9448,20.14101 -19.58984,26.21094 -8.4611,6.06992 -18.66909,9.10351 -30.625,9.10351 -7.17354,0 -13.79531,-0.91844 -19.86523,-2.75781 -6.06992,-2.02331 -11.86471,-5.05886 -17.38282,-9.10547 l -16.55468,22.34766 c 6.43779,5.15023 14.25627,9.19763 23.45312,12.14062 9.19685,2.94299 18.4864,4.41406 27.86719,4.41406 17.84189,0 33.47494,-4.32175 46.90234,-12.96679 13.61134,-8.82898 24.18905,-21.06067 31.73047,-36.69532 7.50531,-15.55977 11.2707,-33.76443 11.30664,-54.60742 z"
       transform="scale(0.26458333)" />
    <path
       id="path940"
       style="font-weight:600;font-size:73px;font-family:'Red Hat Mono';fill:#000000;stroke-width:0"
       d="m 594.14648,792.2832 c 0.95242,0.37412 1.9183,0.73512 2.90625,1.07032 -8.09322,2.0233 -15.26762,5.42662 -21.52148,10.20898 -6.25386,4.59843 -11.12824,10.11494 -14.62305,16.55273 -3.4948,6.25386 -5.24218,13.06049 -5.24218,20.41797 0,10.85229 3.03554,20.60106 9.10546,29.2461 6.25386,8.4611 14.71447,15.08287 25.38282,19.86523 10.85228,4.78236 23.26883,7.17383 37.24804,7.17383 13.97922,0 26.39381,-2.39147 37.2461,-7.17383 10.85228,-4.78236 19.31289,-11.40413 25.38281,-19.86523 6.06992,-8.64504 9.10547,-18.39381 9.10547,-29.2461 0,-11.03622 -3.86254,-20.87644 -11.58789,-29.52148 -7.72536,-8.64504 -17.65703,-14.53128 -29.79688,-17.6582 0.98796,-0.3352 1.95188,-0.6962 2.9043,-1.07032 z m 33.25586,13.20899 c 8.09323,0 15.17422,1.47302 21.24414,4.41601 6.25386,2.75906 11.12825,6.71305 14.62305,11.86328 3.67874,4.9663 5.51758,10.66768 5.51758,17.10547 0,6.06992 -1.83884,11.67985 -5.51758,16.83008 -3.4948,5.15024 -8.36919,9.19763 -14.62305,12.14063 -6.06992,2.75905 -13.15091,4.13867 -21.24414,4.13867 -7.90929,0 -14.99223,-1.37962 -21.24609,-4.13867 -6.25386,-2.943 -11.2197,-6.89699 -14.89844,-11.86328 -3.4948,-5.15024 -5.24219,-10.94502 -5.24219,-17.38282 0,-6.43779 1.74739,-12.13917 5.24219,-17.10547 3.67874,-4.9663 8.64458,-8.82883 14.89844,-11.58789 6.25386,-2.94299 13.3368,-4.41601 21.24609,-4.41601 z"
       transform="scale(0.26458333)" />
    <path
       id="path941"
       style="font-weight:600;font-size:73px;font-family:'Red Hat Mono';fill:#000000;stroke-width:0"
       d="m 418.01953,792.2832 -53.31445,98.47657 h 35.5918 l 50.43554,-98.47657 z"
       transform="scale(0.26458333)" />
    <path
       id="path942"
       style="font-weight:600;font-size:73px;font-family:'Red Hat Mono';fill:#000000;stroke-width:0"
       d="m 130.31641,792.2832 c -0.19491,3.23312 -0.30469,6.52747 -0.30469,9.89844 0,18.76158 3.40331,35.22357 10.20898,49.38672 6.80567,14.16315 16.18668,25.20008 28.14258,33.10937 11.95591,7.9093 25.84353,11.86329 41.66211,11.86329 13.05953,0 24.73859,-2.75924 35.03906,-8.27735 10.30048,-5.51811 18.39332,-13.05832 24.2793,-22.62305 5.88598,-9.74866 8.83008,-20.69414 8.83008,-32.83398 0,-11.58803 -2.75924,-21.79602 -8.27735,-30.625 -2.22229,-3.62975 -4.79467,-6.925 -7.70312,-9.89844 h -93.7207 c -3.00469,2.90126 -5.80232,6.10539 -8.38672,9.62305 0.0372,-3.31075 0.16476,-6.51542 0.375,-9.62305 z m 78.32812,4.93164 c 7.90929,0 14.80738,1.56448 20.69336,4.69141 5.88598,3.12693 10.48406,7.44869 13.79492,12.9668 3.49481,5.33417 5.24219,11.49672 5.24219,18.48633 0,7.17354 -1.74738,13.61045 -5.24219,19.3125 -3.4948,5.51811 -8.18433,9.93327 -14.07031,13.24414 -5.88598,3.12692 -12.59921,4.6914 -20.14062,4.6914 -8.09323,0 -15.45249,-2.0237 -22.07422,-6.07031 -6.62174,-4.23055 -12.13825,-10.11679 -16.55274,-17.6582 -4.23055,-7.54142 -7.17464,-16.3698 -8.83008,-26.48633 6.06993,-7.17355 13.15092,-12.78347 21.24414,-16.83008 8.27717,-4.23055 16.92264,-6.34766 25.93555,-6.34766 z"
       transform="scale(0.26458333)" />
    <path
       id="path946"
       style="font-weight:600;font-size:73px;font-family:'Red Hat Mono';fill:#000000;stroke-width:0"
       d="m 1624.3691,633.54297 -0.2304,5.2207 20.9687,6.34571 c 6.6218,-3.49481 13.0587,-6.07113 19.3125,-7.72657 6.2539,-1.65543 12.6013,-2.48242 19.0391,-2.48242 12.3238,0 22.3469,3.40332 30.0722,10.20899 7.9093,6.62173 11.8653,15.35865 11.8653,26.21093 0,7.35748 -1.7474,13.97925 -5.2422,19.86524 -3.3109,5.70204 -8.0938,10.11526 -14.3477,13.24218 -6.0699,3.12693 -13.2443,4.69141 -21.5214,4.69141 -9.5648,0 -18.3931,-1.65593 -26.4864,-4.9668 -7.9093,-3.31086 -16.0021,-8.64447 -24.2793,-16.00195 l -18.209,20.69336 c 19.1295,17.47402 41.7521,26.21094 67.8711,26.21094 14.5311,0 27.2239,-2.75924 38.0762,-8.27735 11.0362,-5.51811 19.5883,-13.15173 25.6582,-22.90039 6.0699,-9.74866 9.1055,-21.15336 9.1055,-34.21289 0,-11.58803 -2.6678,-21.70457 -8.002,-30.34961 -1.2282,-2.03289 -2.5729,-3.95313 -4.0254,-5.77148 z"
       transform="scale(0.26458333)" />
    <path
       id="path947"
       style="font-weight:600;font-size:73px;font-family:'Red Hat Mono';fill:#000000;stroke-width:0"
       d="m 1417.6328,633.54297 -21.1348,26.15039 V 684.25 h 101.2579 v 47.73047 H 1527 V 684.25 h 24.5566 V 658.31445 H 1527 v -24.77148 h -29.2441 v 24.77148 h -68.9766 l 19.8496,-24.77148 z"
       transform="scale(0.26458333)" />
    <path
       id="path948"
       style="font-weight:600;font-size:73px;font-family:'Red Hat Mono';fill:#000000;stroke-width:0"
       d="m 1245.5215,633.54297 v 16.79687 h 23.7265 c 6.8057,0 12.7834,1.28817 17.9336,3.86328 5.1503,2.39119 9.1977,5.79255 12.1407,10.20704 2.943,4.41448 4.414,9.47373 4.414,15.17578 0,6.43779 -1.7474,12.04771 -5.2422,16.83008 -3.4948,4.78236 -8.4606,8.55344 -14.8984,11.3125 -6.2539,2.57511 -13.6112,3.86132 -22.0723,3.86132 -10.6683,0 -19.8664,-1.56252 -27.5918,-4.68945 -7.7253,-3.31087 -15.4504,-9.01224 -23.1757,-17.10547 l -20.1407,19.3125 c 8.6451,9.19685 19.1294,16.37125 31.4532,21.52149 12.3237,4.9663 25.6587,7.44921 40.0058,7.44921 13.9792,10e-6 26.3043,-2.39146 36.9727,-7.17382 10.8523,-4.9663 19.4043,-11.67953 25.6582,-20.14063 6.2538,-8.64504 9.3808,-18.39381 9.3808,-29.24609 0,-10.85229 -3.954,-20.23329 -11.8632,-28.14258 -7.7254,-8.09323 -18.0268,-13.52024 -30.9024,-16.2793 3.3284,-0.95902 6.4563,-2.14387 9.3867,-3.55273 z"
       transform="scale(0.26458333)" />
    <path
       id="path952"
       style="font-weight:600;font-size:73px;font-family:'Red Hat Mono';fill:#000000;stroke-width:0"
       d="m 1063.7598,633.54297 -76.24808,79.70312 v 21.79688 H 1118.291 v -25.93555 l -92.1523,0.27539 61.25,-63.45703 c 4.2076,-4.42913 7.8376,-8.5536 10.9121,-12.38281 z"
       transform="scale(0.26458333)" />
    <path
       id="path953"
       style="font-weight:600;font-size:73px;font-family:'Red Hat Mono';fill:#000000;stroke-width:0"
       d="m 822.50391,633.54297 v 72.54101 h -48.83399 v 25.93555 h 130.7793 v -25.93555 h -51.8711 v -72.54101 z"
       transform="scale(0.26458333)" />
    <path
       id="path954"
       style="font-weight:600;font-size:73px;font-family:'Red Hat Mono';fill:#000000;stroke-width:0"
       d="m 554.35352,633.54297 c -0.039,1.62701 -0.0664,3.26758 -0.0664,4.93359 0,20.60095 3.03359,38.34915 9.10351,53.24805 6.25386,14.8989 14.89933,26.39505 25.93555,34.48828 11.03622,7.90929 23.72909,11.86523 38.07617,11.86523 14.53103,10e-6 27.22194,-3.95594 38.07422,-11.86523 11.03622,-8.09323 19.59024,-19.58938 25.66016,-34.48828 6.25386,-14.8989 9.37891,-32.6471 9.3789,-53.24805 0,-1.666 -0.0262,-3.30659 -0.0664,-4.93359 h -30.09375 c 0.0526,1.62376 0.0879,3.26377 0.0879,4.93359 0,14.8989 -1.84079,27.77272 -5.51953,38.625 -3.49481,10.85229 -8.46064,19.31485 -14.89844,25.38477 -6.43779,5.88598 -13.97801,8.82812 -22.62305,8.82812 -8.4611,0 -15.91181,-2.85068 -22.34961,-8.55273 l 36.54297,-69.21875 h -23.17968 l -26.05469,49.35351 c -2.39118,-5.70204 -4.32147,-12.32381 -5.79297,-19.86523 -1.4715,-7.54142 -2.20898,-15.72571 -2.20898,-24.55469 0,-1.67039 0.0253,-3.31298 0.0703,-4.93359 z"
       transform="scale(0.26458333)" />
    <path
       id="path958"
       style="font-weight:600;font-size:73px;font-family:'Red Hat Mono';fill:#000000;stroke-width:0"
       d="m 397.13477,633.54297 -51.17969,76.4043 v 22.07226 H 485.5625 v -28.14258 l -97.66992,0.55078 47.43945,-70.88476 z"
       transform="scale(0.26458333)" />
    <path
       id="path959"
       style="font-weight:600;font-size:73px;font-family:'Red Hat Mono';fill:#000000;stroke-width:0"
       d="m 176.79688,633.54297 10.74414,19.29101 v 79.18555 h 33.10742 v -78.91015 l 10.87109,-19.56641 z"
       transform="scale(0.26458333)" />
    <path
       id="path960"
       style="font-weight:600;font-size:73px;font-family:'Red Hat Mono';fill:#000000;stroke-width:0"
       d="m 1666.9805,474.80273 -60.4961,98.47657 h 35.3164 l 43.3164,-72.01172 43.041,72.01172 h 36.6953 l -60.4336,-98.47657 z"
       transform="scale(0.26458333)" />
    <path
       id="path964"
       style="font-weight:600;font-size:73px;font-family:'Red Hat Mono';fill:#000000;stroke-width:0"
       d="m 1407.0273,474.80273 11.5313,98.4375 h 29.7988 l 18.7305,-98.4375 h -23.3828 l -6.3848,32.77344 -3.1211,-32.77344 z m 74.3907,0 18.5332,98.4375 h 29.7968 l 11.3907,-98.4375 h -26.2813 l -3.0429,31.66993 -6.2227,-31.66993 z"
       transform="scale(0.26458333)" />
    <path
       id="path965"
       style="font-weight:600;font-size:73px;font-family:'Red Hat Mono';fill:#000000;stroke-width:0"
       d="m 1211.6875,474.80273 30.8086,98.47657 h 39.4551 l 30.9941,-98.47657 h -31.1816 l -19.125,63.71094 -18.8692,-63.71094 z"
       transform="scale(0.26458333)" />
    <path
       id="path966"
       style="font-weight:600;font-size:73px;font-family:'Red Hat Mono';fill:#000000;stroke-width:0"
       d="m 982.00781,474.80273 v 29.77539 c 0,14.53103 2.85069,27.22194 8.55274,38.07422 5.70204,10.66835 13.61195,18.94605 23.72855,24.83204 10.3004,5.88598 22.4407,8.83007 36.4199,8.83007 13.9792,0 26.026,-2.94409 36.1426,-8.83007 10.3004,-5.88599 18.3018,-14.16369 24.0039,-24.83204 5.702,-10.85228 8.5527,-23.54319 8.5527,-38.07422 v -29.77539 h -33.1074 v 29.77539 c 0,12.69166 -3.2185,22.89965 -9.6563,30.625 -6.4378,7.54142 -15.0832,11.3125 -25.9355,11.3125 -10.8523,0 -19.4978,-3.77108 -25.9356,-11.3125 -6.4378,-7.72535 -9.6562,-17.93334 -9.6562,-30.625 v -29.77539 z"
       transform="scale(0.26458333)" />
    <path
       id="path970"
       style="font-weight:600;font-size:73px;font-family:'Red Hat Mono';fill:#000000;stroke-width:0"
       d="m 822.5,474.80273 v 98.47657 h 33.10938 v -98.47657 z"
       transform="scale(0.26458333)" />
    <path
       id="path971"
       style="font-weight:600;font-size:73px;font-family:'Red Hat Mono';fill:#000000;stroke-width:0"
       d="m 577.69531,474.80273 c 1.03191,0.76427 2.10023,1.49022 3.20703,2.17383 6.4378,3.67874 13.51879,6.62088 21.24414,8.82813 7.72536,2.20724 15.35898,4.13949 22.9004,5.79492 7.72535,1.65543 14.71489,3.67913 20.96874,6.07031 6.4378,2.20725 11.5885,5.24084 15.45118,9.10352 4.04661,3.86267 6.07031,9.19823 6.07031,16.0039 0,5.51811 -1.56448,10.48395 -4.69141,14.89844 -3.12693,4.41449 -7.54209,7.90926 -13.24414,10.48438 -5.51811,2.39118 -11.95502,3.58593 -19.3125,3.58593 -9.38078,0 -18.48547,-1.93029 -27.31445,-5.79297 -8.82898,-3.86267 -19.13038,-10.48444 -30.90234,-19.86523 l -17.38086,24.83203 c 11.9559,9.56473 24.00273,16.73717 36.14257,21.51953 12.13985,4.59843 25.01562,6.89844 38.62696,6.89844 14.16315,0 26.48824,-2.48292 36.97265,-7.44922 10.66835,-5.15023 18.9441,-12.13977 24.83008,-20.96875 5.88599,-9.01291 8.83008,-19.22286 8.83008,-30.62695 0,-10.48441 -2.0237,-19.03647 -6.07031,-25.6582 -3.86268,-6.62174 -9.01338,-11.86389 -15.45117,-15.72657 -2.489,-1.4934 -5.07636,-2.85952 -7.75782,-4.10547 z"
       transform="scale(0.26458333)" />
    <path
       id="path972"
       style="font-weight:600;font-size:73px;font-family:'Red Hat Mono';fill:#000000;stroke-width:0"
       d="m 348.00391,474.80273 v 98.47657 h 33.10937 v -77.25391 h 28.41797 l 38.34961,77.25391 h 35.5918 l -42.21289,-81.94532 c 9.85351,-3.65533 17.91794,-9.1683 24.20117,-16.53125 z"
       transform="scale(0.26458333)" />
    <path
       id="path976"
       style="font-weight:600;font-size:73px;font-family:'Red Hat Mono';fill:#000000;stroke-width:0"
       d="m 129.11719,474.80273 c -0.0415,1.62635 -0.0684,3.26684 -0.0684,4.9336 0,21.33669 3.40136,39.45266 10.20703,54.35156 6.80567,14.71496 15.91231,25.93676 27.31641,33.66211 11.40409,7.72535 23.91014,11.58789 37.52148,11.58789 12.32378,0 23.54557,-3.127 33.66211,-9.38086 l 11.31055,13.79492 27.59179,-8.27734 -19.03711,-23.17578 c 6.62174,-8.4611 11.86389,-18.7625 15.72657,-30.90235 3.86267,-12.13984 5.79296,-26.02551 5.79296,-41.66015 0,-1.66677 -0.0296,-3.30724 -0.0723,-4.9336 h -33.38281 c 0.0443,1.61617 0.0703,3.25758 0.0703,4.9336 0,9.56472 -0.91844,18.20824 -2.75781,25.93359 -1.65544,7.54142 -3.95545,14.07174 -6.89844,19.58985 l -16.2793,-19.86524 -27.58984,8.55274 25.93555,31.73046 c -4.23056,2.57512 -8.92203,3.86133 -14.07227,3.86133 -7.72535,0 -14.80635,-2.57437 -21.24414,-7.72461 -6.25386,-5.33417 -11.2197,-13.15265 -14.89844,-23.45312 -3.67874,-10.48441 -5.51758,-23.35823 -5.51758,-38.625 0,-1.67602 0.026,-3.31743 0.0703,-4.9336 z"
       transform="scale(0.26458333)" />
    <path
       id="path977"
       style="font-weight:600;font-size:73px;font-family:'Red Hat Mono';fill:#000000;stroke-width:0"
       d="m 1619.4668,316.0625 v 98.47656 h 33.1094 v -73.66797 h 34.7636 c 13.0596,0 24.3709,-2.48292 33.9356,-7.44921 8.3,-4.38489 14.9957,-10.17454 20.0957,-17.35938 z"
       transform="scale(0.26458333)" />
    <path
       id="path978"
       style="font-weight:600;font-size:73px;font-family:'Red Hat Mono';fill:#000000;stroke-width:0"
       d="m 1399.0391,316.0625 c -0.042,1.62635 -0.07,3.26684 -0.07,4.93359 0,21.3367 3.4033,39.45462 10.2089,54.35352 6.8057,14.71496 15.9104,25.9348 27.3145,33.66016 11.4041,7.72535 23.9121,11.58789 37.5234,11.58789 13.6114,0 26.0279,-3.86254 37.2481,-11.58789 11.4041,-7.72536 20.5088,-18.9452 27.3144,-33.66016 6.9896,-14.8989 10.4844,-33.01682 10.4844,-54.35352 0,-1.66676 -0.03,-3.30723 -0.072,-4.93359 h -33.3828 c 0.044,1.61616 0.07,3.25758 0.07,4.93359 0,15.26678 -1.8388,28.14059 -5.5175,38.625 -3.6788,10.30048 -8.738,18.11896 -15.1758,23.45313 -6.2539,5.15023 -13.2434,7.72461 -20.9688,7.72461 -7.7253,0 -14.8063,-2.57438 -21.2441,-7.72461 -6.2539,-5.33417 -11.2197,-13.15265 -14.8985,-23.45313 -3.6787,-10.48441 -5.5195,-23.35822 -5.5195,-38.625 0,-1.67601 0.026,-3.31743 0.07,-4.93359 z"
       transform="scale(0.26458333)" />
    <path
       id="path982"
       style="font-weight:600;font-size:73px;font-family:'Red Hat Mono';fill:#000000;stroke-width:0"
       d="m 1196.9727,316.0625 v 98.47656 h 28.1425 l -0.3906,-98.47656 z m 48.9687,0 51.1856,98.47656 h 30.625 V 316.0625 h -27.7559 l 0.166,40.53516 -20.9297,-40.53516 z"
       transform="scale(0.26458333)" />
    <path
       id="path983"
       style="font-weight:600;font-size:73px;font-family:'Red Hat Mono';fill:#000000;stroke-width:0"
       d="m 981.73242,316.0625 v 98.47656 h 28.41798 V 316.0625 Z m 49.43948,0 19.2617,45.77734 19.2598,-45.77734 z m 59.5429,0 v 98.47656 h 28.9707 V 316.0625 Z"
       transform="scale(0.26458333)" />
    <path
       id="path984"
       style="font-weight:600;font-size:73px;font-family:'Red Hat Mono';fill:#000000;stroke-width:0"
       d="m 775.44531,316.0625 v 98.47656 H 902.63867 V 386.39648 H 808.55469 V 316.0625 Z"
       transform="scale(0.26458333)" />
    <path
       id="path988"
       style="font-weight:600;font-size:73px;font-family:'Red Hat Mono';fill:#000000;stroke-width:0"
       d="m 555.52539,316.0625 v 98.47656 h 33.10938 v -88.29101 l 68.97656,88.29101 h 41.66211 L 618.80078,316.0625 Z"
       transform="scale(0.26458333)" />
    <path
       id="path989"
       style="font-weight:600;font-size:73px;font-family:'Red Hat Mono';fill:#000000;stroke-width:0"
       d="m 453.14648,316.0625 v 27.56836 c 0,13.4274 -3.31186,24.18802 -9.93359,32.28125 -6.43779,7.90929 -15.17472,11.86328 -26.21094,11.86328 -19.68126,0 -33.47547,-11.77247 -41.38476,-35.31641 l -30.34961,11.58985 c 5.51811,17.10614 14.53134,30.34773 27.03906,39.72851 12.69165,9.19685 27.77403,13.79688 45.24805,13.79688 14.16315,0 26.39484,-3.03555 36.69531,-9.10547 10.30047,-6.06992 18.21041,-14.62394 23.72852,-25.66016 5.51811,-11.03622 8.27734,-24.00344 8.27734,-38.90234 V 316.0625 Z"
       transform="scale(0.26458333)" />
    <path
       id="path990"
       style="font-weight:600;font-size:73px;font-family:'Red Hat Mono';fill:#000000;stroke-width:0"
       d="m 187.54102,316.0625 v 70.33398 h -48.56055 v 28.14258 H 269.20898 V 386.39648 H 220.64844 V 316.0625 Z"
       transform="scale(0.26458333)" />
    <path
       id="path994"
       style="font-weight:600;font-size:73px;font-family:'Red Hat Mono';fill:#000000;stroke-width:0"
       d="m 1619.4512,157.32227 v 98.47656 h 33.1093 v -82.77149 h 66.2168 v 82.77149 h 33.1094 v -98.47656 z"
       transform="scale(0.26458333)" />
    <path
       id="path995"
       style="font-weight:600;font-size:73px;font-family:'Red Hat Mono';fill:#000000;stroke-width:0"
       d="m 1400.0137,157.32227 c -0.042,1.62634 -0.068,3.26683 -0.068,4.93359 0,21.33669 3.4014,39.45462 10.207,54.35352 6.9897,14.71496 16.1877,25.9348 27.5918,33.66015 11.5881,7.72536 24.3704,11.58789 38.3497,11.58789 14.347,0 26.9465,-3.86253 37.7988,-11.58789 10.8523,-7.72535 19.2214,-18.85374 25.1074,-33.38476 6.0699,-14.53103 9.1055,-32.09828 9.1055,-52.69922 v -6.86328 h -69.5274 v 24.24609 h 38.0742 c -0.5518,9.9326 -2.6669,18.76097 -6.3457,26.48633 -3.4948,7.54141 -8.0928,13.42765 -13.7949,17.6582 -5.702,4.23055 -12.2323,6.3457 -19.5898,6.3457 -8.2772,0 -15.7259,-2.57437 -22.3477,-7.72461 -6.6217,-5.15023 -11.8639,-12.8753 -15.7265,-23.17578 -3.6788,-10.48441 -5.5176,-23.45163 -5.5176,-38.90234 0,-1.67665 0.025,-3.3176 0.068,-4.93359 z"
       transform="scale(0.26458333)" />
    <path
       id="path996"
       style="font-weight:600;font-size:73px;font-family:'Red Hat Mono';fill:#000000;stroke-width:0"
       d="m 1198.7754,157.32227 v 98.47656 h 33.1094 v -82.22071 h 62.6289 v -16.25585 z"
       transform="scale(0.26458333)" />
    <path
       id="path1000"
       style="font-weight:600;font-size:73px;font-family:'Red Hat Mono';fill:#000000;stroke-width:0"
       d="m 986.99023,157.32227 v 98.47656 H 1114.457 v -28.14258 h -94.3593 v -55.45703 h 60.4238 v -14.87695 z"
       transform="scale(0.26458333)" />
    <path
       id="path1001"
       style="font-weight:600;font-size:73px;font-family:'Red Hat Mono';fill:#000000;stroke-width:0"
       d="m 770.76953,157.32227 v 98.47656 h 56.83789 c 15.45071,0 29.15347,-3.95594 41.10938,-11.86524 11.9559,-7.90929 21.33691,-19.12913 28.14258,-33.66015 6.9896,-14.53103 10.48437,-31.5437 10.48437,-51.04102 0,-0.64195 -0.014,-1.27388 -0.0215,-1.91015 h -33.38086 c 0.008,0.63398 0.0176,1.26769 0.0176,1.91015 0,14.34709 -2.11515,26.57878 -6.3457,36.69531 -4.23055,10.11654 -10.02533,17.93307 -17.38281,23.45118 -7.35748,5.51811 -15.90954,8.27734 -25.6582,8.27734 h -20.69336 v -70.33398 z"
       transform="scale(0.26458333)" />
    <path
       id="path1002"
       style="font-weight:600;font-size:73px;font-family:'Red Hat Mono';fill:#000000;stroke-width:0"
       d="m 554.48047,157.32227 c -0.0415,1.62634 -0.0684,3.26683 -0.0684,4.93359 0,21.33669 3.40136,39.45462 10.20703,54.35352 6.80567,14.71496 15.91036,25.9348 27.31445,33.66015 11.4041,7.72536 23.9121,11.58789 37.52344,11.58789 11.4041,0 21.79695,-2.39146 31.17774,-7.17383 9.56472,-4.9663 17.75097,-12.14069 24.55664,-21.52148 6.9896,-9.38079 12.0469,-20.60063 15.17382,-33.66016 l -29.79687,-8.55273 c -2.75906,13.4274 -7.90976,23.63539 -15.45117,30.625 -7.35748,6.98961 -15.72664,10.48437 -25.10742,10.48437 -7.9093,0 -15.08369,-2.57437 -21.52149,-7.72461 -6.25386,-5.15023 -11.31115,-12.8753 -15.17383,-23.17578 -3.67874,-10.48441 -5.51757,-23.45163 -5.51757,-38.90234 0,-1.67665 0.025,-3.3176 0.0684,-4.93359 z"
       transform="scale(0.26458333)" />
    <path
       id="path1006"
       style="font-weight:600;font-size:73px;font-family:'Red Hat Mono';fill:#000000;stroke-width:0"
       d="m 350.34375,157.32227 v 98.47656 h 66.76953 c 12.87559,0 24.00203,-2.20856 33.38281,-6.62305 9.56473,-4.59842 17.01544,-10.94388 22.34961,-19.03711 5.51811,-8.09323 8.27735,-17.47423 8.27735,-28.14258 0,-11.03622 -3.49477,-20.50867 -10.48438,-28.41797 -6.12416,-7.28279 -14.26647,-12.69665 -24.41211,-16.25585 z m 32.55664,12.11718 H 413.25 c 10.66835,0 19.12895,2.66778 25.38281,8.00196 6.25386,5.33417 9.38086,12.60002 9.38086,21.79687 0,9.01291 -3.21845,16.27877 -9.65625,21.79688 -6.25386,5.33417 -14.62301,8 -25.10742,8 h -30.34961 z"
       transform="scale(0.26458333)" />
    <path
       id="path1007"
       style="font-weight:600;font-size:73px;font-family:'Red Hat Mono';fill:#000000;stroke-width:0"
       d="m 154.75586,157.32227 -30.94922,98.47656 h 32.55664 l 13.79492,-46.62891 h 66.49219 l 14.07227,46.62891 h 33.66015 L 253.43359,157.32227 H 221.5625 l 7.91602,26.18945 h -51.8711 l 7.91602,-26.18945 z"
       transform="scale(0.26458333)" />
    <path
       id="path57952-4"
       style="color:#000000;font-size:65.8474px;-inkscape-font-specification:'Red Hat Mono Bold';display:inline;fill:#000000;stroke:none;stroke-width:0;stroke-miterlimit:4;stroke-dasharray:none"
       d="m 258.71569,251.66545 c 0.0261,3.27303 0.49188,6.34619 1.40353,9.21134 l 0.002,0.004 v 0.002 c 0.98253,2.94759 2.3706,5.5495 4.16563,7.7933 1.79607,2.24507 3.91787,4.00545 6.35155,5.26738 2.44328,1.26688 5.13945,1.90016 8.06463,1.90016 2.19127,0 4.36337,-0.29094 6.50813,-0.87075 6.1e-4,-1.3e-4 6.1e-4,1.6e-4 0.002,0 2.20317,-0.53975 4.23294,-1.42055 6.08025,-2.63705 l 0.37879,-0.2496 -2.24586,-4.24056 -0.45733,0.29506 c -1.44475,0.93483 -3.10785,1.66264 -4.99608,2.17766 -1.89627,0.51715 -3.65394,0.77152 -5.26945,0.77152 -3.06345,0 -5.67971,-0.88299 -7.91993,-2.65824 h -0.002 l -0.002,-0.002 c -2.25535,-1.74471 -4.02388,-4.08519 -5.31234,-7.04865 -1.21014,-2.92458 -1.83365,-6.1595 -1.86603,-9.71519 z m 7.9313,0 c -0.0191,0.33698 -0.03,0.67832 -0.03,1.02579 0,1.99972 0.41156,3.83897 1.23817,5.49217 v 0.002 l 0.002,0.002 c 0.82585,1.60581 1.96486,2.88869 3.40031,3.81476 1.44111,0.92977 3.08334,1.39629 4.88084,1.39629 2.10382,0 4.05927,-0.86358 5.84202,-2.39829 1.2001,1.36424 2.89713,2.13473 5.08754,2.13473 1.99227,0 3.80813,-0.63761 5.38107,-1.88669 1.57051,-1.24716 2.80554,-2.99436 3.70882,-5.20745 v -0.003 c 0.53492,-1.33731 0.90891,-2.79588 1.12654,-4.37235 h -4.87568 c -0.24086,1.67373 -0.6782,3.05274 -1.29759,4.13671 l -0.002,0.002 c -0.96428,1.71895 -1.96336,2.44534 -3.05252,2.44534 -0.43303,0 -0.61322,-0.0998 -0.71882,-0.24236 -0.10562,-0.14259 -0.18054,-0.44183 -0.10336,-0.96274 l -0.002,0.004 0.8444,-5.38314 h -6.34018 l -0.5147,3.34968 -0.0139,0.0393 c -0.0281,0.0843 -0.0408,0.16203 -0.0408,0.23823 v 0.56067 l -0.1757,0.15039 c -0.60885,0.51517 -1.27071,0.91694 -1.98075,1.20097 l -0.01,0.004 -0.008,0.004 c -0.66785,0.23847 -1.36388,0.35708 -2.07791,0.35708 -1.43916,0 -2.68632,-0.55682 -3.60547,-1.6211 l -0.004,-0.004 -0.004,-0.006 c -0.90938,-1.10083 -1.35395,-2.54876 -1.36426,-4.27313 z" />
    <path
       id="path923"
       style="font-weight:600;font-size:73px;font-family:'Red Hat Mono';fill:#000000;stroke-width:0"
       d="m 166.00025,259.76712 c -1.752,0 -3.21209,0.60803 -4.38009,1.82469 -1.168,1.16801 -1.75235,2.6039 -1.75235,4.30724 0,1.65466 0.58435,3.09004 1.75235,4.30671 1.168,1.168 2.62809,1.75233 4.38009,1.75233 1.752,0 3.21158,-0.58433 4.37958,-1.75233 1.168,-1.168 1.75235,-2.60338 1.75235,-4.30671 0,-1.70334 -0.58435,-3.13923 -1.75235,-4.30724 -1.168,-1.21666 -2.62758,-1.82469 -4.37958,-1.82469 z" />
    <path
       id="path67662-8"
       style="font-weight:bold;font-size:62.0568px;line-height:1.25;font-family:'Red Hat Mono';-inkscape-font-specification:'Red Hat Mono Bold';display:inline;fill:#000000;stroke-width:0.264583"
       d="m 218.06561,251.46915 -12.52016,28.31042 h 9.61853 l 12.48864,-28.31042 z" />
    <path
       id="path926"
       style="font-weight:600;font-size:73px;font-family:'Red Hat Mono';fill:#000000;stroke-width:0"
       d="m 107.37174,261.62589 -4.37957,19.2722 h 6.13192 l 7.88376,-19.2722 z" />
    <path
       id="path930"
       style="font-weight:600;font-size:73px;font-family:'Red Hat Mono';fill:#000000;stroke-width:0"
       d="m 54,267.44211 c -1.752002,0 -3.212094,0.60854 -4.380095,1.82522 -1.168,1.168 -1.75183,2.60339 -1.75183,4.30669 0,1.65468 0.58383,3.09058 1.75183,4.30723 1.168001,1.16801 2.628093,1.75183 4.380095,1.75183 1.751999,0 3.212095,-0.58382 4.380092,-1.75183 1.168001,-1.16797 1.751833,-2.60388 1.751833,-4.30723 0,-1.7033 -0.583832,-3.1387 -1.751833,-4.30669 C 57.212095,268.05065 55.751999,267.44211 54,267.44211 Z" />
    <path
       id="path78573"
       style="font-weight:600;font-size:69.7403px;line-height:1.25;font-family:'Red Hat Mono';-inkscape-font-specification:'Red Hat Mono Semi-Bold';fill:#000000;stroke-width:0.264583"
       d="m 326.46119,209.5 c 1.56929,0.61825 3.36047,1.1735 5.37694,1.66399 v 13.7387 c -1.72027,-0.27898 -3.51047,-0.81365 -5.37022,-1.60404 -1.81325,-0.79039 -3.7193,-1.88304 -5.71852,-3.27784 l -3.83593,5.78826 c 2.27817,1.6273 4.67288,2.92936 7.18354,3.90573 2.51066,0.92985 5.09098,1.53434 7.74113,1.81332 v 5.99755 h 4.53305 v -5.99755 c 2.97558,-0.23246 5.55593,-0.93004 7.74113,-2.09238 2.2317,-1.20885 3.95211,-2.76635 5.16093,-4.67259 1.20883,-1.95273 1.81333,-4.16126 1.81333,-6.62543 0,-3.44051 -1.16245,-6.16048 -3.48713,-8.1597 -0.18434,-0.16179 -0.38198,-0.32052 -0.5855,-0.47802 z m 9.90999,2.5704 c 2.60363,0.69739 4.43987,1.58059 5.50923,2.64996 1.11583,1.06934 1.67379,2.41795 1.67379,4.04521 0,1.67378 -0.67379,3.0684 -2.02208,4.18426 -1.30183,1.11585 -3.02223,1.81342 -5.16094,2.09237 z" />
    <path
       id="path929-5"
       style="font-weight:600;font-size:73px;font-family:'Red Hat Mono';fill:#000000;stroke-width:0"
       d="m 386.56347,209.62493 0.29765,11.45408 h 6.2048 l 0.32091,-11.45408 z m 3.43648,16.9292 c -1.70333,0 -3.11451,0.58383 -4.23383,1.75183 -1.11935,1.11933 -1.67897,2.50632 -1.67897,4.16099 0,1.606 0.55962,2.99298 1.67897,4.16098 1.11932,1.11934 2.5305,1.67897 4.23383,1.67897 1.70334,0 3.11452,-0.55963 4.23387,-1.67897 1.11932,-1.168 1.67896,-2.55498 1.67896,-4.16098 0,-1.65467 -0.55964,-3.04166 -1.67896,-4.16099 -1.11935,-1.168 -2.53053,-1.75183 -4.23387,-1.75183 z" />
  </g>
</svg>
