<?xml version="1.0" encoding="UTF-8" standalone="no"?>
<!-- Created with Inkscape (http://www.inkscape.org/) -->

<svg
   width="74mm"
   height="74mm"
   viewBox="0 0 74 74"
   version="1.1"
   id="svg3623"
   inkscape:version="1.1.2 (b8e25be833, 2022-02-05)"
   sodipodi:docname="encoder_pattern_48_1.6mm.svg"
   xmlns:inkscape="http://www.inkscape.org/namespaces/inkscape"
   xmlns:sodipodi="http://sodipodi.sourceforge.net/DTD/sodipodi-0.dtd"
   xmlns="http://www.w3.org/2000/svg"
   xmlns:svg="http://www.w3.org/2000/svg">
  <sodipodi:namedview
     id="namedview3625"
     pagecolor="#505050"
     bordercolor="#eeeeee"
     borderopacity="1"
     inkscape:pageshadow="0"
     inkscape:pageopacity="0"
     inkscape:pagecheckerboard="0"
     inkscape:document-units="mm"
     showgrid="false"
     inkscape:snap-object-midpoints="true"
     inkscape:zoom="4.2404842"
     inkscape:cx="166.29846"
     inkscape:cy="149.69741"
     inkscape:window-width="3440"
     inkscape:window-height="1369"
     inkscape:window-x="-8"
     inkscape:window-y="-8"
     inkscape:window-maximized="1"
     inkscape:current-layer="tPlace"
     fit-margin-top="0"
     fit-margin-left="0"
     fit-margin-right="0"
     fit-margin-bottom="0"
     inkscape:rotation="1" />
  <defs
     id="defs3620">
    <inkscape:path-effect
       effect="copy_rotate"
       starting_point="77.666387,54.869563"
       origin="59.711954,54.869563"
       id="path-effect4256"
       is_visible="true"
       lpeversion="1"
       method="normal"
       num_copies="48"
       starting_angle="0"
       rotation_angle="7.5"
       gap="-0.01"
       copies_to_360="true"
       mirror_copies="false"
       split_items="false" />
  </defs>
  <g
     inkscape:label="tPlace"
     inkscape:groupmode="layer"
     id="tPlace"
     transform="translate(36)">
    <g
       id="g1838"
       transform="rotate(-135,1.0000504,36.999935)" />
    <g
       id="g1834"
       transform="rotate(-45,1.0000509,36.999935)" />
    <g
       id="g1830"
       transform="rotate(180,1.0000505,36.999935)" />
    <g
       id="g1826" />
    <g
       id="g1822"
       transform="rotate(135,1.0000506,36.999935)" />
    <path
       id="path944"
       style="fill:#000000;stroke-width:5.66929;stroke-linecap:round;stroke-linejoin:round"
       d="M 139.8418 13.605469 C 128.55256 13.605469 117.61455 15.094257 107.20312 17.871094 L 108.57422 22.992188 C 118.55003 20.327121 129.02882 18.898438 139.8418 18.898438 C 139.84376 18.898438 139.8457 18.898437 139.84766 18.898438 L 139.84961 13.605469 C 139.847 13.605469 139.84441 13.605469 139.8418 13.605469 z M 172.56055 17.892578 L 171.18945 23.013672 C 181.50817 25.777923 191.28543 29.868071 200.32227 35.099609 L 202.98242 30.498047 C 193.5472 25.040137 183.33802 20.774577 172.56055 17.892578 z M 124.64258 24.416016 C 103.86865 27.1224 84.823553 35.30364 68.992188 47.460938 L 72.228516 51.681641 C 87.341412 40.070826 105.51757 32.253405 125.33398 29.666016 L 124.64258 24.416016 z M 76.712891 30.492188 C 67.143438 36.02659 58.364988 42.776798 50.597656 50.539062 L 54.361328 54.304688 C 61.801916 46.868994 70.207649 40.399653 79.371094 35.095703 L 76.712891 30.492188 z M 184.42969 32.273438 L 182.39648 37.177734 C 200.50506 44.69762 216.1961 56.869718 227.98242 72.201172 L 232.20312 68.962891 C 219.85705 52.89589 203.41409 40.14643 184.42969 32.273438 z M 180.66797 41.361328 L 178.63867 46.259766 C 211.41938 59.876543 235.52181 90.216782 240.27539 126.61719 L 245.51953 125.92578 C 240.52612 87.585942 215.18062 55.673815 180.66797 41.361328 z M 127.20898 43.908203 C 92.403361 48.440907 63.432592 71.447047 50.439453 102.77734 L 55.345703 104.80859 C 67.641045 75.211459 95.034484 53.450408 127.90039 49.158203 L 127.20898 43.908203 z M 229.14453 50.597656 L 225.38086 54.359375 C 232.81697 61.800207 239.28566 70.207244 244.58984 79.371094 L 249.19531 76.714844 C 243.66066 67.144485 236.90743 58.365619 229.14453 50.597656 z M 74.951172 55.279297 C 49.599622 74.757516 33.263672 105.37827 33.263672 139.8418 C 33.263672 144.54813 33.57159 149.18193 34.162109 153.72656 L 39.404297 153.03711 C 38.841631 148.71794 38.548828 144.31356 38.548828 139.8418 C 38.548828 107.12277 54.090202 78.016835 78.185547 59.494141 L 74.951172 55.279297 z M 139.8418 62.738281 C 100.65395 62.738281 68.33295 91.917135 63.394531 129.75 L 68.664062 130.44727 C 73.274962 95.249599 103.39482 68.03125 139.8418 68.03125 C 156.27989 68.03125 171.42593 73.580008 183.53516 82.886719 L 186.77344 78.667969 C 173.77583 68.684912 157.51181 62.738283 139.8418 62.738281 z M 30.498047 76.703125 C 25.040019 86.138551 20.774579 96.347267 17.892578 107.125 L 23.013672 108.49609 C 25.778075 98.176419 29.867482 88.398894 35.099609 79.361328 L 30.498047 76.703125 z M 216.62891 80.957031 L 212.4082 84.195312 C 224.25429 99.61541 231.30469 118.90783 231.30469 139.8418 C 231.30469 186.28098 196.63686 224.66923 151.78711 230.52734 L 152.47656 235.77734 C 199.96321 229.5932 236.59766 189.02303 236.59766 139.8418 C 236.59766 117.67673 229.15051 97.265212 216.62891 80.957031 z M 70.865234 86.919922 C 59.60795 101.57458 52.914062 119.91941 52.914062 139.8418 C 52.914059 187.87825 91.805347 226.77148 139.8418 226.77148 C 187.87825 226.77148 226.77149 187.87825 226.77148 139.8418 C 226.77148 128.06272 224.42795 116.83655 220.18945 106.5957 L 215.28516 108.62695 C 219.27322 118.2456 221.47852 128.78702 221.47852 139.8418 C 221.47852 184.9022 184.9022 221.47852 139.8418 221.47852 C 94.781392 221.47852 58.207031 184.9022 58.207031 139.8418 C 58.207031 121.15098 64.512451 103.93243 75.09375 90.166016 L 70.865234 86.919922 z M 32.261719 95.283203 C 26.574103 109.00791 23.429688 124.05457 23.429688 139.8418 C 23.429688 144.98229 23.766937 150.04384 24.412109 155.00781 L 29.660156 154.31641 C 29.043087 149.57859 28.722656 144.74705 28.722656 139.8418 C 28.722656 124.77962 31.729335 110.41839 37.166016 97.316406 L 32.261719 95.283203 z M 261.81445 107.20312 L 256.69336 108.57422 C 259.35843 118.55003 260.78711 129.02882 260.78711 139.8418 C 260.78711 139.84376 260.78711 139.8457 260.78711 139.84766 L 266.08008 139.84961 C 266.08008 139.847 266.08008 139.84441 266.08008 139.8418 C 266.08008 128.55257 264.59129 117.61455 261.81445 107.20312 z M 255.27344 124.67578 L 250.02148 125.36719 C 250.63872 130.10564 250.96289 134.93585 250.96289 139.8418 C 250.96289 154.90397 247.95621 169.26716 242.51953 182.36914 L 247.42188 184.40039 C 253.10911 170.67608 256.25586 155.62846 256.25586 139.8418 C 256.25586 134.70072 255.91876 129.6403 255.27344 124.67578 z M 13.605469 139.83789 C 13.605469 139.8392 13.605469 139.84049 13.605469 139.8418 C 13.605469 151.13127 15.094145 162.0708 17.871094 172.48242 L 22.992188 171.11133 C 20.326922 161.13517 18.898438 150.65519 18.898438 139.8418 C 18.898438 139.84114 18.898437 139.8405 18.898438 139.83984 L 13.605469 139.83789 z M 256.67188 171.18945 C 253.90739 181.50905 249.81616 191.28674 244.58398 200.32422 L 249.1875 202.98438 C 254.6455 193.54928 258.91083 183.33986 261.79297 172.5625 L 256.67188 171.18945 z M 35.095703 200.31641 L 30.492188 202.97266 C 36.026816 212.5425 42.778352 221.31837 50.541016 229.08594 L 54.304688 225.32617 C 46.868973 217.88573 40.399731 209.47969 35.095703 200.31641 z M 51.701172 207.48242 L 47.482422 210.7207 C 59.826878 226.78569 76.26674 239.53492 95.248047 247.4082 L 97.28125 242.50391 C 79.175434 234.98349 63.485888 222.81237 51.701172 207.48242 z M 201.47461 220.20703 C 184.39641 233.3276 163.02693 241.13672 139.8418 241.13672 C 126.11304 241.13672 113.02284 238.39511 101.08008 233.43945 L 99.050781 238.33789 C 111.61502 243.54325 125.38881 246.42188 139.8418 246.42188 C 164.25755 246.42188 186.74436 238.21989 204.70898 224.42578 L 201.47461 220.20703 z M 225.32617 225.37891 C 217.88447 232.81605 209.47765 239.28713 200.3125 244.5918 L 202.97266 249.19336 C 212.54251 243.65873 221.31837 236.90525 229.08594 229.14258 L 225.32617 225.37891 z M 207.45508 228.00391 C 192.3419 239.61476 174.16637 247.43044 154.34961 250.01758 L 155.04102 255.26953 C 175.81565 252.56336 194.86154 244.38229 210.69336 232.22461 L 207.45508 228.00391 z M 79.363281 244.58594 L 76.703125 249.1875 C 86.138551 254.64553 96.347266 258.91097 107.125 261.79297 L 108.49609 256.67188 C 98.176973 253.90762 88.400442 249.81766 79.363281 244.58594 z M 171.10938 256.69336 C 161.13377 259.35831 150.65453 260.78711 139.8418 260.78711 C 139.84114 260.78711 139.8405 260.78711 139.83984 260.78711 L 139.83789 266.08008 C 139.8392 266.08008 139.84049 266.08008 139.8418 266.08008 C 151.13127 266.08008 162.0708 264.5914 172.48242 261.81445 L 171.10938 256.69336 z "
       transform="matrix(0.26458333,0,0,0.26458333,-36,0)" />
  </g>
</svg>
