<?xml version="1.0" encoding="UTF-8" standalone="no"?>
<!-- Created with Inkscape (http://www.inkscape.org/) -->

<svg
   width="74mm"
   height="74mm"
   viewBox="0 0 74 74"
   version="1.1"
   id="svg3623"
   inkscape:version="1.1.2 (b8e25be833, 2022-02-05)"
   sodipodi:docname="encoder_pattern_48_cnt_v3.svg"
   xmlns:inkscape="http://www.inkscape.org/namespaces/inkscape"
   xmlns:sodipodi="http://sodipodi.sourceforge.net/DTD/sodipodi-0.dtd"
   xmlns="http://www.w3.org/2000/svg"
   xmlns:svg="http://www.w3.org/2000/svg">
  <sodipodi:namedview
     id="namedview3625"
     pagecolor="#505050"
     bordercolor="#eeeeee"
     borderopacity="1"
     inkscape:pageshadow="0"
     inkscape:pageopacity="0"
     inkscape:pagecheckerboard="0"
     inkscape:document-units="mm"
     showgrid="false"
     inkscape:snap-object-midpoints="true"
     inkscape:zoom="2.9984751"
     inkscape:cx="18.650239"
     inkscape:cy="160.78087"
     inkscape:window-width="3440"
     inkscape:window-height="1369"
     inkscape:window-x="-8"
     inkscape:window-y="-8"
     inkscape:window-maximized="1"
     inkscape:current-layer="tPlace"
     fit-margin-top="0"
     fit-margin-left="0"
     fit-margin-right="0"
     fit-margin-bottom="0"
     inkscape:rotation="1"
     inkscape:snap-center="true"
     inkscape:snap-bbox="true"
     inkscape:snap-bbox-midpoints="true" />
  <defs
     id="defs3620">
    <inkscape:path-effect
       effect="copy_rotate"
       starting_point="0,0"
       origin="1,37"
       id="path-effect7774"
       is_visible="true"
       lpeversion="1"
       method="normal"
       num_copies="48"
       starting_angle="0"
       rotation_angle="60"
       gap="-0.01"
       copies_to_360="true"
       mirror_copies="false"
       split_items="false" />
    <inkscape:path-effect
       effect="copy_rotate"
       starting_point="0,0"
       origin="0,0"
       id="path-effect7688"
       is_visible="true"
       lpeversion="1"
       method="normal"
       num_copies="6"
       starting_angle="0"
       rotation_angle="60"
       gap="-0.12"
       copies_to_360="true"
       mirror_copies="false"
       split_items="false" />
    <inkscape:path-effect
       effect="copy_rotate"
       starting_point="77.666387,54.869563"
       origin="59.711954,54.869563"
       id="path-effect4256"
       is_visible="true"
       lpeversion="1"
       method="normal"
       num_copies="48"
       starting_angle="0"
       rotation_angle="7.5"
       gap="-0.01"
       copies_to_360="true"
       mirror_copies="false"
       split_items="false" />
  </defs>
  <g
     inkscape:label="tPlace"
     inkscape:groupmode="layer"
     id="tPlace"
     transform="translate(36)">
    <path
       style="color:#000000;fill:#ffffff;stroke-linejoin:round;-inkscape-stroke:none"
       d="m -6.6992187,65.736328 -0.6484375,2.414063 C -4.6253046,68.879849 -1.8183874,69.25 1,69.25 v -2.5 c -2.5999116,0 -5.1878985,-0.34076 -7.6992187,-1.013672 z"
       id="path1121" />
    <path
       style="color:#000000;fill:#ffffff;stroke-linejoin:round;-inkscape-stroke:none"
       d="m 15.875,62.763672 c -2.251659,1.299995 -4.664376,2.299755 -7.1757812,2.972656 l 0.6464843,2.414063 C 12.068147,67.420944 14.68413,66.338924 17.125,64.929687 Z"
       id="path1119" />
    <path
       style="color:#000000;fill:#ffffff;stroke-linejoin:round;-inkscape-stroke:none"
       d="m -20.037109,58.037109 -1.767578,1.767578 c 1.992883,1.992885 4.238912,3.715818 6.679687,5.125 l 1.25,-2.166015 c -2.251571,-1.299945 -4.32371,-2.888163 -6.162109,-4.726563 z"
       id="path1117" />
    <path
       style="color:#000000;fill:#ffffff;stroke-linejoin:round;-inkscape-stroke:none"
       d="m 26.763672,51.875 c -1.299945,2.25157 -2.888164,4.32371 -4.726563,6.162109 l 1.767578,1.767578 c 1.992884,-1.992883 3.715819,-4.238913 5.125,-6.679687 z"
       id="path1115" />
    <path
       style="color:#000000;fill:#ffffff;stroke-linejoin:round;-inkscape-stroke:none"
       d="m -27.736328,44.699219 -2.414063,0.646484 c 0.729447,2.722444 1.811466,5.338427 3.220704,7.779297 l 2.166015,-1.25 c -1.299996,-2.251659 -2.299754,-4.664376 -2.972656,-7.175781 z"
       id="path1113" />
    <path
       style="color:#000000;fill:#ffffff;stroke-linejoin:round;-inkscape-stroke:none"
       d="m 30.75,37 c 0,2.599788 -0.340823,5.18801 -1.013672,7.699219 l 2.414063,0.646484 C 32.87978,42.623472 33.25,39.818254 33.25,37 Z"
       id="path1111" />
    <path
       style="color:#000000;fill:#ffffff;stroke-linejoin:round;-inkscape-stroke:none"
       d="M -30.150391,28.652344 C -30.879893,31.374773 -31.25,34.181526 -31.25,37 h 2.5 c 0,-2.599991 0.340719,-5.187827 1.013672,-7.699219 z"
       id="path1109" />
    <path
       style="color:#000000;fill:#ffffff;stroke-linejoin:round;-inkscape-stroke:none"
       d="m 28.929687,20.875 -2.166015,1.25 c 1.299969,2.251602 2.299749,4.664441 2.972656,7.175781 l 2.414063,-0.648437 C 31.420938,25.929971 30.338896,23.315809 28.929687,20.875 Z"
       id="path1107" />
    <path
       style="color:#000000;fill:#ffffff;stroke-linejoin:round;-inkscape-stroke:none"
       d="m -21.804687,14.195313 c -1.992885,1.992883 -3.715818,4.238913 -5.125,6.679687 l 2.166015,1.25 c 1.299945,-2.25157 2.888163,-4.32371 4.726563,-6.162109 z"
       id="path1105" />
    <path
       style="color:#000000;fill:#ffffff;stroke-linejoin:round;-inkscape-stroke:none"
       d="m 1.7265625,9.2597656 -0.066406,2.4980474 c 0.6609815,0.01731 1.3209305,0.06174 1.9785157,0.130859 L 3.9003906,9.4023438 C 3.177698,9.3263781 2.4529877,9.2787883 1.7265625,9.2597656 Z"
       id="path1103" />
    <path
       style="color:#000000;fill:#ffffff;stroke-linejoin:round;-inkscape-stroke:none"
       d="m 17.125,9.0703125 -1.25,2.1660155 c 2.251602,1.299969 4.323693,2.888125 6.162109,4.726563 l 1.767578,-1.767578 C 21.811785,12.202387 19.565808,10.47952 17.125,9.0703125 Z"
       id="path1101" />
    <path
       style="color:#000000;fill:#ffffff;stroke-linejoin:round;-inkscape-stroke:none"
       d="M -7.3476562,5.8496094 C -10.069963,6.5790554 -12.684245,7.6611423 -15.125,9.0703125 l 1.25,2.1660155 c 2.251552,-1.299934 4.6645027,-2.2997553 7.1757813,-2.9726561 z"
       id="path1099" />
    <path
       style="color:#000000;fill:#ffffff;stroke-linejoin:round;-inkscape-stroke:none"
       d="m 1,4.75 v 2.5 c 2.5997885,5e-7 5.1880092,0.3408222 7.6992188,1.0136719 L 9.3457031,5.8496094 C 6.6234716,5.1202188 3.8182539,4.7500005 1,4.75 Z"
       id="path1047" />
  </g>
</svg>
