<?xml version="1.0" encoding="UTF-8" standalone="no"?>
<!-- Created with Inkscape (http://www.inkscape.org/) -->

<svg
   width="74mm"
   height="74mm"
   viewBox="0 0 74 74"
   version="1.1"
   id="svg3623"
   inkscape:version="1.1.2 (b8e25be833, 2022-02-05)"
   sodipodi:docname="encoder_pattern_48_2.0mm_v2.svg"
   xmlns:inkscape="http://www.inkscape.org/namespaces/inkscape"
   xmlns:sodipodi="http://sodipodi.sourceforge.net/DTD/sodipodi-0.dtd"
   xmlns="http://www.w3.org/2000/svg"
   xmlns:svg="http://www.w3.org/2000/svg">
  <sodipodi:namedview
     id="namedview3625"
     pagecolor="#505050"
     bordercolor="#eeeeee"
     borderopacity="1"
     inkscape:pageshadow="0"
     inkscape:pageopacity="0"
     inkscape:pagecheckerboard="0"
     inkscape:document-units="mm"
     showgrid="false"
     inkscape:snap-object-midpoints="true"
     inkscape:zoom="4.2404842"
     inkscape:cx="126.03837"
     inkscape:cy="180.82584"
     inkscape:window-width="3440"
     inkscape:window-height="1369"
     inkscape:window-x="-8"
     inkscape:window-y="-8"
     inkscape:window-maximized="1"
     inkscape:current-layer="tPlace"
     fit-margin-top="0"
     fit-margin-left="0"
     fit-margin-right="0"
     fit-margin-bottom="0"
     inkscape:rotation="1" />
  <defs
     id="defs3620">
    <inkscape:path-effect
       effect="copy_rotate"
       starting_point="77.666387,54.869563"
       origin="59.711954,54.869563"
       id="path-effect4256"
       is_visible="true"
       lpeversion="1"
       method="normal"
       num_copies="48"
       starting_angle="0"
       rotation_angle="7.5"
       gap="-0.01"
       copies_to_360="true"
       mirror_copies="false"
       split_items="false" />
  </defs>
  <g
     inkscape:label="tPlace"
     inkscape:groupmode="layer"
     id="tPlace"
     transform="translate(36)">
    <path
       id="path940"
       style="fill:#000000;stroke-width:5.66929;stroke-linecap:round;stroke-linejoin:round"
       d="M 156.41016 13.962891 L 155.52344 20.703125 C 166.10971 22.084546 176.267 24.823045 185.80273 28.775391 L 188.41016 22.484375 C 178.33398 18.311435 167.59932 15.420808 156.41016 13.962891 z M 123.23047 13.96875 C 112.04125 15.43063 101.30787 18.32498 91.232422 22.501953 L 93.839844 28.792969 C 103.37502 24.83654 113.5326 22.094323 124.11914 20.708984 L 123.23047 13.96875 z M 139.8418 22.677734 C 129.35181 22.677734 119.19312 24.074451 109.51953 26.658203 L 111.28125 33.238281 C 120.39407 30.801297 129.96234 29.482422 139.8418 29.482422 C 149.71214 29.482422 159.27363 30.799779 168.37891 33.232422 L 170.14062 26.652344 C 160.47463 24.072928 150.32267 22.677734 139.8418 22.677734 z M 139.8418 32.501953 C 120.28337 32.501953 101.96689 37.754249 86.177734 46.886719 L 89.587891 52.792969 C 104.37753 44.233235 121.53133 39.308594 139.8418 39.308594 C 158.14291 39.308594 175.28971 44.227675 190.07422 52.779297 L 193.48438 46.875 C 177.70033 37.75063 159.39087 32.501953 139.8418 32.501953 z M 217.13867 39.101562 L 212.98633 44.509766 C 221.30231 50.900842 228.75446 58.35044 235.14844 66.664062 L 240.55469 62.511719 C 233.79962 53.726113 225.92671 45.853621 217.13867 39.101562 z M 62.509766 39.130859 C 53.725441 45.885247 45.852856 53.758095 39.101562 62.544922 L 44.511719 66.695312 C 50.902668 58.379896 58.35078 50.928745 66.664062 44.535156 L 62.509766 39.130859 z M 139.8457 42.328125 L 139.84766 49.134766 C 173.39193 49.136899 202.67455 67.38119 218.36719 94.470703 L 224.27344 91.060547 C 207.41234 61.932014 175.9359 42.329546 139.8457 42.328125 z M 139.8418 52.160156 C 91.396823 52.160156 52.160156 91.396823 52.160156 139.8418 C 52.160156 188.28676 91.396823 227.52539 139.8418 227.52539 C 155.81913 227.52539 170.78268 223.23579 183.67969 215.77734 L 180.26953 209.87695 C 168.37131 216.7632 154.57055 220.72656 139.8418 220.72656 C 95.189911 220.72656 58.958984 184.49368 58.958984 139.8418 C 58.958984 95.189915 95.189911 58.958984 139.8418 58.958984 C 154.56223 58.958984 168.35634 62.915891 180.25 69.794922 L 183.6543 63.894531 C 170.76293 56.445012 155.80882 52.160156 139.8418 52.160156 z M 222.69922 56.990234 L 217.875 61.816406 C 231.36203 75.304455 241.35676 92.273213 246.4375 111.24805 L 253.01758 109.48633 C 247.62747 89.329831 237.01904 71.310731 222.69922 56.990234 z M 56.96875 57.007812 C 42.652266 71.331007 32.048043 89.352053 26.662109 109.50977 L 33.242188 111.27148 C 38.318883 92.295051 48.30879 75.322914 61.792969 61.832031 L 56.96875 57.007812 z M 178.77734 72.421875 L 175.34766 78.363281 C 196.5751 90.656964 210.90039 113.56221 210.90039 139.8418 C 210.90039 166.11539 196.58077 189.01676 175.36133 201.3125 L 178.79492 207.25391 C 202.0516 193.79244 217.69922 168.6612 217.69922 139.8418 C 217.69922 111.01521 202.04363 85.880864 178.77734 72.421875 z M 55.382812 91.111328 C 47.094211 105.45028 42.328125 122.08245 42.328125 139.8418 C 42.328125 193.71262 85.967558 237.3553 139.83789 237.35742 L 139.83789 230.55078 C 89.760642 230.54866 49.134766 189.91954 49.134766 139.8418 C 49.134766 123.32962 53.572518 107.85939 61.289062 94.519531 L 55.382812 91.111328 z M 257.18164 91.230469 L 250.89062 93.837891 C 254.8472 103.37302 257.59107 113.53067 258.97656 124.11719 L 265.7168 123.22852 C 264.25475 112.03937 261.35875 101.30582 257.18164 91.230469 z M 22.484375 91.275391 C 18.311301 101.35189 15.420761 112.08584 13.962891 123.27539 L 20.703125 124.16016 C 22.084698 113.57404 24.822968 103.41643 28.775391 93.880859 L 22.484375 91.275391 z M 240.37695 139.84766 C 240.37482 177.03012 220.15056 209.48596 190.12305 226.87695 L 193.53516 232.78125 C 225.60015 214.22185 247.17951 179.57447 247.18164 139.84766 L 240.37695 139.84766 z M 39.308594 139.87305 L 32.501953 139.875 C 32.514032 179.60001 54.10328 214.24314 86.173828 232.79492 L 89.582031 226.88867 C 59.55008 209.50458 39.319977 177.05332 39.308594 139.87305 z M 258.98242 155.52148 C 257.60109 166.1085 254.8608 176.26639 250.9082 185.80273 L 257.19922 188.4082 C 261.37229 178.33128 264.26695 167.59627 265.72461 156.40625 L 258.98242 155.52148 z M 20.707031 155.56445 L 13.966797 156.45312 C 15.428711 167.64334 18.324476 178.37882 22.501953 188.45508 L 28.792969 185.8457 C 24.836218 176.30981 22.092288 166.15186 20.707031 155.56445 z M 246.44336 168.41211 C 241.36744 187.38704 231.37864 204.35711 217.89648 217.84766 L 222.72266 222.66992 C 237.0361 208.34741 247.63852 190.32904 253.02344 170.17383 L 246.44336 168.41211 z M 33.248047 168.43359 L 26.667969 170.19727 C 32.05792 190.35449 42.666072 208.37438 56.986328 222.69531 L 61.810547 217.87109 C 48.32217 204.38205 38.328612 187.41031 33.248047 168.43359 z M 235.17383 212.98828 C 228.78399 221.30225 221.33498 228.75364 213.02344 235.14648 L 217.17383 240.55469 C 225.96088 233.7985 233.83314 225.92456 240.58594 217.13477 L 235.17383 212.98828 z M 44.537109 213.02148 L 39.128906 217.17383 C 45.884535 225.96016 53.759911 233.83155 62.548828 240.58398 L 66.695312 235.17383 C 58.380621 228.78344 50.930325 221.3339 44.537109 213.02148 z M 168.40234 246.44727 C 159.2901 248.88392 149.72056 250.20117 139.8418 250.20117 C 129.97148 250.20117 120.41189 248.88575 111.30664 246.45312 L 109.54297 253.0332 C 119.20956 255.61293 129.36026 257.00781 139.8418 257.00781 C 150.33262 257.00781 160.49368 255.60954 170.16797 253.02539 L 168.40234 246.44727 z M 185.84766 250.89062 C 176.31188 254.8475 166.1537 257.59114 155.56641 258.97656 L 156.45508 265.7168 C 167.64538 264.25468 178.38075 261.35741 188.45703 257.17969 L 185.84766 250.89062 z M 93.880859 250.90625 L 91.275391 257.19922 C 101.35254 261.37256 112.08701 264.26683 123.27734 265.72461 L 124.16211 258.98242 C 113.57501 257.60091 103.41724 254.85908 93.880859 250.90625 z "
       transform="matrix(0.26458333,0,0,0.26458333,-36,0)" />
  </g>
</svg>
