<?xml version="1.0" encoding="UTF-8" standalone="no"?>
<!-- Created with Inkscape (http://www.inkscape.org/) -->

<svg
   width="74mm"
   height="74mm"
   viewBox="0 0 74 74"
   version="1.1"
   id="svg3623"
   inkscape:version="1.1.2 (b8e25be833, 2022-02-05)"
   sodipodi:docname="encoder_pattern_48_v3_2mm_4degree_fade.svg"
   xmlns:inkscape="http://www.inkscape.org/namespaces/inkscape"
   xmlns:sodipodi="http://sodipodi.sourceforge.net/DTD/sodipodi-0.dtd"
   xmlns="http://www.w3.org/2000/svg"
   xmlns:svg="http://www.w3.org/2000/svg">
  <sodipodi:namedview
     id="namedview3625"
     pagecolor="#505050"
     bordercolor="#eeeeee"
     borderopacity="1"
     inkscape:pageshadow="0"
     inkscape:pageopacity="0"
     inkscape:pagecheckerboard="0"
     inkscape:document-units="mm"
     showgrid="false"
     inkscape:snap-object-midpoints="true"
     inkscape:zoom="2.8284271"
     inkscape:cx="63.952382"
     inkscape:cy="138.91218"
     inkscape:window-width="3440"
     inkscape:window-height="1369"
     inkscape:window-x="-8"
     inkscape:window-y="-8"
     inkscape:window-maximized="1"
     inkscape:current-layer="tPlace"
     fit-margin-top="0"
     fit-margin-left="0"
     fit-margin-right="0"
     fit-margin-bottom="0"
     inkscape:rotation="1"
     inkscape:snap-center="true"
     inkscape:snap-bbox="true"
     inkscape:snap-bbox-midpoints="true"
     inkscape:snap-others="true"
     inkscape:snap-nodes="true"
     inkscape:object-nodes="true"
     inkscape:snap-intersection-paths="true" />
  <defs
     id="defs3620">
    <inkscape:path-effect
       effect="copy_rotate"
       starting_point="0,0"
       origin="1,37"
       id="path-effect7774"
       is_visible="true"
       lpeversion="1"
       method="normal"
       num_copies="48"
       starting_angle="0"
       rotation_angle="60"
       gap="-0.01"
       copies_to_360="true"
       mirror_copies="false"
       split_items="false" />
    <inkscape:path-effect
       effect="copy_rotate"
       starting_point="0,0"
       origin="0,0"
       id="path-effect7688"
       is_visible="true"
       lpeversion="1"
       method="normal"
       num_copies="6"
       starting_angle="0"
       rotation_angle="60"
       gap="-0.12"
       copies_to_360="true"
       mirror_copies="false"
       split_items="false" />
    <inkscape:path-effect
       effect="copy_rotate"
       starting_point="77.666387,54.869563"
       origin="59.711954,54.869563"
       id="path-effect4256"
       is_visible="true"
       lpeversion="1"
       method="normal"
       num_copies="48"
       starting_angle="0"
       rotation_angle="7.5"
       gap="-0.01"
       copies_to_360="true"
       mirror_copies="false"
       split_items="false" />
  </defs>
  <g
     inkscape:label="tPlace"
     inkscape:groupmode="layer"
     id="tPlace"
     transform="translate(36)">
    <path
       id="path41009-5-6"
       style="color:#000000;fill:#ffffff;stroke-width:1;stroke-linecap:round;stroke-linejoin:round;-inkscape-stroke:none"
       d="m 29.484474,37.996078 c -5.2e-5,-4e-5 -0.0019,-0.0015 -0.0019,-0.0015 l -0.99963,-1.954193 -0.988856,1.865005 C 27.196611,46.570166 22.633739,54.751618 15.03919,59.478816 l -1.128967,1.802223 2.192275,-0.111566 c 0,0 0.0024,1.82e-4 0.0024,1.82e-4 8.141719,-5.078292 13.044609,-13.870842 13.379518,-23.173546 z M -12.379612,11.83368 c -9e-6,6.3e-5 -4.63e-4,0.0023 -4.63e-4,0.0023 l -1.192567,1.8428 2.109571,-0.07613 C -3.8104231,9.5278949 5.5563577,9.3887312 13.447505,13.602203 l 2.125255,0.0766 -1.192756,-1.842782 c 0,0 -10e-4,-0.0021 -10e-4,-0.0021 -8.46879,-4.5117882 -18.5348055,-4.3615391 -26.758638,-2.28e-4 z m -1.725256,49.336562 c 6e-5,-2.5e-5 0.0022,-7.51e-4 0.0022,-7.51e-4 l 2.192195,0.111392 -1.120714,-1.788877 C -20.386351,54.902023 -25.190262,46.859735 -25.48686,37.919065 l -0.996288,-1.878828 -0.999517,1.954349 c 0,0 -0.0014,0.0019 -0.0014,0.0019 0.327065,9.590112 5.490193,18.232413 13.379115,23.173805 z M 1.9080464,11.11462 c 8.7128136,0.298255 16.5653926,4.989172 21.0561116,12.156271 5e-6,6.3e-5 5.24e-4,0.0041 5.24e-4,0.0041 l 0.02039,2.035296 -1.625299,-1.061979 -0.213025,-0.121547 C 16.986785,17.619016 9.8098295,13.37906 1.8384285,13.111733 l -0.00393,-0.002 L 0.13105716,12.115377 1.903941,11.115253 c 0,0 0.00409,-5.14e-4 0.00409,-5.14e-4 z m -22.0240574,12.6907 0.0066,1.970397 5.93e-4,4.56e-4 c -2.259265,4.243223 -3.262972,9.207962 -2.5869,14.343241 1.548924,11.76525 11.38249,20.385583 22.86030833,20.769116 l 0.001303,0.0019 1.70286327,0.993916 -1.7728821,1.000122 c 0,0 -0.0033993,0.0015 -0.0034954,0.0015 C -12.329184,62.460998 -23.003733,53.1056 -24.679012,40.380592 c -0.731646,-5.557404 0.361564,-10.937866 2.814705,-15.538688 z M 7.0501306,56.796173 C 16.552538,53.900143 22.860983,44.468038 21.522125,34.298402 20.9375,29.857732 18.980543,25.930302 16.134983,22.886061 l -1.699817,-0.293789 0.245912,1.650133 6.9e-5,5.24e-4 c 2.565641,2.748975 4.329172,6.298074 4.85821,10.31652 1.212245,9.207914 -4.471936,17.710643 -13.0704213,20.324261 l -7.799e-4,0.0022 -1.0368712,1.309259 z M 6.2445933,14.296573 C -4.649548,11.770784 -16.107861,17.414679 -20.526856,28.083078 c -4.919922,11.877743 0.732137,25.523975 12.6098813,30.443897 8.69442883,3.601351 18.3358137,1.536951 24.8092267,-4.486383 l 0.417053,-1.831931 -1.776249,0.376223 -2.87e-4,-6.91e-4 C 9.618956,58.098156 0.81391893,59.978767 -7.1516633,56.679316 -18.030805,52.173027 -23.185506,39.727525 -18.679218,28.848383 -14.631288,19.075817 -4.1774108,13.923824 5.7930282,16.242847 l -3.825e-4,-0.0018 1.7270379,-0.566648 z m 14.3272087,50.133987 1.227493,-2.199028 -2.391397,0.575241 -0.01839,0.01084 c -1.682196,1.199961 -3.443333,2.214913 -5.259853,3.043995 l -1.678136,1.767085 2.523188,0.03623 c 0,0 0.02317,-0.0066 0.03637,-0.01033 1.920969,-0.879371 3.782902,-1.954115 5.560717,-3.224048 z m 11.093154,-13.4609 -0.03647,-2.51816 -1.783391,1.693872 -0.0105,0.01859 c -0.856843,1.880294 -1.874558,3.639839 -3.033169,5.266104 l -0.569765,2.369407 2.20326,-1.230217 c 0,0 0.01676,-0.01732 0.02633,-0.02713 1.223921,-1.722042 2.299031,-3.583763 3.203696,-5.572465 z m 2.87651,-17.204057 -1.290667,-2.162554 -0.697527,2.358631 1.88e-4,0.02135 c 0.198102,2.056804 0.196505,4.089472 0.0063,6.077164 l 0.691273,2.33685 1.292969,-2.167029 c 0,0 0.0059,-0.02338 0.0092,-0.03666 0.198926,-2.103293 0.199138,-4.253146 -0.01175,-6.427745 z m -6.110903,-16.337409 -2.199027,-1.227493 0.57524,2.391398 0.01089,0.01839 c 1.19996,1.682195 2.214913,3.443333 3.043994,5.259853 l 1.767085,1.678135 0.03623,-2.523189 c 0,0 -0.0066,-0.02318 -0.01034,-0.03637 -0.87937,-1.920968 -1.954114,-3.782901 -3.224048,-5.560716 z M 14.969661,6.335042 12.4515,6.371512 l 1.693872,1.783392 0.01859,0.0105 c 1.880295,0.856844 3.639838,1.874558 5.266103,3.033169 l 2.369408,0.569765 -1.230218,-2.20326 c 0,0 -0.01732,-0.01676 -0.02713,-0.02633 C 18.820083,8.314827 16.958362,7.239717 14.969659,6.335051 Z m -17.2040618,-2.876505 -2.1625543,1.290667 2.3586319,0.697527 0.021351,-1.88e-4 C 0.03983088,5.248436 2.0724981,5.25003 4.0601906,5.440243 L 6.3970399,4.74897 4.2300107,3.456001 c 0,0 -0.02338,-0.0059 -0.036659,-0.0092 -2.1032931,-0.198926 -4.25314602,-0.199138 -6.4277453,0.01175 z m -16.3374052,6.110901 -1.227493,2.199027 2.391397,-0.57524 0.01839,-0.01089 c 1.682195,-1.199961 3.443333,-2.214913 5.259853,-3.043995 l 1.678134,-1.767084 -2.523188,-0.03623 c 0,0 -0.02318,0.0066 -0.03637,0.01034 -1.920968,0.879371 -3.782901,1.954115 -5.560716,3.224049 z m -11.093158,13.460901 0.03647,2.51816 1.783391,-1.693872 0.0105,-0.01859 c 0.856844,-1.880294 1.874558,-3.639838 3.033169,-5.266103 l 0.569764,-2.369408 -2.203259,1.230218 c 0,0 -0.01676,0.01732 -0.02633,0.02713 -1.223922,1.722042 -2.299031,3.583763 -3.203697,5.572465 z m -2.876503,17.20406 1.290666,2.162554 0.697528,-2.358632 -1.89e-4,-0.02135 c -0.198101,-2.056804 -0.196505,-4.089471 -0.0063,-6.077164 l -0.691273,-2.336849 -1.29297,2.167028 c 0,0 -0.0059,0.02338 -0.0092,0.03666 -0.198926,2.103293 -0.199137,4.253146 0.01175,6.427744 z m 6.110901,16.337405 2.199029,1.227493 -0.575241,-2.391399 -0.01089,-0.01838 c -1.199961,-1.682195 -2.214914,-3.443334 -3.043995,-5.259853 l -1.767084,-1.678135 -0.03623,2.523188 c 0,0 0.0066,0.02318 0.01034,0.03637 0.879364,1.920965 1.954107,3.782898 3.224041,5.560712 z m 13.460899,11.093159 2.518161,-0.03647 -1.693872,-1.783392 -0.01859,-0.0105 c -1.880295,-0.856844 -3.639838,-1.874557 -5.266103,-3.033168 l -2.369408,-0.569765 1.230218,2.203259 c 0,0 0.01732,0.01676 0.02713,0.02633 1.722041,1.223921 3.583762,2.299031 5.572465,3.203696 z M 4.2343957,70.541467 6.39695,69.2508 4.0383182,68.553274 l -0.02135,1.98e-4 c -2.0568043,0.198096 -4.08947142,0.196502 -6.0771638,0.0062 l -2.3368499,0.691272 2.1670298,1.29297 c 0,0 0.023375,0.0059 0.036659,0.0093 2.10329348,0.198927 4.2531464,0.199138 6.4277456,-0.01175 z m -34.3152047,-34.626723 0.999422,2.135748 0.996004,-2.059133 c 0.150127,-4.524411 1.35074,-8.839452 3.393499,-12.670495 l 0.165891,-2.271441 -1.926508,1.345593 c -2.180724,4.088519 -3.464194,8.690665 -3.629253,13.512557 5.1e-5,2.59e-4 0.001,0.0072 0.001,0.0072 z m 14.60055,27.459399 2.349322,0.202348 -1.285258,-1.89213 c -3.843192,-2.39222 -6.979821,-5.589502 -9.276223,-9.274105 l -1.884179,-1.279385 0.202064,2.341201 c 2.450399,3.932822 5.794239,7.345412 9.88759,9.899303 2.51e-4,8.6e-5 0.0067,0.0028 0.0067,0.0028 z m 31.080805,1.085259 1.3499,-1.933399 -2.281263,0.167001 c -3.993318,2.132192 -8.3305596,3.249953 -12.6697203,3.396392 l -2.05007113,0.992055 2.12857173,0.995608 c 4.631124,-0.155697 9.2584337,-1.345254 13.5168437,-3.613253 2.01e-4,-1.74e-4 0.0057,-0.0044 0.0057,-0.0044 z M 32.080811,38.085257 31.081388,35.94951 30.085384,38.008643 c -0.150126,4.52441 -1.350739,8.839451 -3.393499,12.670496 l -0.16589,2.27144 1.926507,-1.345593 c 2.180725,-4.08852 3.464194,-8.690665 3.629253,-13.512557 -5e-5,-2.6e-4 -10e-4,-0.0072 -10e-4,-0.0072 z m -14.600546,-27.459398 -2.349322,-0.202348 1.285258,1.89213 c 3.843192,2.39222 6.97982,5.589502 9.276222,9.274104 l 1.884181,1.279387 -0.202064,-2.341201 c -2.4504,-3.932823 -5.794241,-7.345413 -9.887592,-9.899304 -2.5e-4,-8.6e-5 -0.0067,-0.0028 -0.0067,-0.0028 z m -31.080812,-1.0852549 -1.3499,1.9333989 2.281262,-0.167001 C -8.675867,9.1748098 -4.3386242,8.0570496 5.353727e-4,7.9106104 L 2.0506068,6.9185544 -0.07796432,5.922947 C -4.7090887,6.0786442 -9.3363988,7.2682006 -13.594809,9.5362005 c -2e-4,1.737e-4 -0.0057,0.0044 -0.0057,0.0044 z" />
  </g>
</svg>
