<?xml version="1.0" encoding="UTF-8" standalone="no"?>
<!-- Created with Inkscape (http://www.inkscape.org/) -->

<svg
   width="74mm"
   height="74mm"
   viewBox="0 0 74 74"
   version="1.1"
   id="svg3623"
   inkscape:version="1.1.2 (b8e25be833, 2022-02-05)"
   sodipodi:docname="encoder_pattern_48_v3_2mm_2degree_fade.svg"
   xmlns:inkscape="http://www.inkscape.org/namespaces/inkscape"
   xmlns:sodipodi="http://sodipodi.sourceforge.net/DTD/sodipodi-0.dtd"
   xmlns="http://www.w3.org/2000/svg"
   xmlns:svg="http://www.w3.org/2000/svg">
  <sodipodi:namedview
     id="namedview3625"
     pagecolor="#505050"
     bordercolor="#eeeeee"
     borderopacity="1"
     inkscape:pageshadow="0"
     inkscape:pageopacity="0"
     inkscape:pagecheckerboard="0"
     inkscape:document-units="mm"
     showgrid="false"
     inkscape:snap-object-midpoints="true"
     inkscape:zoom="2.8284271"
     inkscape:cx="142.49635"
     inkscape:cy="80.61042"
     inkscape:window-width="3440"
     inkscape:window-height="1369"
     inkscape:window-x="-8"
     inkscape:window-y="-8"
     inkscape:window-maximized="1"
     inkscape:current-layer="tPlace"
     fit-margin-top="0"
     fit-margin-left="0"
     fit-margin-right="0"
     fit-margin-bottom="0"
     inkscape:rotation="1"
     inkscape:snap-intersection-paths="true"
     inkscape:snap-bbox="false" />
  <defs
     id="defs3620">
    <inkscape:path-effect
       effect="copy_rotate"
       starting_point="77.666387,54.869563"
       origin="59.711954,54.869563"
       id="path-effect4256"
       is_visible="true"
       lpeversion="1"
       method="normal"
       num_copies="48"
       starting_angle="0"
       rotation_angle="7.5"
       gap="-0.01"
       copies_to_360="true"
       mirror_copies="false"
       split_items="false" />
  </defs>
  <g
     inkscape:label="tPlace"
     inkscape:groupmode="layer"
     id="tPlace"
     transform="translate(36)">
    <circle
       style="fill:none;stroke:#ffffff;stroke-width:0.1;stroke-linecap:round;stroke-linejoin:round;stroke-miterlimit:4;stroke-dasharray:none"
       id="path1331-7"
       cx="195.86035"
       cy="72.710953"
       r="36.136639"
       transform="matrix(0.79335334,0.60876143,0.60876143,-0.79335334,0,0)" />
    <circle
       style="fill:none;fill-opacity:0.453094;stroke:#ffffff;stroke-width:2;stroke-linecap:round;stroke-linejoin:round;stroke-miterlimit:4;stroke-dasharray:none"
       id="path2568-7"
       cx="199.65009"
       cy="61.546749"
       r="32.700001" />
    <circle
       style="fill:none;fill-opacity:0.453094;stroke:#ffffff;stroke-width:2;stroke-linecap:round;stroke-linejoin:round;stroke-miterlimit:4;stroke-dasharray:none"
       id="path2568-3-12"
       cx="199.65009"
       cy="61.546749"
       r="30.1" />
    <circle
       style="fill:none;fill-opacity:0.453094;stroke:#ffffff;stroke-width:2;stroke-linecap:round;stroke-linejoin:round;stroke-miterlimit:4;stroke-dasharray:none"
       id="path2568-3-4-96"
       cx="199.65009"
       cy="61.546749"
       r="27.5" />
    <circle
       style="fill:none;fill-opacity:0.453094;stroke:#ffffff;stroke-width:2;stroke-linecap:round;stroke-linejoin:round;stroke-miterlimit:4;stroke-dasharray:none"
       id="path2568-3-4-9-0"
       cx="199.65009"
       cy="61.546749"
       r="24.9" />
    <circle
       style="fill:none;fill-opacity:0.453094;stroke:#ffffff;stroke-width:2;stroke-linecap:round;stroke-linejoin:round;stroke-miterlimit:4;stroke-dasharray:none"
       id="path2568-3-4-9-9-3"
       cx="199.65009"
       cy="61.546749"
       r="22.299999" />
    <circle
       style="fill:none;fill-opacity:0.453094;stroke:#ffffff;stroke-width:2;stroke-linecap:round;stroke-linejoin:round;stroke-miterlimit:4;stroke-dasharray:none"
       id="path2568-3-4-9-9-9-4"
       cx="199.65009"
       cy="61.546749"
       r="19.700001" />
    <circle
       style="fill:none;fill-opacity:0.453094;stroke:#ff0000;stroke-width:0.05;stroke-linecap:round;stroke-linejoin:round;stroke-miterlimit:4;stroke-dasharray:none"
       id="path2568-5-6"
       cx="199.65009"
       cy="61.546749"
       r="32.700001" />
    <circle
       style="fill:none;fill-opacity:0.453094;stroke:#ff0000;stroke-width:0.05;stroke-linecap:round;stroke-linejoin:round;stroke-miterlimit:4;stroke-dasharray:none"
       id="path2568-3-1-4"
       cx="199.65009"
       cy="61.546749"
       r="30.1" />
    <circle
       style="fill:none;fill-opacity:0.453094;stroke:#ff0000;stroke-width:0.05;stroke-linecap:round;stroke-linejoin:round;stroke-miterlimit:4;stroke-dasharray:none"
       id="path2568-3-4-4-3"
       cx="199.65009"
       cy="61.546749"
       r="27.5" />
    <circle
       style="fill:none;fill-opacity:0.453094;stroke:#ff0000;stroke-width:0.05;stroke-linecap:round;stroke-linejoin:round;stroke-miterlimit:4;stroke-dasharray:none"
       id="path2568-3-4-9-2-3"
       cx="199.65009"
       cy="61.546749"
       r="24.9" />
    <circle
       style="fill:none;fill-opacity:0.453094;stroke:#ff0000;stroke-width:0.05;stroke-linecap:round;stroke-linejoin:round;stroke-miterlimit:4;stroke-dasharray:none"
       id="path2568-3-4-9-9-4-3"
       cx="199.65009"
       cy="61.546749"
       r="22.299999" />
    <circle
       style="fill:none;fill-opacity:0.453094;stroke:#ff0000;stroke-width:0.05;stroke-linecap:round;stroke-linejoin:round;stroke-miterlimit:4;stroke-dasharray:none"
       id="path2568-3-4-9-9-9-7-8"
       cx="199.65009"
       cy="61.546749"
       r="19.700001" />
    <path
       id="path2568-3-0-1-7"
       style="color:#000000;opacity:1;fill:#ffffff;stroke-width:0.05;stroke-linecap:round;stroke-linejoin:round;stroke-miterlimit:4;stroke-dasharray:none"
       d="m -26.197437,21.921405 c -2.556155,4.60739 -3.816933,9.595554 -3.89673,14.538005 l 0.998699,1.0659 0.989971,-1.033586 0.0021,-0.0089 c 0.07946,-4.614926 1.26103,-9.273866 3.650238,-13.582969 l 0.0021,-0.0078 -0.349914,-1.39484 z m 0.54036,31.092863 c 2.71204,4.517391 6.401527,8.10334 10.641916,10.64367 l 1.422445,-0.331948 -0.400125,-1.374133 -0.0067,-0.0063 c -3.956846,-2.376266 -7.400825,-5.729001 -9.938014,-9.952666 l -0.0057,-0.0057 -1.382926,-0.394384 z M 1.5404065,68.092926 c 5.268195,-0.09 10.2184605,-1.492216 14.5386465,-3.894336 l 0.423747,-1.397848 -1.390097,-0.340547 -0.0088,0.0026 C 11.067528,64.70144 6.4419845,66.007644 1.5155875,66.093081 l -0.0078,0.0021 -1.03300998,1.000455 z M 28.197436,52.078529 c 2.556155,-4.607391 3.816934,-9.595555 3.89673,-14.538005 l -0.998698,-1.065899 -0.989971,1.033585 -0.0021,0.0089 c -0.07949,4.614914 -1.261054,9.273855 -3.650261,13.582958 l -0.0021,0.0078 0.349916,1.394841 z M -15.850387,7.8140228 c -1.117923,0.645434 -2.182818,1.347396 -3.197393,2.096633 l -0.309079,1.4965752 1.499266,0.107032 0.01698,-0.0098 c 0.94922,-0.699356 1.945138,-1.354535 2.990407,-1.9580222 1.045264,-0.603483 2.11107,-1.138645 3.191349,-1.611002 l 0.01698,-0.0098 0.656939,-1.351918 -1.450614,-0.480617 c -1.156211,0.504075 -2.296848,1.075504 -3.414854,1.720985 z M -28.185257,20.14905 c -0.645435,1.117924 -1.216678,2.258288 -1.720707,3.414432 l 0.480617,1.450612 1.351918,-0.656941 0.0098,-0.01698 c 0.472358,-1.080273 1.007259,-2.145631 1.610744,-3.1909 0.603484,-1.045265 1.258918,-2.041632 1.958287,-2.990842 l 0.0098,-0.01699 -0.107031,-1.499269 -1.496577,0.309081 c -0.749316,1.014615 -1.451423,2.079804 -2.096904,3.19781 z m -4.514827,16.849694 c 0,1.290868 0.07547,2.564075 0.217042,3.817341 l 1.141531,1.015957 0.842328,-1.244886 1.2e-5,-0.01962 c -0.131061,-1.171723 -0.200504,-2.361802 -0.200505,-3.568774 1e-6,-1.206968 0.06944,-2.397564 0.200506,-3.569291 l 8e-6,-0.01961 -0.842325,-1.244886 -1.141534,1.015961 c -0.141572,1.253349 -0.217019,2.526884 -0.21702,3.817846 z m 4.515012,16.849826 c 0.645434,1.117924 1.347395,2.182819 2.096632,3.197392 l 1.496576,0.309079 0.107032,-1.499266 -0.0098,-0.01699 c -0.699387,-0.94921 -1.354566,-1.945129 -1.958051,-2.990396 -0.603484,-1.045265 -1.138643,-2.111073 -1.611003,-3.191349 l -0.0098,-0.01699 -1.351919,-0.656939 -0.480615,1.450614 c 0.504055,1.156234 1.075482,2.296871 1.720963,3.414877 z m 44.069244,-31.223078 -1.199412,0.203605 -0.228925,1.176673 -5.16e-4,0.0016 c 3.247276,3.362434 5.244123,7.940551 5.244123,12.992489 0,8.550529 -5.717386,15.746931 -13.5433589,17.981329 v 5.19e-4 L 5.7659259,56.11492 6.7064376,56.900402 C 15.357193,54.419134 21.699319,46.441328 21.699319,36.999809 c 0,-5.580753 -2.216573,-10.64921 -5.815147,-14.374317 z M 0.99980912,13.699422 c -12.85637712,0 -23.30038712,10.44401 -23.30038712,23.300387 0,12.856377 10.44401,23.300901 23.30038712,23.300901 6.28267938,0 11.98868588,-2.494798 16.18195588,-6.545852 l -0.14056,-1.264007 -1.240234,-0.163814 c 0,0 -0.0021,0 -0.0021,0 -3.830482,3.699049 -9.0458557,5.973797 -14.79909588,5.973797 -11.77549812,0 -21.30050912,-9.525527 -21.30050912,-21.301025 0,-11.775498 9.525011,-21.300509 21.30050912,-21.300509 1.77748408,0 3.50325258,0.218302 5.15317308,0.627352 2.7e-6,-1e-6 0.00155,-0.001 0.00155,-0.001 L 7.1467202,15.563908 6.6382228,14.389302 C 4.8322881,13.939467 2.9438087,13.699422 0.99980912,13.699422 Z m 0.45113578,-2.594157 -0.88521913,0.998389 0.85162763,0.999422 0.00155,0.0015 c 8.5294575,0.146365 15.9622642,4.747615 20.0737102,11.580689 l 0.0016,5.16e-4 1.286743,0.273886 0.418579,-1.297079 C 18.737872,16.258769 10.678394,11.263389 1.4509449,11.105265 Z m -21.7945369,13.070003 -1.306896,0.267167 c -2.069307,3.720899 -3.249931,8.002273 -3.249931,12.557374 0,14.141767 11.365291,25.654069 25.45012425,25.895059 l 0.88470315,-0.998905 -0.85163024,-0.998905 -0.001032,-0.0021 C -12.436074,60.671969 -22.900541,50.071379 -22.900541,36.999809 c 0,-4.207441 1.085568,-8.158004 2.989998,-11.589991 l -0.001,-0.0016 z m -3.335149,27.088987 c 2.506343,4.341114 5.986669,7.77183 10.005606,10.179234 l 1.343341,-0.376977 -0.321021,-1.329104 -0.0018,-0.0031 c -3.730653,-2.23959 -6.962163,-5.430836 -9.294166,-9.469983 -2.332002,-4.039147 -3.480205,-8.433788 -3.554398,-12.784416 l -0.0018,-0.0031 -0.992781,-0.956805 -0.995642,0.989545 c 0.07544,4.684152 1.306366,9.413675 3.812676,13.754732 z m 49.360074,-0.01465 C 28.187676,46.908492 29.4186,42.179083 29.494005,37.49488 l -0.998142,-0.974879 -0.990527,0.942564 -0.0018,0.0031 c -0.0742,4.350644 -1.222145,8.744837 -3.554148,12.783984 -2.332003,4.039147 -5.563772,7.23084 -9.29443,9.470407 l -0.0018,0.0031 -0.332227,1.338177 1.354792,0.367478 c 4.018876,-2.407407 7.499299,-5.838183 10.00561,-10.17924 z M 0.99980912,8.5002562 c -5.01268732,0 -9.72393742,1.2986927 -13.81827912,3.5754928 l -0.345198,1.351855 1.311548,0.38654 h 0.0036 c 3.8048513,-2.111063 8.184306,-3.31401 12.84831212,-3.31401 4.66400618,0 9.04397688,1.202947 12.84882788,3.31401 h 0.0036 l 1.324983,-0.381372 -0.359151,-1.357023 C 10.723781,9.7990029 6.0124303,8.5002562 0.99980912,8.5002562 Z M 27.657178,20.985599 C 24.945141,16.468207 21.255651,12.882261 17.015261,10.34193 l -1.422445,0.331949 0.400126,1.374132 0.0066,0.0063 c 3.956911,2.376281 7.400889,5.729017 9.938078,9.952683 l 0.0057,0.0057 1.382925,0.394385 z M 0.45978925,5.9071329 C -4.8084062,5.9971291 -9.7586716,7.3993485 -14.078858,9.8014688 l -0.423746,1.3978472 1.390096,0.340548 0.0088,-0.0026 C -9.0673458,9.2986525 -4.4418021,7.9924483 0.48459394,7.9070109 l 0.007752,-0.00207 L 1.5253563,6.904488 Z M -15.848316,66.185641 c 1.117924,0.645433 2.258289,1.216678 3.414434,1.720707 l 1.450612,-0.480617 -0.65694,-1.351919 -0.01698,-0.0098 c -1.080271,-0.47237 -2.145632,-1.007271 -3.190901,-1.610757 -1.045264,-0.603484 -2.041631,-1.258918 -2.990843,-1.958288 l -0.01698,-0.0098 -1.499265,0.107033 0.309081,1.496577 c 1.014647,0.74927 2.079837,1.451377 3.197843,2.096858 z m 16.8498829,4.514797 c 1.290868,10e-7 2.564074,-0.07547 3.817338,-0.21704 l 1.015958,-1.141533 -1.244886,-0.842325 -0.01962,-1.3e-5 c -1.171723,0.131062 -2.361801,0.200504 -3.568773,0.200505 -1.20696797,0 -2.397564,-0.06944 -3.569289,-0.200506 l -0.01962,-1.3e-5 -1.244889,0.842326 1.01596,1.141533 c 1.25334,0.141619 2.52687403,0.217067 3.817837,0.217067 z M 17.851243,66.185546 c 1.117924,-0.645434 2.182819,-1.347396 3.197393,-2.096634 l 0.309079,-1.496574 -1.499266,-0.107034 -0.017,0.0098 c -0.949211,0.699364 -1.945129,1.354543 -2.990397,1.95803 -1.045265,0.603483 -2.111073,1.138642 -3.191349,1.611002 l -0.01699,0.0098 -0.65694,1.351918 1.450615,0.480617 c 1.156218,-0.50407 2.296855,-1.075498 3.414862,-1.720979 z M 30.186114,53.850518 c 0.645434,-1.117925 1.216679,-2.258288 1.720707,-3.414433 l -0.480617,-1.450612 -1.351919,0.65694 -0.0098,0.017 c -0.472358,1.080273 -1.007259,2.145634 -1.610745,3.190901 -0.603484,1.045265 -1.258921,2.04163 -1.958287,2.990844 l -0.0098,0.017 0.107033,1.499266 1.496576,-0.309082 c 0.749301,-1.014641 1.451408,-2.07983 2.096889,-3.197836 z m 4.51344,-16.85052 c 0,-1.290867 -0.07547,-2.564074 -0.217041,-3.81734 l -1.141532,-1.015958 -0.842327,1.244886 -8e-6,0.01961 c 0.131062,1.171722 0.200505,2.361802 0.200506,3.568775 -10e-7,1.206967 -0.06944,2.397563 -0.200506,3.56929 l -8e-6,0.01961 0.842326,1.244885 1.141533,-1.01596 c 0.141563,-1.253345 0.217011,-2.52688 0.217011,-3.817843 z M 30.184542,20.150173 C 29.539109,19.032248 28.837148,17.967354 28.08791,16.952781 l -1.496575,-0.309079 -0.107032,1.499266 0.0098,0.017 c 0.699365,0.949211 1.354543,1.945128 1.958029,2.990396 0.603484,1.045265 1.138643,2.111073 1.611002,3.191348 l 0.0098,0.017 1.35192,0.656943 0.480616,-1.450614 C 31.401446,22.408808 30.830019,21.26817 30.184538,20.150164 Z M 17.849692,7.8153715 C 16.731768,7.1699376 15.591404,6.5986925 14.435258,6.0946648 l -1.450611,0.4806173 0.656939,1.3519184 0.01701,0.00981 c 1.080272,0.4723586 2.145633,1.0072593 3.190902,1.6107449 1.045264,0.6034846 2.041629,1.2589216 2.990843,1.9582886 l 0.017,0.0098 1.499265,-0.107033 -0.309081,-1.496577 C 20.032878,9.1629546 18.967689,8.4608476 17.849682,7.8153662 Z M 0.99980912,3.3005736 c -1.29086767,0 -2.56407442,0.075469 -3.81733952,0.2170411 L -3.833488,4.6591471 -2.5886023,5.501473 h 0.019637 c 1.1717231,-0.1310619 2.36180307,-0.2005047 3.56877402,-0.2005047 1.20696828,0 2.39756418,0.069443 3.56928998,0.2005047 h 0.019637 L 5.8336222,4.6591471 4.8176619,3.5176147 C 3.5643069,3.3760214 2.290772,3.3005736 0.99980912,3.3005736 Z" />
  </g>
</svg>
