<?xml version="1.0" encoding="UTF-8" standalone="no"?>
<!-- Created with Inkscape (http://www.inkscape.org/) -->

<svg
   width="74mm"
   height="74mm"
   viewBox="0 0 74 74"
   version="1.1"
   id="svg3623"
   inkscape:version="1.1.2 (b8e25be833, 2022-02-05)"
   sodipodi:docname="encoder_pattern_48.svg"
   xmlns:inkscape="http://www.inkscape.org/namespaces/inkscape"
   xmlns:sodipodi="http://sodipodi.sourceforge.net/DTD/sodipodi-0.dtd"
   xmlns="http://www.w3.org/2000/svg"
   xmlns:svg="http://www.w3.org/2000/svg">
  <sodipodi:namedview
     id="namedview3625"
     pagecolor="#505050"
     bordercolor="#eeeeee"
     borderopacity="1"
     inkscape:pageshadow="0"
     inkscape:pageopacity="0"
     inkscape:pagecheckerboard="0"
     inkscape:document-units="mm"
     showgrid="false"
     inkscape:snap-object-midpoints="true"
     inkscape:zoom="4.2404842"
     inkscape:cx="95.677572"
     inkscape:cy="137.25033"
     inkscape:window-width="3440"
     inkscape:window-height="1369"
     inkscape:window-x="-8"
     inkscape:window-y="-8"
     inkscape:window-maximized="1"
     inkscape:current-layer="tPlace"
     fit-margin-top="0"
     fit-margin-left="0"
     fit-margin-right="0"
     fit-margin-bottom="0"
     inkscape:rotation="1" />
  <defs
     id="defs3620">
    <inkscape:path-effect
       effect="copy_rotate"
       starting_point="77.666387,54.869563"
       origin="59.711954,54.869563"
       id="path-effect4256"
       is_visible="true"
       lpeversion="1"
       method="normal"
       num_copies="48"
       starting_angle="0"
       rotation_angle="7.5"
       gap="-0.01"
       copies_to_360="true"
       mirror_copies="false"
       split_items="false" />
  </defs>
  <g
     inkscape:label="tPlace"
     inkscape:groupmode="layer"
     id="tPlace"
     transform="translate(36)">
    <g
       id="g1838"
       transform="matrix(0.79335334,0.60876143,0.60876143,-0.79335334,-22.317475,65.745165)">
      <path
         style="fill:#000000;stroke-width:1.5;stroke-linecap:round;stroke-linejoin:round"
         d="m 17.428544,24.403415 -1.583921,1.214304 c 0.969559,1.267564 1.793208,2.680387 2.433328,4.225847 C 22.234756,39.396061 17.70948,50.321048 8.1569692,54.277825 6.6101474,54.91854 5.0272924,55.335387 3.4440029,55.54594 l 0.2604034,1.979042 C 5.4584991,57.293797 7.2109988,56.833766 8.922104,56.125041 19.473201,51.75458 24.49556,39.629539 20.125142,29.078429 19.41709,27.36903 18.503973,25.806167 17.428558,24.403407 Z"
         id="path940" />
      <circle
         style="opacity:1;fill:none;stroke:#ffffff;stroke-width:0.1;stroke-linecap:round;stroke-linejoin:round;stroke-miterlimit:4;stroke-dasharray:none"
         id="path1331"
         cx="1.0000505"
         cy="36.999935"
         r="36.136639" />
    </g>
    <g
       id="g1834"
       transform="matrix(0.60876143,-0.79335334,-0.79335334,-0.60876143,29.745282,60.31746)">
      <path
         style="fill:#000000;stroke-width:1.5;stroke-linecap:round;stroke-linejoin:round"
         d="M -7.9163207,15.473468 C -19.794068,20.39339 -25.446323,34.039148 -20.5264,45.916889 -15.606477,57.794636 -1.960722,63.446892 9.9170244,58.526969 15.853227,56.068114 20.234459,51.429801 22.518123,45.921875 L 20.682097,45.16097 C 18.595863,50.192488 14.588916,54.427714 9.1519004,56.679799 -1.727244,61.186087 -14.171034,56.03012 -18.677325,45.150976 -23.18361,34.271835 -18.029551,21.828835 -7.1504075,17.322546 -5.3886561,16.592805 -3.5859207,16.11747 -1.7824009,15.87767 l -0.2605212,-1.980671 c -1.9745615,0.260309 -3.9470778,0.778582 -5.8733999,1.576464 z"
         id="path930" />
      <circle
         style="fill:none;stroke:#ffffff;stroke-width:0.1;stroke-linecap:round;stroke-linejoin:round;stroke-miterlimit:4;stroke-dasharray:none"
         id="path1331-9"
         cx="1.0000505"
         cy="36.999935"
         r="36.136639" />
    </g>
    <g
       id="g1830"
       transform="matrix(0.99144486,-0.13052619,-0.13052619,-0.99144486,4.8380166,73.813863)">
      <path
         id="path928"
         style="fill:#000000;stroke-width:1.5;stroke-linecap:round;stroke-linejoin:round"
         d="M -8.9114129,13.071094 C -22.115793,18.540527 -28.39823,33.70767 -22.928796,46.912047 c 0.886127,2.139316 2.028217,4.095634 3.37391,5.850985 l 1.585434,-1.216051 c -1.239436,-1.620078 -2.292129,-3.425764 -3.110226,-5.400871 -5.055797,-12.205775 0.728441,-26.17016 12.9342205,-31.22596 1.9770007,-0.818895 4.0001705,-1.351552 6.0240999,-1.620468 L -2.38214,11.31851 c -2.1948693,0.289454 -4.3879231,0.865539 -6.5292994,1.752522 z M 23.083231,46.155902 c -2.340627,5.645499 -6.836999,10.397116 -12.937214,12.923907 -1.9771616,0.818968 -4.0002878,1.35225 -6.0243759,1.621164 l 0.2605197,1.98067 c 2.195064,-0.289425 4.3882146,-0.865656 6.5297712,-1.752752 6.599521,-2.733612 11.470185,-7.889285 14.008492,-14.011969 z" />
      <circle
         style="fill:none;stroke:#ffffff;stroke-width:0.1;stroke-linecap:round;stroke-linejoin:round;stroke-miterlimit:4;stroke-dasharray:none"
         id="path1331-6"
         cx="1.0000505"
         cy="36.999935"
         r="36.136639" />
    </g>
    <g
       id="g1826"
       transform="matrix(-0.38268343,0.92387953,0.92387953,0.38268343,-32.800729,21.916746)">
      <path
         id="path924"
         style="fill:#000000;stroke-width:1.5;stroke-linecap:round;stroke-linejoin:round"
         d="m -16.351994,14.387189 c -8.050693,6.175086 -12.231833,16.266258 -10.908301,26.325419 l 1.980668,-0.260519 c -1.239924,-9.362231 2.644755,-18.738484 10.143488,-24.479939 z m 28.263858,-3.708688 -0.761182,1.836703 c 6.260219,2.59528 11.530152,7.580692 14.331699,14.344223 0.90803,2.192191 1.498462,4.435639 1.796526,6.680001 L 29.260058,33.27871 C 28.941484,30.86334 28.307638,28.45013 27.331476,26.093508 24.323142,18.830798 18.649155,13.47149 11.911864,10.678501 Z m -21.0537668,50.810032 -0.760985,1.837179 c 6.740389,2.791559 14.5448935,3.014827 21.8099168,0.0056 2.3544,-0.975224 4.506995,-2.232193 6.438774,-3.713039 l -1.215555,-1.585597 c -1.796585,1.374763 -3.798786,2.542288 -5.989151,3.449524 -6.7657211,2.802455 -14.0198496,2.60023 -20.2830188,0.0063 z" />
      <circle
         style="fill:none;stroke:#ffffff;stroke-width:0.1;stroke-linecap:round;stroke-linejoin:round;stroke-miterlimit:4;stroke-dasharray:none"
         id="path1331-67"
         cx="1.0000505"
         cy="36.999935"
         r="36.136639" />
    </g>
    <g
       id="g1822"
       transform="matrix(0.99144486,0.13052619,0.13052619,-0.99144486,-4.8209042,73.552798)">
      <path
         id="path922"
         style="fill:#000000;stroke-width:1.5;stroke-linecap:round;stroke-linejoin:round"
         d="m -10.901762,8.2673262 c -5.229214,2.1661108 -9.553575,5.5981238 -12.766471,9.7941038 l 1.580118,1.212576 c 3.006722,-3.92091 7.054792,-7.128901 11.952266,-9.157602 z m 15.9690731,-2.100145 -0.2603694,1.97493 c 5.0561331,0.669968 9.8639873,2.6618168 13.9123033,5.7642478 l 1.2123,-1.579442 C 15.605071,9.0160012 10.467534,6.8864772 5.0673111,6.1671812 Z M -29.833989,32.942191 c -0.696212,5.238558 -0.06626,10.723082 2.098368,15.952478 l 1.849076,-0.765918 c -2.027199,-4.897486 -2.619874,-10.028065 -1.972436,-14.926212 z m 57.721656,-7.069595 c 2.026827,4.897374 2.619523,10.0273 1.972107,14.925247 l 1.974256,0.260089 c 0.696054,-5.237958 0.06699,-10.721944 -2.097036,-15.95078 z m -44.606927,34.221113 -1.212575,1.580117 c 4.326506,3.311009 9.4646805,5.439551 14.8649902,6.158862 l 0.260088,-1.974253 C -7.8629788,65.188459 -12.670894,63.196229 -16.71926,60.093709 Z M 24.088263,54.72645 c -3.006621,3.920769 -7.054058,7.128493 -11.951311,9.157202 l 0.765434,1.849275 c 5.229078,-2.16605 9.552926,-5.598555 12.765796,-9.794377 z" />
      <circle
         style="fill:none;stroke:#ffffff;stroke-width:0.1;stroke-linecap:round;stroke-linejoin:round;stroke-miterlimit:4;stroke-dasharray:none"
         id="path1331-3"
         cx="1.0000505"
         cy="36.999935"
         r="36.136639" />
    </g>
    <g
       id="g1818"
       transform="matrix(0.92387953,-0.38268343,-0.38268343,-0.92387953,14.235387,71.566119)">
      <path
         id="path944"
         style="fill:#000000;stroke-width:1.5;stroke-linecap:round;stroke-linejoin:round"
         d="m -11.896379,5.8647582 c -1.374088,0.569169 -2.689501,1.220244 -3.945171,1.942866 l 1.000093,1.7325 c 1.180932,-0.678928 2.418506,-1.290959 3.711,-1.826271 1.2964092,-0.536994 2.6078575,-0.980251 3.9270302,-1.335775 l -0.5169438,-1.932647 c -1.4031342,0.377418 -2.7978004,0.848454 -4.1760084,1.419327 z m -10.934414,7.3018338 c -2.093094,2.096109 -3.88405,4.446142 -5.343444,6.977238 l 1.722761,0.995198 c 1.373499,-2.380161 3.059515,-4.590204 5.030765,-6.561342 z M 1.0108577,3.2960352 1.0104188,5.2908322 c 2.7877141,9.03e-4 5.5423514,0.372481 8.1964146,1.08526 L 9.7221716,4.4549632 C 6.9008571,3.6961372 3.9728551,3.2992882 1.0108574,3.2960372 Z M -31.544861,28.278377 c -0.75877,2.821254 -1.15586,5.748883 -1.159122,8.710839 l 1.994793,4.34e-4 c 9.47e-4,-2.787611 0.372492,-5.542444 1.085261,-8.196411 z M 17.856738,7.8256332 16.86154,9.5483962 c 2.380089,1.3734718 4.589778,3.0597668 6.560864,5.0309618 L 24.8335,13.169273 C 22.737406,11.076212 20.387822,9.2850212 17.856738,7.8256332 Z M -31.554455,45.720909 c 0.377417,1.40313 0.848454,2.797799 1.419327,4.176006 0.56917,1.37409 1.220245,2.689503 1.942867,3.94517 l 1.7325,-1.000093 c -0.679002,-1.181058 -1.2909,-2.41836 -1.826272,-3.710998 -0.536993,-1.296436 -0.98045,-2.608315 -1.335971,-3.927508 z M 30.192905,20.1583 28.460408,21.158387 c 0.678926,1.180929 1.290489,2.418704 1.825808,3.71119 0.536993,1.296408 0.980734,2.607664 1.336249,3.926835 l 1.932628,-0.516933 c -0.377418,-1.403132 -0.848931,-2.797606 -1.4198,-4.175815 -0.569167,-1.374084 -1.219756,-2.689711 -1.942402,-3.945358 z m -51.615104,39.262936 -1.411099,1.410085 c 2.095954,2.092889 4.446179,3.88366 6.977043,5.342961 l 0.994719,-1.722563 c -2.379991,-1.373453 -4.589647,-3.059352 -6.560663,-5.030483 z M 32.708992,37.00997 c -8.67e-4,2.7879 -0.372223,5.54265 -1.085063,8.196889 l 1.922086,0.514943 c 0.758717,-2.821186 1.154715,-5.749044 1.157969,-8.710921 z M -7.2061969,67.624193 -7.721337,69.545805 c 2.8211417,0.7587 5.7486093,1.15489 8.71044149,1.15816 l 9.1319e-4,-1.994987 C -1.7975982,68.708068 -4.5522195,68.336929 -7.2061969,67.624193 Z M 28.451835,52.861946 c -1.373473,2.380034 -3.059312,4.589624 -5.030484,6.560666 l 1.409885,1.410617 c 2.092975,-2.096038 3.884312,-4.445778 5.34364,-6.976762 z m -19.2477828,14.760229 0.5169409,1.93264 c 1.4032319,-0.37703 2.7978029,-0.848433 4.1760069,-1.419329 1.374105,-0.569135 2.689708,-1.219795 3.944988,-1.943237 l -0.999926,-1.732163 c -1.181057,0.679001 -2.418363,1.290902 -3.710954,1.82636 -1.296269,0.536929 -2.608009,0.980271 -3.9270345,1.335771 z" />
      <circle
         style="fill:none;stroke:#ffffff;stroke-width:0.1;stroke-linecap:round;stroke-linejoin:round;stroke-miterlimit:4;stroke-dasharray:none"
         id="path1331-5"
         cx="1.0000505"
         cy="36.999935"
         r="36.136639" />
    </g>
    <circle
       style="opacity:1;fill:none;stroke:#4d4d4d;stroke-width:0.60000085;stroke-linecap:round;stroke-linejoin:round;stroke-miterlimit:4;stroke-dasharray:none"
       id="path1998"
       cx="1.0000503"
       cy="36.999935"
       r="23.6" />
    <ellipse
       style="opacity:1;fill:none;stroke:#4d4d4d;stroke-width:0.60000085;stroke-linecap:round;stroke-linejoin:round;stroke-miterlimit:4;stroke-dasharray:none"
       id="path1998-3"
       cx="1.0000503"
       cy="36.999935"
       rx="26.200001"
       ry="26.199999" />
    <ellipse
       style="opacity:1;fill:none;stroke:#4d4d4d;stroke-width:0.60000085;stroke-linecap:round;stroke-linejoin:round;stroke-miterlimit:4;stroke-dasharray:none"
       id="path1998-3-9"
       cx="1.0000503"
       cy="36.999935"
       rx="31.4"
       ry="31.399996" />
    <ellipse
       style="opacity:1;fill:none;stroke:#4d4d4d;stroke-width:0.60000085;stroke-linecap:round;stroke-linejoin:round;stroke-miterlimit:4;stroke-dasharray:none"
       id="path1998-3-9-6"
       cx="1.0000503"
       cy="36.999935"
       rx="33.999996"
       ry="33.999992" />
    <ellipse
       style="opacity:1;fill:none;stroke:#4d4d4d;stroke-width:0.60000085;stroke-linecap:round;stroke-linejoin:round;stroke-miterlimit:4;stroke-dasharray:none"
       id="path1998-3-99"
       cx="1.0000503"
       cy="36.999935"
       rx="21"
       ry="20.999998" />
    <ellipse
       style="opacity:1;fill:none;stroke:#4d4d4d;stroke-width:0.60000085;stroke-linecap:round;stroke-linejoin:round;stroke-miterlimit:4;stroke-dasharray:none"
       id="path1998-3-99-2"
       cx="1.0000503"
       cy="36.999935"
       rx="18.4"
       ry="18.399998" />
    <ellipse
       style="opacity:1;fill:none;stroke:#4d4d4d;stroke-width:0.60000085;stroke-linecap:round;stroke-linejoin:round;stroke-miterlimit:4;stroke-dasharray:none"
       id="path1998-3-4"
       cx="1.0000503"
       cy="36.999935"
       rx="28.799999"
       ry="28.799997" />
    <circle
       style="fill:none;stroke:#00ff00;stroke-width:0.2;stroke-linecap:round;stroke-linejoin:round;stroke-miterlimit:4;stroke-dasharray:none"
       id="path955-0"
       cx="1.0376652"
       cy="12.015962"
       r="0.78432733" />
    <circle
       style="fill:none;stroke:#00ff00;stroke-width:0.2;stroke-linecap:round;stroke-linejoin:round;stroke-miterlimit:4;stroke-dasharray:none"
       id="path955-3"
       cx="1.0740536"
       cy="64.453568"
       r="0.78432733" />
    <circle
       style="fill:none;stroke:#00ff00;stroke-width:0.2;stroke-linecap:round;stroke-linejoin:round;stroke-miterlimit:4;stroke-dasharray:none"
       id="path955-2-5"
       cx="17.05883"
       cy="52.880367"
       r="0.78432733" />
    <circle
       style="fill:none;stroke:#00ff00;stroke-width:0.2;stroke-linecap:round;stroke-linejoin:round;stroke-miterlimit:4;stroke-dasharray:none"
       id="path955-8-9"
       cx="-20.323042"
       cy="15.737267"
       r="0.78432733" />
    <circle
       style="fill:none;stroke:#00ff00;stroke-width:0.2;stroke-linecap:round;stroke-linejoin:round;stroke-miterlimit:4;stroke-dasharray:none"
       id="path955-88-9-8"
       cx="-22.162237"
       cy="60.123455"
       r="0.78432733" />
    <circle
       style="fill:none;stroke:#00ff00;stroke-width:0.2;stroke-linecap:round;stroke-linejoin:round;stroke-miterlimit:4;stroke-dasharray:none"
       id="path955-0-4"
       cx="14.814904"
       cy="23.078688"
       r="0.78432733" />
    <path
       style="opacity:0.132773;fill:none;stroke:#000000;stroke-width:0.264583px;stroke-linecap:butt;stroke-linejoin:miter;stroke-opacity:1"
       d="M 24.765068,13.154013 -22.764966,60.845857"
       id="path2424" />
    <path
       style="opacity:0.132773;fill:none;stroke:#000000;stroke-width:0.264583px;stroke-linecap:butt;stroke-linejoin:miter;stroke-opacity:1"
       d="M 0.942843,3.3339168 1.057259,70.665953"
       id="path2424-4" />
    <path
       style="opacity:0.132773;fill:none;stroke:#000000;stroke-width:0.264583px;stroke-linecap:butt;stroke-linejoin:miter;stroke-opacity:1"
       d="M -22.845871,13.234918 24.845973,60.764953"
       id="path2424-8" />
    <text
       xml:space="preserve"
       style="font-size:2px;line-height:1.25;font-family:'Red Hat Mono';-inkscape-font-specification:'Red Hat Mono';fill:#00ff00;stroke-width:0.264583"
       x="-24.581879"
       y="61.347233"
       id="text4053"><tspan
         sodipodi:role="line"
         id="tspan4051"
         style="fill:#00ff00;stroke-width:0.264583"
         x="-24.581879"
         y="61.347233">1</tspan></text>
    <text
       xml:space="preserve"
       style="font-size:2px;line-height:1.25;font-family:'Red Hat Mono';-inkscape-font-specification:'Red Hat Mono';fill:#00ff00;stroke-width:0.264583"
       x="-22.630943"
       y="17.224524"
       id="text4053-6"><tspan
         sodipodi:role="line"
         id="tspan4051-3"
         style="fill:#00ff00;stroke-width:0.264583"
         x="-22.630943"
         y="17.224524">2</tspan></text>
    <text
       xml:space="preserve"
       style="font-size:2px;line-height:1.25;font-family:'Red Hat Mono';-inkscape-font-specification:'Red Hat Mono';fill:#00ff00;stroke-width:0.264583"
       x="-1.2015697"
       y="13.171542"
       id="text4053-3"><tspan
         sodipodi:role="line"
         id="tspan4051-8"
         style="fill:#00ff00;stroke-width:0.264583"
         x="-1.2015697"
         y="13.171542">4</tspan></text>
    <text
       xml:space="preserve"
       style="font-size:2px;line-height:1.25;font-family:'Red Hat Mono';-inkscape-font-specification:'Red Hat Mono';fill:#00ff00;stroke-width:0.264583"
       x="12.526292"
       y="24.078468"
       id="text4053-7"><tspan
         sodipodi:role="line"
         id="tspan4051-2"
         style="fill:#00ff00;stroke-width:0.264583"
         x="12.526292"
         y="24.078468">6</tspan></text>
    <text
       xml:space="preserve"
       style="font-size:2px;line-height:1.25;font-family:'Red Hat Mono';-inkscape-font-specification:'Red Hat Mono';fill:#00ff00;stroke-width:0.264583"
       x="-1.1515437"
       y="66.089355"
       id="text4053-1"><tspan
         sodipodi:role="line"
         id="tspan4051-7"
         style="fill:#00ff00;stroke-width:0.264583"
         x="-1.1515437"
         y="66.089355">3</tspan></text>
    <text
       xml:space="preserve"
       style="font-size:2px;line-height:1.25;font-family:'Red Hat Mono';-inkscape-font-specification:'Red Hat Mono';fill:#00ff00;stroke-width:0.264583"
       x="14.879108"
       y="54.951221"
       id="text4053-0"><tspan
         sodipodi:role="line"
         id="tspan4051-0"
         style="fill:#00ff00;stroke-width:0.264583"
         x="14.879108"
         y="54.951221">5</tspan></text>
  </g>
</svg>
