<?xml version="1.0" encoding="UTF-8" standalone="no"?>
<!-- Created with Inkscape (http://www.inkscape.org/) -->

<svg
   width="74mm"
   height="74mm"
   viewBox="0 0 74 74"
   version="1.1"
   id="svg3623"
   inkscape:version="1.1.2 (b8e25be833, 2022-02-05)"
   sodipodi:docname="encoder_pattern_48_2.2mm.svg"
   xmlns:inkscape="http://www.inkscape.org/namespaces/inkscape"
   xmlns:sodipodi="http://sodipodi.sourceforge.net/DTD/sodipodi-0.dtd"
   xmlns="http://www.w3.org/2000/svg"
   xmlns:svg="http://www.w3.org/2000/svg">
  <sodipodi:namedview
     id="namedview3625"
     pagecolor="#505050"
     bordercolor="#eeeeee"
     borderopacity="1"
     inkscape:pageshadow="0"
     inkscape:pageopacity="0"
     inkscape:pagecheckerboard="0"
     inkscape:document-units="mm"
     showgrid="false"
     inkscape:snap-object-midpoints="true"
     inkscape:zoom="4.2404842"
     inkscape:cx="180.29508"
     inkscape:cy="167.85002"
     inkscape:window-width="3440"
     inkscape:window-height="1369"
     inkscape:window-x="-8"
     inkscape:window-y="-8"
     inkscape:window-maximized="1"
     inkscape:current-layer="tPlace"
     fit-margin-top="0"
     fit-margin-left="0"
     fit-margin-right="0"
     fit-margin-bottom="0"
     inkscape:rotation="1" />
  <defs
     id="defs3620">
    <inkscape:path-effect
       effect="copy_rotate"
       starting_point="77.666387,54.869563"
       origin="59.711954,54.869563"
       id="path-effect4256"
       is_visible="true"
       lpeversion="1"
       method="normal"
       num_copies="48"
       starting_angle="0"
       rotation_angle="7.5"
       gap="-0.01"
       copies_to_360="true"
       mirror_copies="false"
       split_items="false" />
  </defs>
  <g
     inkscape:label="tPlace"
     inkscape:groupmode="layer"
     id="tPlace"
     transform="translate(36)">
    <g
       id="g1838"
       transform="rotate(-135,1.0000504,36.999935)" />
    <g
       id="g1834"
       transform="rotate(-45,1.0000509,36.999935)" />
    <g
       id="g1830"
       transform="rotate(180,1.0000505,36.999935)" />
    <g
       id="g1826" />
    <g
       id="g1822"
       transform="rotate(135,1.0000506,36.999935)" />
    <g
       id="g1818"
       transform="rotate(45,1.0000501,36.999935)">
      <path
         id="path944"
         style="fill:#000000;stroke-width:1.5;stroke-linecap:round;stroke-linejoin:round"
         d="m -11.896379,5.8647582 c -1.374088,0.569169 -2.689501,1.220244 -3.945171,1.942866 l 1.000093,1.7325 c 1.180932,-0.678928 2.418506,-1.290959 3.711,-1.826271 1.2964092,-0.536994 2.6078575,-0.980251 3.9270302,-1.335775 l -0.5169438,-1.932647 c -1.4031342,0.377418 -2.7978004,0.848454 -4.1760084,1.419327 z m -10.934414,7.3018338 c -2.093094,2.096109 -3.88405,4.446142 -5.343444,6.977238 l 1.722761,0.995198 c 1.373499,-2.380161 3.059515,-4.590204 5.030765,-6.561342 z M 1.0108577,3.2960352 1.0104188,5.2908322 c 2.7877141,9.03e-4 5.5423514,0.372481 8.1964146,1.08526 L 9.7221716,4.4549632 C 6.9008571,3.6961372 3.9728551,3.2992882 1.0108574,3.2960372 Z M -31.544861,28.278377 c -0.75877,2.821254 -1.15586,5.748883 -1.159122,8.710839 l 1.994793,4.34e-4 c 9.47e-4,-2.787611 0.372492,-5.542444 1.085261,-8.196411 z M 17.856738,7.8256332 16.86154,9.5483962 c 2.380089,1.3734718 4.589778,3.0597668 6.560864,5.0309618 L 24.8335,13.169273 C 22.737406,11.076212 20.387822,9.2850212 17.856738,7.8256332 Z M -31.554455,45.720909 c 0.377417,1.40313 0.848454,2.797799 1.419327,4.176006 0.56917,1.37409 1.220245,2.689503 1.942867,3.94517 l 1.7325,-1.000093 c -0.679002,-1.181058 -1.2909,-2.41836 -1.826272,-3.710998 -0.536993,-1.296436 -0.98045,-2.608315 -1.335971,-3.927508 z M 30.192905,20.1583 28.460408,21.158387 c 0.678926,1.180929 1.290489,2.418704 1.825808,3.71119 0.536993,1.296408 0.980734,2.607664 1.336249,3.926835 l 1.932628,-0.516933 c -0.377418,-1.403132 -0.848931,-2.797606 -1.4198,-4.175815 -0.569167,-1.374084 -1.219756,-2.689711 -1.942402,-3.945358 z m -51.615104,39.262936 -1.411099,1.410085 c 2.095954,2.092889 4.446179,3.88366 6.977043,5.342961 l 0.994719,-1.722563 c -2.379991,-1.373453 -4.589647,-3.059352 -6.560663,-5.030483 z M 32.708992,37.00997 c -8.67e-4,2.7879 -0.372223,5.54265 -1.085063,8.196889 l 1.922086,0.514943 c 0.758717,-2.821186 1.154715,-5.749044 1.157969,-8.710921 z M -7.2061969,67.624193 -7.721337,69.545805 c 2.8211417,0.7587 5.7486093,1.15489 8.71044149,1.15816 l 9.1319e-4,-1.994987 C -1.7975982,68.708068 -4.5522195,68.336929 -7.2061969,67.624193 Z M 28.451835,52.861946 c -1.373473,2.380034 -3.059312,4.589624 -5.030484,6.560666 l 1.409885,1.410617 c 2.092975,-2.096038 3.884312,-4.445778 5.34364,-6.976762 z m -19.2477828,14.760229 0.5169409,1.93264 c 1.4032319,-0.37703 2.7978029,-0.848433 4.1760069,-1.419329 1.374105,-0.569135 2.689708,-1.219795 3.944988,-1.943237 l -0.999926,-1.732163 c -1.181057,0.679001 -2.418363,1.290902 -3.710954,1.82636 -1.296269,0.536929 -2.608009,0.980271 -3.9270345,1.335771 z M 29.732659,25.098122 C 27.566548,19.868908 24.134535,15.544547 19.938555,12.331651 l -1.212576,1.580118 c 3.92091,3.006722 7.128901,7.054792 9.157602,11.952266 z m 2.100145,15.969073 -1.97493,-0.260369 c -0.669968,5.056133 -2.661817,9.863987 -5.764248,13.912303 l 1.579442,1.2123 c 3.310916,-4.326474 5.44044,-9.464011 6.159736,-14.864234 z M 5.0577945,6.165895 C -0.18076355,5.469683 -5.6652875,6.099635 -10.894684,8.264263 l 0.765918,1.849076 C -5.2312795,8.08614 -0.10070055,7.493465 4.7974465,8.140903 Z M 12.127389,63.887551 C 7.2300155,65.914378 2.1000895,66.507074 -2.7978575,65.859658 l -0.260089,1.974256 c 5.237958,0.696054 10.721944,0.06699 15.9507795,-2.097036 z m -34.221113,-44.606927 -1.580117,-1.212575 c -3.311009,4.326506 -5.439551,9.464681 -6.158862,14.86499 l 1.974253,0.260088 c 0.669976,-5.056222 2.662206,-9.864137 5.764726,-13.912503 z m 5.367259,40.807523 c -3.920769,-3.006621 -7.128493,-7.054058 -9.157202,-11.951311 l -1.849275,0.765434 c 2.16605,5.229078 5.598555,9.552926 9.794377,12.765796 z m -10.532859,-26.80809 c -1.326254,10.059145 2.852769,20.151193 10.901549,26.328216 l 1.216329,-1.584759 c -7.496856,-5.743338 -11.379985,-15.120233 -10.137402,-24.48246 z m 17.3631272,-22.608004 0.7605082,1.836982 c 6.2617834,-2.5915032 13.5134074,-2.7926899 20.2769386,0.0089 2.192188,0.908039 4.196043,2.076898 5.99381,3.453138 l 1.21653,-1.585241 C 16.4184,12.90313 14.263806,11.644929 11.907171,10.668797 4.6444466,7.6604986 -3.1572712,7.8830102 -9.8961968,10.672053 Z m 21.0408568,50.815379 0.760984,1.83718 c 6.740105,-2.792245 12.416598,-8.152988 15.4259,-15.417981 0.975225,-2.354399 1.608528,-4.765325 1.927386,-7.178415 l -1.980714,-0.26166 c -0.298273,2.242482 -0.888478,4.483817 -1.795787,6.674152 -2.802453,6.765722 -8.074891,11.752171 -14.337806,14.346714 z M 24.928759,46.911717 C 30.398193,33.707338 24.115757,18.540194 10.911378,13.070763 8.7720671,12.184625 6.5811618,11.608879 4.3883926,11.319207 l -0.2611932,1.980949 c 2.0219817,0.269155 4.0431609,0.801601 6.0182546,1.619731 12.205774,5.055798 17.990012,19.020183 12.934213,31.225963 -0.818905,1.976997 -1.872856,3.784239 -3.113838,5.405525 l 1.585301,1.2165 c 1.347332,-1.756682 2.490702,-3.714759 3.377692,-5.856132 z m -46.018122,-0.770862 c -2.336897,-5.647044 -2.517383,-12.18636 0.0094,-18.286574 0.818966,-1.977162 1.872445,-3.784816 3.113541,-5.406213 l -1.584761,-1.21633 c -1.34749,1.756799 -2.490825,3.715047 -3.377862,5.856628 -2.733611,6.599522 -2.532079,13.689213 0.0025,19.813458 z m 0.562947,-0.224549 C -15.606494,57.794053 -1.9607363,63.446308 9.9170047,58.526385 21.794752,53.606462 27.447008,39.960707 22.527085,28.082961 20.06823,22.146758 15.429917,17.765526 9.9219907,15.481862 l -0.760905,1.836026 C 14.192604,19.404122 18.42783,23.411069 20.679915,28.848085 25.186203,39.727229 20.030236,52.171019 9.1510917,56.67731 -1.7280493,61.183595 -14.171049,56.029536 -18.677338,45.150393 c -0.729741,-1.761752 -1.205076,-3.564487 -1.444876,-5.368007 l -1.980671,0.260521 c 0.260309,1.974562 0.778582,3.947078 1.576464,5.8734 z m 5.097973,3.680149 1.583921,-1.214304 c -0.969559,-1.267564 -1.793208,-2.680387 -2.433328,-4.225847 -3.956805,-9.552495 0.568471,-20.477482 10.1209815,-24.434259 1.5468218,-0.640715 3.1296768,-1.057562 4.7129663,-1.268115 l -0.2604034,-1.979042 c -1.7540928,0.231185 -3.5065925,0.691216 -5.2176977,1.399941 C -17.4731,22.24529 -22.495459,34.370331 -18.125041,44.921441 c 0.708052,1.709399 1.621169,3.272262 2.696584,4.675022 z" />
    </g>
  </g>
</svg>
