<?xml version="1.0" encoding="UTF-8" standalone="no"?>
<!-- Created with Inkscape (http://www.inkscape.org/) -->

<svg
   width="74mm"
   height="74mm"
   viewBox="0 0 74 74"
   version="1.1"
   id="svg3623"
   inkscape:version="1.1.2 (b8e25be833, 2022-02-05)"
   sodipodi:docname="encoder_pattern_48_cnt_v2.svg"
   xmlns:inkscape="http://www.inkscape.org/namespaces/inkscape"
   xmlns:sodipodi="http://sodipodi.sourceforge.net/DTD/sodipodi-0.dtd"
   xmlns="http://www.w3.org/2000/svg"
   xmlns:svg="http://www.w3.org/2000/svg">
  <sodipodi:namedview
     id="namedview3625"
     pagecolor="#505050"
     bordercolor="#eeeeee"
     borderopacity="1"
     inkscape:pageshadow="0"
     inkscape:pageopacity="0"
     inkscape:pagecheckerboard="0"
     inkscape:document-units="mm"
     showgrid="false"
     inkscape:snap-object-midpoints="true"
     inkscape:zoom="2.8284271"
     inkscape:cx="273.75794"
     inkscape:cy="94.938781"
     inkscape:window-width="3440"
     inkscape:window-height="1369"
     inkscape:window-x="-8"
     inkscape:window-y="-8"
     inkscape:window-maximized="1"
     inkscape:current-layer="tPlace"
     fit-margin-top="0"
     fit-margin-left="0"
     fit-margin-right="0"
     fit-margin-bottom="0"
     inkscape:rotation="1"
     inkscape:snap-center="true"
     inkscape:snap-bbox="true"
     inkscape:snap-bbox-midpoints="true" />
  <defs
     id="defs3620">
    <inkscape:path-effect
       effect="copy_rotate"
       starting_point="0,0"
       origin="1,37"
       id="path-effect7774"
       is_visible="true"
       lpeversion="1"
       method="normal"
       num_copies="48"
       starting_angle="0"
       rotation_angle="60"
       gap="-0.01"
       copies_to_360="true"
       mirror_copies="false"
       split_items="false" />
    <inkscape:path-effect
       effect="copy_rotate"
       starting_point="0,0"
       origin="0,0"
       id="path-effect7688"
       is_visible="true"
       lpeversion="1"
       method="normal"
       num_copies="6"
       starting_angle="0"
       rotation_angle="60"
       gap="-0.12"
       copies_to_360="true"
       mirror_copies="false"
       split_items="false" />
    <inkscape:path-effect
       effect="copy_rotate"
       starting_point="77.666387,54.869563"
       origin="59.711954,54.869563"
       id="path-effect4256"
       is_visible="true"
       lpeversion="1"
       method="normal"
       num_copies="48"
       starting_angle="0"
       rotation_angle="7.5"
       gap="-0.01"
       copies_to_360="true"
       mirror_copies="false"
       split_items="false" />
  </defs>
  <g
     inkscape:label="tPlace"
     inkscape:groupmode="layer"
     id="tPlace"
     transform="translate(36)">
    <path
       style="color:#000000;fill:#ffffff;stroke-linejoin:round;-inkscape-stroke:none"
       d="m 1.0019531,3.3007813 v 1.9999999 c 2.7702105,8.74e-5 5.5273236,0.3630337 8.203125,1.0800782 L 9.7226563,4.4492187 C 6.8780377,3.6869358 3.946937,3.3008742 1.0019531,3.3007813 Z m -8.7226562,1.1464843 c -2.8446129,0.7621417 -5.5784599,1.8948066 -8.1289059,3.3671875 l 1,1.7324219 c 2.399087,-1.3850008 4.9706875,-2.4491041 7.646484,-3.1660156 z m 25.5722651,3.3671875 -1,1.7324219 c 2.399128,1.385207 4.605593,3.080115 6.564454,5.039063 l 1.414062,-1.414063 C 22.747633,11.089337 20.402052,9.2870527 17.851562,7.8144531 Z m -40.68164,5.3554689 c -2.082487,2.082487 -3.882928,4.429953 -5.355469,6.980469 l 1.732422,1 c 1.385151,-2.399152 3.07821,-4.607507 5.037109,-6.566407 z m 53.015625,6.980469 -1.732422,1 c 1.385027,2.399055 2.449066,4.96876 3.166016,7.644531 l 1.933593,-0.517578 c -0.762181,-2.844587 -1.894778,-5.576541 -3.367187,-8.126953 z m -61.738281,8.126953 C -32.314921,31.121977 -32.699219,34.055027 -32.699219,37 h 2 c 0,-2.7702 0.363124,-5.529263 1.080078,-8.205078 z M 32.699219,37 c -10e-7,2.770209 -0.363119,5.529255 -1.080078,8.205078 l 1.933593,0.517578 C 34.314927,42.878015 34.699218,39.944983 34.699219,37 Z m -62.31836,8.205078 -0.972656,0.259766 -0.958984,0.257812 c 0.0034,0.01256 0.0083,0.02456 0.01172,0.03711 0.762125,2.831074 1.887528,5.550679 3.353515,8.089843 l 1.732422,-1 c -1.3851,-2.399063 -2.449009,-4.96873 -3.166016,-7.644531 z m 58.072266,7.644531 c -1.385187,2.399224 -3.078142,4.607462 -5.037109,6.566407 l 1.414062,1.414062 c 2.082559,-2.082535 3.88289,-4.429877 5.355469,-6.980469 z m -49.869141,6.566407 -1.414062,1.414062 c 2.082487,2.082487 4.429953,3.882928 6.980469,5.355469 l 1,-1.732422 c -2.399152,-1.385151 -4.607507,-3.07821 -6.566407,-5.037109 z m 38.265625,5.037109 c -2.399249,1.385201 -4.96851,2.449013 -7.6445309,3.166016 l 0.5175782,1.933593 c 2.8448517,-0.762238 5.5763347,-1.894593 8.1269527,-3.367187 z m -24.0546871,3.166016 -0.5175781,1.933593 C -4.8780242,70.314922 -1.9449723,70.699218 1,70.699219 v -2 c -2.7701996,-10e-7 -5.5292641,-0.363123 -8.2050781,-1.080078 z"
       id="path24845" />
    <path
       style="color:#000000;fill:#ffffff;stroke-linejoin:round;-inkscape-stroke:none"
       d="m -3.0332031,6.3652344 c -2.6772546,0.3523737 -5.2961831,1.0526563 -7.7910159,2.0859375 l 0.765625,1.8476561 c 2.3333578,-0.9664032 4.7831371,-1.621605 7.2871096,-1.9511717 z m 8.0683593,0 -0.2617187,1.9824219 c 2.50388,0.3297293 4.9538762,0.9866055 7.2871095,1.9531247 L 12.826172,8.453125 C 10.331472,7.4197196 7.7123119,6.7177819 5.0351562,6.3652344 Z M -17.810547,12.486328 c -2.142292,1.643826 -4.059264,3.56086 -5.703125,5.703125 l 1.585938,1.216797 c 1.537464,-2.00361 3.33035,-3.796553 5.333984,-5.333984 z m 37.621094,0 -1.216797,1.585938 c 2.003487,1.537424 3.796636,3.330438 5.333984,5.333984 l 1.587891,-1.216797 c -1.643737,-2.142197 -3.562944,-4.059306 -5.705078,-5.703125 z m -47.359375,12.689453 c -1.033394,2.494832 -1.733466,5.113731 -2.085938,7.791016 l 1.982422,0.261719 c 0.329658,-2.504001 0.986617,-4.953753 1.953125,-7.28711 z m 57.097656,0 -1.847656,0.765625 c 0.96641,2.333228 1.621534,4.783265 1.951172,7.28711 l 1.982422,-0.261719 c -0.35245,-2.677118 -1.052649,-5.296322 -2.085938,-7.791016 z m -57.201172,15.595703 -1.982422,0.261719 c 0.352472,2.677285 1.052544,5.296184 2.085938,7.791016 l 1.849609,-0.763672 c -0.966508,-2.333357 -1.623467,-4.785062 -1.953125,-7.289063 z m 57.304688,0.002 c -0.329663,2.503885 -0.98667,4.951902 -1.953125,7.285157 l 1.849609,0.765625 c 1.033336,-2.494723 1.733462,-5.113856 2.085938,-7.791016 z m -51.580078,13.820313 -1.585938,1.216797 c 1.643853,2.142295 3.56083,4.059272 5.703125,5.703125 l 1.216797,-1.585938 c -2.003638,-1.537457 -3.796527,-3.330346 -5.333984,-5.333984 z m 45.855468,0 c -1.53746,2.003632 -3.330344,3.796533 -5.333984,5.333984 l 1.216797,1.587891 c 2.142297,-1.643847 4.059268,-3.562789 5.703125,-5.705078 z m -33.988281,9.105469 -0.763672,1.849609 c 2.4948318,1.033393 5.1137319,1.733467 7.7910159,2.085938 l 0.2617187,-1.982422 c -2.504,-0.329658 -4.9557058,-0.986618 -7.2890626,-1.953125 z m 22.121094,0 C 9.7271646,64.66577 7.2755219,65.322661 4.7714844,65.652344 l 0.2617187,1.982422 C 7.7105272,67.282268 10.32936,66.580315 12.824219,65.546875 Z"
       id="path24791" />
    <path
       style="color:#000000;fill:#ffffff;stroke-linejoin:round;-inkscape-stroke:none"
       d="m 141.69531,33.654297 -0.13086,7.55664 c 3.15682,0.05508 6.30832,0.261718 9.44532,0.619141 l 0.85546,-7.509766 c -3.37738,-0.384812 -6.7712,-0.606709 -10.16992,-0.666015 z"
       id="path24787"
       transform="matrix(0.26458333,0,0,0.26458333,-36,0)" />
  </g>
</svg>
