<?xml version="1.0" encoding="UTF-8" standalone="no"?>
<!-- Created with Inkscape (http://www.inkscape.org/) -->

<svg
   width="74mm"
   height="74mm"
   viewBox="0 0 74 74"
   version="1.1"
   id="svg3623"
   inkscape:version="1.1.2 (b8e25be833, 2022-02-05)"
   sodipodi:docname="encoder_pattern_48_cnt.svg"
   xmlns:inkscape="http://www.inkscape.org/namespaces/inkscape"
   xmlns:sodipodi="http://sodipodi.sourceforge.net/DTD/sodipodi-0.dtd"
   xmlns="http://www.w3.org/2000/svg"
   xmlns:svg="http://www.w3.org/2000/svg">
  <sodipodi:namedview
     id="namedview3625"
     pagecolor="#505050"
     bordercolor="#eeeeee"
     borderopacity="1"
     inkscape:pageshadow="0"
     inkscape:pageopacity="0"
     inkscape:pagecheckerboard="0"
     inkscape:document-units="mm"
     showgrid="false"
     inkscape:snap-object-midpoints="true"
     inkscape:zoom="2.9984751"
     inkscape:cx="240.5838"
     inkscape:cy="148.56817"
     inkscape:window-width="3440"
     inkscape:window-height="1369"
     inkscape:window-x="-8"
     inkscape:window-y="-8"
     inkscape:window-maximized="1"
     inkscape:current-layer="tPlace"
     fit-margin-top="0"
     fit-margin-left="0"
     fit-margin-right="0"
     fit-margin-bottom="0"
     inkscape:rotation="1"
     inkscape:snap-center="true"
     inkscape:snap-bbox="true"
     inkscape:snap-bbox-midpoints="true" />
  <defs
     id="defs3620">
    <inkscape:path-effect
       effect="copy_rotate"
       starting_point="0,0"
       origin="1,37"
       id="path-effect7774"
       is_visible="true"
       lpeversion="1"
       method="normal"
       num_copies="48"
       starting_angle="0"
       rotation_angle="60"
       gap="-0.01"
       copies_to_360="true"
       mirror_copies="false"
       split_items="false" />
    <inkscape:path-effect
       effect="copy_rotate"
       starting_point="0,0"
       origin="0,0"
       id="path-effect7688"
       is_visible="true"
       lpeversion="1"
       method="normal"
       num_copies="6"
       starting_angle="0"
       rotation_angle="60"
       gap="-0.12"
       copies_to_360="true"
       mirror_copies="false"
       split_items="false" />
    <inkscape:path-effect
       effect="copy_rotate"
       starting_point="77.666387,54.869563"
       origin="59.711954,54.869563"
       id="path-effect4256"
       is_visible="true"
       lpeversion="1"
       method="normal"
       num_copies="48"
       starting_angle="0"
       rotation_angle="7.5"
       gap="-0.01"
       copies_to_360="true"
       mirror_copies="false"
       split_items="false" />
  </defs>
  <g
     inkscape:label="tPlace"
     inkscape:groupmode="layer"
     id="tPlace"
     transform="translate(36)">
    <path
       id="path18556"
       style="color:#000000;fill:#ffffff;stroke-linejoin:round;-inkscape-stroke:none"
       d="m 139.8418,33.638672 v 7.558594 c 4.30551,0 8.60631,0.281799 12.875,0.84375 l 0.98828,-7.494141 c -4.59579,-0.605012 -9.22784,-0.908203 -13.86328,-0.908203 z M 249.0332,142.70312 c -0.0499,1.90544 -0.14927,3.80877 -0.29883,5.70899 l 7.53516,0.59375 c 0.1599,-2.03172 0.26694,-4.06817 0.32031,-6.10547 z m -1.30664,14.22657 c -0.29818,1.88266 -0.64668,3.75661 -1.04297,5.62109 l 7.39453,1.57227 c 0.42372,-1.99351 0.79447,-3.99877 1.11329,-6.01172 z m -3.15429,13.93359 c -0.54184,1.82928 -1.13069,3.64497 -1.76758,5.44336 l 7.125,2.52344 c 0.68097,-1.92285 1.31129,-3.86444 1.89062,-5.82031 z m -4.94532,13.4082 c -0.7753,1.74132 -1.59558,3.46179 -2.46093,5.16016 l 6.73437,3.43164 c 0.92525,-1.8159 1.80385,-3.65575 2.63281,-5.51758 z m -6.65234,12.64258 c -0.99584,1.62507 -2.03378,3.22419 -3.11328,4.79492 l 6.23047,4.28125 c 1.1542,-1.67943 2.26337,-3.38942 3.32812,-5.12695 z m -8.24609,11.66797 c -1.20016,1.48209 -2.43875,2.93239 -3.71485,4.34961 l 5.61719,5.05859 c 1.36441,-1.5153 2.68944,-3.06573 3.97266,-4.65039 z m -9.69727,10.49219 c -1.38294,1.31236 -2.80027,2.58799 -4.25,3.82617 l 4.9082,5.74805 c 1.55006,-1.32387 3.06628,-2.68862 4.54492,-4.0918 z m -10.98633,9.13672 c -1.54262,1.12078 -3.11371,2.19978 -4.71289,3.23828 l 4.11719,6.33984 c 1.70984,-1.11037 3.38968,-2.26454 5.03906,-3.46289 z m -12.08203,7.62304 c -1.67611,0.91008 -3.3762,1.77659 -5.09766,2.59766 l 3.25391,6.82227 c 1.84059,-0.8779 3.65907,-1.80429 5.45117,-2.77735 z m -12.97656,5.98243 c -1.77976,0.68318 -3.57755,1.3191 -5.39063,1.9082 l 2.33594,7.18945 c 1.93855,-0.62987 3.86075,-1.31056 5.76367,-2.04101 z m -13.64453,4.23632 c -1.85407,0.44513 -3.72088,0.84199 -5.59571,1.18946 l 1.37891,7.43164 c 2.00457,-0.37151 3.99809,-0.79556 5.98047,-1.27149 z m -14.08203,2.41993 c -1.89647,0.19932 -3.79688,0.34944 -5.70118,0.44921 l 0.39453,7.54883 c 2.03609,-0.10668 4.06995,-0.26735 6.09766,-0.48047 z m -19.98633,0.26171 -0.59375,7.53516 c 2.03216,0.15994 4.06772,0.26695 6.10547,0.32031 l 0.19726,-7.55664 c -1.90585,-0.0499 -3.80835,-0.14924 -5.70898,-0.29883 z m -14.14063,-2.05078 -1.57031,7.39453 c 1.99351,0.42372 3.99681,0.79447 6.00977,1.11329 l 1.18359,-7.46485 c -1.88266,-0.29818 -3.75857,-0.64668 -5.62305,-1.04297 z m -13.7539,-3.8789 -2.52344,7.125 c 1.92204,0.68067 3.86137,1.3115 5.81641,1.89062 l 2.14843,-7.24804 c -1.8285,-0.54164 -3.64377,-1.13097 -5.4414,-1.76758 z m -13.125004,-5.63867 -3.43164,6.73437 c 1.816444,0.92553 3.657133,1.80363 5.519531,2.63281 l 3.074219,-6.90625 c -1.741854,-0.77551 -3.463235,-1.59531 -5.16211,-2.46093 z m -12.277344,-7.30469 -4.28125,6.23047 c 1.679438,1.1542 3.387475,2.26337 5.125,3.32812 l 3.951172,-6.44531 c -1.625063,-0.99584 -3.224186,-2.03378 -4.794922,-3.11328 z m -11.222656,-8.84571 -5.058594,5.61719 c 1.515329,1.36442 3.067663,2.68749 4.652344,3.97071 l 4.75586,-5.87305 c -1.482113,-1.20016 -2.932361,-2.43874 -4.34961,-3.71485 z m -9.96875,-10.23437 -5.748047,4.9082 c 1.323968,1.55017 2.688508,3.06618 4.091797,4.54492 l 5.482422,-5.20312 c -1.312461,-1.38303 -2.587898,-2.80017 -3.826172,-4.25 z m -8.548828,-11.44922 -6.339844,4.11719 c 1.110064,1.70938 2.264897,3.38816 3.462891,5.03711 l 6.115234,-4.44141 c -1.120453,-1.54222 -2.200066,-3.11415 -3.238281,-4.71289 z m -6.982422,-12.4668 -6.822265,3.25391 c 0.877641,1.84007 1.80264,3.65761 2.77539,5.44922 l 6.642578,-3.60742 c -0.909788,-1.67565 -1.774867,-3.37474 -2.595703,-5.09571 z m -5.292969,-13.26953 -7.189453,2.33594 c 0.629872,1.93854 1.310559,3.86075 2.041016,5.76367 l 7.056641,-2.70898 c -0.683178,-1.77976 -1.319101,-3.57756 -1.908204,-5.39063 z m -3.517578,-13.84961 -7.433593,1.37891 c 0.37151,2.00456 0.795559,3.9981 1.271484,5.98047 l 7.351562,-1.76367 c -0.445121,-1.85406 -0.841988,-3.72089 -1.189453,-5.59571 z m -1.679687,-14.1875 -7.548828,0.39453 c 0.106683,2.03611 0.267346,4.06993 0.480468,6.09766 l 7.517579,-0.79101 c -0.199329,-1.89649 -0.349441,-3.79686 -0.449219,-5.70118 z m -7.347656,-14.8789 c -0.159933,2.03214 -0.266953,4.06774 -0.320313,6.10547 l 7.556641,0.19726 c 0.04991,-1.90583 0.149247,-3.80837 0.298828,-5.70898 z m 2.191406,-15.11719 c -0.423713,1.99351 -0.796414,3.99682 -1.115235,6.00977 l 7.466797,1.18359 C 32.257169,120.8732 32.603712,118.99729 33,117.13281 Z m 4.146484,-14.70703 c -0.680674,1.92204 -1.309551,3.86136 -1.888672,5.81641 l 7.248047,2.14843 c 0.541637,-1.8285 1.130961,-3.64376 1.767578,-5.4414 z m 6.029297,-14.033204 c -0.925524,1.816444 -1.801678,3.657133 -2.630859,5.519531 l 6.904297,3.074219 c 0.775512,-1.741854 1.59727,-3.463235 2.46289,-5.16211 z M 43.59375,73.695312 c -1.154206,1.679438 -2.263368,3.387475 -3.328125,5.125 l 6.445312,3.951172 c 0.995841,-1.625063 2.033782,-3.224186 3.113282,-4.794922 z m 9.458984,-11.998046 c -1.363771,1.514621 -2.688057,3.064528 -3.970703,4.648437 l 5.875,4.755859 c 1.199627,-1.48139 2.43739,-2.931068 3.712891,-4.347656 z m 10.94336,-10.660157 c -1.550043,1.323862 -3.066289,2.686674 -4.544922,4.089844 l 5.203125,5.484375 c 1.382928,-1.31235 2.800284,-2.587997 4.25,-3.826172 z m 12.238281,-9.140625 c -1.709037,1.109901 -3.388483,2.265094 -5.037109,3.462891 l 4.443359,6.115234 c 1.541919,-1.120269 3.112518,-2.200219 4.710937,-3.238281 z m 13.330078,-7.464843 c -1.840241,0.877726 -3.655493,1.802537 -5.447266,2.77539 l 3.605469,6.644531 c 1.675801,-0.909885 3.376525,-1.77674 5.097656,-2.597656 z m 14.189457,-5.660157 c -1.93853,0.629865 -3.860772,1.310568 -5.763676,2.041016 l 2.708986,7.056641 c 1.77974,-0.68317 3.57757,-1.319107 5.39062,-1.908204 z m 14.80468,-3.759765 c -2.0039,0.371423 -3.99874,0.793761 -5.98046,1.269531 l 1.76562,7.351562 c 1.85346,-0.444976 3.71759,-0.842069 5.5918,-1.189453 z m 15.17188,-1.796875 c -2.03632,0.106718 -4.06972,0.267288 -6.09766,0.480468 l 0.79102,7.517579 c 1.89668,-0.199382 3.79861,-0.349408 5.70312,-0.449219 z m 9.16797,-0.119141 -0.19727,7.556641 c 1.90596,0.0499 3.81021,0.149242 5.71094,0.298828 l 0.59375,-7.535156 c -2.03227,-0.159939 -4.06957,-0.266961 -6.10742,-0.320313 z m 15.21289,1.396484 -1.1836,7.466797 c 1.88302,0.298219 3.75822,0.644658 5.62305,1.041016 l 1.57227,-7.392578 c -1.99388,-0.423788 -3.99839,-0.796378 -6.01172,-1.115235 z m 14.90039,3.371094 -2.14844,7.248047 c 1.82855,0.541625 3.64372,1.130968 5.44141,1.767578 l 2.52343,-7.125 c -1.92209,-0.680666 -3.86131,-1.311517 -5.8164,-1.890625 z m 14.33203,5.289063 -3.07422,6.904297 c 1.74138,0.775315 3.46174,1.597516 5.16016,2.46289 l 3.43164,-6.736328 c -1.81596,-0.925261 -3.65569,-1.801889 -5.51758,-2.630859 z m 13.51953,7.113281 -3.94922,6.443359 c 1.6256,0.996159 3.22369,2.035363 4.79492,3.115235 l 4.28321,-6.228516 c -1.67997,-1.154604 -3.39082,-2.264981 -5.12891,-3.330078 z m 12.47656,8.816406 -4.75586,5.875 c 1.48125,1.199522 2.92925,2.437509 4.34571,3.712891 l 5.05859,-5.617188 c -1.51448,-1.363643 -3.06468,-2.688169 -4.64844,-3.970703 z m 11.21875,10.371094 -5.48437,5.203125 c 1.31227,1.382869 2.58807,2.798397 3.82617,4.248047 l 5.74805,-4.908203 c -1.32379,-1.549972 -2.68676,-3.064399 -4.08985,-4.542969 z m 9.76758,11.744141 -6.11523,4.441406 c 1.12072,1.542542 2.19983,3.115757 3.23828,4.714844 l 6.33984,-4.117188 c -1.11031,-1.70975 -2.26461,-3.38977 -3.46289,-5.039062 z m 8.15039,12.919921 -6.64258,3.605469 c 0.90975,1.675558 1.7749,3.374827 2.59571,5.095703 l 6.82422,-3.253906 c -0.87761,-1.839969 -1.80464,-3.655752 -2.77735,-5.447266 z m 6.39649,13.873047 -7.05664,2.708986 c 0.68318,1.77978 1.3191,3.57753 1.9082,5.39062 l 7.18945,-2.33593 c -0.62987,-1.93857 -1.31055,-3.860726 -2.04101,-5.763676 z m 4.52929,14.587896 -7.34961,1.76562 c 0.44495,1.85332 0.84209,3.71774 1.18946,5.5918 l 7.43164,-1.37696 c -0.37141,-2.00375 -0.79575,-3.99889 -1.27149,-5.98046 z m 2.58789,15.05859 -7.51757,0.78906 c 0.19918,1.89539 0.34946,3.79601 0.44921,5.69922 l 7.54883,-0.39453 c -0.10665,-2.03493 -0.26749,-4.06719 -0.48047,-6.09375 z m 3.5,18.47656 c -0.10943,2.08841 -0.27359,4.17213 -0.49218,6.25195 l 7.51757,0.79102 c 0.23239,-2.21104 0.40515,-4.42827 0.52149,-6.64844 z m -1.84375,15.5625 c -0.38114,2.05648 -0.81447,4.10301 -1.30273,6.13672 l 7.34961,1.76562 c 0.51907,-2.16201 0.98153,-4.33721 1.38672,-6.52343 z m -3.85742,15.19141 c -0.64605,1.98826 -1.34455,3.96036 -2.09375,5.91211 l 7.05664,2.70898 c 0.79647,-2.07488 1.53975,-4.17145 2.22657,-6.28516 z m -5.80664,14.55468 c -0.90019,1.88732 -1.84993,3.75027 -2.84765,5.5879 l 6.64257,3.60742 c 1.06068,-1.95357 2.07036,-3.93502 3.02735,-5.94141 z m -7.65762,13.67656 c -1.13898,1.75387 -2.32147,3.47547 -3.55068,5.16732 l 6.1122,4.4439 c 1.30677,-1.7986 2.56869,-3.6276 3.77953,-5.49213 z m -9.37753,12.55587 c -1.35817,1.5902 -2.75774,3.14322 -4.19727,4.66015 l 5.48242,5.20313 c 1.53035,-1.61265 3.01904,-3.26455 4.46289,-4.95508 z m -10.9375,11.22656 c -1.55342,1.39865 -3.14313,2.75679 -4.76758,4.07226 L 220,238.82617 c 1.72694,-1.39847 3.41694,-2.84122 5.06836,-4.32812 z m -12.30469,9.70117 c -1.72395,1.18487 -3.47811,2.32303 -5.26172,3.41602 l 3.94922,6.44531 c 1.89614,-1.16195 3.76104,-2.37319 5.59375,-3.63281 z m -13.47071,8.01367 c -1.86316,0.94932 -3.74985,1.84871 -5.66015,2.69922 l 3.07422,6.90625 c 2.03082,-0.90417 4.03686,-1.86188 6.01758,-2.87109 z m -14.40039,6.18555 c -1.97101,0.69795 -3.96,1.34561 -5.96484,1.93945 l 2.14844,7.2461 c 2.13133,-0.63132 4.24447,-1.31662 6.33984,-2.0586 z m -15.08203,4.25391 c -2.04533,0.43474 -4.10073,0.81546 -6.16601,1.14257 l 1.18164,7.4668 c 2.19559,-0.34775 4.38226,-0.75267 6.55664,-1.21484 z m -15.50976,2.25 c -2.08417,0.16402 -4.17182,0.27337 -6.26172,0.32812 l 0.19726,7.55469 c 2.22176,-0.0582 4.44254,-0.17328 6.65821,-0.34766 z m -21.92578,-0.28907 -0.78907,7.51953 c 2.2119,0.23251 4.42935,0.40706 6.65039,0.52344 l 0.39454,-7.54883 c -2.08923,-0.10947 -4.17523,-0.27543 -6.25586,-0.49414 z m -15.44336,-2.65234 -1.76563,7.34961 c 2.16202,0.51907 4.33722,0.98152 6.52344,1.38672 l 1.37695,-7.4336 c -2.05647,-0.38114 -4.10106,-0.81446 -6.13476,-1.30273 z m -14.9668,-4.64844 -2.708984,7.05664 c 2.074877,0.79646 4.171449,1.53975 6.285154,2.22657 l 2.33594,-7.18946 c -1.98826,-0.64605 -3.960371,-1.34455 -5.91211,-2.09375 z m -14.232422,-6.56054 -3.605469,6.64257 c 1.953564,1.06068 3.933061,2.07036 5.939453,3.02735 l 3.25586,-6.82227 c -1.887319,-0.90019 -3.752219,-1.84993 -5.589844,-2.84765 z m -13.253906,-8.36329 -4.44336,6.11524 c 1.799239,1.30723 3.630883,2.56806 5.496094,3.7793 l 4.117188,-6.33985 c -1.754516,-1.13935 -3.477464,-2.32503 -5.169922,-3.55469 z M 57.369141,226.75 l -5.203125,5.48242 c 1.612642,1.53035 3.266505,3.01904 4.957031,4.46289 l 4.908203,-5.74804 C 60.441052,229.5891 58.886078,228.18953 57.369141,226.75 Z M 46.732422,215.24219 40.857422,220 c 1.398552,1.72705 2.843089,3.41684 4.330078,5.06836 l 5.617187,-5.05859 c -1.39874,-1.55351 -2.756713,-3.14303 -4.072265,-4.76758 z m -9.044922,-12.79883 -6.445313,3.94922 c 1.161887,1.89603 2.373264,3.76114 3.632813,5.59375 l 6.228516,-4.28125 c -1.184798,-1.72385 -2.323085,-3.47821 -3.416016,-5.26172 z m -7.298828,-13.86914 -6.904297,3.07422 c 0.904175,2.03082 1.86188,4.03686 2.871094,6.01758 l 6.734375,-3.43165 c -0.94932,-1.86316 -1.850657,-3.74985 -2.701172,-5.66015 z m -5.423828,-14.70508 -7.248047,2.14844 c 0.631348,2.13145 1.31852,4.24435 2.060547,6.33984 l 7.125,-2.52148 c -0.69799,-1.97113 -1.343621,-3.96184 -1.9375,-5.9668 z m -3.458985,-15.2832 -7.464843,1.18164 c 0.34775,2.19559 0.752672,4.38226 1.214843,6.55664 l 7.394532,-1.57227 c -0.434743,-2.04533 -0.817419,-4.10073 -1.144532,-6.16601 z m -1.433593,-15.60547 -7.556641,0.19726 c 0.05821,2.22176 0.175236,4.44254 0.349609,6.65821 l 7.535157,-0.59375 c -0.164025,-2.08418 -0.273372,-4.17182 -0.328125,-6.26172 z m -6.902344,-16.45313 c -0.232508,2.2119 -0.407059,4.42936 -0.523438,6.65039 l 7.548828,0.39454 c 0.109472,-2.08923 0.273479,-4.17524 0.492188,-6.25586 z m 2.822266,-16.41992 c -0.519077,2.16204 -0.981524,4.33719 -1.386719,6.52344 l 7.43164,1.37695 c 0.381149,-2.0565 0.816417,-4.10103 1.304688,-6.13476 z m 4.939453,-15.910154 c -0.796489,2.07494 -1.537777,4.171384 -2.22461,6.285154 l 7.189453,2.33594 c 0.646071,-1.98833 1.342578,-3.960312 2.091797,-5.91211 z M 27.90625,79.068359 c -1.060674,1.953564 -2.068401,3.935014 -3.025391,5.941407 l 6.822266,3.253906 c 0.900195,-1.887319 1.84993,-3.752219 2.847656,-5.589844 z m 8.892578,-14.091797 c -1.307084,1.799038 -2.568184,3.631098 -3.779297,5.496094 l 6.339844,4.117188 c 1.139237,-1.754314 2.325175,-3.477653 3.554687,-5.169922 z M 47.451172,52.166016 c -1.530483,1.612785 -3.016968,3.266348 -4.460938,4.957031 l 5.746094,4.908203 c 1.358274,-1.590345 2.759565,-3.145038 4.199219,-4.662109 z M 59.685547,40.857422 c -1.727045,1.398552 -3.416846,2.843089 -5.06836,4.330078 l 5.056641,5.617187 c 1.553501,-1.39874 3.143029,-2.756713 4.767578,-4.072265 z m 13.605469,-9.615235 c -1.894925,1.161232 -3.758269,2.372078 -5.589844,3.63086 l 4.28125,6.228515 c 1.722876,-1.184076 3.475346,-2.321746 5.257812,-3.414062 z m 14.746093,-7.757812 c -2.030819,0.904175 -4.038812,1.86188 -6.019531,2.871094 l 3.431641,6.734375 c 1.863168,-0.94932 3.751813,-1.850657 5.662109,-2.701172 z m 15.630861,-5.767578 c -2.13206,0.631528 -4.247676,1.320231 -6.343751,2.0625 l 2.523437,7.125 c 1.971674,-0.698217 3.961274,-1.345405 5.966794,-1.939453 z m 16.25,-3.675781 c -2.19559,0.34775 -4.38226,0.752672 -6.55664,1.214843 l 1.57226,7.394532 c 2.04534,-0.434743 4.10073,-0.817419 6.16602,-1.144532 z m 16.58984,-1.525391 c -2.22286,0.05822 -4.44339,0.175114 -6.66015,0.349609 l 0.59375,7.535157 c 2.0852,-0.16414 4.17273,-0.273365 6.26367,-0.328125 z m 10,0.130859 -0.39453,7.548828 c 2.08798,0.109419 4.17256,0.273662 6.25195,0.492188 l 0.78907,-7.517578 c -2.21059,-0.232314 -4.42677,-0.407115 -6.64649,-0.523438 z m 16.54688,1.958985 -1.37696,7.43164 c 2.05576,0.38103 4.10177,0.816613 6.13477,1.304688 l 1.76367,-7.349609 c -2.16127,-0.518869 -4.33602,-0.98165 -6.52148,-1.386719 z m 16.14843,4.101562 -2.33593,7.189453 c 1.98854,0.646142 3.9601,1.344438 5.91211,2.09375 l 2.70898,-7.058593 c -2.07516,-0.796588 -4.17115,-1.537702 -6.28516,-2.22461 z m 15.47461,6.173828 -3.2539,6.822266 c 1.88718,0.90015 3.75039,1.849988 5.58789,2.847656 l 3.60547,-6.644531 c -1.95343,-1.060612 -3.93321,-2.068449 -5.93946,-3.025391 z m 14.53516,8.138672 -4.11719,6.339844 c 1.75392,1.138979 3.47803,2.32352 5.16992,3.552734 l 4.44141,-6.115234 c -1.79864,-1.306767 -3.62957,-2.566505 -5.49414,-3.777344 z m 13.34961,9.970703 -4.9082,5.748047 c 1.5905,1.358416 3.14489,2.757455 4.66211,4.197266 l 5.20312,-5.482422 c -1.61294,-1.530651 -3.26618,-3.01877 -4.95703,-4.462891 z m 11.93359,11.625 -5.61718,5.056641 c 1.39944,1.554218 2.75804,3.146148 4.07421,4.771484 l 5.875,-4.757812 c -1.39921,-1.727881 -2.84429,-3.418037 -4.33203,-5.070313 z m 10.31446,13.082032 -6.22852,4.283203 c 1.18475,1.723777 2.32313,3.478286 3.41602,5.261718 l 6.44531,-3.951171 c -1.16184,-1.895952 -2.37332,-3.761217 -3.63281,-5.59375 z m 8.51953,14.320312 -6.73438,3.431641 c 0.94945,1.863426 1.8486,3.751543 2.69922,5.662109 l 6.90625,-3.074219 c -0.90428,-2.031106 -1.86174,-4.038538 -2.87109,-6.019531 z m 6.57617,15.308594 -7.125,2.523437 c 0.69802,1.971161 1.34359,3.959851 1.9375,5.964841 l 7.24805,-2.14648 c -0.63138,-2.13149 -1.31849,-4.24627 -2.06055,-6.341798 z m 4.52344,16.035158 -7.39453,1.57226 c 0.43484,2.0458 0.81541,4.10222 1.14257,6.16797 l 7.4668,-1.18359 c -0.3478,-2.19609 -0.75256,-4.38177 -1.21484,-6.55664 z m 2.39062,16.48633 -7.53711,0.59375 c 0.16415,2.08536 0.27533,4.17452 0.33008,6.26562 l 7.55664,-0.19922 c -0.0582,-2.22303 -0.1751,-4.44322 -0.34961,-6.66015 z"
       transform="matrix(0.26458333,0,0,0.26458333,-36,0)" />
  </g>
</svg>
