<?xml version="1.0" encoding="UTF-8" standalone="no"?>
<!-- Created with Inkscape (http://www.inkscape.org/) -->

<svg
   width="74mm"
   height="74mm"
   viewBox="0 0 74 74"
   version="1.1"
   id="svg3623"
   inkscape:version="1.1.2 (b8e25be833, 2022-02-05)"
   sodipodi:docname="encoder_pattern_48_2.0mm.svg"
   xmlns:inkscape="http://www.inkscape.org/namespaces/inkscape"
   xmlns:sodipodi="http://sodipodi.sourceforge.net/DTD/sodipodi-0.dtd"
   xmlns="http://www.w3.org/2000/svg"
   xmlns:svg="http://www.w3.org/2000/svg">
  <sodipodi:namedview
     id="namedview3625"
     pagecolor="#505050"
     bordercolor="#eeeeee"
     borderopacity="1"
     inkscape:pageshadow="0"
     inkscape:pageopacity="0"
     inkscape:pagecheckerboard="0"
     inkscape:document-units="mm"
     showgrid="false"
     inkscape:snap-object-midpoints="true"
     inkscape:zoom="4.2404842"
     inkscape:cx="180.29508"
     inkscape:cy="167.85002"
     inkscape:window-width="3440"
     inkscape:window-height="1369"
     inkscape:window-x="-8"
     inkscape:window-y="-8"
     inkscape:window-maximized="1"
     inkscape:current-layer="tPlace"
     fit-margin-top="0"
     fit-margin-left="0"
     fit-margin-right="0"
     fit-margin-bottom="0"
     inkscape:rotation="1" />
  <defs
     id="defs3620">
    <inkscape:path-effect
       effect="copy_rotate"
       starting_point="77.666387,54.869563"
       origin="59.711954,54.869563"
       id="path-effect4256"
       is_visible="true"
       lpeversion="1"
       method="normal"
       num_copies="48"
       starting_angle="0"
       rotation_angle="7.5"
       gap="-0.01"
       copies_to_360="true"
       mirror_copies="false"
       split_items="false" />
  </defs>
  <g
     inkscape:label="tPlace"
     inkscape:groupmode="layer"
     id="tPlace"
     transform="translate(36)">
    <g
       id="g1838"
       transform="rotate(-135,1.0000504,36.999935)" />
    <g
       id="g1834"
       transform="rotate(-45,1.0000509,36.999935)" />
    <g
       id="g1830"
       transform="rotate(180,1.0000505,36.999935)" />
    <g
       id="g1826" />
    <g
       id="g1822"
       transform="rotate(135,1.0000506,36.999935)" />
    <path
       id="path944"
       style="fill:#000000;stroke-width:5.66929;stroke-linecap:round;stroke-linejoin:round"
       d="M 139.8418 12.851562 C 128.48523 12.851562 117.48182 14.350258 107.00781 17.144531 L 108.76758 23.716797 C 118.68125 21.068909 129.09562 19.650391 139.8418 19.650391 C 139.84376 19.650391 139.8457 19.650391 139.84766 19.650391 L 139.84961 12.851562 C 139.847 12.851562 139.84441 12.851563 139.8418 12.851562 z M 172.75586 17.166016 L 170.99414 23.738281 C 181.24949 26.484833 190.96634 30.549517 199.94727 35.748047 L 203.35742 29.847656 C 193.86602 24.356596 183.59703 20.065707 172.75586 17.166016 z M 124.54492 23.671875 C 103.63794 26.396211 84.469459 34.630009 68.535156 46.867188 L 72.689453 52.279297 C 87.698245 40.749972 105.75077 32.990674 125.43359 30.421875 L 124.54492 23.671875 z M 76.337891 29.839844 C 66.7112 35.407748 57.882449 42.200744 50.068359 50.009766 L 54.890625 54.833984 C 62.285107 47.444395 70.638951 41.014851 79.746094 35.744141 L 76.337891 29.839844 z M 184.7168 31.580078 L 182.10742 37.878906 C 200.09424 45.346308 215.67972 57.432939 227.38477 72.660156 L 232.79688 68.507812 C 220.37048 52.337021 203.8228 39.504797 184.7168 31.580078 z M 180.95898 40.660156 L 178.34961 46.958984 C 210.88831 60.471051 234.80754 90.58171 239.52344 126.7168 L 246.27344 125.82812 C 241.24307 87.222247 215.71395 55.077776 180.95898 40.660156 z M 127.10938 43.154297 C 92.03832 47.724601 62.83812 70.915895 49.740234 102.48828 L 56.039062 105.0957 C 68.23163 75.740176 95.398214 54.160077 127.99805 49.904297 L 127.10938 43.154297 z M 229.67383 50.068359 L 224.85156 54.888672 C 232.24177 62.283602 238.67038 70.638253 243.94141 79.746094 L 249.8457 76.339844 C 244.27756 66.712283 237.48346 57.883055 229.67383 50.068359 z M 74.492188 54.679688 C 48.959076 74.299008 32.501953 105.13941 32.501953 139.8418 C 32.501953 144.58141 32.813185 149.24919 33.408203 153.82617 L 40.158203 152.9375 C 39.600034 148.65068 39.308594 144.28029 39.308594 139.8418 C 39.308594 107.36112 54.732052 78.4753 78.646484 60.09375 L 74.492188 54.679688 z M 139.8418 61.986328 C 100.27872 61.986325 67.636682 91.453616 62.648438 129.65039 L 69.410156 130.54492 C 73.971662 95.711646 103.7704 68.785156 139.8418 68.785156 C 156.11038 68.785156 171.09826 74.272333 183.08008 83.480469 L 187.23047 78.072266 C 174.10529 67.990191 157.68176 61.986328 139.8418 61.986328 z M 29.845703 76.328125 C 24.355284 85.818881 20.065471 96.089404 17.166016 106.92969 L 23.738281 108.69141 C 26.485072 98.434762 30.550642 88.71822 35.75 79.736328 L 29.845703 76.328125 z M 217.22852 80.498047 L 211.81445 84.650391 C 223.56161 99.942951 230.55078 119.07769 230.55078 139.8418 C 230.55078 185.90632 196.17415 223.97369 151.6875 229.78125 L 152.57617 236.53125 C 200.42692 230.29555 237.35742 189.39769 237.35742 139.8418 C 237.35742 117.50687 229.85053 96.93525 217.22852 80.498047 z M 70.271484 86.464844 C 58.915273 101.24704 52.160156 119.74956 52.160156 139.8418 C 52.160156 188.28677 91.396826 227.52539 139.8418 227.52539 C 188.28677 227.52539 227.52539 188.28677 227.52539 139.8418 C 227.52539 127.96138 225.1594 116.6386 220.88281 106.30859 L 214.58984 108.91406 C 218.54017 118.44392 220.72656 128.88785 220.72656 139.8418 C 220.72656 184.49368 184.49368 220.72656 139.8418 220.72656 C 95.189914 220.72656 58.958984 184.49368 58.958984 139.8418 C 58.958984 121.32108 65.207327 104.26183 75.689453 90.623047 L 70.271484 86.464844 z M 31.568359 94.996094 C 25.843087 108.80951 22.677734 123.95385 22.677734 139.8418 C 22.677734 145.0149 23.016594 150.10984 23.666016 155.10547 L 30.416016 154.2168 C 29.803444 149.51133 29.482422 144.71378 29.482422 139.8418 C 29.482422 124.88097 32.469272 110.61762 37.867188 97.605469 L 31.568359 94.996094 z M 262.54102 107.00977 L 255.9668 108.76758 C 258.61474 118.68135 260.03516 129.0955 260.03516 139.8418 C 260.03516 139.84376 260.03516 139.8457 260.03516 139.84766 L 266.83398 139.84961 C 266.83398 139.847 266.83398 139.84441 266.83398 139.8418 C 266.83398 128.48589 265.33497 117.48323 262.54102 107.00977 z M 256.01953 124.57812 L 249.26953 125.46484 C 249.88241 130.17147 250.20117 134.96856 250.20117 139.8418 C 250.20117 154.80281 247.2164 169.0678 241.81836 182.08008 L 248.11719 184.6875 C 253.84215 170.8744 257.00781 155.72929 257.00781 139.8418 C 257.00781 134.66803 256.66912 129.57437 256.01953 124.57812 z M 12.851562 139.83789 C 12.851562 139.8392 12.851562 139.84049 12.851562 139.8418 C 12.851562 151.19771 14.350572 162.20232 17.144531 172.67578 L 23.71875 170.91602 C 21.070892 161.00239 19.650391 150.58792 19.650391 139.8418 C 19.650391 139.84114 19.650391 139.8405 19.650391 139.83984 L 12.851562 139.83789 z M 255.94531 170.99609 C 253.19861 181.25126 249.13415 190.96848 243.93555 199.94922 L 249.83594 203.35742 C 255.32672 193.86652 259.61984 183.59834 262.51953 172.75781 L 255.94531 170.99609 z M 35.744141 199.94141 L 29.841797 203.34766 C 35.40968 212.97384 42.202919 221.80153 50.011719 229.61523 L 54.833984 224.79688 C 47.444374 217.40254 41.014928 209.04839 35.744141 199.94141 z M 52.300781 207.02344 L 46.888672 211.17578 C 59.313427 227.34444 75.85813 240.17659 94.960938 248.10156 L 97.570312 241.80469 C 79.585925 234.33686 64.004433 222.24928 52.300781 207.02344 z M 201.01562 219.60938 C 184.06662 232.62904 162.85659 240.37695 139.8418 240.37695 C 126.21529 240.37695 113.2234 237.65651 101.37109 232.74023 L 98.759766 239.03906 C 111.41429 244.28362 125.28682 247.18164 139.8418 247.18164 C 164.42796 247.18164 187.07412 238.91853 205.16797 225.02344 L 201.01562 219.60938 z M 224.79688 224.84961 C 217.40131 232.24061 209.0463 238.67 199.9375 243.94141 L 203.34766 249.8418 C 212.97381 244.27392 221.80156 237.48065 229.61523 229.67188 L 224.79688 224.84961 z M 206.99609 227.40625 C 191.98688 238.9359 173.93348 246.69509 154.25 249.26367 L 155.14062 256.01367 C 176.04761 253.28934 195.21413 245.05554 211.14844 232.81836 L 206.99609 227.40625 z M 79.740234 243.93555 L 76.328125 249.83789 C 85.818908 255.32834 96.089366 259.62007 106.92969 262.51953 L 108.69141 255.94727 C 98.436088 253.20085 88.721158 249.13392 79.740234 243.93555 z M 170.91406 255.9668 C 161.00104 258.61431 150.58719 260.03516 139.8418 260.03516 C 139.84114 260.03516 139.8405 260.03516 139.83984 260.03516 L 139.83789 266.83398 C 139.8392 266.83398 139.84049 266.83398 139.8418 266.83398 C 151.19837 266.83398 162.20373 265.33529 172.67773 262.54102 L 170.91406 255.9668 z "
       transform="matrix(0.26458333,0,0,0.26458333,-36,0)" />
  </g>
</svg>
