<?xml version="1.0" encoding="UTF-8" standalone="no"?>
<!-- Created with Inkscape (http://www.inkscape.org/) -->

<svg
   width="74mm"
   height="74mm"
   viewBox="0 0 74 74"
   version="1.1"
   id="svg3623"
   inkscape:version="1.1.2 (b8e25be833, 2022-02-05)"
   sodipodi:docname="encoder_pattern_48_1.4mm.svg"
   xmlns:inkscape="http://www.inkscape.org/namespaces/inkscape"
   xmlns:sodipodi="http://sodipodi.sourceforge.net/DTD/sodipodi-0.dtd"
   xmlns="http://www.w3.org/2000/svg"
   xmlns:svg="http://www.w3.org/2000/svg">
  <sodipodi:namedview
     id="namedview3625"
     pagecolor="#505050"
     bordercolor="#eeeeee"
     borderopacity="1"
     inkscape:pageshadow="0"
     inkscape:pageopacity="0"
     inkscape:pagecheckerboard="0"
     inkscape:document-units="mm"
     showgrid="false"
     inkscape:snap-object-midpoints="true"
     inkscape:zoom="16.961937"
     inkscape:cx="44.733242"
     inkscape:cy="103.5274"
     inkscape:window-width="3440"
     inkscape:window-height="1369"
     inkscape:window-x="-8"
     inkscape:window-y="-8"
     inkscape:window-maximized="1"
     inkscape:current-layer="tPlace"
     fit-margin-top="0"
     fit-margin-left="0"
     fit-margin-right="0"
     fit-margin-bottom="0"
     inkscape:rotation="1" />
  <defs
     id="defs3620">
    <inkscape:path-effect
       effect="copy_rotate"
       starting_point="77.666387,54.869563"
       origin="59.711954,54.869563"
       id="path-effect4256"
       is_visible="true"
       lpeversion="1"
       method="normal"
       num_copies="48"
       starting_angle="0"
       rotation_angle="7.5"
       gap="-0.01"
       copies_to_360="true"
       mirror_copies="false"
       split_items="false" />
  </defs>
  <g
     inkscape:label="tPlace"
     inkscape:groupmode="layer"
     id="tPlace"
     transform="translate(36)">
    <g
       id="g1838"
       transform="rotate(-135,1.0000504,36.999935)" />
    <g
       id="g1834"
       transform="rotate(-45,1.0000509,36.999935)" />
    <g
       id="g1830"
       transform="rotate(180,1.0000505,36.999935)" />
    <g
       id="g1826" />
    <g
       id="g1822"
       transform="rotate(135,1.0000506,36.999935)" />
    <path
       id="path944"
       style="fill:#000000;stroke-width:5.66929;stroke-linecap:round;stroke-linejoin:round"
       d="M 139.8418 13.980469 C 128.58504 13.980469 117.67995 15.465688 107.29883 18.234375 L 108.47656 22.628906 C 118.48391 19.954979 128.99485 18.521485 139.8418 18.521484 C 139.84376 18.521484 139.8457 18.521484 139.84766 18.521484 L 139.84961 13.980469 C 139.847 13.980469 139.84441 13.980469 139.8418 13.980469 z M 172.46289 18.253906 L 171.28711 22.648438 C 181.63802 25.421586 191.44457 29.527069 200.50977 34.775391 L 202.79492 30.822266 C 193.38789 25.381031 183.20839 21.127019 172.46289 18.253906 z M 124.69336 24.796875 C 103.98566 27.493551 85.001847 35.645373 69.222656 47.761719 L 72.001953 51.384766 C 87.166096 39.734289 105.40261 31.889386 125.28516 29.292969 L 124.69336 24.796875 z M 76.900391 30.816406 C 67.358963 36.334222 58.607648 43.065389 50.863281 50.804688 L 54.095703 54.039062 C 61.559813 46.579846 69.991324 40.090291 79.183594 34.769531 L 76.900391 30.816406 z M 184.2832 32.626953 L 182.54102 36.832031 C 200.70926 44.377629 216.45326 56.590321 228.2793 71.972656 L 231.90234 69.195312 C 219.5972 53.180147 203.20719 40.47342 184.2832 32.626953 z M 180.52539 41.707031 L 178.7832 45.912109 C 211.68493 59.580214 235.87665 90.034738 240.64844 126.56836 L 245.14648 125.97656 C 240.17134 87.769745 214.91721 55.968177 180.52539 41.707031 z M 127.25781 44.28125 C 92.585516 48.795753 63.728972 71.710788 50.787109 102.91992 L 54.992188 104.66211 C 67.341051 74.943156 94.850568 53.09042 127.84961 48.779297 L 127.25781 44.28125 z M 228.87891 50.863281 L 225.64648 54.09375 C 233.10614 61.55813 239.59501 69.990881 244.91602 79.183594 L 248.87109 76.902344 C 243.3528 67.359619 236.61924 58.608513 228.87891 50.863281 z M 75.179688 55.576172 C 49.917239 74.984847 33.638672 105.4972 33.638672 139.8418 C 33.638672 144.53153 33.946833 149.1492 34.535156 153.67773 L 39.03125 153.08594 C 38.466365 148.75058 38.171875 144.33024 38.171875 139.8418 C 38.171875 107.00329 53.773836 77.789458 77.958984 59.197266 L 75.179688 55.576172 z M 139.8418 63.115234 C 100.84162 63.115234 68.681151 92.147992 63.767578 129.79883 L 68.291016 130.39648 C 72.927606 95.017717 103.20781 67.654297 139.8418 67.654297 C 156.36522 67.654297 171.59053 73.233256 183.76367 82.589844 L 186.54492 78.964844 C 173.61109 69.031253 157.42688 63.115234 139.8418 63.115234 z M 30.822266 76.890625 C 25.381032 86.29766 21.127019 96.477159 18.253906 107.22266 L 22.648438 108.40039 C 25.421609 98.048749 29.526715 88.239599 34.775391 79.173828 L 30.822266 76.890625 z M 216.33203 81.185547 L 212.70898 83.962891 C 224.60643 99.448392 231.6875 118.8225 231.6875 139.8418 C 231.6875 186.46855 196.86859 225.02217 151.83594 230.90625 L 152.42773 235.4043 C 199.73155 229.24427 236.2207 188.83479 236.2207 139.8418 C 236.2207 117.76207 228.80375 97.42981 216.33203 81.185547 z M 71.162109 87.148438 C 59.954704 101.73918 53.289062 120.00475 53.289062 139.8418 C 53.289062 187.67399 92.009608 226.39453 139.8418 226.39453 C 187.67399 226.39453 226.39453 187.67399 226.39453 139.8418 C 226.39453 128.11357 224.06113 116.93638 219.8418 106.74023 L 215.63086 108.48242 C 219.63821 118.1459 221.85547 128.73599 221.85547 139.8418 C 221.85547 185.10646 185.10646 221.85547 139.8418 221.85547 C 94.577132 221.85547 57.830078 185.10646 57.830078 139.8418 C 57.830078 121.06605 64.16611 103.76768 74.796875 89.9375 L 71.162109 87.148438 z M 32.615234 95.429688 C 26.947529 109.10894 23.814453 124.10552 23.814453 139.8418 C 23.814453 144.96569 24.150078 150.01119 24.792969 154.95898 L 29.289062 154.36523 C 28.669775 149.61123 28.345703 144.76374 28.345703 139.8418 C 28.345703 124.72859 31.364339 110.31869 36.820312 97.171875 L 32.615234 95.429688 z M 261.45117 107.30078 L 257.05664 108.47656 C 259.73048 118.48376 261.16406 128.99503 261.16406 139.8418 C 261.16406 139.84376 261.16406 139.8457 261.16406 139.84766 L 265.70312 139.84961 C 265.70313 139.847 265.70313 139.84441 265.70312 139.8418 C 265.70312 128.58581 264.21949 117.68126 261.45117 107.30078 z M 254.89258 124.72461 L 250.39453 125.31836 C 251.01397 130.07291 251.33789 134.91926 251.33789 139.8418 C 251.33789 154.95501 248.32121 169.36685 242.86523 182.51367 L 247.07031 184.25586 C 252.73797 170.57666 255.87109 155.578 255.87109 139.8418 C 255.87109 134.71731 255.53561 129.67295 254.89258 124.72461 z M 13.980469 139.83789 C 13.980469 139.8392 13.980469 139.84049 13.980469 139.8418 C 13.980468 151.09772 15.464134 162.00434 18.232422 172.38477 L 22.626953 171.20898 C 19.953111 161.20179 18.521484 150.68856 18.521484 139.8418 C 18.521484 139.84114 18.521484 139.8405 18.521484 139.83984 L 13.980469 139.83789 z M 257.03516 171.28711 C 254.26187 181.63853 250.15885 191.44615 244.91016 200.51172 L 248.86328 202.79492 C 254.30418 193.38847 258.55658 183.2096 261.42969 172.46484 L 257.03516 171.28711 z M 34.771484 200.50391 L 30.816406 202.78516 C 36.334221 212.32658 43.06539 221.0779 50.804688 228.82227 L 54.039062 225.5918 C 46.580407 218.12842 40.092089 209.69518 34.771484 200.50391 z M 51.404297 207.71094 L 47.783203 210.49023 C 60.086592 226.50287 76.474126 239.20807 95.394531 247.05469 L 97.136719 242.84961 C 78.971017 235.30339 63.228781 223.09203 51.404297 207.71094 z M 201.70312 220.50586 C 184.56125 233.67561 163.11159 241.51367 139.8418 241.51367 C 126.06208 241.51367 112.92309 238.76201 100.93555 233.78711 L 99.193359 237.99219 C 111.71321 243.17869 125.43921 246.04492 139.8418 246.04492 C 164.1732 246.04492 186.5794 237.87219 204.48047 224.12695 L 201.70312 220.50586 z M 225.5918 225.64648 C 218.12777 233.10579 209.69416 239.59515 200.50195 244.91602 L 202.78516 248.86914 C 212.32739 243.35086 221.07937 236.61902 228.82422 228.87891 L 225.5918 225.64648 z M 207.68359 228.30273 C 192.51922 239.95313 174.28121 247.79448 154.39844 250.39062 L 154.99219 254.88867 C 175.70008 252.19193 194.68363 244.04041 210.46289 231.92383 L 207.68359 228.30273 z M 79.175781 244.91211 L 76.890625 248.86328 C 86.297604 254.30448 96.477228 258.55658 107.22266 261.42969 L 108.40039 257.03516 C 98.049669 254.26223 88.240878 250.16012 79.175781 244.91211 z M 171.20703 257.05664 C 161.20038 259.73017 150.6879 261.16406 139.8418 261.16406 C 139.84114 261.16406 139.8405 261.16406 139.83984 261.16406 L 139.83789 265.70312 C 139.8392 265.70313 139.84049 265.70312 139.8418 265.70312 C 151.09778 265.70312 162.00428 264.21949 172.38477 261.45117 L 171.20703 257.05664 z "
       transform="matrix(0.26458333,0,0,0.26458333,-36,0)" />
  </g>
</svg>
