<?xml version="1.0" encoding="UTF-8" standalone="no"?>
<!-- Created with Inkscape (http://www.inkscape.org/) -->

<svg
   width="74mm"
   height="74mm"
   viewBox="0 0 74 74"
   version="1.1"
   id="svg3623"
   inkscape:version="1.1.2 (b8e25be833, 2022-02-05)"
   sodipodi:docname="encoder_pattern_48_1.8mm.svg"
   xmlns:inkscape="http://www.inkscape.org/namespaces/inkscape"
   xmlns:sodipodi="http://sodipodi.sourceforge.net/DTD/sodipodi-0.dtd"
   xmlns="http://www.w3.org/2000/svg"
   xmlns:svg="http://www.w3.org/2000/svg">
  <sodipodi:namedview
     id="namedview3625"
     pagecolor="#505050"
     bordercolor="#eeeeee"
     borderopacity="1"
     inkscape:pageshadow="0"
     inkscape:pageopacity="0"
     inkscape:pagecheckerboard="0"
     inkscape:document-units="mm"
     showgrid="false"
     inkscape:snap-object-midpoints="true"
     inkscape:zoom="4.2404842"
     inkscape:cx="180.29508"
     inkscape:cy="167.85002"
     inkscape:window-width="3440"
     inkscape:window-height="1369"
     inkscape:window-x="-8"
     inkscape:window-y="-8"
     inkscape:window-maximized="1"
     inkscape:current-layer="tPlace"
     fit-margin-top="0"
     fit-margin-left="0"
     fit-margin-right="0"
     fit-margin-bottom="0"
     inkscape:rotation="1" />
  <defs
     id="defs3620">
    <inkscape:path-effect
       effect="copy_rotate"
       starting_point="77.666387,54.869563"
       origin="59.711954,54.869563"
       id="path-effect4256"
       is_visible="true"
       lpeversion="1"
       method="normal"
       num_copies="48"
       starting_angle="0"
       rotation_angle="7.5"
       gap="-0.01"
       copies_to_360="true"
       mirror_copies="false"
       split_items="false" />
  </defs>
  <g
     inkscape:label="tPlace"
     inkscape:groupmode="layer"
     id="tPlace"
     transform="translate(36)">
    <g
       id="g1838"
       transform="rotate(-135,1.0000504,36.999935)" />
    <g
       id="g1834"
       transform="rotate(-45,1.0000509,36.999935)" />
    <g
       id="g1830"
       transform="rotate(180,1.0000505,36.999935)" />
    <g
       id="g1826" />
    <g
       id="g1822"
       transform="rotate(135,1.0000506,36.999935)" />
    <path
       id="path944"
       style="fill:#000000;stroke-width:5.66929;stroke-linecap:round;stroke-linejoin:round"
       d="M 139.8418 13.228516 C 128.51919 13.228516 117.54794 14.720447 107.10547 17.505859 L 108.67188 23.355469 C 118.61654 20.699033 129.06231 19.273438 139.8418 19.273438 C 139.84376 19.273438 139.8457 19.273437 139.84766 19.273438 L 139.84961 13.228516 C 139.847 13.228515 139.84441 13.228516 139.8418 13.228516 z M 172.6582 17.527344 L 171.0918 23.376953 C 181.37887 26.132322 191.12584 30.208808 200.13477 35.423828 L 203.16992 30.171875 C 193.70691 24.697608 183.46713 20.418148 172.6582 17.527344 z M 124.59375 24.042969 C 103.75308 26.758204 84.646666 34.966773 68.763672 47.164062 L 72.457031 51.978516 C 87.518549 40.407643 105.63282 32.619339 125.38281 30.041016 L 124.59375 24.042969 z M 76.525391 30.166016 C 66.927049 35.717246 58.124883 42.489558 50.333984 50.275391 L 54.625 54.568359 C 62.042622 47.155633 70.423176 40.707285 79.558594 35.419922 L 76.525391 30.166016 z M 184.57227 31.927734 L 182.25391 37.523438 C 200.30189 45.017575 215.93936 57.149846 227.68555 72.429688 L 232.5 68.736328 C 220.11368 52.617079 203.61779 39.826696 184.57227 31.927734 z M 180.81641 41.007812 L 178.49219 46.611328 C 211.15275 60.174384 235.16231 90.39905 239.89648 126.66797 L 245.90039 125.87695 C 240.88823 87.404472 215.45011 55.374194 180.81641 41.007812 z M 127.16016 43.535156 C 92.222024 48.085969 63.138599 71.182467 50.09375 102.63281 L 55.691406 104.95117 C 67.9354 75.474879 95.216355 53.805203 127.94922 49.53125 L 127.16016 43.535156 z M 229.4082 50.333984 L 225.11523 54.625 C 232.52797 62.042626 238.97826 70.42317 244.26562 79.558594 L 249.52148 76.527344 C 243.96977 66.927674 237.19509 58.12577 229.4082 50.333984 z M 74.720703 54.976562 C 49.277011 74.52636 32.878906 105.25859 32.878906 139.8418 C 32.878906 144.5648 33.18843 149.21646 33.78125 153.77734 L 39.785156 152.98633 C 39.224937 148.68395 38.931641 144.2963 38.931641 139.8418 C 38.931641 107.24194 54.414118 78.247948 78.417969 59.796875 L 74.720703 54.976562 z M 139.8418 62.361328 C 100.4663 62.361328 67.984765 91.686296 63.021484 129.70117 L 69.037109 130.49609 C 73.623462 95.480788 103.58273 68.408207 139.8418 68.408203 C 156.19516 68.408205 171.26111 73.926146 183.30664 83.183594 L 187.00195 78.371094 C 173.94039 68.33804 157.59726 62.361328 139.8418 62.361328 z M 30.171875 76.515625 C 24.697704 85.978762 20.418005 96.218297 17.527344 107.02734 L 23.376953 108.59375 C 26.132558 98.305793 30.210121 88.558395 35.425781 79.548828 L 30.171875 76.515625 z M 216.92578 80.728516 L 212.11133 84.421875 C 223.9081 99.778258 230.92773 118.99261 230.92773 139.8418 C 230.92774 186.09332 196.40603 224.32105 151.73828 230.1543 L 152.52539 236.15039 C 200.19405 229.94139 236.97266 189.21069 236.97266 139.8418 C 236.97266 117.59165 229.497 97.100519 216.92578 80.728516 z M 70.568359 86.691406 C 59.261457 101.40989 52.537109 119.83433 52.537109 139.8418 C 52.537106 188.08251 91.601086 227.14844 139.8418 227.14844 C 188.08251 227.14844 227.14844 188.08251 227.14844 139.8418 C 227.14844 128.01177 224.79484 116.7368 220.53711 106.45117 L 214.9375 108.76953 C 218.90707 118.34417 221.10156 128.83689 221.10156 139.8418 C 221.10156 184.69794 184.69794 221.10156 139.8418 221.10156 C 94.985653 221.10156 58.582031 184.69794 58.582031 139.8418 C 58.582031 121.23658 64.859478 104.09693 75.390625 90.394531 L 70.568359 86.691406 z M 31.916016 95.138672 C 26.209418 108.90789 23.052735 124.00399 23.052734 139.8418 C 23.052734 144.9989 23.391692 150.07656 24.039062 155.05664 L 30.035156 154.26758 C 29.420138 149.54531 29.099609 144.73104 29.099609 139.8418 C 29.099609 124.82975 32.095667 110.51677 37.513672 97.458984 L 31.916016 95.138672 z M 262.17773 107.10742 L 256.33008 108.67188 C 258.98651 118.61654 260.41016 129.06231 260.41016 139.8418 C 260.41016 139.84376 260.41016 139.8457 260.41016 139.84766 L 266.45703 139.84961 C 266.45703 139.847 266.45703 139.84441 266.45703 139.8418 C 266.45703 128.51974 264.96289 117.54944 262.17773 107.10742 z M 255.64648 124.62695 L 249.65039 125.41602 C 250.26541 130.13828 250.58594 134.95255 250.58594 139.8418 C 250.58594 154.85384 247.58793 169.16878 242.16992 182.22656 L 247.76953 184.54492 C 253.476 170.77583 256.63086 155.67942 256.63086 139.8418 C 256.63086 134.68462 256.29387 129.60711 255.64648 124.62695 z M 13.228516 139.83789 C 13.228516 139.8392 13.228516 139.84049 13.228516 139.8418 C 13.228515 151.1644 14.720448 162.13566 17.505859 172.57812 L 23.355469 171.01367 C 20.699034 161.069 19.273438 150.62129 19.273438 139.8418 C 19.273438 139.84114 19.273437 139.8405 19.273438 139.83984 L 13.228516 139.83789 z M 256.30859 171.09375 C 253.55299 181.38104 249.47512 191.12768 244.25977 200.13672 L 249.51172 203.17188 C 254.98624 193.70887 259.26523 183.46915 262.15625 172.66016 L 256.30859 171.09375 z M 35.421875 200.12891 L 30.166016 203.16016 C 35.717088 212.75793 42.489952 221.56106 50.275391 229.35156 L 54.570312 225.06055 C 47.157393 217.64307 40.709452 209.26423 35.421875 200.12891 z M 51.998047 207.25391 L 47.185547 210.94922 C 59.570112 227.06594 76.061565 239.85675 95.103516 247.75586 L 97.423828 242.15625 C 79.378651 234.6616 63.742622 222.53218 51.998047 207.25391 z M 201.24414 219.90625 C 184.23114 232.97603 162.94216 240.75391 139.8418 240.75391 C 126.16433 240.75391 113.12364 238.02341 101.22656 233.08789 L 98.904297 238.69141 C 111.51398 243.91668 125.33785 246.80664 139.8418 246.80664 C 164.34263 246.80664 186.90952 238.57177 204.93945 224.72656 L 201.24414 219.90625 z M 225.06055 225.11328 C 217.64204 232.52723 209.26179 238.97764 200.125 244.26562 L 203.16016 249.51953 C 212.75836 243.96822 221.5608 237.19407 229.35156 229.4082 L 225.06055 225.11328 z M 207.22852 227.70703 C 192.16687 239.27818 174.05106 247.06617 154.30078 249.64453 L 155.08984 255.64258 C 175.93089 252.92734 195.03869 244.7191 210.92188 232.52148 L 207.22852 227.70703 z M 79.550781 244.26172 L 76.515625 249.51367 C 85.978647 254.98777 96.218445 259.2656 107.02734 262.15625 L 108.59375 256.30859 C 98.306674 253.55322 88.559702 249.47674 79.550781 244.26172 z M 171.01172 256.33008 C 161.06759 258.9862 150.62063 260.41016 139.8418 260.41016 C 139.84114 260.41016 139.8405 260.41016 139.83984 260.41016 L 139.83789 266.45703 C 139.8392 266.45703 139.84049 266.45703 139.8418 266.45703 C 151.16517 266.45703 162.13697 264.96351 172.58008 262.17773 L 171.01172 256.33008 z "
       transform="matrix(0.26458333,0,0,0.26458333,-36,0)" />
  </g>
</svg>
