<?xml version="1.0" encoding="UTF-8" standalone="no"?>
<!-- Created with Inkscape (http://www.inkscape.org/) -->

<svg
   width="74mm"
   height="74mm"
   viewBox="0 0 74 74"
   version="1.1"
   id="svg3623"
   inkscape:version="1.1.2 (b8e25be833, 2022-02-05)"
   sodipodi:docname="encoder_pattern_48_2.0mm_v3.svg"
   xmlns:inkscape="http://www.inkscape.org/namespaces/inkscape"
   xmlns:sodipodi="http://sodipodi.sourceforge.net/DTD/sodipodi-0.dtd"
   xmlns="http://www.w3.org/2000/svg"
   xmlns:svg="http://www.w3.org/2000/svg">
  <sodipodi:namedview
     id="namedview3625"
     pagecolor="#505050"
     bordercolor="#eeeeee"
     borderopacity="1"
     inkscape:pageshadow="0"
     inkscape:pageopacity="0"
     inkscape:pagecheckerboard="0"
     inkscape:document-units="mm"
     showgrid="false"
     inkscape:snap-object-midpoints="true"
     inkscape:zoom="4.2404842"
     inkscape:cx="87.490905"
     inkscape:cy="141.16696"
     inkscape:window-width="3440"
     inkscape:window-height="1369"
     inkscape:window-x="-8"
     inkscape:window-y="-8"
     inkscape:window-maximized="1"
     inkscape:current-layer="tPlace"
     fit-margin-top="0"
     fit-margin-left="0"
     fit-margin-right="0"
     fit-margin-bottom="0"
     inkscape:rotation="1" />
  <defs
     id="defs3620">
    <inkscape:path-effect
       effect="copy_rotate"
       starting_point="77.666387,54.869563"
       origin="59.711954,54.869563"
       id="path-effect4256"
       is_visible="true"
       lpeversion="1"
       method="normal"
       num_copies="48"
       starting_angle="0"
       rotation_angle="7.5"
       gap="-0.01"
       copies_to_360="true"
       mirror_copies="false"
       split_items="false" />
  </defs>
  <g
     inkscape:label="tPlace"
     inkscape:groupmode="layer"
     id="tPlace"
     transform="translate(36)">
    <path
       id="path944"
       style="fill:#000000;stroke-width:5.66929;stroke-linecap:round;stroke-linejoin:round"
       d="M 139.8418 12.851562 C 134.2204 12.851562 128.68581 13.22025 123.25781 13.927734 L 124.14844 20.671875 C 129.28575 20.00131 134.52218 19.650391 139.8418 19.650391 C 145.14588 19.650391 150.36928 19.999298 155.49219 20.666016 L 156.38086 13.921875 C 150.96727 13.218233 145.44766 12.851563 139.8418 12.851562 z M 188.44727 22.488281 L 185.8418 28.78125 C 195.60019 32.829458 204.70792 38.126305 212.9707 44.472656 L 217.12109 39.064453 C 208.38908 32.359443 198.76261 26.763617 188.44727 22.488281 z M 91.195312 22.505859 C 80.882881 26.784432 71.258151 32.382635 62.529297 39.089844 L 66.679688 44.498047 C 74.940468 38.148592 84.04764 32.84855 93.804688 28.796875 L 91.195312 22.505859 z M 139.81445 22.677734 C 118.47676 22.68262 98.47872 28.389704 81.251953 38.353516 L 84.662109 44.259766 C 100.88943 34.868567 119.72457 29.487311 139.81445 29.482422 L 139.81445 22.677734 z M 139.8418 32.501953 C 120.28371 32.501953 101.95304 37.731105 86.164062 46.863281 L 89.574219 52.771484 C 104.36376 44.211908 121.53151 39.308594 139.8418 39.308594 C 158.14245 39.308594 175.30363 44.20659 190.08789 52.757812 L 193.49805 46.849609 C 177.71438 37.725838 159.39018 32.501953 139.8418 32.501953 z M 198.43945 38.355469 L 195.03125 44.263672 C 211.76418 53.949244 225.71901 67.902235 235.4082 84.632812 L 241.31445 81.222656 C 231.02935 63.452331 216.21247 48.636449 198.43945 38.355469 z M 139.8457 42.328125 L 139.84766 49.134766 C 173.39225 49.136893 202.69419 67.369045 218.38672 94.458984 L 224.29492 91.048828 C 207.434 61.919604 175.93642 42.329542 139.8457 42.328125 z M 139.8418 52.160156 C 91.396829 52.160156 52.160156 91.396829 52.160156 139.8418 C 52.160156 188.28677 91.396826 227.52539 139.8418 227.52539 C 164.06229 227.52539 185.98111 217.71612 201.8457 201.85352 L 197.02344 197.0332 C 182.38447 211.66968 162.16524 220.72656 139.8418 220.72656 C 95.189914 220.72656 58.958984 184.49368 58.958984 139.8418 C 58.958984 95.189918 95.189914 58.958984 139.8418 58.958984 C 147.07168 58.958985 154.07969 59.913609 160.75 61.695312 L 162.51172 55.123047 C 155.28048 53.194613 147.68279 52.160156 139.8418 52.160156 z M 240.59375 62.529297 L 235.18555 66.679688 C 241.53525 74.940721 246.8369 84.047286 250.88867 93.804688 L 257.17969 91.195312 C 252.901 80.882492 247.30124 71.258427 240.59375 62.529297 z M 39.064453 62.564453 C 32.359667 71.296298 26.763509 80.923196 22.488281 91.238281 L 28.78125 93.841797 C 32.829476 84.083772 38.126444 74.975375 44.472656 66.712891 L 39.064453 62.564453 z M 38.341797 81.271484 C 28.381687 98.499595 22.678781 118.49831 22.677734 139.83594 L 29.482422 139.83398 C 29.483819 119.74525 34.859207 100.90959 44.246094 84.681641 L 38.341797 81.271484 z M 194.90625 84.789062 L 190.08594 89.611328 C 202.94334 102.47221 210.90039 120.23293 210.90039 139.8418 C 210.90039 172.69544 188.56223 200.35133 158.25977 208.47266 L 160.02539 215.05664 C 193.24949 206.17182 217.69922 175.87804 217.69922 139.8418 C 217.69922 118.3354 208.99034 98.875649 194.90625 84.789062 z M 55.361328 91.099609 C 47.073175 105.43828 42.328125 122.08297 42.328125 139.8418 C 42.328125 193.71263 85.967554 237.35531 139.83789 237.35742 L 139.83789 230.55078 C 89.760636 230.54866 49.134762 189.91954 49.134766 139.8418 C 49.134766 123.3301 53.553406 107.8474 61.269531 94.507812 L 55.361328 91.099609 z M 265.75586 123.25781 L 259.01367 124.14844 C 259.68423 129.28574 260.03516 134.52219 260.03516 139.8418 C 260.03516 145.14521 259.68608 150.36795 259.01953 155.49023 L 265.76172 156.37891 C 266.4652 150.96592 266.83398 145.44701 266.83398 139.8418 C 266.83398 134.22039 266.46335 128.68582 265.75586 123.25781 z M 13.921875 123.30469 C 13.218397 128.71767 12.851562 134.2366 12.851562 139.8418 C 12.851562 145.46385 13.220086 150.99912 13.927734 156.42773 L 20.671875 155.53906 C 20.001146 150.40113 19.650391 145.16207 19.650391 139.8418 C 19.650391 134.53705 19.999134 129.31493 20.666016 124.19141 L 13.921875 123.30469 z M 240.37695 139.84766 C 240.37483 177.03137 220.16394 209.50983 190.13477 226.90039 L 193.54883 232.80469 C 225.61427 214.2454 247.17951 179.5748 247.18164 139.84766 L 240.37695 139.84766 z M 250.20117 139.84766 C 250.20012 159.93405 244.82593 178.76931 235.44141 194.99609 L 241.34961 198.40625 C 251.30668 181.18006 257.00677 161.18178 257.00781 139.84766 L 250.20117 139.84766 z M 39.308594 139.87305 L 32.501953 139.875 C 32.514 179.60038 54.089136 214.26668 86.160156 232.81836 L 89.568359 226.91211 C 59.535871 209.52813 39.319939 177.05374 39.308594 139.87305 z M 250.9043 185.8418 C 246.85599 195.60055 241.55754 204.70767 235.21094 212.9707 L 240.62109 217.12109 C 247.32642 208.38858 252.92189 198.76129 257.19727 188.44531 L 250.9043 185.8418 z M 28.796875 185.88281 L 22.505859 188.49023 C 26.784896 198.80379 32.383619 208.4286 39.091797 217.1582 L 44.5 213.00781 C 38.149978 204.74678 32.848907 195.6403 28.796875 185.88281 z M 44.275391 195.05273 L 38.369141 198.46094 C 48.654595 216.23276 63.473607 231.04864 81.248047 241.33008 L 84.658203 235.42188 C 67.923604 225.7362 53.965293 211.78458 44.275391 195.05273 z M 213.00586 235.18359 C 204.74462 241.53366 195.63859 246.83474 185.88086 250.88672 L 188.49023 257.17969 C 198.80418 252.90054 208.42832 247.30026 217.1582 240.5918 L 213.00586 235.18359 z M 66.712891 235.21094 L 62.564453 240.62109 C 71.296789 247.3262 80.92451 252.922 91.240234 257.19727 L 93.84375 250.9043 C 84.084738 246.85588 74.9761 241.55777 66.712891 235.21094 z M 195.02344 235.42383 C 178.79662 244.81476 159.96029 250.19593 139.87109 250.20117 L 139.87305 257.00781 C 161.20984 257.00223 181.20952 251.29572 198.43555 241.33203 L 195.02344 235.42383 z M 155.53906 259.01367 C 150.40114 259.6844 145.16206 260.03516 139.8418 260.03516 C 134.53772 260.03516 129.31626 259.68625 124.19336 259.01953 L 123.30664 265.76367 C 128.71893 266.46697 134.23734 266.83398 139.8418 266.83398 C 145.46453 266.83398 151.00045 266.46368 156.42969 265.75586 L 155.53906 259.01367 z "
       transform="matrix(0.26458333,0,0,0.26458333,-36,0)" />
  </g>
</svg>
